<svg width="80" height="80" viewBox="0 0 80 80" fill="none" xmlns="http://www.w3.org/2000/svg">
<path d="M52.5268 51.0972L52.5298 51.0931C53.5035 49.747 53.9847 48.1757 53.9847 46.4C53.9847 44.7059 53.5309 43.2247 52.6058 41.9815C52.1303 41.3425 51.5491 40.7835 50.8661 40.304C50.6634 40.1617 50.5206 39.8838 50.504 39.5458C50.4873 39.2078 50.602 38.9033 50.7921 38.7286C51.2044 38.3498 51.5614 37.9322 51.8618 37.4758C52.614 36.3468 52.9847 35.049 52.9847 33.6C52.9847 31.9565 52.5295 30.5041 51.6082 29.2647C50.7168 28.0295 49.4478 27.0974 47.8302 26.4557C46.2389 25.8139 44.4001 25.5 42.3247 25.5C40.2743 25.5 38.4486 25.8143 36.8576 26.4563L37.0447 26.92L36.8576 26.4563C35.2652 27.0989 33.9994 28.0309 33.0836 29.2615L33.0835 29.2615L33.0791 29.2676C32.1852 30.5075 31.7447 31.9588 31.7447 33.6C31.7447 35.07 32.0992 36.3686 32.827 37.4748C33.1275 37.9316 33.4847 38.3496 33.8972 38.7287C34.0873 38.9033 34.2021 39.2078 34.1854 39.5458C34.1687 39.8838 34.026 40.1617 33.8233 40.304C33.1402 40.7835 32.5591 41.3425 32.0836 41.9815L32.0835 41.9815L32.0791 41.9876C31.1831 43.2304 30.7447 44.7095 30.7447 46.4C30.7447 48.1757 31.2259 49.747 32.1996 51.0931L32.1996 51.0931L32.2026 51.0972C33.1729 52.41 34.5333 53.4084 36.2577 54.1037L36.2603 54.1047C38.0112 54.7995 40.0361 55.14 42.3247 55.14C44.6391 55.14 46.6776 54.7998 48.4291 54.1047C50.1796 53.4101 51.5551 52.4118 52.5268 51.0972ZM38.1399 30.8835L38.14 30.8836L38.1462 30.8788C39.1251 30.1387 40.4995 29.74 42.3247 29.74C44.149 29.74 45.5399 30.1384 46.5478 30.8823L46.5477 30.8824L46.5586 30.8901C47.5726 31.5975 48.0647 32.5384 48.0647 33.76C48.0647 34.9866 47.5815 35.9278 46.5941 36.6331L46.5941 36.6331L46.5894 36.6365C45.6119 37.3517 44.2099 37.74 42.3247 37.74C40.4695 37.74 39.0807 37.3531 38.1023 36.6382C37.1689 35.9372 36.7047 34.9956 36.7047 33.76C36.7047 32.5284 37.1788 31.5868 38.1399 30.8835ZM47.2757 43.048L47.2757 43.0481L47.2814 43.052C48.4264 43.8392 48.9847 44.8988 48.9847 46.28C48.9847 47.6911 48.423 48.7942 47.2729 49.6339C46.1059 50.4595 44.4739 50.9 42.3247 50.9C40.1747 50.9 38.5589 50.4592 37.4206 49.637C36.2968 48.799 35.7447 47.6955 35.7447 46.28C35.7447 44.8943 36.2936 43.8345 37.412 43.0492L37.412 43.0492L37.4177 43.0451C38.5562 42.2216 40.1729 41.78 42.3247 41.78C44.4756 41.78 46.1085 42.2212 47.2757 43.048ZM25.78 27.32C25.78 26.4916 25.1084 25.82 24.28 25.82H16C15.1716 25.82 14.5 26.4916 14.5 27.32V28.8C14.5 29.6284 15.1716 30.3 16 30.3H20.32C20.5961 30.3 20.82 30.5239 20.82 30.8V53.32C20.82 54.1484 21.4916 54.82 22.32 54.82H24.28C25.1084 54.82 25.78 54.1484 25.78 53.32V27.32ZM74.8269 42.42C75.6553 42.42 76.3269 41.7484 76.3269 40.92V39.76C76.3269 38.9316 75.6553 38.26 74.8269 38.26H69.5469C69.2707 38.26 69.0469 38.0361 69.0469 37.76V32.56C69.0469 31.7316 68.3753 31.06 67.5469 31.06H66.1869C65.3584 31.06 64.6869 31.7316 64.6869 32.56V37.76C64.6869 38.0361 64.463 38.26 64.1869 38.26H58.9069C58.0784 38.26 57.4069 38.9316 57.4069 39.76V40.92C57.4069 41.7484 58.0784 42.42 58.9069 42.42H64.1869C64.463 42.42 64.6869 42.6439 64.6869 42.92V48.08C64.6869 48.9084 65.3584 49.58 66.1869 49.58H67.5469C68.3753 49.58 69.0469 48.9084 69.0469 48.08V42.92C69.0469 42.6439 69.2707 42.42 69.5469 42.42H74.8269Z" fill="#0A0A0A" stroke="#0A0A0A"/>
<path d="M72.0877 54C66.6868 66.3613 54.3522 75 40 75C20.67 75 5 59.33 5 40C5 20.67 20.67 5 40 5C54.3522 5 66.6868 13.6387 72.0877 26" stroke="#0A0A0A" stroke-width="4" stroke-linecap="round" stroke-linejoin="round"/>
</svg>
