<svg width="20" height="20" viewBox="0 0 20 20" fill="none" xmlns="http://www.w3.org/2000/svg">
<path d="M18.7962 1.09195H1.2613C0.597464 1.09195 0.057373 1.6336 0.057373 2.29934V14.4407C0.057373 15.1065 0.597464 15.6481 1.2613 15.6481H7.26984V16.5266C7.26984 17.332 6.61648 17.9872 5.81343 17.9872H4.48923C4.23535 17.9872 4.02949 18.1936 4.02949 18.4483C4.02949 18.7029 4.23535 18.9093 4.48923 18.9093H15.5682C15.8221 18.9093 16.028 18.7029 16.028 18.4483C16.028 18.1936 15.8221 17.9872 15.5682 17.9872H14.244C13.4409 17.9872 12.7876 17.332 12.7876 16.5266V15.6482H18.7961C19.4599 15.6482 20.0001 15.1065 20.0001 14.4408V2.29934C20.0001 1.6336 19.4601 1.09195 18.7962 1.09195ZM7.6886 17.9873C8.002 17.5835 8.18939 17.0768 8.18939 16.5267V15.6482H11.8682V16.5267C11.8682 17.0768 12.0556 17.5836 12.369 17.9873H7.6886ZM19.0807 14.4408C19.0807 14.5981 18.9531 14.7261 18.7962 14.7261H1.2613C1.10445 14.7261 0.976805 14.5981 0.976805 14.4408V12.0176H19.0807V14.4408ZM19.0807 11.0954H0.976844V2.29934C0.976844 2.14203 1.10445 2.01403 1.26134 2.01403H18.7962C18.953 2.01403 19.0807 2.14199 19.0807 2.29934V11.0954H19.0807Z" fill="#333333"/>
<path d="M10.0286 10.4779C10.3026 10.4779 10.5248 10.2551 10.5248 9.98033C10.5248 9.70553 10.3026 9.48275 10.0286 9.48275C9.75461 9.48275 9.53247 9.70553 9.53247 9.98033C9.53247 10.2551 9.75461 10.4779 10.0286 10.4779Z" fill="#333333"/>
<path d="M10.8171 5.64705C10.6375 5.46701 10.3465 5.46701 10.1669 5.64705L6.91785 8.90542C6.73832 9.08545 6.73832 9.37741 6.91785 9.55749C7.00767 9.64753 7.12526 9.69253 7.24297 9.69253C7.36068 9.69253 7.47827 9.64753 7.56805 9.55749L10.8171 6.29912C10.9966 6.11908 10.9966 5.82713 10.8171 5.64705Z" fill="#333333"/>
<path d="M12.7427 7.53529C12.5632 7.35525 12.2722 7.35525 12.0925 7.53525L10.7982 8.83322C10.6187 9.0133 10.6187 9.30526 10.7982 9.4853C10.888 9.57533 11.0056 9.62033 11.1233 9.62033C11.2409 9.62033 11.3586 9.57533 11.4484 9.4853L12.7427 8.18732C12.9222 8.00728 12.9222 7.71533 12.7427 7.53529Z" fill="#333333"/>
</svg>
