<svg width="20" height="20" viewBox="0 0 20 20" fill="none" xmlns="http://www.w3.org/2000/svg">
<path d="M16.9888 1.26437H2.96137C1.3284 1.26437 0 2.59277 0 4.22574C0 5.85871 1.3284 7.18711 2.96137 7.18711H3.23662C3.40868 7.18711 3.54831 7.04747 3.54831 6.87542C3.54831 6.70336 3.40868 6.56373 3.23662 6.56373H2.96137C1.67224 6.56373 0.62347 5.51496 0.62347 4.22583C0.62347 2.9367 1.67224 1.88793 2.96137 1.88793H16.9888C18.2779 1.88793 19.3267 2.9367 19.3267 4.22583C19.3267 5.51496 18.2779 6.56373 16.9888 6.56373H5.15352C4.98146 6.56373 4.84183 6.70336 4.84183 6.87542C4.84183 7.04747 4.98146 7.18711 5.15352 7.18711H16.9888C18.6217 7.18711 19.9501 5.85871 19.9501 4.22574C19.9501 2.59277 18.6216 1.26437 16.9888 1.26437Z" fill="#333333"/>
<path d="M7.49079 8.43394L5.29929 8.15888V5.47257C5.29929 4.87093 4.8097 4.38152 4.20824 4.38152C3.60678 4.38152 3.11719 4.87093 3.11719 5.47257V12.8402C3.11719 13.4642 3.49107 14.0086 4.05235 14.2392V18.409C4.05235 18.5811 4.19198 18.7207 4.36404 18.7207H8.41646C8.58851 18.7207 8.72815 18.5811 8.72815 18.409V14.2392C9.28942 14.0085 9.6633 13.4641 9.6633 12.8402V10.6268C9.6633 9.42426 8.69061 8.44481 7.49079 8.43394ZM9.03993 12.8402C9.03993 13.2576 8.75481 13.6147 8.34678 13.7084C8.20513 13.7408 8.10477 13.8669 8.10477 14.0121V18.0972H4.67582V14.0121C4.67582 13.8668 4.57545 13.7408 4.43381 13.7084C4.02577 13.6147 3.74066 13.2578 3.74066 12.8402V5.47257C3.74066 5.21477 3.95043 5.00499 4.20824 5.00499C4.46605 5.00499 4.67582 5.21477 4.67582 5.47257V8.43394C4.67582 8.59102 4.79271 8.72371 4.94869 8.74317L7.43171 9.05486C7.44468 9.05659 7.45755 9.05732 7.47052 9.05732C8.33582 9.05732 9.03984 9.76134 9.03984 10.6268V12.8402H9.03993Z" fill="#333333"/>
<path d="M4.98746 8.12225C4.81541 8.12225 4.67578 8.26189 4.67578 8.43394V9.99257C4.67578 10.1646 4.81541 10.3043 4.98746 10.3043C5.15952 10.3043 5.29916 10.1646 5.29916 9.99257V8.43394C5.29925 8.26189 5.15952 8.12225 4.98746 8.12225Z" fill="#333333"/>
<path d="M6.23454 8.43394C6.06249 8.43394 5.92285 8.57357 5.92285 8.74563V9.68079C5.92285 9.85284 6.06249 9.99248 6.23454 9.99248C6.4066 9.99248 6.54623 9.85284 6.54623 9.68079V8.74563C6.54623 8.57357 6.4066 8.43394 6.23454 8.43394Z" fill="#333333"/>
<path d="M7.48112 8.43394C7.30907 8.43394 7.16943 8.57357 7.16943 8.74563V9.68079C7.16943 9.85284 7.30907 9.99248 7.48112 9.99248C7.65318 9.99248 7.79281 9.85284 7.79281 9.68079V8.74563C7.79281 8.57357 7.65318 8.43394 7.48112 8.43394Z" fill="#333333"/>
<path d="M13.1299 8.96609L12.2483 8.08436C12.1266 7.96262 11.9293 7.96281 11.8076 8.08436C11.6859 8.20628 11.6859 8.40354 11.8076 8.52527L12.6892 9.40701C12.7501 9.46792 12.8297 9.49833 12.9095 9.49833C12.9893 9.49833 13.0692 9.46783 13.1299 9.40701C13.2516 9.28509 13.2516 9.08774 13.1299 8.96609Z" fill="#333333"/>
<path d="M13.1299 8.08453C13.0082 7.96279 12.8108 7.96279 12.6892 8.08453L11.8076 8.96626C11.6859 9.08818 11.6859 9.28544 11.8076 9.40718C11.8685 9.468 11.9482 9.49832 12.028 9.49832C12.1078 9.49832 12.1874 9.46782 12.2483 9.40718L13.1299 8.52544C13.2516 8.40352 13.2516 8.20626 13.1299 8.08453Z" fill="#333333"/>
<path d="M16.2473 12.0833L15.3658 11.2015C15.244 11.0798 15.0467 11.08 14.925 11.2015C14.8033 11.3234 14.8033 11.5207 14.925 11.6424L15.8066 12.5242C15.8675 12.5851 15.9471 12.6155 16.027 12.6155C16.1068 12.6155 16.1866 12.5849 16.2473 12.5242C16.3691 12.4023 16.3691 12.205 16.2473 12.0833Z" fill="#333333"/>
<path d="M16.2473 11.2017C16.1256 11.08 15.9282 11.08 15.8066 11.2017L14.925 12.0834C14.8033 12.2054 14.8033 12.4026 14.925 12.5244C14.986 12.5852 15.0656 12.6155 15.1454 12.6155C15.2252 12.6155 15.3049 12.5849 15.3658 12.5244L16.2473 11.6426C16.3691 11.5208 16.3691 11.3234 16.2473 11.2017Z" fill="#333333"/>
<path d="M2.78945 4.11669C2.77696 4.11584 2.76447 4.11541 2.75199 4.11541C2.7279 4.11541 2.69044 4.11584 2.63959 4.11669H2.52586C2.50801 4.11842 2.49865 4.12787 2.49776 4.14507V4.57575C2.49865 4.59208 2.50757 4.60155 2.52452 4.60412H2.75199C2.76447 4.60412 2.77696 4.60369 2.78945 4.60283C2.8742 4.59853 2.94243 4.5779 2.99417 4.54094C3.05216 4.49882 3.08115 4.43864 3.08115 4.36041C3.08115 4.32946 3.07802 4.29938 3.07178 4.27015C3.06375 4.24091 3.0477 4.21513 3.02362 4.19277C3.00041 4.16871 2.96742 4.15022 2.9246 4.13733C2.8907 4.1253 2.84565 4.11842 2.78945 4.11669ZM3.26045 3.03998C3.31218 3.03998 3.35678 3.05802 3.39426 3.09414C3.43172 3.13024 3.45044 3.17322 3.45044 3.22308C3.45044 3.2738 3.43172 3.31678 3.39426 3.35203C3.35678 3.38813 3.31218 3.40619 3.26045 3.40619H2.52586C2.50801 3.40876 2.49865 3.41866 2.49776 3.43584V3.73244C2.49865 3.74876 2.50801 3.75822 2.52586 3.7608H2.82692C2.94645 3.7608 3.0535 3.7694 3.14805 3.78658C3.24171 3.80292 3.32601 3.83989 3.40094 3.89749C3.46963 3.94821 3.51958 4.01225 3.5508 4.08961C3.58292 4.16699 3.59897 4.25252 3.59897 4.34623C3.59897 4.43993 3.58025 4.5259 3.54277 4.60412C3.50531 4.68407 3.45446 4.74854 3.39024 4.79754C3.31441 4.85686 3.2319 4.89899 3.14269 4.92392C3.05439 4.94799 2.94645 4.96002 2.81889 4.96002H2.24085C2.17394 4.95917 2.11685 4.93682 2.06958 4.89297C2.02319 4.84913 2 4.79497 2 4.7305V3.2695C2 3.20503 2.02319 3.15087 2.06958 3.10703C2.11685 3.06318 2.17394 3.04083 2.24085 3.03998H3.26045ZM4.39645 4.10896C4.37951 4.10982 4.36969 4.11885 4.36702 4.13604V4.56286C4.36702 4.58349 4.37772 4.59381 4.39912 4.59381H5.02667C5.07842 4.59381 5.12302 4.61186 5.16048 4.64797C5.19794 4.68407 5.21668 4.72705 5.21668 4.77691C5.21668 4.8285 5.19794 4.87148 5.16048 4.90586C5.12302 4.94197 5.07842 4.96002 5.02667 4.96002H4.10743C4.04142 4.96002 3.98522 4.93725 3.93884 4.89168C3.89245 4.84698 3.86926 4.79282 3.86926 4.7292V3.27337C3.86926 3.20976 3.89245 3.15517 3.93884 3.10961C3.98522 3.0649 4.04142 3.04169 4.10743 3.03998H5.02667C5.07842 3.03998 5.12302 3.05802 5.16048 3.09414C5.19794 3.13024 5.21668 3.17322 5.21668 3.22308C5.21668 3.2738 5.19794 3.31678 5.16048 3.35203C5.12302 3.38813 5.07842 3.40619 5.02667 3.40619H4.39912C4.37951 3.40619 4.3688 3.41564 4.36702 3.43456V3.71438C4.3688 3.73329 4.37951 3.74275 4.39912 3.74275H4.95977C5.0124 3.74275 5.05745 3.7608 5.09492 3.79691C5.13149 3.83301 5.14978 3.87599 5.14978 3.92586C5.14978 3.97743 5.13149 4.02084 5.09492 4.0561C5.05745 4.09134 5.0124 4.10896 4.95977 4.10896H4.39645ZM6.91333 3.10445C7.00253 3.14657 7.04713 3.20632 7.04713 3.28368C7.04713 3.33699 7.02796 3.38212 6.98959 3.41908C6.95124 3.45519 6.90485 3.47324 6.85044 3.47324C6.821 3.47324 6.78532 3.46335 6.7434 3.44359C6.66401 3.41092 6.62431 3.39415 6.62431 3.39329H6.62564C6.57034 3.37352 6.51235 3.36364 6.4517 3.36364C6.37945 3.36364 6.31298 3.37482 6.25233 3.39717C6.19168 3.41951 6.13413 3.45734 6.07972 3.51063C6.03066 3.56049 5.98962 3.62669 5.95662 3.70922C5.9254 3.79346 5.90979 3.89233 5.90979 4.0058C5.90979 4.12443 5.92629 4.22458 5.9593 4.30625C5.9932 4.38792 6.03646 4.45368 6.08909 4.50355C6.14082 4.55169 6.1988 4.58651 6.26304 4.608C6.32636 4.62949 6.39014 4.64024 6.45437 4.64024C6.52039 4.64024 6.58282 4.62949 6.64171 4.608C6.68184 4.59424 6.71752 4.57963 6.74875 4.56415C6.7871 4.54351 6.82234 4.5332 6.85445 4.5332C6.90798 4.5332 6.95302 4.55126 6.98959 4.58736C7.02707 4.62261 7.04579 4.66602 7.04579 4.7176C7.04579 4.78293 7.00164 4.84182 6.91333 4.89426C6.86605 4.91403 6.81832 4.9308 6.77016 4.94455C6.7095 4.9626 6.65062 4.97635 6.59353 4.98582C6.53912 4.99527 6.46419 5 6.36874 5C6.0699 5 5.83262 4.91317 5.6569 4.73952C5.48117 4.56502 5.3933 4.32001 5.3933 4.00451C5.3933 3.69934 5.48161 3.45648 5.65824 3.27595C5.83396 3.09457 6.07125 3.00387 6.37007 3.00387C6.44947 3.00387 6.52083 3.00816 6.58416 3.01676C6.65018 3.02536 6.71128 3.03739 6.76748 3.05287C6.81298 3.06577 6.86158 3.08296 6.91333 3.10445ZM7.29601 3.2695C7.29601 3.20589 7.31965 3.15173 7.36692 3.10703C7.41332 3.06318 7.46996 3.04083 7.53686 3.03998H8.73842C8.80176 3.03998 8.85796 3.06533 8.90702 3.11606C8.95429 3.1642 8.97793 3.21534 8.97793 3.2695V4.7305C8.97793 4.78465 8.95475 4.8358 8.90839 4.88394C8.85841 4.93466 8.80176 4.96002 8.73842 4.96002H8.71702C8.65012 4.95917 8.59347 4.93682 8.54709 4.89297C8.49981 4.84827 8.47617 4.79411 8.47617 4.7305V3.4294C8.47171 3.41392 8.4619 3.40619 8.44674 3.40619H8.13764C8.00116 3.40533 7.89858 3.4049 7.82989 3.4049C7.80848 3.4049 7.79778 3.41564 7.79778 3.43714V4.7305C7.79778 4.78465 7.77458 4.8358 7.7282 4.88394C7.67825 4.93466 7.6216 4.96002 7.55827 4.96002H7.53686C7.46996 4.95917 7.41332 4.93682 7.36692 4.89297C7.31965 4.84827 7.29601 4.79411 7.29601 4.7305V3.2695ZM9.63492 4.27917V3.2695C9.63492 3.20675 9.65902 3.15259 9.7072 3.10703C9.75356 3.06318 9.81019 3.04083 9.8771 3.03998H10.8806C10.9475 3.04083 11.0042 3.06318 11.0505 3.10703C11.0987 3.15259 11.1228 3.20675 11.1228 3.2695V4.7305C11.1228 4.78552 11.0996 4.83666 11.0533 4.88394C11.0033 4.93466 10.9466 4.96002 10.8834 4.96002H10.8593C10.7933 4.96002 10.7365 4.93768 10.6893 4.89297C10.642 4.84827 10.6184 4.79411 10.6184 4.7305L10.6237 3.45519C10.6237 3.43627 10.6139 3.42682 10.5943 3.42682H10.1742C10.1581 3.42682 10.1487 3.43413 10.1461 3.44874L10.1394 4.27144C10.1385 4.37976 10.1265 4.47474 10.1033 4.55641C10.08 4.64067 10.0439 4.71287 9.99482 4.77305C9.94664 4.83323 9.88509 4.87921 9.81019 4.91102C9.73529 4.94369 9.64782 4.96002 9.54792 4.96002C9.49973 4.96002 9.46274 4.95917 9.43693 4.95745C9.38521 4.95486 9.33965 4.93552 9.30037 4.89942C9.25584 4.85901 9.23347 4.8126 9.23347 4.76015V4.73952C9.23347 4.6845 9.25356 4.63765 9.29375 4.59897C9.33383 4.56028 9.38201 4.54094 9.43819 4.54094C9.49265 4.53751 9.53148 4.5289 9.55465 4.51515C9.5832 4.4971 9.60375 4.46916 9.6162 4.43133C9.62864 4.39351 9.63492 4.34279 9.63492 4.27917ZM12.2253 3.61508C12.2201 3.61508 12.2164 3.61767 12.2147 3.62283L12.0353 4.17859C12.0345 4.18203 12.0341 4.18547 12.0341 4.18891C12.0341 4.19665 12.0363 4.20309 12.0407 4.20825C12.0461 4.21599 12.0545 4.21985 12.0662 4.21985H12.386C12.3975 4.21899 12.4061 4.21427 12.4113 4.20567C12.4158 4.19965 12.4181 4.1932 12.4181 4.18634C12.4181 4.18461 12.4176 4.18246 12.4167 4.17989L12.2374 3.62412C12.2348 3.6181 12.2307 3.61508 12.2253 3.61508ZM11.9377 4.56673C11.9297 4.56673 11.9234 4.56845 11.919 4.57189C11.9136 4.57618 11.9096 4.58177 11.9069 4.58865L11.8481 4.78079C11.8097 4.89942 11.7325 4.95874 11.6165 4.95874C11.555 4.95874 11.5006 4.93639 11.4534 4.89168C11.4052 4.84698 11.3811 4.79368 11.3811 4.73179C11.3811 4.70256 11.3864 4.67461 11.3972 4.64797L11.9069 3.19213C11.9239 3.14743 11.9529 3.11132 11.9939 3.08381C12.035 3.05545 12.0809 3.04126 12.1317 3.04126L12.2253 3.03998H12.3324C12.3842 3.03998 12.431 3.05459 12.4729 3.08381C12.514 3.11218 12.543 3.14958 12.5599 3.19601L13.0723 4.66216C13.0795 4.68365 13.0831 4.70556 13.0831 4.72791C13.0831 4.79154 13.0594 4.84611 13.0122 4.89168C12.9649 4.93725 12.9078 4.96002 12.8409 4.96002C12.7856 4.96002 12.7365 4.94284 12.6937 4.90844C12.6527 4.87578 12.6233 4.8328 12.6054 4.7795L12.5452 4.58994C12.5434 4.5822 12.5398 4.57661 12.5345 4.57318C12.5283 4.56888 12.5215 4.56673 12.5144 4.56673H11.9377ZM14.6619 3.03998C14.7146 3.03998 14.7592 3.05802 14.7958 3.09414C14.8332 3.12938 14.8519 3.17236 14.8519 3.22308C14.8519 3.2738 14.8332 3.31678 14.7958 3.35203C14.7592 3.38813 14.7146 3.40619 14.6619 3.40619H14.2927C14.2758 3.40705 14.266 3.41564 14.2632 3.43198V4.74468C14.2632 4.7954 14.2405 4.84311 14.1949 4.88782C14.146 4.93595 14.0906 4.96002 14.029 4.96002H13.9983C13.9332 4.95917 13.8779 4.9381 13.8324 4.89684C13.786 4.85558 13.7628 4.80485 13.7628 4.74468V3.43714C13.7628 3.41651 13.7522 3.40619 13.7307 3.40619H13.3641C13.3114 3.40619 13.2669 3.38813 13.2302 3.35203C13.1928 3.31678 13.1741 3.2738 13.1741 3.22308C13.1741 3.17236 13.1928 3.12938 13.2302 3.09414C13.2669 3.05802 13.3114 3.03998 13.3641 3.03998H14.6619ZM15.1022 3.2695C15.1022 3.20589 15.1259 3.15173 15.1731 3.10703C15.2195 3.06318 15.2761 3.04083 15.343 3.03998H15.3645C15.4278 3.03998 15.484 3.06533 15.533 3.11606C15.5795 3.1642 15.6027 3.21534 15.6027 3.2695V3.71309C15.6035 3.73028 15.6128 3.74017 15.6308 3.74275H16.2516C16.2694 3.74275 16.2797 3.73372 16.2824 3.71567V3.27079C16.2824 3.20718 16.306 3.15302 16.3533 3.10832C16.4006 3.06447 16.4577 3.04212 16.5246 3.04126L16.5447 3.03998C16.6079 3.03998 16.6642 3.06533 16.7132 3.11606C16.7605 3.1642 16.7841 3.21534 16.7841 3.2695V4.7305C16.7841 4.78465 16.7609 4.8358 16.7146 4.88394C16.6646 4.93466 16.6079 4.96002 16.5447 4.96002H16.5232C16.4563 4.95917 16.3997 4.93682 16.3533 4.89297C16.306 4.84827 16.2824 4.79411 16.2824 4.7305V4.13346C16.2779 4.11799 16.2681 4.11025 16.2529 4.11025L15.6361 4.10896C15.6147 4.10896 15.6039 4.11928 15.6039 4.13991V4.43649C15.6048 4.49667 15.6053 4.55126 15.6053 4.60026C15.6053 4.64926 15.6048 4.69267 15.6039 4.7305C15.6039 4.78465 15.5808 4.8358 15.5344 4.88394C15.4844 4.93466 15.4278 4.96002 15.3645 4.96002H15.343C15.2761 4.95917 15.2195 4.93682 15.1731 4.89297C15.1259 4.84827 15.1022 4.79411 15.1022 4.7305V3.2695ZM18.4486 4.29078C18.4719 4.21771 18.4834 4.12057 18.4834 3.99935C18.4834 3.88416 18.471 3.78701 18.446 3.70793C18.4219 3.62712 18.3894 3.56093 18.3484 3.50935C18.3054 3.45605 18.2569 3.41866 18.2024 3.39717C18.1489 3.37395 18.0932 3.36235 18.0352 3.36235C17.9736 3.36235 17.9179 3.37266 17.8679 3.39329C17.8171 3.41478 17.7689 3.45261 17.7235 3.50677C17.6824 3.55663 17.6494 3.62283 17.6245 3.70536C17.5985 3.78788 17.5856 3.88631 17.5856 4.00064C17.5856 4.11842 17.5976 4.21642 17.6217 4.29464C17.6458 4.37201 17.6788 4.43692 17.7207 4.48936C17.7645 4.54351 17.8131 4.58134 17.8666 4.60283C17.921 4.62604 17.9773 4.63765 18.0352 4.63765C18.0941 4.63765 18.1512 4.62518 18.2064 4.60026C18.2618 4.57704 18.3096 4.53922 18.3496 4.48678C18.3924 4.4309 18.4254 4.36557 18.4486 4.29078ZM18.7417 3.26693C18.9139 3.44574 19 3.6903 19 4.00064C19 4.31098 18.9139 4.55512 18.7417 4.73307C18.5695 4.91102 18.3336 5 18.0339 5C17.7333 5 17.4973 4.90974 17.326 4.7292C17.1547 4.54953 17.0691 4.30668 17.0691 4.00064C17.0691 3.69203 17.1547 3.44788 17.326 3.26821C17.4973 3.0894 17.7337 3 18.0352 3C18.334 3 18.5695 3.08898 18.7417 3.26693Z" fill="#333333"/>
</svg>
