<svg width="20" height="20" viewBox="0 0 20 20" fill="none" xmlns="http://www.w3.org/2000/svg">
<path d="M7.72655 3.79765H1.21715C0.546037 3.79765 0 4.33131 0 4.98817V17.5804C0 18.237 0.546037 18.7709 1.21715 18.7709H7.72655C8.39767 18.7709 8.9437 18.2372 8.9437 17.5804V4.9879C8.9437 4.33131 8.39767 3.79765 7.72655 3.79765ZM8.13675 17.5804C8.13675 17.7921 7.95277 17.9639 7.72655 17.9639H1.21715C0.990935 17.9639 0.806951 17.7921 0.806951 17.5804V15.6776H8.13675V17.5804ZM8.13675 14.8706H0.806951V6.30834H8.13675V14.8706ZM8.13675 5.50139H0.806951V4.98817C0.806951 4.77648 0.990935 4.6046 1.21715 4.6046H7.72655C7.95277 4.6046 8.13675 4.77648 8.13675 4.98817V5.50139Z" fill="#333333"/>
<path d="M4.47185 17.5384C4.92687 17.5384 5.29574 17.1695 5.29574 16.7145C5.29574 16.2595 4.92687 15.8906 4.47185 15.8906C4.01682 15.8906 3.64795 16.2595 3.64795 16.7145C3.64795 17.1695 4.01682 17.5384 4.47185 17.5384Z" fill="#333333"/>
<path d="M18.6996 1.26437H6.59592C5.87881 1.26437 5.29565 1.84806 5.29565 2.56517V3.52813H6.37159V2.56517C6.37159 2.44117 6.47246 2.3403 6.59592 2.3403H18.6996C18.8236 2.3403 18.924 2.44117 18.924 2.56517V10.3646C18.924 10.4886 18.8231 10.5895 18.6996 10.5895H9.33821V11.6654H12.1101V12.1361H10.5298C10.2328 12.1361 9.99184 12.3772 9.99184 12.6741C9.99184 12.9705 10.2331 13.2121 10.5298 13.2121H14.7327C15.0291 13.2121 15.2706 12.9705 15.2706 12.6741C15.2706 12.3772 15.0291 12.1361 14.7327 12.1361H13.186V11.6654H18.6996C19.4168 11.6654 19.9999 11.0817 19.9999 10.3646V2.5649C19.9999 1.84779 19.4165 1.26437 18.6996 1.26437Z" fill="#333333"/>
</svg>
