<svg width="20" height="20" viewBox="0 0 20 20" fill="none" xmlns="http://www.w3.org/2000/svg">
<path d="M16.5751 2.87357H3.78402C3.02618 2.87357 2.40991 3.49064 2.40991 4.24875V5.26677H3.54695V4.24875C3.54695 4.11766 3.65354 4.01103 3.78402 4.01103H16.5751C16.7061 4.01103 16.8121 4.11766 16.8121 4.24875V12.4941C16.8121 12.6252 16.7055 12.7319 16.5751 12.7319H6.68203V13.8693H9.61131V14.367H7.94129C7.62747 14.367 7.37278 14.6218 7.37278 14.9357C7.37278 15.2491 7.62776 15.5044 7.94129 15.5044H12.3828C12.6961 15.5044 12.9513 15.2491 12.9513 14.9357C12.9513 14.6218 12.6961 14.367 12.3828 14.367H10.7483V13.8693H16.5751C17.3329 13.8693 17.9492 13.2523 17.9492 12.4941V4.24847C17.9492 3.49036 17.3326 2.87357 16.5751 2.87357Z" fill="#333333"/>
<rect x="0.000488281" y="16.6024" width="11.6098" height="7.42833" rx="2" transform="rotate(-90 0.000488281 16.6024)" fill="white"/>
<path d="M6.39837 5.01625L1.00792 5.01625C0.452174 5.01625 0 5.42919 0 5.93747L0 15.6812C0 16.1893 0.452174 16.6024 1.00792 16.6024H6.39837C6.95412 16.6024 7.40629 16.1895 7.40629 15.6812L7.40629 5.93726C7.40629 5.42919 6.95412 5.01625 6.39837 5.01625ZM6.73805 15.6812C6.73805 15.845 6.5857 15.978 6.39837 15.978L1.00792 15.978C0.820595 15.978 0.668237 15.845 0.668237 15.6812L0.668237 14.2088L6.73805 14.2088L6.73805 15.6812ZM6.73805 13.5844L0.668237 13.5844L0.668237 6.959L6.73805 6.959L6.73805 13.5844ZM6.73805 6.33459L0.668237 6.33459L0.668237 5.93747C0.668237 5.77366 0.820595 5.64066 1.00792 5.64066L6.39837 5.64066C6.5857 5.64066 6.73805 5.77366 6.73805 5.93747V6.33459Z" fill="#333333"/>
<path d="M3.76819 15.6251C4.06705 15.6251 4.30932 15.3828 4.30932 15.084C4.30932 14.7851 4.06705 14.5428 3.76819 14.5428C3.46933 14.5428 3.22705 14.7851 3.22705 15.084C3.22705 15.3828 3.46933 15.6251 3.76819 15.6251Z" fill="#333333"/>
<rect x="11.51" y="11.9728" width="8.47596" height="5.11051" fill="white"/>
<path d="M19.979 16.3825L19.9967 12.7018C19.9985 12.3223 19.6982 12.0121 19.3268 12.0103L12.2066 11.976C11.8353 11.9742 11.5319 12.2815 11.5301 12.661L11.5123 16.3417C11.5105 16.7212 11.8108 17.0314 12.1822 17.0332L19.3026 17.0675C19.6739 17.0693 19.9771 16.762 19.979 16.3825ZM12.1844 16.5769C12.0647 16.5764 11.968 16.4719 11.9686 16.3439L11.9864 12.6632C11.987 12.5353 12.0847 12.4317 12.2044 12.4323L13.2803 12.4375L13.2603 16.5821L12.1844 16.5769ZM13.7166 16.5843L13.7366 12.4397L18.5781 12.463L18.5582 16.6076L13.7166 16.5843ZM19.0145 16.6098L19.0344 12.4652L19.3246 12.4666C19.4443 12.4672 19.541 12.5717 19.5404 12.6996L19.5227 16.3803C19.5221 16.5082 19.4244 16.6118 19.3047 16.6112L19.0145 16.6098Z" fill="#333333"/>
<path d="M12.2181 14.5047C12.2169 14.762 12.4244 14.9716 12.6817 14.9728C12.939 14.9741 13.1486 14.7665 13.1499 14.5092C13.1511 14.2519 12.9435 14.0423 12.6862 14.0411C12.4289 14.0398 12.2193 14.2474 12.2181 14.5047Z" fill="#333333"/>
<path d="M10.7269 10.4023C10.6646 10.4023 10.6023 10.3788 10.5549 10.3315L9.0945 8.88322C8.99942 8.78887 8.99942 8.636 9.0945 8.54171C9.18958 8.44742 9.34373 8.44742 9.43881 8.54171L10.7272 9.81947L14.1248 6.45004C14.2199 6.35575 14.374 6.35575 14.4691 6.45004C14.5642 6.54433 14.5642 6.6972 14.4691 6.79149L10.8992 10.3318C10.8515 10.3788 10.7892 10.4023 10.7269 10.4023Z" fill="#333333"/>
</svg>
