<svg width="20" height="20" viewBox="0 0 20 20" fill="none" xmlns="http://www.w3.org/2000/svg">
<path d="M12.8253 1.39711L6.04047 3.17341C5.54925 3.30201 5.25464 3.80561 5.38324 4.29682L8.76706 17.2218C8.89566 17.713 9.39926 18.0076 9.89047 17.879L16.6753 16.1027C17.1665 15.9741 17.4611 15.4705 17.3325 14.9793L13.9487 2.05434C13.8201 1.56312 13.3165 1.2685 12.8253 1.39711ZM16.6798 15.1174C16.72 15.2709 16.6293 15.4258 16.4758 15.466L9.69096 17.2423C9.53746 17.2825 9.38253 17.1919 9.34234 17.0384L5.95852 4.1134C5.91833 3.9599 6.00896 3.80493 6.16247 3.76474L12.9473 1.98844C13.1008 1.94825 13.2558 2.03888 13.296 2.19242L16.6798 15.1174Z" fill="#333333"/>
<path d="M16.4051 12.5649L8.57642 14.6145L8.73717 15.2285L16.5658 13.1789L16.4051 12.5649Z" fill="#333333"/>
<path d="M14.0437 3.66977L6.06152 5.75954L6.22227 6.37354L14.2044 4.28377L14.0437 3.66977Z" fill="#333333"/>
<path d="M12.6244 14.5388C12.1946 14.6513 11.9453 15.0775 12.0579 15.5072C12.1704 15.9371 12.5965 16.1863 13.0263 16.0738C13.4561 15.9613 13.7054 15.5352 13.5929 15.1054C13.4804 14.6756 13.0543 14.4263 12.6244 14.5388ZM12.8656 15.4598C12.7735 15.484 12.696 15.4386 12.6719 15.3465C12.6478 15.2544 12.6931 15.177 12.7852 15.1528C12.8773 15.1287 12.9548 15.174 12.9789 15.2661C13.003 15.3583 12.9577 15.4357 12.8656 15.4598Z" fill="#333333"/>
<path d="M11.2659 3.08471L8.1958 3.88847L8.35655 4.50248L11.4266 3.69871L11.2659 3.08471Z" fill="#333333"/>
<path d="M6.2655 10.2987L4.11646 10.8614L4.2772 11.4754L6.42625 10.9127L6.2655 10.2987Z" fill="#333333"/>
<path d="M5.61384 9.81333C5.46407 9.72571 5.27163 9.77609 5.18402 9.92586C5.0964 10.0756 5.14678 10.2681 5.29654 10.3557L5.47086 10.4577C5.71689 10.6016 5.79966 10.9177 5.65572 11.1638L5.55374 11.3381C5.46612 11.4878 5.51651 11.6803 5.66627 11.7679C5.81604 11.8555 6.00847 11.8051 6.09609 11.6554L6.35671 11.2099C6.58825 10.8141 6.45511 10.3055 6.05932 10.074L5.61384 9.81333Z" fill="#333333"/>
</svg>
