<svg width="133" height="38" viewBox="0 0 133 38" fill="none" xmlns="http://www.w3.org/2000/svg">
<path d="M9.3076 37.998C8.96653 37.998 8.63371 37.9941 8.29532 37.9874C7.59432 37.9793 6.89495 37.9251 6.20296 37.8254C5.55772 37.7267 4.93265 37.5433 4.34837 37.2811C3.76945 37.021 3.24144 36.68 2.78454 36.2712C2.32103 35.8671 1.93514 35.3985 1.64216 34.8839C1.34595 34.3659 1.14095 33.8107 1.03431 33.2376C0.919154 32.6218 0.856847 31.9991 0.847931 31.3749C0.840834 31.1654 0.831543 30.4679 0.831543 30.4679V7.51947C0.831543 7.51947 0.841439 6.83262 0.847987 6.63083C0.856524 6.00764 0.918469 5.38594 1.03329 4.77109C1.14012 4.19642 1.34528 3.63961 1.64165 3.11994C1.93355 2.60566 2.3173 2.13669 2.77802 1.7312C3.23821 1.32186 3.76792 0.979111 4.34782 0.715465C4.93076 0.454082 5.55465 0.271929 6.19859 0.175109C6.89285 0.0743431 7.59464 0.0198644 8.29807 0.0121296L9.30815 0H124.349L125.372 0.0126164C126.069 0.0199668 126.764 0.0739595 127.452 0.174135C128.102 0.27217 128.733 0.455594 129.322 0.718376C130.484 1.2497 131.429 2.0903 132.026 3.12236C132.317 3.63845 132.519 4.19072 132.625 4.76042C132.741 5.38031 132.806 6.0069 132.819 6.6352C132.823 6.91653 132.823 7.21873 132.823 7.51947C132.832 7.892 132.832 8.24658 132.832 8.60407V29.3949C132.832 29.7558 132.832 30.1079 132.823 30.463C132.823 30.786 132.823 31.082 132.818 31.3866C132.805 32.0036 132.741 32.619 132.627 33.2278C132.523 33.8051 132.319 34.3646 132.023 34.8868C131.727 35.3959 131.344 35.8605 130.886 36.2634C130.428 36.6745 129.899 37.0175 129.319 37.2792C128.731 37.5434 128.102 37.7275 127.452 37.8254C126.76 37.9257 126.061 37.9798 125.36 37.9874C125.032 37.9941 124.688 37.998 124.355 37.998L123.141 38L9.3076 37.998Z" fill="black"/>
<path d="M26.5964 18.4542C26.6067 17.6612 26.8179 16.8838 27.2104 16.1941C27.6029 15.5045 28.164 14.925 28.8414 14.5097C28.4111 13.8968 27.8433 13.3924 27.1833 13.0366C26.5233 12.6808 25.7891 12.4833 25.0392 12.4599C23.4394 12.2925 21.8885 13.4145 21.0733 13.4145C20.2424 13.4145 18.9872 12.4765 17.6356 12.5043C16.7614 12.5324 15.9094 12.7859 15.1626 13.2401C14.4158 13.6943 13.7998 14.3336 13.3744 15.0957C11.532 18.2767 12.9063 22.9517 14.6712 25.523C15.5542 26.7821 16.5862 28.1885 17.9366 28.1386C19.258 28.084 19.7515 27.2984 21.3466 27.2984C22.9268 27.2984 23.3898 28.1386 24.7676 28.1069C26.1855 28.084 27.0789 26.8423 27.9309 25.5713C28.5654 24.6741 29.0536 23.6826 29.3775 22.6334C28.5537 22.2859 27.8507 21.7044 27.3562 20.9612C26.8616 20.218 26.5974 19.3461 26.5964 18.4542Z" fill="white"/>
<path d="M23.9943 10.769C24.7674 9.84347 25.1483 8.6539 25.056 7.45288C23.8749 7.57659 22.7838 8.13952 22.0003 9.02951C21.6172 9.46429 21.3237 9.97011 21.1368 10.518C20.9498 11.066 20.873 11.6453 20.9107 12.2228C21.5015 12.2289 22.0859 12.1012 22.6201 11.8494C23.1542 11.5975 23.6241 11.2281 23.9943 10.769Z" fill="white"/>
<path d="M50.3001 24.9515H45.7908L44.7078 28.1401H42.7979L47.069 16.343H49.0535L53.3246 28.1401H51.3821L50.3001 24.9515ZM46.2578 23.4801H49.8322L48.0701 18.3052H48.0208L46.2578 23.4801Z" fill="white"/>
<path d="M62.549 23.8401C62.549 26.5129 61.1144 28.2301 58.9495 28.2301C58.4011 28.2587 57.8557 28.1327 57.3758 27.8666C56.8958 27.6005 56.5007 27.2049 56.2357 26.7253H56.1947V30.9855H54.4243V19.5391H56.138V20.9697H56.1706C56.4478 20.4923 56.8495 20.0988 57.3331 19.8311C57.8167 19.5633 58.3641 19.4313 58.9169 19.4491C61.106 19.4491 62.549 21.1747 62.549 23.8401ZM60.7292 23.8401C60.7292 22.0987 59.8268 20.9539 58.4499 20.9539C57.0972 20.9539 56.1873 22.1228 56.1873 23.8401C56.1873 25.5731 57.0972 26.7337 58.4499 26.7337C59.8268 26.7337 60.7292 25.5972 60.7292 23.8401Z" fill="white"/>
<path d="M72.0422 23.8401C72.0422 26.5129 70.6076 28.2301 68.4427 28.2301C67.8943 28.2587 67.3489 28.1327 66.8689 27.8666C66.389 27.6005 65.9939 27.2049 65.7289 26.7253H65.6879V30.9855H63.9175V19.5391H65.6312V20.9696H65.6637C65.9409 20.4923 66.3427 20.0988 66.8263 19.8311C67.3099 19.5633 67.8572 19.4313 68.4101 19.4491C70.5992 19.4491 72.0422 21.1747 72.0422 23.8401ZM70.2224 23.8401C70.2224 22.0987 69.32 20.9539 67.9431 20.9539C66.5904 20.9539 65.6805 22.1228 65.6805 23.8401C65.6805 25.5731 66.5904 26.7337 67.9431 26.7337C69.32 26.7337 70.2224 25.5972 70.2224 23.8401H70.2224Z" fill="white"/>
<path d="M78.3162 24.8531C78.4474 26.023 79.5871 26.7911 81.1445 26.7911C82.6367 26.7911 83.7103 26.0229 83.7103 24.9681C83.7103 24.0524 83.0628 23.5041 81.5296 23.1284L79.9964 22.7601C77.8241 22.2368 76.8156 21.2237 76.8156 19.5798C76.8156 17.5443 78.5944 16.1462 81.1203 16.1462C83.6201 16.1462 85.3338 17.5443 85.3915 19.5798H83.6043C83.4973 18.4025 82.5213 17.6919 81.0951 17.6919C79.6689 17.6919 78.693 18.4108 78.693 19.4573C78.693 20.2914 79.3163 20.7821 80.8411 21.1578L82.1445 21.477C84.5718 22.0494 85.5803 23.0217 85.5803 24.7472C85.5803 26.9543 83.8173 28.3366 81.0133 28.3366C78.3897 28.3366 76.6183 26.9868 76.5039 24.853L78.3162 24.8531Z" fill="white"/>
<path d="M89.4015 17.5037V19.5391H91.0417V20.9372H89.4015V25.6789C89.4015 26.4155 89.73 26.7587 90.451 26.7587C90.6457 26.7554 90.8401 26.7417 91.0334 26.7179V28.1076C90.7092 28.168 90.3797 28.1954 90.05 28.1893C88.3038 28.1893 87.6227 27.5352 87.6227 25.8672V20.9372H86.3687V19.5391H87.6227V17.5037H89.4015Z" fill="white"/>
<path d="M91.9912 23.8401C91.9912 21.1339 93.5895 19.4333 96.0819 19.4333C98.5827 19.4333 100.174 21.1338 100.174 23.8401C100.174 26.5537 98.591 28.2468 96.0819 28.2468C93.5737 28.2468 91.9912 26.5537 91.9912 23.8401ZM98.3696 23.8401C98.3696 21.9837 97.5165 20.888 96.0819 20.888C94.6473 20.888 93.7951 21.992 93.7951 23.8401C93.7951 25.7039 94.6473 26.7912 96.0819 26.7912C97.5165 26.7912 98.3696 25.7039 98.3696 23.8401H98.3696Z" fill="white"/>
<path d="M101.633 19.539H103.322V21.003H103.363C103.477 20.5457 103.746 20.1417 104.124 19.8587C104.501 19.5757 104.965 19.431 105.438 19.449C105.642 19.4483 105.845 19.4704 106.044 19.5149V21.1662C105.787 21.0878 105.518 21.0517 105.249 21.0596C104.991 21.0492 104.735 21.0944 104.497 21.1921C104.259 21.2899 104.045 21.4378 103.87 21.6258C103.694 21.8138 103.562 22.0374 103.482 22.2812C103.401 22.5251 103.375 22.7834 103.404 23.0384V28.14H101.633L101.633 19.539Z" fill="white"/>
<path d="M114.207 25.6139C113.969 27.1753 112.444 28.2468 110.493 28.2468C107.984 28.2468 106.427 26.5704 106.427 23.8809C106.427 21.1831 107.993 19.4333 110.419 19.4333C112.805 19.4333 114.306 21.068 114.306 23.6759V24.2808H108.214V24.3874C108.186 24.704 108.226 25.0229 108.331 25.3229C108.435 25.623 108.603 25.8973 108.823 26.1277C109.042 26.3582 109.308 26.5394 109.603 26.6594C109.898 26.7794 110.216 26.8354 110.534 26.8237C110.953 26.8628 111.372 26.7661 111.731 26.5482C112.09 26.3302 112.369 26.0025 112.526 25.6139L114.207 25.6139ZM108.222 23.0469H112.534C112.55 22.7623 112.507 22.4774 112.407 22.2103C112.308 21.9431 112.154 21.6994 111.955 21.4945C111.756 21.2895 111.517 21.1277 111.253 21.0191C110.989 20.9106 110.705 20.8578 110.419 20.8639C110.131 20.8622 109.845 20.9174 109.578 21.0264C109.311 21.1354 109.069 21.2961 108.864 21.499C108.66 21.702 108.498 21.9432 108.388 22.2089C108.278 22.4746 108.222 22.7594 108.222 23.0469V23.0469Z" fill="white"/>
<path d="M44.9996 9.85947H45.7597C45.8906 9.87572 46.0234 9.86476 46.1498 9.82729C46.2762 9.78982 46.3934 9.72665 46.4941 9.64175C46.5948 9.55686 46.6767 9.45209 46.7348 9.33404C46.7929 9.21599 46.8258 9.08722 46.8315 8.95586C46.8315 8.43308 46.437 8.09539 45.7681 8.09539C45.6341 8.07671 45.4976 8.085 45.3668 8.11978C45.236 8.15456 45.1136 8.21512 45.0066 8.29788C44.8997 8.38063 44.8105 8.48392 44.7443 8.60163C44.678 8.71934 44.6361 8.8491 44.621 8.98323H43.7865C43.8008 8.73974 43.8653 8.50182 43.9759 8.28425C44.0864 8.06669 44.2407 7.87416 44.4292 7.71864C44.6176 7.56312 44.8361 7.44795 45.0711 7.38029C45.3061 7.31263 45.5525 7.29393 45.7951 7.32536C46.9143 7.32536 47.7023 7.95019 47.7023 8.84963C47.7049 9.15095 47.6038 9.44405 47.4159 9.68001C47.2279 9.91596 46.9645 10.0805 46.6696 10.1461V10.2129C47.0192 10.2284 47.3485 10.3813 47.5854 10.6381C47.8223 10.895 47.9476 11.2349 47.9339 11.5837C47.9081 11.8344 47.8323 12.0774 47.711 12.2985C47.5897 12.5196 47.4254 12.7143 47.2277 12.8713C47.0299 13.0283 46.8028 13.1443 46.5595 13.2125C46.3162 13.2808 46.0617 13.3 45.8109 13.2689C45.5596 13.3031 45.3039 13.2864 45.0592 13.22C44.8145 13.1535 44.5856 13.0386 44.3864 12.8821C44.1872 12.7255 44.0215 12.5306 43.8995 12.3089C43.7774 12.0872 43.7013 11.8432 43.6758 11.5916H44.5233C44.5745 12.1338 45.0741 12.4836 45.8109 12.4836C46.5477 12.4836 47.0287 12.0907 47.0287 11.5369C47.0287 10.9751 46.5756 10.6291 45.7839 10.6291H44.9996V9.85947Z" fill="white"/>
<path d="M48.8965 11.9218C48.8965 11.1518 49.4724 10.7079 50.492 10.6448L51.654 10.578V10.2088C51.654 9.75695 51.3554 9.50183 50.7758 9.50183C50.3032 9.50183 49.9766 9.67485 49.8817 9.97729H49.0621C49.1486 9.24253 49.8426 8.77124 50.8158 8.77124C51.8913 8.77124 52.4978 9.30514 52.4978 10.2088V13.1316H51.6819V12.5304H51.6149C51.479 12.7461 51.2881 12.9219 51.0617 13.0399C50.8353 13.1579 50.5816 13.2138 50.3264 13.2021C50.1463 13.2207 49.9643 13.2016 49.7921 13.1458C49.6199 13.0901 49.4613 12.9989 49.3266 12.8783C49.1919 12.7577 49.084 12.6103 49.0099 12.4455C48.9358 12.2808 48.8972 12.1024 48.8965 11.9218ZM51.654 11.5563V11.1987L50.6064 11.2654C50.0156 11.3049 49.7477 11.5053 49.7477 11.8824C49.7477 12.2674 50.0826 12.4914 50.5432 12.4914C50.6781 12.5051 50.8144 12.4915 50.944 12.4515C51.0736 12.4115 51.1938 12.346 51.2974 12.2587C51.401 12.1715 51.486 12.0643 51.5473 11.9436C51.6086 11.823 51.6448 11.6912 51.654 11.5563Z" fill="white"/>
<path d="M54.7446 9.56441V13.1315H53.8979V8.85376H56.7225V9.56436L54.7446 9.56441Z" fill="white"/>
<path d="M61.8537 10.9909C61.8537 12.35 61.1643 13.2022 60.0814 13.2022C59.8156 13.2203 59.5501 13.1623 59.3162 13.035C59.0823 12.9077 58.8898 12.7164 58.7613 12.4836H58.6943V14.5539H57.8477V8.85387H58.6626V9.56083H58.7259C58.8567 9.31995 59.0518 9.11982 59.2895 8.98254C59.5272 8.84526 59.7984 8.77618 60.073 8.78292C61.1643 8.78289 61.8537 9.6313 61.8537 10.9909ZM60.9829 10.9909C60.9829 10.0873 60.554 9.54132 59.8367 9.54132C59.1241 9.54132 58.6785 10.0989 58.6785 10.9946C58.6785 11.8862 59.1241 12.4442 59.833 12.4442C60.554 12.4442 60.9829 11.8982 60.9829 10.9909Z" fill="white"/>
<path d="M62.9812 14.6637V13.9368C63.0729 13.9484 63.1652 13.9537 63.2575 13.9526C63.4379 13.9659 63.6168 13.9123 63.76 13.8022C63.9032 13.692 64.0006 13.533 64.0334 13.3556L64.0967 13.1473L62.5439 8.85376H63.4659L64.5414 12.2516H64.6084L65.6802 8.85376H66.5779L64.9787 13.3083C64.6121 14.3492 64.2065 14.6832 63.332 14.6832C63.2613 14.6832 63.0603 14.6753 62.9812 14.6637Z" fill="white"/>
<path d="M67.2373 11.9177H68.0802C68.163 12.2949 68.5175 12.4916 69.0133 12.4916C69.5771 12.4916 69.9232 12.2438 69.9232 11.8588C69.9232 11.4465 69.6125 11.2498 69.0133 11.2498H68.3714V10.5939H69.0022C69.5138 10.5939 69.7743 10.3977 69.7743 10.04C69.7743 9.726 69.5222 9.48619 69.0022 9.48619C68.5286 9.48619 68.1825 9.68658 68.1276 10.0243H67.3117C67.3727 9.63624 67.584 9.28757 67.9001 9.05327C68.2163 8.81897 68.612 8.71774 69.0022 8.77137C70.0218 8.77137 70.6051 9.23106 70.6051 9.95377C70.6099 10.155 70.5452 10.3518 70.422 10.5112C70.2987 10.6706 70.1242 10.783 69.9278 10.8296V10.8963C70.1617 10.9264 70.3763 11.0411 70.531 11.2185C70.6857 11.3959 70.7697 11.6238 70.767 11.8589C70.767 12.6721 70.073 13.2101 69.0133 13.2101C68.0765 13.2101 67.3155 12.7819 67.2373 11.9177Z" fill="white"/>
<path d="M71.9863 13.1315V8.85376H72.8255V11.7961H72.8925L74.8695 8.85377H75.7086V13.1316H74.8695V10.1735H74.8062L72.8255 13.1316L71.9863 13.1315Z" fill="white"/>
<path d="M80.3315 9.56436H78.9807V13.1315H78.1331V9.56436H76.7822V8.85376H80.3315V9.56436Z" fill="white"/>
<path d="M84.8919 11.9766C84.7765 12.3676 84.5271 12.7057 84.1872 12.9319C83.8473 13.1581 83.4384 13.258 83.0321 13.2142C82.7495 13.2217 82.4687 13.1677 82.2091 13.056C81.9495 12.9444 81.7173 12.7777 81.5288 12.5677C81.3402 12.3576 81.1998 12.1091 81.1172 11.8395C81.0346 11.5698 81.0119 11.2855 81.0505 11.0062C81.0129 10.7261 81.0361 10.4411 81.1184 10.1707C81.2008 9.90027 81.3405 9.65064 81.5281 9.43872C81.7156 9.2268 81.9466 9.05754 82.2055 8.94239C82.4643 8.82725 82.745 8.7689 83.0284 8.77131C84.222 8.77131 84.9431 9.58451 84.9431 10.9278V11.2224H81.9139V11.2697C81.9005 11.4267 81.9201 11.5848 81.9717 11.7338C82.0232 11.8828 82.1053 12.0194 82.2129 12.1348C82.3205 12.2502 82.4512 12.3419 82.5964 12.404C82.7417 12.466 82.8983 12.4971 83.0563 12.4952C83.2587 12.5193 83.4637 12.4829 83.6453 12.3906C83.8268 12.2982 83.9768 12.1541 84.076 11.9766L84.8919 11.9766ZM81.9139 10.598H84.0797C84.0904 10.4545 84.0709 10.3104 84.0224 10.1749C83.9739 10.0393 83.8975 9.9154 83.7982 9.81104C83.6988 9.70669 83.5787 9.6242 83.4455 9.56889C83.3123 9.51358 83.1689 9.48665 83.0247 9.48985C82.8782 9.48787 82.7328 9.51518 82.5971 9.57017C82.4614 9.62516 82.3382 9.70672 82.2346 9.81003C82.1311 9.91334 82.0493 10.0363 81.9942 10.1716C81.9392 10.307 81.9118 10.452 81.9139 10.598H81.9139Z" fill="white"/>
<path d="M88.481 8.85376H90.4151C91.2543 8.85376 91.7464 9.27773 91.7464 9.94151C91.7477 10.1521 91.6765 10.3568 91.5445 10.5213C91.4126 10.6858 91.228 10.8001 91.0217 10.8451V10.9119C91.2722 10.9277 91.5071 11.0388 91.6778 11.2224C91.8485 11.4059 91.942 11.6478 91.939 11.8981C91.939 12.6445 91.3762 13.1315 90.4347 13.1315H88.481V8.85376ZM89.3201 9.50178V10.6095H90.1593C90.671 10.6095 90.9157 10.4133 90.9157 10.0515C90.9157 9.71794 90.7026 9.50177 90.2533 9.50177L89.3201 9.50178ZM89.3201 11.2302V12.4835H90.324C90.8245 12.4835 91.0925 12.2632 91.0925 11.8587C91.0925 11.4306 90.7892 11.2302 90.2179 11.2302L89.3201 11.2302Z" fill="white"/>
</svg>
