<svg width="1440" height="1024" viewBox="0 0 1440 1024" fill="none" xmlns="http://www.w3.org/2000/svg">
<rect y="521" width="1440" height="503" fill="white"/>
<path d="M269.569 2H0V176.776C15.239 182.548 33.3642 180.47 46.8715 171.35C60.3788 162.23 70.1918 146.299 70.5381 129.907C78.8503 132.909 88.4324 132.216 96.1674 127.829C103.902 123.442 109.675 116.978 111.406 108.32C117.063 114.438 126.53 116.632 134.265 113.63C142 110.629 147.772 102.779 148.003 94.5826C149.735 108.089 161.395 119.748 174.902 121.365C188.41 122.981 202.61 114.438 207.458 101.74C210.922 92.7355 209.998 81.8842 205.265 73.5726C211.73 78.6519 220.042 81.5379 228.239 81.0761C240.476 80.4989 252.021 72.7645 257.331 61.6823C262.065 51.639 260.679 40.326 255.023 30.8599C258.948 35.2466 266.452 36.5164 271.301 32.9378C276.496 29.2437 277.881 21.9711 276.496 15.7373C275.226 10.7734 272.57 6.27127 269.569 2Z" fill="#F2F9FF"/>
<path d="M1083 0C1083.4 20.4685 1093.77 40.6712 1110.38 52.7663C1128.32 65.7917 1153.04 68.9816 1173.65 61.0069C1172.32 69.7791 1170.99 78.0197 1171.92 86.9248C1172.98 95.83 1176.84 104.735 1184.01 110.052C1192.65 116.431 1204.88 116.431 1214.58 111.779C1224.28 107.128 1231.59 98.6211 1236.78 89.1843C1238.91 110.185 1256.32 129.058 1276.39 135.571C1296.46 142.084 1320.11 135.704 1334.2 120.02C1337.79 135.571 1352.15 148.729 1367.7 152.584C1383.25 156.438 1400.13 152.185 1413.15 142.748C1426.04 133.311 1435.22 119.223 1440 104.071V0H1083Z" fill="#F2F9FF"/>
<g opacity="0.9">
<path d="M1268.01 635.701C1267.21 634.167 1268.29 631.201 1270.71 627.047C1286.51 600.351 1360.47 527.784 1368.05 523.764C1368.11 523.734 1368.24 523.673 1368.31 523.642C1375.23 520.089 1383.64 523.464 1386.25 530.745C1387.5 534.448 1388.41 539.109 1387.88 544.6C1387.3 550.832 1384.92 558.142 1379.23 566.204C1378.47 567.278 1377.7 568.353 1376.93 569.427C1374.76 572.268 1372.43 575.266 1369.8 578.32C1367.51 581.061 1365.02 583.894 1362.44 586.692C1360.02 589.333 1357.47 592.035 1354.89 594.672C1352.54 597.122 1350.09 599.537 1347.68 601.857C1345 604.459 1342.33 607.061 1339.69 609.568C1337.28 611.887 1334.8 614.076 1332.4 616.235C1329.72 618.676 1327.06 620.957 1324.52 623.176C1321.98 625.396 1319.51 627.424 1317.21 629.295C1314.28 631.698 1311.59 633.752 1309.22 635.493C1306.5 637.483 1304.14 639.063 1302.44 640.016C1289.34 647.175 1276.59 652.186 1268.01 635.701Z" fill="#C75E12"/>
<path d="M1270.71 627.047C1286.51 600.351 1360.47 527.784 1368.05 523.764C1368.11 523.734 1368.24 523.673 1368.31 523.642C1375.23 520.089 1383.64 523.464 1386.25 530.745C1387.5 534.448 1388.41 539.109 1387.88 544.6C1386.46 548.363 1384.46 552.399 1381.45 556.667C1380.68 557.741 1379.91 558.816 1379.14 559.891C1376.97 562.732 1374.64 565.729 1372.02 568.784C1369.73 571.525 1367.24 574.357 1364.65 577.155C1362.23 579.796 1359.68 582.498 1357.1 585.135C1354.75 587.585 1352.37 589.97 1349.89 592.32C1347.22 594.922 1344.54 597.524 1341.9 600.031C1339.49 602.35 1337.02 604.539 1334.61 606.698C1331.94 609.139 1329.27 611.42 1326.73 613.639C1324.2 615.859 1321.73 617.887 1319.42 619.758C1316.5 622.161 1313.8 624.215 1311.44 625.957C1308.71 627.946 1306.42 629.496 1304.66 630.48C1291.79 637.451 1279.33 642.405 1270.71 627.047Z" fill="#F2994A"/>
<path d="M1369.71 578.286C1365.52 573.411 1361.34 568.536 1357.21 563.631C1356.47 562.709 1355.62 561.754 1355.17 560.615C1354.71 559.476 1354.72 558.124 1355.45 557.145C1356.29 556.04 1357.97 555.73 1359.28 556.15C1360.65 556.541 1361.79 557.44 1362.89 558.274C1366.8 561.37 1370.78 564.437 1374.69 567.534C1375.42 568.068 1376.11 568.698 1376.8 569.327C1374.7 572.299 1372.27 575.262 1369.71 578.286Z" fill="#C75E12"/>
<path d="M1354.73 594.668C1351.17 590.453 1347.51 586.204 1343.89 582.02C1343.07 581.13 1342.29 580.143 1341.84 579.004C1341.39 577.866 1341.39 576.513 1342.12 575.535C1342.96 574.429 1344.57 574.15 1345.95 574.54C1347.32 574.93 1348.46 575.829 1349.56 576.663C1353.47 579.76 1357.39 582.857 1361.36 585.923C1361.65 586.188 1361.96 586.357 1362.25 586.622C1359.86 589.329 1357.31 592.031 1354.73 594.668Z" fill="#C75E12"/>
<path d="M1339.53 609.563C1335.84 605.249 1332.15 600.935 1328.47 596.62C1327.72 595.699 1326.87 594.743 1326.42 593.604C1325.97 592.466 1325.97 591.113 1326.7 590.135C1327.54 589.029 1329.22 588.719 1330.53 589.14C1331.9 589.53 1333.04 590.429 1334.14 591.263C1338.06 594.36 1341.97 597.457 1345.94 600.523C1346.45 600.923 1346.98 601.388 1347.49 601.787C1344.87 604.52 1342.2 607.122 1339.53 609.563Z" fill="#C75E12"/>
<path d="M1324.36 623.172C1321.52 619.813 1318.58 616.42 1315.74 613.061C1314.92 612.171 1314.14 611.184 1313.69 610.046C1313.24 608.907 1313.24 607.555 1313.97 606.576C1314.81 605.471 1316.49 605.161 1317.8 605.581C1319.17 605.971 1320.31 606.871 1321.41 607.704C1325.04 610.536 1328.61 613.399 1332.23 616.23C1329.56 618.672 1326.93 621.018 1324.36 623.172Z" fill="#C75E12"/>
<path d="M1309.06 635.489C1306.75 632.756 1304.47 630.088 1302.1 627.386C1301.35 626.465 1300.5 625.509 1300.05 624.37C1299.6 623.231 1299.6 621.879 1300.33 620.9C1301.17 619.795 1302.79 619.516 1304.16 619.906C1305.53 620.296 1306.67 621.195 1307.77 622.029C1310.8 624.427 1313.93 626.859 1316.95 629.256C1314.19 631.663 1311.43 633.748 1309.06 635.489Z" fill="#C75E12"/>
</g>
<g opacity="0.9">
<path d="M132.417 342.707C131.689 344.399 130.535 346.3 128.849 347.32L111.655 384.524L104.034 401.057C104.034 401.057 102.655 405.398 90.2317 403.904C87.8058 403.619 84.9381 403.102 81.6431 402.292C61.2258 397.273 62.376 390.817 62.376 390.817L63.2061 373.987L65.288 331.758C64.2818 330.014 64.1263 327.854 64.266 326.017C64.4192 323.87 65.0152 322.207 65.0152 322.207L98.8124 332.699L133.622 339.072C133.519 338.984 133.217 340.719 132.417 342.707Z" fill="#E24D6D"/>
<path d="M132.416 342.707C125.911 347.596 111.484 348.667 95.7738 344.806C80.0637 340.944 67.7775 333.306 64.2803 325.958C64.4335 323.811 65.0295 322.149 65.0295 322.149L98.8267 332.64L133.636 339.013C133.519 338.984 133.217 340.719 132.416 342.707Z" fill="#BC2A57"/>
<path d="M128.79 347.306L111.596 384.51L103.975 401.043C103.975 401.043 102.596 405.384 90.1726 403.89L119.117 353.913C119.117 353.913 110.256 353.919 101.955 347.074C102.588 347.292 115.746 352.398 128.79 347.306Z" fill="#BC2A57"/>
<path d="M135.006 335.981C132.865 344.689 115.478 347.902 96.12 343.144C79.5861 339.08 66.9728 330.488 65.0315 322.648C64.6735 321.313 64.683 320.005 64.9868 318.769C67.1274 310.061 84.5143 306.847 103.873 311.606C116.876 314.802 127.451 320.771 132.34 327.027C134.659 330.03 135.7 333.156 135.006 335.981Z" fill="#EBEBFF"/>
<path d="M132.385 330.906C130.244 339.615 112.857 342.828 93.4989 338.069C80.4954 334.873 69.9204 328.904 65.0315 322.648C64.6735 321.313 64.683 320.005 64.9868 318.769C67.1274 310.061 84.5143 306.847 103.873 311.606C116.876 314.802 127.451 320.771 132.34 327.027C132.639 328.348 132.688 329.671 132.385 330.906Z" fill="white"/>
<path d="M97.4218 337.849C78.1813 333.119 69.4001 323.66 70.2824 320.071C71.1502 316.541 83.3304 312.172 102.571 316.902C121.811 321.631 130.593 331.09 129.71 334.679C128.842 338.21 116.662 342.578 97.4218 337.849Z" fill="#E24D6D"/>
<path d="M136.606 339.369C134.696 339.274 132.798 338.87 131.032 338.186C131.878 336.522 132.724 334.858 133.569 333.194C134.365 333.764 135.394 333.892 136.35 334.065C137.321 334.178 138.291 334.292 139.16 334.818C140.044 335.285 140.694 336.193 140.639 337.178C140.554 338.031 139.881 338.739 139.118 339.05C138.355 339.362 137.473 339.395 136.606 339.369Z" fill="#EBEBFF"/>
<path d="M111.655 384.524L104.034 401.057C104.034 401.057 102.06 407.311 81.6431 402.292C61.2258 397.273 62.376 390.817 62.376 390.817L62.4569 388.965L63.2206 373.929C65.2566 372.245 68.1493 371.646 70.6804 372.518C72.5787 373.172 74.7298 374.574 76.3858 373.421C77.5876 372.593 77.7572 370.888 77.2816 369.523C76.806 368.158 75.8317 367.045 75.0628 365.858C72.3559 361.387 72.7431 355.242 76.1072 351.202C77.6137 349.389 80.106 347.88 82.3284 348.738C84.4332 349.568 85.369 352.106 85.2013 354.311C85.0925 356.531 84.1899 358.68 83.7135 360.872C83.4976 362.004 83.3993 363.165 83.7563 364.251C84.1133 365.337 84.9988 366.304 86.1601 366.402C87.689 366.528 88.9621 365.157 89.4414 363.715C89.9206 362.273 89.8703 360.7 90.2464 359.17C90.608 357.699 91.6747 356.152 93.2025 356.029C94.8625 355.875 96.2207 357.457 96.6385 359.057C97.0563 360.657 96.8279 362.348 97.0402 364.023C97.2525 365.697 98.0089 367.443 99.613 368.024C101.57 368.693 103.504 367.171 104.983 365.725C106.037 364.737 107.252 363.6 108.647 363.257C109.19 363.078 109.748 363.091 110.337 363.235C112.455 363.756 113.274 366.516 112.65 368.546C112.012 370.635 110.387 372.17 108.879 373.734C107.372 375.298 105.924 377.125 105.83 379.286C105.705 381.315 107.007 383.382 108.92 384.226C109.701 384.605 110.671 384.719 111.655 384.524Z" fill="white"/>
<path d="M111.655 384.524L104.034 401.057C104.034 401.057 102.06 407.311 81.6429 402.292C61.2256 397.273 62.3758 390.817 62.3758 390.817L62.4567 388.965C68.2036 389.192 73.9794 389.302 79.6635 388.515C86.508 387.577 93.2732 385.185 98.5461 380.74C102.574 377.3 105.51 372.718 107.003 367.657C107.438 366.142 107.843 364.494 108.661 363.198C109.204 363.02 109.763 363.032 110.351 363.177C112.469 363.697 113.288 366.457 112.664 368.487C112.026 370.577 110.401 372.111 108.893 373.675C107.386 375.239 105.938 377.067 105.844 379.227C105.72 381.256 107.021 383.323 108.935 384.168C109.701 384.605 110.671 384.719 111.655 384.524Z" fill="#EBEBFF"/>
<path d="M93.9038 392.265C89.3416 394.326 83.2949 396.334 80.51 394.464C79.2724 393.66 78.7938 391.546 78.7396 388.974C78.7114 385.536 79.4441 381.286 80.1074 378.08C81.6232 371.152 89.7513 367.784 95.5428 371.891C95.7049 371.993 95.9113 372.168 96.0734 372.271C96.2798 372.446 96.4862 372.622 96.7071 372.738C97.6361 373.528 98.4184 374.407 99.0397 375.433C102.604 381.239 100.491 389.33 93.9038 392.265Z" fill="#BC2A57"/>
<path d="M92.1775 386.849C87.6153 388.91 81.5687 390.918 78.7838 389.048C78.7838 389.048 78.7838 389.048 78.725 389.033C78.6967 385.594 79.4294 381.344 80.0928 378.138C81.6085 371.211 89.7366 367.843 95.5282 371.949C95.6902 372.052 95.8967 372.227 96.0587 372.329C96.2651 372.505 96.4716 372.68 96.6925 372.797C97.6214 373.587 98.4037 374.466 99.025 375.492C99.2636 380.105 96.8131 384.744 92.1775 386.849Z" fill="#E24D6D"/>
<path d="M94.0179 372.763C93.6774 372.118 93.3368 371.473 93.1873 370.812C93.0377 370.151 93.0492 369.343 93.3849 368.739C93.7205 368.135 94.5123 367.706 95.1596 367.865C95.748 368.01 96.1907 368.493 96.4136 369.109C96.6509 369.667 96.6828 370.299 96.6559 370.916C96.8593 370.342 97.4747 369.869 97.9734 369.618C98.5309 369.38 99.1925 369.481 99.5909 369.891C99.9893 370.3 100.007 370.991 99.8177 371.506C99.6287 372.021 99.2632 372.493 98.8977 372.965C99.6761 372.844 100.617 372.826 101.324 373.249C102.031 373.672 102.431 374.582 102.066 375.303C101.673 376.143 100.498 376.353 99.5423 376.18C97.3517 375.954 95.0839 374.773 94.0179 372.763Z" fill="#68B229"/>
<path d="M87.4271 374.7C87.0152 374.599 86.6342 374.879 86.5474 375.232C86.3729 375.689 86.2128 376.086 86.0382 376.542C85.8782 376.94 86.2177 377.335 86.5707 377.422C86.9826 377.523 87.3636 377.243 87.4504 376.889C87.6249 376.433 87.785 376.036 87.9596 375.58C88.1052 375.241 87.7801 374.787 87.4271 374.7Z" fill="#342D27"/>
<path d="M91.6571 377.799L90.5595 378.964C89.8863 379.672 91.0072 380.697 91.6071 380.033C91.9582 379.62 92.2948 379.266 92.7047 378.868C93.3923 378.101 92.3303 377.091 91.6571 377.799Z" fill="#342D27"/>
<path d="M96.1002 382.822C95.9227 382.529 95.4076 382.34 95.0411 382.561C94.6601 382.842 94.2792 383.123 93.8837 383.462C93.576 383.699 93.416 384.096 93.6234 384.522C93.8009 384.815 94.316 385.004 94.6825 384.782C95.0635 384.501 95.4444 384.22 95.8399 383.881C96.162 383.586 96.3221 383.188 96.1002 382.822Z" fill="#342D27"/>
<path d="M93.1828 388.344C93.0786 388.007 92.6069 387.641 92.2404 387.863C91.9617 387.982 91.6829 388.1 91.4042 388.219C91.0521 388.382 90.7743 388.751 90.9229 389.161C91.0271 389.499 91.4988 389.865 91.8653 389.643L92.7016 389.287C93.0536 389.124 93.3169 388.814 93.1828 388.344Z" fill="#342D27"/>
<path d="M90.2468 385.314C90.0249 384.947 89.5542 384.832 89.1877 385.054C88.8945 385.231 88.5868 385.468 88.2936 385.645C87.9859 385.881 87.8114 386.338 88.0333 386.704C88.2551 387.071 88.7259 387.186 89.0924 386.964C89.3856 386.787 89.6932 386.551 89.9865 386.373C90.353 386.151 90.4687 385.681 90.2468 385.314Z" fill="#342D27"/>
<path d="M87.3092 382.033C86.9995 381.77 86.4999 381.772 86.2511 382.023C86.0022 382.274 85.7389 382.583 85.4901 382.834C85.2268 383.144 85.1844 383.57 85.4796 383.892C85.7892 384.156 86.2889 384.154 86.5377 383.903C86.7865 383.652 87.0498 383.342 87.2987 383.092C87.562 382.782 87.6188 382.297 87.3092 382.033Z" fill="#342D27"/>
<path d="M83.6127 380.065C83.2886 379.86 82.7601 379.98 82.6 380.377C82.4543 380.716 82.2354 381.099 82.0898 381.437C81.8709 381.82 82.0195 382.231 82.4024 382.45C82.7265 382.654 83.2551 382.535 83.4152 382.137C83.5608 381.799 83.7797 381.416 83.9253 381.077C84.0854 380.68 83.9957 380.283 83.6127 380.065Z" fill="#342D27"/>
<path d="M83.1318 384.813C82.8077 384.608 82.2791 384.728 82.119 385.125C81.9734 385.464 81.8133 385.861 81.6677 386.2C81.5076 386.597 81.5973 386.994 81.9803 387.213C82.3044 387.417 82.833 387.297 82.9931 386.9C83.1387 386.561 83.2988 386.164 83.4444 385.825C83.59 385.487 83.5736 385.046 83.1318 384.813Z" fill="#342D27"/>
<path d="M85.9332 387.124C85.6236 386.861 85.1239 386.863 84.8751 387.113C84.714 387.261 84.5385 387.467 84.3774 387.615C84.1141 387.925 84.1161 388.424 84.3669 388.673C84.6765 388.936 85.1762 388.935 85.425 388.684C85.5861 388.536 85.7616 388.33 85.9227 388.182C86.2448 387.887 86.2428 387.387 85.9332 387.124Z" fill="#342D27"/>
<path d="M88.6041 389.964C88.4266 389.671 87.9115 389.482 87.545 389.704L87.0907 390.029C86.7831 390.265 86.623 390.663 86.8304 391.088C87.0079 391.381 87.523 391.57 87.8895 391.349C88.0361 391.26 88.1972 391.112 88.3438 391.023C88.6514 390.787 88.826 390.331 88.6041 389.964Z" fill="#342D27"/>
<path d="M84.094 390.29C83.7988 389.968 83.3436 390.043 83.0359 390.28C82.9481 390.383 82.8015 390.472 82.7137 390.575C82.4061 390.811 82.4524 391.384 82.7032 391.633C82.9984 391.955 83.4537 391.88 83.7613 391.644C83.8491 391.54 83.9957 391.452 84.0835 391.348C84.4056 391.053 84.3448 390.539 84.094 390.29Z" fill="#342D27"/>
<path d="M77.4159 325.318C79.2774 324.091 82.1971 322.874 83.2513 321.885C84.5687 320.587 84.8271 319.028 85.9546 317.995C86.2623 317.759 87.2616 317.755 87.3359 317.96C87.5732 318.518 85.976 319.685 86.0233 320.508C87.3003 320.135 88.5889 318.955 89.8226 318.759C90.4688 318.668 91.0871 318.945 90.574 319.255C89.4301 319.848 87.4943 320.869 85.9395 321.61C85.4263 321.921 85.1042 322.216 85.0763 322.584C85.1062 322.716 84.6075 322.967 84.3876 323.101C83.9179 323.235 83.5205 323.075 83.0218 323.326C81.6734 324.243 79.7386 325.514 77.9793 326.579C77.5395 326.846 76.5557 327.041 76.2306 326.586C76.0087 326.22 76.815 325.732 77.4159 325.318Z" fill="white"/>
<path d="M94.2451 322.342C94.6773 323.883 92.8776 325.874 90.338 326.56C88.5323 327.052 86.9736 326.794 86.5433 325.752C86.0986 324.769 86.5344 323.504 87.8828 322.587C89.9932 321.11 93.6787 320.331 94.2451 322.342ZM89.5691 325.373C91.0526 325.176 92.2389 324.157 92.6025 323.186C92.7915 322.671 92.0111 322.292 91.4527 322.279C90.9086 322.208 89.0761 323.318 88.8427 323.759C88.4193 324.466 88.2178 325.54 89.5691 325.373Z" fill="white"/>
<path d="M97.6088 321.858C98.8714 321.545 100.093 321.907 100.845 322.654C101.096 322.903 100.861 323.095 100.538 323.14C99.7599 323.261 99.2283 322.631 98.42 322.619C97.7439 322.578 97.1729 323.124 96.7041 323.508C95.5622 324.6 94.13 326.619 95.5605 327.906C95.9146 328.243 96.5319 328.27 96.8096 327.902C97.2928 327.459 97.996 326.883 97.5976 326.473C97.4355 326.371 97.1847 326.122 97.1992 326.063C97.0496 325.402 97.9602 325.252 98.4598 325.25C99.4002 325.231 100.52 326.006 99.7447 326.876C99.7303 326.935 99.3483 326.966 99.3338 327.025C99.1304 327.598 98.7648 328.07 98.4292 328.674C98.1958 329.116 97.6673 329.235 97.2863 329.516C96.8021 329.709 96.3458 329.535 95.9494 329.624C93.7319 330.015 92.2849 328.287 92.9976 326.403C93.9147 324.195 95.2891 322.411 97.6088 321.858Z" fill="white"/>
<path d="M101.86 322.841C102.137 322.473 102.784 322.382 103.329 322.703C103.417 322.85 103.551 323.07 103.434 323.291C102.381 324.529 101.774 327.25 103.544 328.933C105.019 330.294 106.011 328.292 106.182 327.086C106.545 325.865 106.172 324.588 106.183 323.53C106.108 323.074 106.828 323.189 107.387 323.202C107.402 323.392 107.652 323.391 107.696 323.465C108.101 325.374 108.3 327.607 106.912 329.449C105.742 330.909 102.748 331.92 101.504 329.617C100.069 327.081 100.75 324.565 101.86 322.841Z" fill="white"/>
<path d="M108.639 324.196C108.521 323.917 108.313 323.492 108.651 323.388C110.119 323 112.328 324.167 113.672 325.807C114.602 326.847 113.634 327.483 112.857 327.853C113.613 329.599 114.636 331.785 116.085 334.013C116.587 334.76 115.471 334.985 114.881 334.341C112.83 332.277 112.762 329.764 111.241 328.08C111.005 327.772 110.167 327.629 110.05 327.85C109.82 329.041 110.826 330.786 111.111 332.416C111.187 332.871 110.467 333.006 109.908 332.744C109.642 332.554 109.42 332.187 109.287 331.967C108.516 330.031 108.567 328.296 108.488 326.842C108.411 325.887 109.054 325.047 108.639 324.196ZM110.133 326.497C111.031 326.905 112.03 326.901 112.558 326.532C112.69 326.502 112.91 326.369 112.718 326.134C112.112 325.299 111.184 324.759 110.434 324.512C109.918 324.323 110.142 325.189 110.056 325.542C109.983 325.837 109.735 326.337 110.133 326.497Z" fill="white"/>
<path d="M119.057 334.868C117.529 331.185 117.004 328.498 116.083 326.15C115.965 325.871 115.568 325.961 115.377 325.977C115.01 325.949 114.688 326.244 114.187 325.996C113.642 325.675 113.522 325.146 113.919 325.056C115.637 324.668 116.682 325.237 118.77 325.625C118.829 325.64 118.977 325.801 119.08 325.888C119.42 326.284 119.244 326.49 118.921 326.536C118.054 326.51 118.318 326.45 117.48 326.306C118.062 328.508 119.175 331.34 120.673 334.891C120.955 335.521 120.412 335.7 120.06 335.863C119.737 335.908 119.22 335.22 119.057 334.868Z" fill="white"/>
</g>
<path d="M1330.52 990.201V1010.21C1330.52 1010.21 1303.06 1014.45 1304.81 1010.21C1306.56 1005.98 1320.44 1005.25 1320.44 1005.25V988.886L1330.52 990.201Z" fill="#FCB682"/>
<path d="M1405.47 920.957L1416.13 904.011C1416.13 904.011 1441.69 915.113 1437.9 917.743C1434.1 920.372 1421.97 913.506 1421.97 913.506L1413.21 927.385L1405.47 920.957Z" fill="#FCB682"/>
<path d="M1414.38 907.078L1416.27 904.157C1416.27 904.157 1441.84 915.259 1438.04 917.889C1434.24 920.518 1422.12 913.652 1422.12 913.652L1421.68 914.383C1421.53 914.236 1421.39 914.09 1421.24 913.944C1418.9 911.607 1416.57 909.416 1414.38 907.078Z" fill="#BD537B"/>
<path d="M1324.68 884.727C1311.39 919.496 1305.98 957.186 1308.9 994.292H1337.1C1333.01 966.535 1337.1 937.318 1348.35 911.753C1350.24 924.024 1352.14 936.296 1358.28 947.106C1364.41 957.916 1375.52 966.828 1387.93 966.681C1397.43 966.535 1406.34 961.13 1412.04 953.68C1417.88 946.229 1420.8 936.88 1422.12 927.53C1415.25 922.417 1408.68 917.743 1401.81 912.776C1401.23 918.765 1400.21 925.485 1397.43 928.699C1394.22 932.497 1390.13 934.396 1385.74 933.812C1382.09 933.374 1378.44 927.823 1376.54 924.609C1374.35 920.664 1373.47 915.698 1372.74 911.169C1371.43 903.426 1369.24 891.155 1367.92 883.559C1366.75 883.851 1365.73 882.974 1364.71 883.12L1324.68 884.727Z" fill="#342D27"/>
<path d="M1318.84 842.07L1311.82 846.16L1295.61 857.263C1295.61 857.263 1294.88 863.252 1298.68 865.005C1298.68 865.005 1308.9 865.736 1324.39 851.858L1318.84 842.07Z" fill="#FCB682"/>
<path d="M1337.1 817.675L1340.16 818.551L1359.16 826.294L1370.7 885.897C1370.7 885.897 1344.25 896.999 1322.05 886.335C1324.53 873.187 1325.41 865.445 1328.48 854.488C1328.48 854.488 1316.5 848.937 1319.71 840.464C1322.93 831.991 1327.75 823.664 1332.13 821.911L1337.1 817.675Z" fill="#BD537B"/>
<path d="M1332.13 821.91C1332.13 821.91 1328.33 822.349 1325.41 825.124C1322.34 827.9 1308.76 846.453 1308.76 846.453C1308.76 846.453 1314.31 857.117 1321.9 857.555L1329.35 846.014L1332.13 821.91Z" fill="#BD537B"/>
<path d="M1330.52 1006.86V1010.22C1330.52 1010.22 1303.06 1014.45 1304.81 1010.22C1306.56 1005.98 1320.44 1005.25 1320.44 1005.25V1004.37C1320.59 1004.37 1320.88 1004.52 1321.03 1004.52C1324.24 1005.25 1327.31 1006.13 1330.52 1006.86Z" fill="#BD537B"/>
<path d="M1278.95 791.525L1347.03 889.11C1350.24 893.785 1348.93 900.067 1344.11 902.988C1339.29 905.91 1333.15 904.303 1330.38 899.336L1273.26 794.3L1278.95 791.525Z" fill="#A58E7C"/>
<path d="M1273.26 749.014C1270.92 749.598 1280.56 778.085 1276.32 779.984C1272.38 781.737 1258.5 751.205 1254.56 753.25C1250.61 755.295 1267.56 784.074 1263.91 786.412C1259.96 788.749 1242.14 764.645 1240.24 766.252C1238.34 767.859 1247.98 785.827 1256.9 794.154C1264.78 801.605 1274.43 796.346 1276.32 795.177C1278.37 794.3 1288.3 789.48 1286.7 778.669C1284.8 766.544 1275.59 748.429 1273.26 749.014Z" fill="#A58E7C"/>
<path d="M1298.53 859.601C1304.37 852.296 1308.03 841.486 1306.71 832.283C1306.71 832.283 1312.7 826.731 1311.97 825.709C1311.24 824.686 1305.98 828.338 1305.98 828.338C1305.98 828.338 1308.17 823.225 1307.44 822.641C1306.71 822.057 1303.06 827.754 1303.06 827.754C1303.06 827.754 1303.35 820.011 1302.47 820.011C1301.6 820.011 1299.85 827.316 1299.85 827.316C1299.85 827.316 1298.82 820.742 1297.36 820.888C1295.9 821.034 1297.22 828.192 1297.22 828.192C1297.22 828.192 1294.88 825.271 1293.56 826.001C1292.25 826.731 1297.51 832.283 1297.51 832.283L1298.97 834.036C1298.97 834.036 1296.05 839.441 1290.35 849.813C1290.35 849.813 1285.09 859.016 1289.18 863.837C1290.35 865.152 1292.1 865.736 1293.71 865.882C1297.95 866.029 1302.62 864.714 1302.62 864.714C1300.14 863.545 1297.51 861.938 1298.53 859.601Z" fill="#FCB682"/>
<path d="M1370.84 849.812C1374.2 854.779 1374.2 861.645 1371.57 867.051C1368.94 872.456 1363.83 876.4 1357.99 878.299C1352.29 880.198 1346.01 880.198 1340.16 879.03C1330.96 877.131 1321.32 871.433 1316.21 863.545C1316.21 863.545 1308.03 863.106 1307.88 861.938C1307.73 860.623 1314.16 860.038 1314.16 860.038C1314.16 860.038 1309.19 857.555 1309.34 856.678C1309.49 855.802 1316.06 857.701 1316.06 857.701C1316.06 857.701 1310.95 852.004 1311.53 851.419C1312.12 850.835 1318.25 855.218 1318.25 855.218C1318.25 855.218 1314.89 849.52 1316.06 848.79C1317.23 848.059 1320.88 854.341 1320.88 854.341C1320.88 854.341 1320.74 850.543 1322.2 850.397C1323.66 850.105 1323.22 857.847 1323.22 857.847V860.038C1323.22 860.038 1348.78 874.793 1356.53 857.847L1356.96 854.487L1370.84 849.812Z" fill="#FCB682"/>
<path d="M1340.16 818.551C1340.16 818.551 1358.57 817.382 1368.36 834.328C1373.91 845.43 1375.08 848.06 1375.08 848.06C1375.08 848.06 1369.97 856.241 1356.82 857.702L1336.66 821.034L1340.16 818.551Z" fill="#BD537B"/>
<path d="M1316.79 790.94C1316.79 790.94 1312.41 782.321 1317.81 777.792C1323.22 773.264 1341.04 774.871 1344.11 782.759C1347.18 790.648 1350.54 803.649 1340.16 805.11L1316.79 790.94Z" fill="#4E3E49"/>
<path d="M1342.8 783.636C1341.92 781.737 1341.33 779.692 1341.33 777.647C1341.33 775.455 1342.06 773.41 1343.53 771.803C1344.99 770.342 1347.32 769.466 1349.37 770.05C1351.41 770.488 1352.88 772.242 1354.04 773.995C1355.36 776.04 1356.23 778.523 1356.23 781.007C1356.23 783.49 1355.21 785.974 1353.31 787.581C1351.41 789.187 1348.49 789.48 1346.3 788.311C1344.55 787.288 1343.53 785.535 1342.8 783.636Z" fill="#4E3E49"/>
<path d="M1316.94 787.727C1316.94 787.727 1315.48 805.842 1320.44 807.449C1325.26 809.056 1332.13 805.696 1332.13 805.696V821.765C1332.13 821.765 1328.48 826.002 1329.79 827.316C1331.11 828.631 1339.29 823.226 1340.16 818.405V802.043C1341.48 802.043 1342.79 800.875 1343.38 799.706C1344.11 798.537 1344.25 797.077 1343.82 795.762C1343.38 794.447 1342.06 793.57 1340.75 793.424C1339.43 793.278 1337.97 794.009 1337.39 795.177C1333.74 796.346 1329.5 795.762 1325.85 794.593C1322.34 793.57 1319.27 790.795 1316.94 787.727Z" fill="#FCB682"/>
<path d="M170.556 976.057C172.193 977.929 172.427 980.736 171.257 982.841C170.088 984.947 168.216 986.818 165.994 986.35C167.281 989.274 165.994 993.134 163.304 994.772C160.614 996.409 156.52 997.111 154.648 994.538C154.414 997.93 151.841 1001.09 148.566 1001.79C145.291 1002.49 141.08 1002.02 139.56 998.982C138.858 1001.32 136.753 1003.19 134.296 1003.66C131.957 1004.13 128.331 1004.13 126.811 1002.14C125.758 1005.06 122.717 1007.17 119.676 1006.94C116.635 1006.82 112.658 1004.48 111.839 1001.56C110.786 1004.01 108.33 1005.77 105.757 1006C103.184 1006.35 99.5577 1005.88 98.0372 1003.78C96.7506 1006.7 93.5925 1008.69 90.4345 1008.69C87.2764 1008.69 83.7675 1007.05 82.3639 1004.13C81.5451 1007.29 78.621 1009.74 75.4629 1009.98C72.3049 1010.09 67.8602 1009.04 66.8075 1006C65.053 1008.81 61.5441 1010.44 58.2691 1010.09C54.994 1009.74 51.719 1007.87 50.6663 1004.71C48.7949 1007.87 44.3502 1009.16 41.1921 1007.52C39.6716 1006.82 38.385 1005.42 37.5662 1003.89C36.6305 1002.14 36.3966 1000.15 36.9814 998.281C34.2912 999.801 30.5483 998.982 28.5599 996.526C26.6885 994.07 26.1036 990.21 28.209 987.871C25.1679 990.093 20.4893 989.274 18.384 986.116C16.2786 982.958 17.2143 978.046 20.4893 976.057C17.0973 974.186 14.875 970.209 14.875 966.232C14.992 962.255 17.3313 958.395 20.8402 956.758C22.9456 955.705 25.8697 954.068 27.7412 952.781H166.813C171.023 954.653 174.181 958.746 174.883 963.425C175.468 967.987 173.831 972.899 170.556 976.057Z" fill="#EBDCBF"/>
<path d="M146.578 970.092C148.216 971.846 148.45 974.771 147.28 976.876C146.11 978.981 144.239 980.853 141.9 980.385C143.186 983.309 142.017 987.169 139.209 988.806C136.519 990.444 132.425 991.146 130.554 988.572C130.32 991.964 127.747 995.122 124.472 995.824C121.197 996.526 116.986 996.058 115.466 993.017C114.647 995.356 112.541 997.228 110.202 997.696C107.746 998.164 104.12 998.164 102.599 996.175C101.547 999.099 98.5056 1001.2 95.4645 1000.97C92.4234 1000.85 88.4466 998.514 87.6278 995.59C86.5751 998.047 84.1189 999.801 81.5456 1000.04C78.9724 1000.27 75.3465 999.918 73.8259 997.813C72.5393 1000.74 69.3813 1002.73 66.3402 1002.73C63.1821 1002.73 59.6732 1001.09 58.2696 998.164C57.4508 1001.32 54.5267 1003.78 51.3686 1004.01C48.2106 1004.25 43.7659 1003.08 42.7132 1000.04C41.5435 1001.91 39.5551 1003.31 37.4498 1003.89C36.514 1002.14 36.2801 1000.15 36.8649 998.281C34.1747 999.801 30.4319 998.982 28.4435 996.526C26.572 994.07 25.9872 990.21 28.0926 987.871C25.0515 990.093 20.3729 989.274 18.2675 986.116C16.1621 982.958 17.0979 978.046 20.3729 976.057C16.9809 974.186 14.7585 970.209 14.7585 966.232C14.8755 962.255 17.2148 958.395 20.7238 956.758C22.8291 955.705 25.7533 954.068 27.6247 952.781H149.035C149.853 954.185 150.438 955.822 150.672 957.46C151.374 962.138 149.853 966.934 146.578 970.092Z" fill="#F5ECDA"/>
<path d="M165.877 967.519C163.304 969.858 160.38 971.496 157.105 972.548C153.947 973.601 150.555 973.952 147.163 973.952C145.876 973.952 144.706 973.835 143.42 973.718C141.665 973.601 140.028 973.25 138.39 972.899C133.595 971.847 128.916 970.092 124.355 968.104C123.302 967.636 122.249 967.168 121.08 966.817C117.804 965.414 114.413 964.01 111.021 962.723C108.213 961.671 105.406 960.735 102.482 960.15C101.312 959.916 100.143 959.682 98.9731 959.448C97.1017 959.097 95.3472 958.981 93.4758 958.981C87.5106 959.097 81.5453 960.735 75.931 962.84C75.814 962.84 75.6971 962.957 75.5801 962.957C73.9426 963.542 72.422 964.244 70.7845 964.829C63.4157 967.87 56.2808 971.262 48.5611 973.016C47.2745 973.25 46.1049 973.484 44.8183 973.718C43.5317 973.835 42.1281 974.069 40.8415 974.069C33.9405 974.303 27.0396 972.665 21.7761 968.221C21.5422 967.987 21.3083 967.87 21.0743 967.636C20.3725 966.934 19.7878 966.349 19.2029 965.531C12.7698 957.577 12.5359 945.413 17.2145 936.172C22.361 926.113 31.9521 918.978 42.1281 913.949C42.8298 913.598 43.5317 913.247 44.2335 913.013C45.871 912.194 47.5085 911.493 49.146 910.791C57.2166 907.516 65.6381 905.177 74.1765 903.89C75.5801 903.656 76.8667 903.539 78.2703 903.305C83.2998 902.72 88.4463 902.486 93.4758 902.603C95.8151 902.486 98.0374 902.603 100.377 902.603C101.663 902.603 102.833 902.72 104.12 902.837C110.904 903.305 117.688 904.475 124.355 906.112C125.524 906.463 126.694 906.697 127.747 907.048C133.595 908.802 139.326 911.025 144.823 913.832C145.174 914.066 145.642 914.183 145.993 914.417C147.046 914.885 148.098 915.469 149.034 916.054C154.999 919.446 160.497 923.54 164.824 928.687C165.643 929.739 166.462 930.792 167.164 931.845C168.1 933.131 168.918 934.652 169.62 936.055C174.766 946.231 174.182 959.799 165.877 967.519Z" fill="#FB7840"/>
<path d="M157.105 972.548C153.947 973.601 150.555 973.951 147.163 973.951C145.876 973.951 144.706 973.835 143.42 973.718C141.665 973.601 140.028 973.25 138.39 972.899C133.595 971.846 128.916 970.092 124.355 968.103C123.302 967.635 122.249 967.168 121.08 966.817C117.804 965.413 114.413 964.009 111.021 962.723C108.213 961.67 105.406 960.734 102.482 960.15C101.312 959.916 100.143 959.682 98.9731 959.448C97.1017 959.097 95.3472 958.98 93.4758 958.98C87.5105 959.097 81.5453 960.734 75.931 962.84C75.814 962.84 75.697 962.957 75.5801 962.957C73.9426 963.542 72.422 964.243 70.7845 964.828C63.4157 967.869 56.2808 971.261 48.5611 973.016C47.2745 973.25 46.1049 973.484 44.8183 973.718C43.5317 973.835 42.1281 974.068 40.8415 974.068C33.9405 974.302 27.0396 972.665 21.7761 968.22C21.5422 967.986 21.3083 967.869 21.0743 967.635C20.3725 966.934 19.7878 966.349 19.2029 965.53C12.7698 957.576 12.5359 945.412 17.2145 936.172C20.2556 934.066 23.5306 932.195 26.9226 930.44C27.6244 930.09 28.3262 929.739 29.028 929.505C30.6655 928.686 32.303 927.984 33.9405 927.282C42.0111 924.007 50.4326 921.668 58.9711 920.381C60.3746 920.148 61.7782 920.031 63.0648 919.797C68.0943 919.212 73.2408 918.978 78.2703 919.095C80.6096 918.978 82.8319 919.095 85.1712 919.095C86.4578 919.095 87.7444 919.212 88.9141 919.329C95.6981 919.797 102.482 920.966 109.149 922.604C110.319 922.955 111.371 923.189 112.541 923.54C118.389 925.294 124.121 927.516 129.618 930.323C129.969 930.557 130.437 930.674 130.788 930.908C131.84 931.376 132.893 931.961 133.829 932.546C139.794 935.938 145.291 940.032 149.619 945.178C150.438 946.231 151.257 947.283 151.958 948.336C152.894 949.623 153.713 951.143 154.415 952.547C157.573 958.629 158.508 965.998 157.105 972.548Z" fill="#F2994A"/>
<path d="M167.164 931.845C160.497 945.881 153.83 959.916 147.163 973.952C145.876 973.952 144.707 973.835 143.42 973.718C150.555 958.747 157.69 943.658 164.825 928.687C165.643 929.739 166.462 930.792 167.164 931.845Z" fill="#D96230"/>
<path d="M149.034 916.054C140.73 933.365 132.542 950.793 124.238 968.104C123.185 967.636 122.132 967.168 120.963 966.817C129.267 949.389 137.572 931.845 145.876 914.417C147.046 915.002 147.982 915.47 149.034 916.054Z" fill="#D96230"/>
<path d="M127.747 907.049C119.325 924.71 110.904 942.489 102.482 960.151C101.313 959.917 100.143 959.683 98.9734 959.449C107.395 941.67 115.816 923.891 124.355 906.113C125.408 906.464 126.577 906.698 127.747 907.049Z" fill="#D96230"/>
<path d="M104.12 902.838C94.6456 922.839 85.0544 942.957 75.5802 962.958C73.9427 963.543 72.4222 964.244 70.7847 964.829C80.6097 944.126 90.5518 923.307 100.377 902.604C101.547 902.604 102.833 902.721 104.12 902.838Z" fill="#D96230"/>
<path d="M78.2702 903.189C67.1585 926.699 55.9298 950.092 44.8181 973.602C43.5315 973.836 42.1279 973.953 40.7244 973.953C51.8361 950.56 62.9477 927.166 74.0594 903.773C75.463 903.54 76.8666 903.306 78.2702 903.189Z" fill="#D96230"/>
<path d="M49.029 910.675C39.9057 929.857 30.7824 948.922 21.7761 968.105C21.5422 967.871 21.3082 967.754 21.0743 967.52C20.3725 966.935 19.7877 966.233 19.2029 965.415C27.5074 947.87 35.9289 930.325 44.2334 912.78C45.754 912.078 47.3915 911.377 49.029 910.675Z" fill="#D96230"/>
<path d="M84.5152 945.033L95.276 956.847C95.276 956.847 81.3571 974.158 80.0705 970.766C78.7839 967.257 86.7375 959.42 86.7375 959.42L77.8481 949.712L84.5152 945.033Z" fill="#FCB682"/>
<path d="M93.4048 954.859L95.2762 956.847C95.2762 956.847 81.3574 974.158 80.0707 970.766C78.7841 967.257 86.7377 959.42 86.7377 959.42L86.2699 958.836C86.3868 958.719 86.6208 958.719 86.7377 958.602C88.8431 957.315 91.1824 956.028 93.4048 954.859Z" fill="#E83C3C"/>
<path d="M107.908 945.034L97.147 956.847C97.147 956.847 111.066 974.158 112.352 970.766C113.639 967.257 105.685 959.42 105.685 959.42L114.575 949.712L107.908 945.034Z" fill="#FCB682"/>
<path d="M99.0187 954.858L97.1472 956.847C97.1472 956.847 111.066 974.158 112.353 970.766C113.639 967.257 105.686 959.42 105.686 959.42L106.154 958.835C106.037 958.718 105.803 958.718 105.686 958.601C103.463 957.315 101.241 956.028 99.0187 954.858Z" fill="#E83C3C"/>
<path d="M96.329 890.996V907.137C96.329 907.137 78.3164 907.722 75.8601 909.359C75.8601 909.359 65.4502 919.418 91.0656 947.373L78.7842 956.964C78.7842 956.964 44.1625 925.033 48.2563 907.839C52.818 888.539 73.5208 890.879 73.5208 890.879L96.329 890.996Z" fill="#4E3E49"/>
<path d="M95.9778 890.996V907.137C95.9778 907.137 113.99 907.722 116.447 909.359C116.447 909.359 126.857 919.418 101.241 947.373L113.523 956.964C113.523 956.964 148.144 925.033 144.05 907.839C139.489 888.539 118.786 890.879 118.786 890.879L95.9778 890.996Z" fill="#4E3E49"/>
<path d="M102.568 813.211C104.601 812.948 106.635 812.684 108.593 812.092C110.551 811.499 112.359 810.445 113.489 808.931C114.619 807.416 114.92 805.375 113.941 803.794C113.338 802.872 112.359 802.082 112.058 801.094C111.606 799.843 112.359 798.46 112.284 797.143C112.208 795.958 111.531 794.772 110.476 794.048C109.346 793.323 107.765 793.06 106.409 793.323C105.43 791.743 104.451 790.162 103.17 788.845C101.815 787.528 100.082 786.409 98.0487 786.08C96.2411 785.816 94.2829 786.211 92.7765 787.199C91.3455 788.187 90.0651 789.636 89.9144 791.282C89.0106 791.282 88.1068 791.348 87.203 791.545C86.2992 791.743 85.4707 792.072 84.8682 792.731C84.0397 793.521 83.8137 794.706 83.8891 795.76C83.9644 796.814 84.4163 797.867 84.8682 798.855C84.2657 799.514 84.0397 800.238 83.4372 800.963C82.6087 801.95 81.7802 803.004 81.4036 804.189C80.9517 805.902 81.7049 807.745 83.0606 809.063C84.4163 810.38 86.2992 811.17 88.1822 811.697C87.9562 811.565 88.2575 811.697 88.0315 811.565C88.1068 811.565 88.2575 811.565 88.3328 811.565H100.986C100.986 811.894 100.911 812.289 100.911 812.619C101.589 812.816 102.041 812.948 102.568 813.211Z" fill="#4E3E49"/>
<path d="M118.319 837.894C118.319 837.894 107.441 827.952 96.2121 830.291C84.9835 827.952 74.1057 837.894 74.1057 837.894L79.2522 850.526L74.1057 890.645C83.6969 898.833 108.727 898.833 118.319 890.645L113.172 850.526L118.319 837.894Z" fill="#F2994A"/>
<path d="M85.9192 853.568C85.9192 859.182 90.5978 863.744 96.2121 863.744C101.826 863.744 106.505 859.182 106.505 853.568H85.9192Z" fill="white"/>
<path d="M108.727 803.272C108.727 803.272 107.908 820.583 97.4984 820.7C88.3752 820.7 86.7376 810.875 86.2698 804.676C86.2698 804.676 88.2582 801.05 92.4689 803.272C92.4689 803.272 93.6386 798.009 96.0948 797.775C98.5511 797.541 105.686 803.74 108.727 803.272Z" fill="#FCB682"/>
<path d="M100.794 817.863V830.771C100.794 830.771 106.521 834.259 106.203 837.05C105.885 839.841 84.8844 839.492 85.839 836.004C86.7935 832.515 93.6346 830.073 93.6346 830.073L93.7937 817.747H100.794V817.863Z" fill="#FCB682"/>
<path d="M93.7556 842.924C94.8083 841.169 96.7967 840.116 97.7324 838.362C98.5511 837.075 98.6681 835.438 98.4342 833.8C98.2002 832.28 97.6154 830.876 97.0306 829.356C98.4342 830.642 99.4869 832.514 99.8378 834.385C100.189 836.374 99.8377 838.362 98.902 840.116C98.0833 841.637 96.7967 842.807 96.3288 844.444C95.627 846.666 96.7967 849.357 98.902 850.292C97.0306 850.526 95.0422 849.708 93.9895 848.187C92.9368 846.666 92.8198 844.561 93.7556 842.924Z" fill="#E0CCB1"/>
<path d="M90.7147 868.071C88.2584 870.761 82.1762 873.919 75.8601 876.024C67.9065 878.715 59.8359 879.533 58.5493 875.674C53.5198 860.936 73.9887 837.894 73.9887 837.894L79.2521 850.526C79.2521 850.526 69.0761 864.913 70.7137 867.72C71.2985 868.773 73.9887 868.422 77.0298 867.603C82.0593 866.316 88.1414 863.626 88.1414 863.626L90.7147 868.071Z" fill="#FCB682"/>
<path d="M87.0887 865.263C87.0887 865.263 86.9717 858.479 88.1414 858.479C89.311 858.479 89.311 862.69 89.311 862.69C89.311 862.69 92.2351 857.778 93.0539 858.479C93.8726 859.181 91.7673 863.392 91.7673 863.392C91.7673 863.392 95.0423 859.883 95.6271 860.585C96.212 861.287 93.1709 865.146 93.1709 865.146C93.1709 865.146 95.6271 864.328 96.212 865.146C96.7968 865.965 93.4048 867.252 93.4048 867.252C93.4048 867.252 95.3932 867.603 95.5102 868.421C95.6271 869.24 89.7789 869.006 89.7789 869.006L87.0887 865.263Z" fill="#FCB682"/>
<path d="M133.758 875.674C132.471 879.533 124.284 878.598 116.447 876.024C110.131 873.919 104.049 870.761 101.593 868.071L104.166 863.626C104.166 863.626 110.248 866.316 115.277 867.603C118.319 868.422 121.009 868.773 121.594 867.72C123.231 865.03 113.055 850.526 113.055 850.526L118.202 837.894C118.319 837.894 138.787 860.936 133.758 875.674Z" fill="#FCB682"/>
<path d="M105.218 865.263C105.218 865.263 105.335 858.479 104.166 858.479C102.996 858.479 102.996 862.69 102.996 862.69C102.996 862.69 100.072 857.778 99.2532 858.479C98.4344 859.181 100.54 863.392 100.54 863.392C100.54 863.392 97.2648 859.883 96.6799 860.585C96.0951 861.287 99.1362 865.146 99.1362 865.146C99.1362 865.146 96.6799 864.328 96.0951 865.146C95.5103 865.965 98.9023 867.252 98.9023 867.252C98.9023 867.252 96.9139 867.603 96.7969 868.421C96.68 869.24 102.528 869.006 102.528 869.006L105.218 865.263Z" fill="#FCB682"/>
<g opacity="0.9">
<path d="M1274.58 390.935C1277.77 386.943 1279.64 381.986 1282.11 377.424C1284.59 372.959 1288.21 368.576 1293.27 367.374C1298.71 365.996 1304.58 368.915 1308 373.337C1311.42 377.759 1312.86 383.489 1313.24 389.021C1314.41 403.262 1309.96 417.9 1301.05 429.035C1292.15 440.267 1278.97 447.86 1264.81 449.939C1259.57 450.768 1253.63 450.615 1249.75 446.996C1246.13 443.632 1245.27 438.197 1245.51 433.256C1246.1 421.726 1251.54 410.562 1260.25 403.035C1265.04 398.93 1270.64 395.788 1274.58 390.935Z" fill="#C6CF5D"/>
<path d="M1292.52 385.258C1288.28 413.918 1267.51 437.278 1239.42 444.751C1238.17 445.101 1238.55 447.063 1239.81 446.713C1268.76 438.968 1290.14 415.08 1294.48 385.381C1294.74 384.107 1292.78 383.984 1292.52 385.258Z" fill="#696E2B"/>
<path d="M1267.3 371.578C1267.1 365.4 1268.94 359.227 1272.54 354.236C1276.03 349.166 1281.17 345.297 1287 343.332C1289.28 350.222 1288.55 358.418 1285.12 364.802C1281.59 371.205 1275.42 376.091 1268.36 377.994C1268.09 375.6 1267.37 374.01 1267.3 371.578Z" fill="#696E2B"/>
<path d="M1280.92 351.258C1274.01 360.673 1268.73 371.092 1265.11 382.201C1264.73 383.397 1266.59 384.049 1266.97 382.854C1270.51 371.861 1275.74 361.658 1282.57 352.361C1283.37 351.285 1281.63 350.201 1280.92 351.258Z" fill="#ABB344"/>
</g>
<g opacity="0.9">
<path d="M148.273 612.811L147.619 619.601L144.68 652.668C139.759 666.335 80.4504 685.104 69.1877 676.227L47.8843 650.725L43.5635 645.487L148.273 612.811Z" fill="#EBDCBF"/>
<path d="M148.273 612.811L147.619 619.601C140.647 629.749 123.327 640.614 101.611 647.39C79.8161 654.192 59.3905 655.107 47.9089 650.804L43.5881 645.566L148.298 612.89L148.273 612.811Z" fill="#E0CCB1"/>
<path d="M143.117 597.955C132.342 592.305 110.406 592.825 86.7954 600.193C63.2634 607.537 44.9258 619.585 39.1972 630.385L35.1699 631.642L37.7328 639.855C41.5524 652.094 69.6898 654.232 100.566 644.597C131.442 634.962 153.369 617.2 149.549 604.96L146.987 596.748L143.117 597.955Z" fill="#EBDCBF"/>
<path d="M147.12 596.619C147.564 598.041 147.667 599.482 147.454 601.021C145.762 612.815 125.459 627.73 98.1363 636.256C70.8139 644.783 45.6319 644.062 37.5324 635.324C36.4817 634.179 35.7469 632.935 35.3033 631.514C31.4837 619.274 53.4111 601.512 84.287 591.877C115.163 582.242 143.3 584.38 147.12 596.619Z" fill="#E0CCB1"/>
<path d="M147.479 601.1C145.786 612.894 125.483 627.809 98.161 636.335C70.8386 644.862 45.6566 644.141 37.5571 635.403C39.1704 623.634 59.5521 608.695 86.8746 600.168C114.197 591.642 139.354 592.284 147.479 601.1Z" fill="#ABB344"/>
<path d="M119.402 595.824C111.969 585.058 101.136 577 88.7064 572.993C88.213 572.801 88.0399 573.634 88.5333 573.827C100.78 577.804 111.406 585.754 118.765 596.283C118.992 596.732 119.708 596.248 119.402 595.824Z" fill="#696E2B"/>
<path d="M116.092 578.832C118.089 582.455 117.446 587.335 114.563 590.315C113.044 587.669 111.974 584.797 111.64 581.781C111.502 580.784 111.498 579.659 111.883 578.672C112.293 577.765 113.354 577 114.371 577.203C115.047 577.425 115.609 578.116 116.092 578.832Z" fill="#696E2B"/>
<path d="M109.724 572.587C111.721 576.21 111.077 581.09 108.194 584.07C106.675 581.424 105.685 578.527 105.271 575.536C105.134 574.539 105.129 573.414 105.514 572.427C105.924 571.52 106.986 570.755 108.002 570.958C108.757 571.156 109.344 571.926 109.724 572.587Z" fill="#696E2B"/>
<path d="M102.807 567.64C104.804 571.263 104.161 576.143 101.278 579.122C99.7591 576.477 98.6893 573.604 98.355 570.589C98.2172 569.592 98.2127 568.467 98.598 567.48C99.0079 566.572 100.069 565.808 101.086 566.01C101.841 566.208 102.403 566.899 102.807 567.64Z" fill="#696E2B"/>
<path d="M94.908 563.432C96.9052 567.055 96.2617 571.935 93.3786 574.915C91.8597 572.269 90.869 569.372 90.4556 566.381C90.3178 565.384 90.3133 564.259 90.6987 563.272C91.1086 562.365 92.1699 561.6 93.1864 561.803C93.9413 562.001 94.5036 562.692 94.908 563.432Z" fill="#696E2B"/>
<path d="M81.4597 566.156C85.244 568.008 88.5147 570.713 90.9611 574.109C87.4025 575.48 83.2918 575.636 79.6503 574.519C77.726 573.907 75.861 572.929 74.8994 571.236C73.8588 569.568 74.0374 567.085 75.6565 565.887C77.3299 564.585 79.6194 565.257 81.4597 566.156Z" fill="#696E2B"/>
<path d="M90.7607 581.798C92.5725 580.106 93.8712 577.881 94.415 575.458C91.7105 575.955 89.0749 576.951 86.7451 578.371C85.7135 578.953 84.6769 579.797 84.6271 581.025C84.5229 582.358 85.8894 583.405 87.1971 583.43C88.5838 583.43 89.7487 582.72 90.7607 581.798Z" fill="#696E2B"/>
<path d="M97.8747 585.99C99.6865 584.298 100.985 582.073 101.529 579.65C98.8245 580.148 96.1889 581.144 93.8591 582.564C92.8275 583.146 91.7909 583.989 91.7411 585.218C91.6369 586.55 93.0034 587.597 94.3112 587.622C95.6189 587.647 96.8627 586.913 97.8747 585.99Z" fill="#696E2B"/>
<path d="M104.131 589.931C105.942 588.239 107.241 586.014 107.785 583.591C105.08 584.088 102.445 585.084 100.115 586.504C99.0834 587.086 98.0468 587.93 97.9969 589.158C97.8928 590.491 99.2593 591.537 100.567 591.563C101.954 591.563 103.198 590.828 104.131 589.931Z" fill="#696E2B"/>
<path d="M109.552 595.085C111.364 593.393 112.662 591.168 113.206 588.745C110.502 589.242 107.866 590.238 105.536 591.658C104.505 592.24 103.468 593.084 103.418 594.312C103.314 595.645 104.681 596.692 105.988 596.717C107.296 596.742 108.515 595.928 109.552 595.085Z" fill="#696E2B"/>
<path d="M115.008 598.408C111.318 595.747 108.142 592.232 106.732 587.992C105.298 583.674 105.946 578.532 109.096 575.296C112.221 571.981 117.886 571.253 121.335 574.25C123.063 571.457 124.826 568.221 127.506 566.258C130.187 564.295 133.997 563.452 136.868 565.156C138.965 566.321 140.203 568.622 140.68 570.985C141.079 573.374 140.797 575.802 140.228 578.146C143.14 577.757 145.996 580.245 146.726 583.137C147.43 585.95 146.402 589.044 144.477 591.205C142.576 593.445 140.01 594.939 137.32 596.038C130.277 599.016 121.175 602.896 115.008 598.408Z" fill="#ABB344"/>
<path d="M142.906 584.503C137.047 587.111 131.292 589.774 125.433 592.382C128.688 585.04 131.968 577.777 135.223 570.436C135.415 569.942 134.69 569.562 134.497 570.055C131.242 577.397 127.987 584.739 124.629 592.026C122.327 586.592 119.496 581.409 116.004 576.606C115.698 576.182 114.983 576.665 115.288 577.09C118.83 582.051 121.788 587.367 124.086 593.062C123.819 593.319 123.967 593.793 124.308 593.773C124.515 593.882 124.752 593.808 124.86 593.6L143.073 585.317C143.601 585.066 143.355 584.276 142.906 584.503Z" fill="#696E2B"/>
<path d="M147.383 599.731C147.547 594.114 143.126 589.428 137.509 589.264C131.892 589.1 127.206 593.521 127.042 599.138C126.878 604.755 131.299 609.441 136.916 609.605C142.533 609.769 147.219 605.348 147.383 599.731Z" fill="#BD537B"/>
<path d="M139.793 607.572C135.292 608.976 130.526 606.478 129.121 601.976C127.716 597.475 130.215 592.709 134.716 591.305C139.217 589.9 143.983 592.399 145.388 596.9C146.714 601.426 144.215 606.192 139.793 607.572ZM134.913 591.936C130.728 593.242 128.471 597.673 129.753 601.779C131.059 605.965 135.489 608.221 139.596 606.94C143.781 605.634 146.038 601.203 144.756 597.097C143.475 592.991 139.02 590.655 134.913 591.936Z" fill="#DB749B"/>
<path d="M139.177 605.598C135.781 606.657 132.155 604.756 131.095 601.36C130.036 597.965 131.937 594.338 135.332 593.279C138.728 592.219 142.354 594.121 143.414 597.516C144.474 600.912 142.572 604.538 139.177 605.598ZM135.505 593.832C132.425 594.793 130.687 598.108 131.648 601.188C132.609 604.268 135.925 606.006 139.004 605.045C142.084 604.084 143.822 600.768 142.861 597.689C141.821 594.634 138.585 592.871 135.505 593.832Z" fill="#DB749B"/>
<path d="M138.585 603.702C136.216 604.442 133.729 603.138 132.99 600.769C132.251 598.4 133.555 595.913 135.924 595.174C138.293 594.435 140.779 595.739 141.519 598.108C142.179 600.501 140.875 602.988 138.585 603.702ZM136.121 595.806C134.068 596.446 132.927 598.622 133.568 600.675C134.208 602.729 136.384 603.869 138.437 603.229C140.49 602.588 141.631 600.412 140.99 598.359C140.246 596.252 138.095 595.19 136.121 595.806Z" fill="#DB749B"/>
<path d="M137.994 601.807C136.73 602.202 135.383 601.495 134.989 600.232C134.595 598.968 135.301 597.621 136.564 597.227C137.828 596.833 139.175 597.539 139.569 598.803C139.939 599.987 139.257 601.413 137.994 601.807ZM136.712 597.701C135.765 597.997 135.221 599.033 135.517 599.98C135.813 600.928 136.849 601.471 137.797 601.176C138.744 600.88 139.287 599.844 138.992 598.896C138.696 597.948 137.66 597.405 136.712 597.701Z" fill="#DB749B"/>
<path d="M141.355 612.024C138.445 620.471 129.255 624.899 120.807 621.989C116.233 620.383 112.845 617.021 111.119 612.88C109.67 609.346 109.459 605.339 110.763 601.466C113.673 593.019 122.864 588.591 131.311 591.501C134.118 592.444 136.467 594.138 138.257 596.266C141.996 600.471 143.321 606.384 141.355 612.024Z" fill="#BC2A57"/>
<path d="M138.589 607.601C135.679 616.048 126.488 620.476 118.041 617.566C115.234 616.622 112.885 614.929 111.095 612.801C109.645 609.267 109.435 605.26 110.739 601.387C113.649 592.94 122.839 588.512 131.287 591.422C134.094 592.365 136.442 594.059 138.233 596.187C139.761 599.696 139.997 603.782 138.589 607.601Z" fill="#E83C3C"/>
<path d="M131.812 610.322C130.643 609.907 129.384 610.04 128.274 610.647C127.163 611.253 125.905 611.386 124.656 610.996C123.383 610.526 122.485 609.593 121.958 608.458C121.509 607.298 120.557 606.469 119.388 606.054C115.88 604.809 112.542 608.277 113.888 611.756C115.288 615.132 118.061 617.907 121.751 619.181C125.442 620.456 129.375 620.008 132.524 618.159C135.777 616.364 135.32 611.567 131.812 610.322Z" fill="#FF484B"/>
<path d="M120.331 603.246C121.501 603.661 122.759 603.528 123.87 602.922C124.98 602.315 126.239 602.183 127.487 602.573C128.76 603.042 129.658 603.975 130.186 605.11C130.634 606.27 131.586 607.1 132.756 607.515C136.264 608.76 139.601 605.292 138.255 601.812C136.855 598.436 134.083 595.662 130.392 594.387C126.701 593.113 122.768 593.56 119.619 595.409C116.366 597.204 116.848 602.08 120.331 603.246Z" fill="#FF484B"/>
<path d="M123.647 615.816C123.509 616.206 123.114 616.329 122.828 616.245C122.438 616.107 122.315 615.712 122.399 615.426C122.537 615.036 123.045 614.444 123.411 614.504C123.776 614.563 123.785 615.427 123.647 615.816Z" fill="#53360A"/>
<path d="M120.504 613.244C120.445 613.609 120.178 613.866 119.838 613.885C119.473 613.826 119.216 613.559 119.197 613.219C119.256 612.854 119.533 612.074 119.952 612.03C120.293 612.01 120.485 612.904 120.504 613.244Z" fill="#53360A"/>
<path d="M117.392 610.489C117.332 610.854 117.066 611.111 116.725 611.131C116.36 611.071 116.104 610.805 116.084 610.464C116.143 610.099 116.42 609.319 116.84 609.275C117.205 609.334 117.451 610.124 117.392 610.489Z" fill="#53360A"/>
<path d="M126.534 615.349C126.371 615.66 126.415 616.079 126.726 616.242C127.037 616.405 127.456 616.361 127.619 616.05C127.782 615.739 128.034 614.881 127.723 614.718C127.388 614.476 126.697 615.038 126.534 615.349Z" fill="#53360A"/>
<path d="M130.595 615.035C130.432 615.345 130.476 615.765 130.787 615.928C131.098 616.091 131.517 616.047 131.68 615.736C131.843 615.425 132.095 614.566 131.785 614.403C131.474 614.24 130.783 614.803 130.595 615.035Z" fill="#53360A"/>
<path d="M129.768 598.221C129.907 597.832 129.705 597.461 129.339 597.402C128.95 597.264 128.579 597.466 128.52 597.831C128.382 598.221 128.391 599.084 128.756 599.144C129.122 599.203 129.606 598.532 129.768 598.221Z" fill="#53360A"/>
<path d="M125.633 598.299C125.796 597.988 125.752 597.568 125.441 597.405C125.131 597.242 124.711 597.287 124.548 597.597C124.385 597.908 124.133 598.767 124.444 598.93C124.755 599.093 125.446 598.531 125.633 598.299Z" fill="#53360A"/>
<path d="M121.626 598.509C121.789 598.198 121.745 597.779 121.434 597.616C121.123 597.453 120.703 597.497 120.541 597.808C120.378 598.119 120.126 598.978 120.436 599.14C120.668 599.328 121.359 598.766 121.626 598.509Z" fill="#53360A"/>
<path d="M131.717 600.3C131.776 599.935 132.043 599.678 132.384 599.658C132.749 599.718 133.005 599.984 133.025 600.325C132.965 600.69 132.689 601.47 132.269 601.514C131.929 601.533 131.682 600.744 131.717 600.3Z" fill="#53360A"/>
<path d="M134.751 603.079C134.81 602.714 135.077 602.457 135.418 602.438C135.783 602.497 136.039 602.764 136.059 603.104C135.999 603.469 135.723 604.249 135.303 604.293C134.938 604.234 134.692 603.444 134.751 603.079Z" fill="#53360A"/>
<path d="M131.844 628.386C137.187 622.686 136.898 613.734 131.199 608.391C125.499 603.048 116.547 603.337 111.204 609.037C105.861 614.737 106.15 623.688 111.85 629.031C117.549 634.374 126.501 634.085 131.844 628.386Z" fill="#BD537B"/>
<path d="M125.024 629.945C118.865 631.867 112.234 628.391 110.312 622.231C108.389 616.072 111.866 609.441 118.026 607.519C124.185 605.597 130.816 609.073 132.738 615.233C134.66 621.392 131.184 628.023 125.024 629.945ZM118.272 608.308C112.507 610.107 109.302 616.22 111.101 621.985C112.9 627.749 119.013 630.955 124.778 629.156C130.542 627.357 133.747 621.244 131.948 615.479C130.149 609.715 123.958 606.534 118.272 608.308Z" fill="#DB749B"/>
<path d="M124.186 627.26C119.448 628.739 114.45 626.053 112.996 621.393C111.542 616.734 114.204 611.658 118.863 610.204C123.522 608.75 128.599 611.412 130.053 616.071C131.507 620.73 128.845 625.806 124.186 627.26ZM119.085 610.914C114.821 612.245 112.43 616.804 113.761 621.068C115.092 625.332 119.651 627.723 123.915 626.392C128.179 625.061 130.569 620.502 129.239 616.238C127.908 611.974 123.349 609.584 119.085 610.914Z" fill="#DB749B"/>
<path d="M123.348 624.576C120.111 625.586 116.612 623.818 115.577 620.501C114.542 617.185 116.335 613.766 119.652 612.731C122.889 611.72 126.387 613.488 127.422 616.805C128.457 620.121 126.586 623.565 123.348 624.576ZM119.923 613.599C117.08 614.486 115.505 617.491 116.392 620.334C117.279 623.177 120.284 624.752 123.126 623.865C125.969 622.978 127.545 619.973 126.657 617.13C125.691 614.312 122.687 612.737 119.923 613.599Z" fill="#DB749B"/>
<path d="M122.51 621.891C120.773 622.433 118.829 621.48 118.262 619.663C117.696 617.847 118.673 615.982 120.49 615.415C122.227 614.873 124.171 615.826 124.738 617.643C125.304 619.459 124.248 621.349 122.51 621.891ZM120.761 616.284C119.418 616.703 118.658 618.154 119.077 619.496C119.496 620.838 120.946 621.599 122.289 621.18C123.631 620.761 124.391 619.311 123.973 617.968C123.475 616.65 122.103 615.865 120.761 616.284Z" fill="#DB749B"/>
<path d="M62.6143 639.889C72.2526 636.881 77.6276 626.63 74.6198 616.991C71.612 607.353 61.3604 601.978 51.7221 604.986C42.0839 607.994 36.7088 618.245 39.7166 627.884C42.7244 637.522 52.976 642.897 62.6143 639.889Z" fill="#BD537B"/>
<path d="M61.7027 636.967C53.7271 639.456 45.1521 635.026 42.6386 626.972C40.1496 618.996 44.5795 610.421 52.6341 607.908C60.6887 605.394 69.1847 609.849 71.6983 617.903C74.1872 625.879 69.7573 634.454 61.7027 636.967ZM52.9545 608.934C45.5316 611.251 41.3487 619.229 43.6651 626.651C45.9816 634.074 53.9595 638.257 61.3823 635.941C68.8052 633.624 72.9881 625.646 70.6717 618.224C68.3553 610.801 60.3773 606.618 52.9545 608.934Z" fill="#DB749B"/>
<path d="M60.6182 633.493C54.5378 635.39 48.0104 631.968 46.1129 625.887C44.2153 619.807 47.6377 613.28 53.7182 611.382C59.7986 609.485 66.326 612.907 68.2235 618.987C70.121 625.068 66.6986 631.595 60.6182 633.493ZM54.0385 612.409C48.5109 614.134 45.4144 620.039 47.1394 625.567C48.8644 631.095 54.7702 634.191 60.2978 632.466C65.8255 630.741 68.9219 624.835 67.1969 619.308C65.4719 613.78 59.5662 610.684 54.0385 612.409Z" fill="#DB749B"/>
<path d="M59.5339 630.018C55.3487 631.324 50.8935 628.988 49.5874 624.803C48.2813 620.618 50.6172 616.163 54.8025 614.857C58.9877 613.551 63.4429 615.887 64.749 620.072C66.134 624.232 63.7191 628.712 59.5339 630.018ZM55.0982 615.804C51.4657 616.938 49.4557 620.771 50.5893 624.404C51.7229 628.036 55.5564 630.046 59.1889 628.913C62.8214 627.779 64.8314 623.946 63.6978 620.313C62.6678 616.735 58.7306 614.671 55.0982 615.804Z" fill="#DB749B"/>
<path d="M58.4744 626.623C56.1844 627.337 53.6977 626.034 52.9831 623.744C52.2684 621.454 53.5722 618.967 55.8622 618.252C58.1523 617.538 60.6389 618.841 61.3535 621.131C62.0682 623.421 60.7644 625.908 58.4744 626.623ZM56.1826 619.279C54.4453 619.821 53.4675 621.686 54.0096 623.423C54.5518 625.16 56.4168 626.138 58.154 625.596C59.8913 625.054 60.8691 623.189 60.327 621.452C59.7848 619.714 57.9199 618.737 56.1826 619.279Z" fill="#DB749B"/>
<path d="M98.6708 619.365C98.3857 616.507 98.155 613.546 99.0443 610.842C99.9336 608.138 102.284 605.672 105.24 605.703C107.046 605.659 108.753 606.686 109.932 607.965C111.135 609.322 111.835 611.01 112.298 612.772C113.594 617.48 113.025 622.598 110.847 627.004C108.644 631.33 104.809 634.867 100.327 636.612C99.7569 630.898 99.2657 625.158 98.6708 619.365Z" fill="#C6CF5D"/>
<path d="M76.9609 612.275C82.6196 603.749 85.6437 593.447 85.3171 583.237C85.195 580.068 84.7867 576.816 83.1396 574.037C81.5714 571.234 78.5768 569.135 75.4086 569.257C73.0004 569.316 70.7496 570.711 69.2733 572.645C67.797 574.579 66.9867 577.258 66.6008 579.632C65.4521 576.784 62.6401 574.715 59.5559 574.551C56.5507 574.362 53.4312 576.029 51.9399 578.748C50.0682 582.191 50.8759 586.445 51.7182 590.255C49.7849 587.392 45.1068 587.119 42.2438 589.053C39.3809 590.986 37.978 594.543 37.8582 598.047C37.8218 602.651 39.8285 607.138 43.0349 610.47C46.2412 613.802 50.4892 616.029 54.9152 617.161C62.0996 619.079 69.9117 618.287 76.644 615.147C76.7431 614.076 76.9408 613.321 76.9609 612.275Z" fill="#ABB344"/>
<path d="M73.3164 581.436C75.5925 590.951 76.0575 600.771 74.588 610.502C72.2133 600.671 67.4696 591.579 60.6823 583.992C60.2975 583.592 59.789 584.184 60.0948 584.608C67.0103 592.329 71.749 601.682 73.9361 611.745C68.2644 603.29 59.3792 597.31 49.3425 595.416C48.7948 595.327 48.6218 596.161 49.1695 596.25C59.3887 598.174 68.4268 604.366 73.9356 613.132C74.0638 613.265 74.1674 613.32 74.35 613.349C74.3746 613.428 74.3746 613.428 74.3993 613.507C74.4682 614.006 75.2578 613.759 75.1889 613.261C75.1397 613.103 75.0657 612.866 75.0954 612.683C76.9451 602.227 76.6532 591.573 74.1307 581.268C74.0371 580.691 73.2475 580.937 73.3164 581.436Z" fill="#696E2B"/>
<path d="M83.985 607.57C81.4194 606.29 79.234 604.286 77.9224 601.749C76.6107 599.212 76.2517 596.118 77.2446 593.468C78.2376 590.819 80.5825 588.614 83.4449 588.067C86.2283 587.545 89.3959 588.81 90.7866 591.322C91.1478 588.869 92.0864 586.323 93.8981 584.632C95.7345 583.019 98.5476 582.314 100.723 583.455C102.381 584.324 103.446 586.071 103.697 587.986C103.924 589.822 103.572 591.751 102.728 593.488C105.576 592.339 109.03 593.688 110.548 596.334C112.067 598.979 111.765 602.453 110.274 605.172C108.782 607.89 106.26 609.804 103.486 611.19C100.687 612.496 97.7163 613.25 94.7452 614.004C91.2819 611.792 87.7149 609.525 83.985 607.57Z" fill="#B39944"/>
<path d="M108.099 599.871C102.167 600.856 96.7826 603.316 92.1325 607.02C93.8126 601.296 95.5716 595.548 97.2517 589.824C97.4444 589.331 96.6105 589.158 96.4178 589.651C94.7377 595.375 92.954 601.044 91.2739 606.768C90.6886 601.838 88.7363 597.248 85.7769 593.319C85.4711 592.894 84.7554 593.377 85.0612 593.802C88.3017 598.077 90.1947 603.032 90.6417 608.352C90.5084 608.48 90.4294 608.505 90.2961 608.633C90.0296 608.89 90.2317 609.26 90.5969 609.319C90.4882 609.526 90.4832 609.788 90.3745 609.995C90.1819 610.488 91.0158 610.662 91.2085 610.168C91.3765 609.596 91.5445 609.023 91.7125 608.451C96.4219 604.382 101.994 601.689 108.163 600.631C108.686 600.641 108.598 599.802 108.099 599.871Z" fill="#856E25"/>
<path d="M104.842 614.146C105.298 620.329 104.605 626.438 102.895 632.345C102.702 632.838 103.536 633.011 103.729 632.518C105.493 626.508 106.162 620.32 105.681 614.057C105.636 613.638 104.852 613.623 104.842 614.146Z" fill="#696E2B"/>
<path d="M126.179 616.153C125.128 616.394 124.061 617.42 123.701 618.486C123.923 616.424 123.362 614.346 122.321 612.677C121.636 611.591 120.452 610.574 119.218 610.786C117.905 611.022 117.199 612.369 116.912 613.672C116.141 617.032 116.436 620.753 118.423 623.513C117.708 622.609 117.018 621.785 116.115 621.113C115.212 620.442 114.176 619.899 113.051 619.903C111.926 619.908 110.815 620.514 110.351 621.526C109.97 622.251 110.005 623.194 110.33 623.959C110.655 624.724 111.139 625.439 111.755 626.027C114.015 628.268 117.291 629.325 120.41 629.045C122.246 628.819 124.343 628.598 125.651 627.236C126.96 625.875 127.75 624.242 128.619 622.584C129.379 621.133 130.091 619.525 129.519 617.97C129.021 616.653 127.546 615.813 126.179 616.153Z" fill="#ABB344"/>
<path d="M126.434 619.193C124.578 621.852 122.721 624.511 120.786 627.195C120.516 623.553 120.221 619.832 120.03 616.165C119.961 615.667 119.176 615.652 119.166 616.175C119.387 619.659 119.662 623.039 119.883 626.523C118.423 624.899 116.587 623.739 114.481 623.097C113.987 622.904 113.814 623.738 114.307 623.93C116.597 624.603 118.482 625.921 119.937 627.807C119.961 627.886 120.04 627.861 120.065 627.94C120.109 628.359 120.153 628.779 120.119 629.223C120.188 629.721 120.972 629.736 120.982 629.213C121.012 629.031 120.938 628.794 120.968 628.611C123.012 625.72 125.056 622.829 127.1 619.938C127.347 619.341 126.809 618.729 126.434 619.193Z" fill="#696E2B"/>
<path d="M91.8864 642.886C82.1136 647.669 70.2618 643.568 65.5578 633.771C62.9395 628.435 63.0257 622.603 65.0855 617.54C66.8687 613.258 70.1567 609.632 74.6729 607.443C84.4457 602.66 96.2975 606.76 101.001 616.558C102.614 619.781 103.175 623.245 102.927 626.615C102.431 633.356 98.4361 639.716 91.8864 642.886Z" fill="#BC2A57"/>
<path d="M93.4185 636.689C83.6457 641.472 71.7939 637.371 67.0899 627.574C65.4775 624.35 64.9163 620.886 65.1644 617.516C66.9475 613.233 70.2355 609.607 74.7517 607.418C84.5245 602.635 96.3763 606.736 101.08 616.533C102.693 619.756 103.254 623.22 103.006 626.591C101.223 630.874 97.9347 634.499 93.4185 636.689Z" fill="#E83C3C"/>
<path d="M85.1941 633.103C84.5136 631.755 83.3297 630.738 81.8988 630.318C80.4678 629.898 79.1259 628.93 78.4208 627.504C77.7157 626.078 77.7213 624.429 78.3239 623.028C78.9265 621.627 78.8777 620.082 78.1973 618.735C76.2348 614.668 70.2933 614.789 68.5644 618.968C66.811 623.068 66.8239 627.83 68.8849 632.213C71.0003 636.492 74.789 639.469 79.0572 640.651C83.4832 641.782 87.1566 637.17 85.1941 633.103Z" fill="#FF484B"/>
<path d="M81.42 617.122C82.1004 618.47 83.2844 619.487 84.7153 619.907C86.1462 620.327 87.4881 621.295 88.1932 622.721C88.8984 624.148 88.8928 625.796 88.2902 627.197C87.6876 628.598 87.7363 630.143 88.4168 631.49C90.3792 635.557 96.3208 635.436 98.0496 631.257C99.8031 627.157 99.7902 622.395 97.7291 618.012C95.6138 613.733 91.825 610.756 87.5569 609.574C83.1555 608.522 79.4575 613.055 81.42 617.122Z" fill="#FF484B"/>
<path d="M73.3855 630.808C73.0153 631.011 72.5219 630.818 72.3197 630.448C72.1175 630.077 72.3102 629.584 72.6804 629.382C73.0506 629.18 74.1511 629.096 74.3532 629.466C74.5554 629.837 73.7803 630.685 73.3855 630.808Z" fill="#53360A"/>
<path d="M72.8794 625.854C72.5338 626.135 72.0108 626.125 71.7296 625.779C71.4485 625.434 71.4585 624.91 71.8041 624.629C72.1496 624.348 73.1516 623.949 73.4327 624.294C73.7139 624.64 73.2249 625.572 72.8794 625.854Z" fill="#53360A"/>
<path d="M72.6345 620.904C72.289 621.185 71.7659 621.175 71.4847 620.829C71.2036 620.484 71.2137 619.961 71.5592 619.68C71.9048 619.398 72.9067 618.999 73.1878 619.345C73.4443 619.611 72.9554 620.544 72.6345 620.904Z" fill="#53360A"/>
<path d="M76.2765 632.852C75.857 632.897 75.5607 633.336 75.605 633.755C75.6492 634.175 76.0883 634.471 76.5078 634.427C76.9273 634.383 77.8799 633.825 77.811 633.327C77.7914 632.986 76.7749 632.784 76.2765 632.852Z" fill="#53360A"/>
<path d="M80.0848 636.17C79.6653 636.214 79.3691 636.653 79.4133 637.073C79.4576 637.492 79.8967 637.789 80.3161 637.744C80.7356 637.7 81.6882 637.143 81.6194 636.644C81.4961 636.25 80.4796 636.047 80.0848 636.17Z" fill="#53360A"/>
<path d="M93.9331 620.843C94.3033 620.641 94.4959 620.148 94.2937 619.777C94.0916 619.407 93.5982 619.215 93.228 619.417C92.8578 619.619 92.058 620.388 92.2602 620.759C92.487 621.208 93.4839 621.07 93.9331 620.843Z" fill="#53360A"/>
<path d="M90.2581 617.397C90.6776 617.353 90.9738 616.914 90.9296 616.494C90.8853 616.075 90.4462 615.779 90.0268 615.823C89.6073 615.867 88.6547 616.424 88.7235 616.923C88.8468 617.318 89.8386 617.441 90.2581 617.397Z" fill="#53360A"/>
<path d="M86.5533 614.134C86.9727 614.09 87.269 613.651 87.2247 613.231C87.1805 612.812 86.7414 612.515 86.3219 612.56C85.9025 612.604 84.9498 613.161 85.0187 613.66C85.0383 614 86.1338 614.178 86.5533 614.134Z" fill="#53360A"/>
<path d="M93.7348 624.371C94.0804 624.09 94.6035 624.1 94.8846 624.446C95.1658 624.791 95.1557 625.315 94.8101 625.596C94.4646 625.877 93.4627 626.276 93.1815 625.931C92.8214 625.61 93.4139 624.732 93.7348 624.371Z" fill="#53360A"/>
<path d="M94.0041 629.4C94.3497 629.119 94.8728 629.129 95.1539 629.475C95.4351 629.82 95.425 630.343 95.0794 630.624C94.7339 630.906 93.732 631.305 93.4508 630.959C93.1697 630.614 93.6586 629.681 94.0041 629.4Z" fill="#53360A"/>
</g>
<g opacity="0.9">
<path d="M296.148 497.53L314.511 543.821C313.45 544.672 312.223 545.374 310.958 545.983C292.566 555.215 233.27 576.048 226.786 570.552C226.453 570.254 226.212 569.919 225.935 569.491C225.935 569.491 225.898 569.398 225.825 569.212C224.404 565.903 210.384 533.273 208.541 528.625C206.586 523.699 207.203 522.271 207.203 522.271L213.646 522.512C213.646 522.512 283.998 499.445 285.094 499.225C286.19 499.006 294.24 495.705 294.24 495.705L296.148 497.53Z" fill="#4E3E49"/>
<path d="M255.02 509.111C255.579 528.147 256.1 547.089 257.197 566.126C262.773 564.452 268.72 562.631 274.594 560.624C274.927 541.665 272.66 522.662 272.008 503.663C267.027 505.209 261.117 507.123 255.02 509.111Z" fill="#5C5567"/>
<path d="M327.408 501.481C330.377 508.695 328.096 533.59 314.455 543.95L296.092 497.66L296.364 493.464L303.566 481.247L307.388 469.726L306.224 454.589L307.972 453.572C307.972 453.572 309.44 453.205 312.3 459.601C315.18 465.774 327.408 501.481 327.408 501.481Z" fill="#3A2C39"/>
<path d="M228.269 480.456C237.829 475.266 303.229 449.752 307.898 453.386C312.568 457.021 310.95 490.367 292.595 499.692C274.203 508.925 214.907 529.758 208.423 524.261C202.143 519.007 218.673 485.554 228.269 480.456Z" fill="#5C5567"/>
<path d="M268.314 477.265C269.555 478.494 270.832 479.816 270.994 481.581C271.265 484.163 269.105 486.311 267.04 487.883C264.155 490.104 260.993 491.896 257.72 493.409C255.712 494.313 253.315 495.049 251.592 493.689C250.332 492.682 249.984 490.992 249.802 489.45C249.328 486.626 248.946 483.765 249.325 480.925C249.705 478.085 250.976 475.322 253.357 473.731C255.645 472.178 258.71 472.038 261.382 472.807C263.997 473.706 266.277 475.384 268.314 477.265Z" fill="#D96230"/>
<path d="M253.823 486.026C251.642 488.935 248.665 491.192 245.299 492.742C242.734 493.868 239.927 494.658 237.049 494.724C234.3 494.846 231.293 494.318 229.498 492.233C227.943 490.483 227.579 487.938 227.864 485.673C228.338 482.258 230.222 479.143 233.051 477.053C235.359 475.277 238.091 474.301 240.97 474.235C247.32 474.513 253.154 479.729 253.823 486.026Z" fill="#FB7840"/>
<path d="M250.42 488.022C249.003 489.875 247.29 491.522 245.336 492.835C242.771 493.961 239.964 494.751 237.086 494.817C234.337 494.939 231.33 494.411 229.535 492.326C227.98 490.576 227.616 488.031 227.901 485.766C228.375 482.351 230.259 479.236 233.088 477.146C234.482 476.593 236.08 476.282 237.603 476.323C243.879 476.416 249.75 481.725 250.42 488.022Z" fill="#FBA540"/>
<path d="M283.937 475.156C280.567 478.322 276.549 480.668 272.2 482.179C271.047 482.528 269.895 482.878 268.706 483.134C266.643 483.63 264.34 483.79 262.598 482.653C261.189 481.813 260.339 480.214 259.991 478.523C259.68 476.925 259.964 475.199 260.284 473.566C261.074 470.132 262.904 466.609 265.713 464.742C266.327 464.391 267.033 464.003 267.721 463.838C271.141 462.696 275.018 464.063 277.778 466.41C280.539 468.758 282.368 472.013 283.937 475.156Z" fill="#FB7840"/>
<path d="M281.799 476.004C279.211 478.429 276.309 480.333 273.129 481.81C271.977 482.16 270.825 482.509 269.635 482.766C267.573 483.261 265.27 483.422 263.527 482.284C262.118 481.444 261.269 479.845 260.921 478.154C260.61 476.556 260.893 474.83 261.213 473.197C262.003 469.764 263.833 466.241 266.642 464.373C269.745 463.788 273.14 465.023 275.604 467.166C278.401 469.606 280.23 472.861 281.799 476.004Z" fill="#FBA540"/>
<path d="M297.486 471.072C297.425 472.817 296.067 474.002 294.541 475.037C294.206 475.278 293.871 475.518 293.499 475.666C290.988 477.2 288.347 478.678 285.393 479.097C282.439 479.515 279.118 478.466 277.584 475.955C276.438 474.15 276.444 471.996 276.357 469.879C276.327 467.632 276.408 465.125 277.435 463.104C277.547 462.844 277.696 462.678 277.808 462.418C279.804 459.583 284.02 459.093 287.192 460.309C290.457 461.489 292.919 464.17 295.251 466.795C296.492 468.024 297.584 469.42 297.486 471.072Z" fill="#D96230"/>
<path d="M295.957 473.185C295.956 473.723 295.732 474.242 295.563 474.632C295.228 474.872 294.893 475.113 294.522 475.26C292.01 476.794 289.276 478.309 286.415 478.691C283.462 479.11 280.141 478.06 278.607 475.549C277.46 473.745 277.467 471.591 277.38 469.473C277.349 467.226 277.43 464.72 278.458 462.698C280.578 461.535 283.456 461.469 285.849 462.348C289.151 463.62 291.576 466.208 293.816 468.87C294.963 470.136 296.055 471.532 295.957 473.185Z" fill="#FB7840"/>
<path d="M305.056 460.323C305.091 460.955 305.163 461.679 305.18 462.533C305.178 463.072 305.177 463.61 305.175 464.149C305.114 465.894 304.978 467.992 304.656 470.164C304.656 470.164 304.656 470.164 304.564 470.201C303.894 470.682 303.317 471.126 302.573 471.421C302.015 471.642 301.365 471.9 300.77 472.028C299.618 472.378 298.392 472.542 297.185 472.482C294.901 472.42 292.638 471.597 291.269 469.773C290.788 469.103 290.4 468.396 290.198 467.616C290.124 467.43 290.051 467.244 290.107 467.114C289.959 466.742 289.941 466.427 289.887 466.018C289.686 464.699 289.672 463.306 289.88 461.933C289.936 461.803 289.955 461.58 289.974 461.357C290.276 459.947 290.892 458.519 291.843 457.389C293.706 455.036 297.126 453.894 299.909 454.942C301.43 455.522 302.764 456.714 303.725 458.054C303.929 458.296 304.133 458.538 304.373 458.873C304.538 459.56 304.779 459.895 305.056 460.323Z" fill="#FB7840"/>
<path d="M305.18 462.533C305.178 463.072 305.177 463.61 305.175 464.149C305.114 465.894 304.978 467.992 304.656 470.164C304.656 470.164 304.656 470.164 304.564 470.201C303.894 470.682 303.317 471.126 302.573 471.421C302.294 471.531 302.015 471.642 301.7 471.66C300.547 472.009 299.321 472.173 298.114 472.114C295.831 472.051 293.567 471.228 292.198 469.404C291.718 468.734 291.33 468.028 291.128 467.247C291.166 466.802 291.241 466.449 291.317 466.096C291.373 465.966 291.392 465.744 291.411 465.521C291.712 464.11 292.329 462.682 293.279 461.552C295.143 459.199 298.563 458.058 301.346 459.106C302.867 459.686 304.2 460.878 305.162 462.218C305.143 462.44 305.143 462.44 305.18 462.533Z" fill="#FBA540"/>
<path d="M242.851 498.232C241.957 499.232 240.97 500.269 239.909 501.12C236 504.285 230.963 505.96 226.043 505.76C223.759 505.698 221.291 505.171 219.829 503.384C218.404 501.69 218.336 499.35 218.435 497.16C218.59 494.839 219.117 492.371 220.274 490.405C220.535 489.979 220.89 489.516 221.244 489.053C224.41 485.645 229.981 485.586 234.004 487.863C238.084 490.011 240.783 494.104 242.851 498.232Z" fill="#FB7840"/>
<path d="M240.802 500.659C236.893 503.823 231.856 505.498 226.935 505.299C224.651 505.236 222.183 504.709 220.721 502.923C219.296 501.229 219.229 498.889 219.328 496.698C219.483 494.377 220.01 491.909 221.167 489.944C224.329 488.152 228.748 488.443 232.048 490.253C236.071 492.53 238.734 496.53 240.802 500.659Z" fill="#FBA540"/>
<path d="M260.18 497.167C258.667 500.134 256.561 502.691 253.992 504.893C251.516 507.059 248.54 508.777 245.399 509.808C242.853 510.711 239.992 511.093 237.581 509.897C236.079 509.094 234.932 507.828 234.026 506.359C231.475 502.099 231.566 496.361 234.048 492.042C234.309 491.615 234.571 491.189 234.925 490.726C238.224 486.297 244.377 484.179 249.647 485.531C255.046 486.939 259.434 491.761 260.18 497.167Z" fill="#FB7840"/>
<path d="M257.104 501.077C256.507 502.282 255.779 503.431 254.922 504.524C252.446 506.69 249.47 508.408 246.329 509.439C243.782 510.342 240.921 510.724 238.511 509.528C237.009 508.726 235.861 507.46 234.956 505.99C232.405 501.73 232.496 495.993 234.978 491.673C238.271 489.398 242.656 488.519 246.608 489.534C252.064 490.812 256.359 495.671 257.104 501.077Z" fill="#FBA540"/>
<path d="M290.3 484.143C289.998 485.553 289.085 486.776 287.968 487.757C287.428 488.294 286.758 488.775 286.181 489.219C283.074 491.42 279.689 493.193 276.083 494.409C273.722 495.237 271.065 495.861 268.635 494.889C266.205 493.916 264.671 491.405 264.084 488.841C263.7 487.057 263.686 485.126 264.026 483.27C264.949 478.815 268.043 474.683 272.226 473.024C278.268 470.627 285.762 473.248 289.052 478.829C290.124 480.447 290.676 482.38 290.3 484.143Z" fill="#FB7840"/>
<path d="M288.934 487.482C288.394 488.019 287.724 488.5 287.148 488.944C284.04 491.144 280.655 492.917 277.049 494.133C274.689 494.962 272.032 495.585 269.602 494.613C267.172 493.64 265.638 491.129 265.051 488.565C264.666 486.781 264.653 484.85 264.992 482.994C266.428 480.918 268.457 479.253 270.874 478.294C276.916 475.897 284.41 478.518 287.7 484.098C288.291 485.047 288.771 486.256 288.934 487.482Z" fill="#FBA540"/>
<path d="M304.6 470.294C304.222 472.595 303.752 474.934 302.946 477.513C302.383 479.349 301.56 481.613 300.401 484.116C300.065 484.895 299.599 485.618 299.132 486.341C298.703 487.157 298.144 487.916 297.584 488.676C296.376 489.156 295.131 489.542 293.831 489.52C291.77 489.477 290.064 488.432 288.899 486.85C288.178 485.845 287.642 484.767 287.256 483.522C286.833 482.183 286.595 480.771 286.358 479.359C286.284 479.173 286.34 479.044 286.266 478.858C286.103 477.632 286.069 476.462 286.165 475.348C286.223 474.679 286.317 474.104 286.375 473.436C286.394 473.213 286.45 473.083 286.469 472.86C287.014 470.708 288.227 468.613 289.791 467.132C290.815 466.188 291.95 465.522 293.325 465.192C293.511 465.118 293.733 465.138 293.826 465.101C296.836 464.552 299.971 465.675 302.305 467.762C303.268 468.563 303.916 469.382 304.6 470.294Z" fill="#FB7840"/>
<path d="M303.623 474.339C303.338 476.604 302.774 478.979 301.969 481.558C301.781 482.17 301.538 482.912 301.238 483.784C300.902 484.563 300.435 485.286 299.969 486.009C299.54 486.825 298.98 487.585 298.421 488.344C297.213 488.824 295.967 489.21 294.668 489.188C292.606 489.145 290.901 488.1 289.736 486.518C289.014 485.514 288.479 484.435 288.092 483.19C287.669 481.851 287.339 480.476 287.194 479.028C287.121 478.842 287.177 478.712 287.103 478.526C286.939 477.3 286.906 476.13 287.002 475.016C287.059 474.348 287.154 473.772 287.211 473.104C287.678 472.381 288.274 471.714 288.814 471.177C289.838 470.233 290.972 469.568 292.348 469.237C292.533 469.164 292.626 469.127 292.849 469.146C295.859 468.598 298.994 469.721 301.291 471.714C302.384 472.572 303.032 473.39 303.623 474.339Z" fill="#FBA540"/>
<path d="M233.887 509.534C232.973 510.757 231.837 511.961 230.701 513.164C228.876 515.072 226.698 516.904 224.558 518.291C221.901 518.914 219.523 519.428 217.479 519.7C215.064 520.121 213.17 520.227 211.963 520.167C210.788 515.577 208.904 511.914 210.142 507.442C210.198 507.312 210.254 507.182 210.218 507.089C211.361 503.193 214.491 499.692 218.264 498.626C218.858 498.498 219.453 498.369 220.084 498.334C220.27 498.26 220.4 498.316 220.623 498.336C223.594 498.233 226.431 499.689 228.505 501.664C228.635 501.72 228.672 501.813 228.802 501.869C229.839 502.856 230.69 503.917 231.485 505.107C232.354 506.484 233.167 507.991 233.887 509.534Z" fill="#D96230"/>
<path d="M230.794 513.128C228.969 515.035 226.791 516.867 224.651 518.254C221.994 518.878 219.616 519.391 217.572 519.663C215.157 520.084 213.263 520.19 212.056 520.131C210.88 515.54 208.997 511.877 210.235 507.405C211.745 505.515 213.661 504.11 215.91 503.54C216.504 503.412 217.099 503.284 217.731 503.248C217.916 503.175 218.046 503.231 218.269 503.25C221.24 503.147 224.077 504.603 226.245 506.541C226.281 506.634 226.411 506.69 226.448 506.783C227.485 507.77 228.336 508.831 229.132 510.022C229.63 511.007 230.166 512.086 230.794 513.128Z" fill="#FB7840"/>
<path d="M274.762 501.925C274.111 502.184 273.367 502.479 272.717 502.737C271.322 503.29 269.835 503.88 268.404 504.34C261.489 506.976 254.778 509.315 248.496 511.377C248.124 511.524 247.715 511.579 247.437 511.689C247.142 510.946 246.903 510.072 246.701 509.292C246.462 508.418 246.223 507.545 246.077 506.635C245.289 502.751 245.19 498.703 246.463 494.863C246.894 493.508 247.548 492.173 248.368 490.987C248.368 490.987 248.461 490.95 248.425 490.857C248.835 490.264 249.338 489.634 249.878 489.097C250.772 488.097 251.74 487.283 252.875 486.617C253.117 486.414 253.489 486.266 253.767 486.156C255.553 485.232 257.522 484.774 259.491 484.854C261.05 484.988 262.497 485.382 263.925 485.999C265.001 486.541 265.983 487.119 266.947 487.92C268.244 489.02 269.391 490.286 270.353 491.625C270.834 492.295 271.222 493.002 271.61 493.709C271.924 494.23 272.108 494.694 272.423 495.215C273.215 497.483 274.007 499.751 274.762 501.925Z" fill="#FB7840"/>
<path d="M269.278 504.101C262.362 506.737 255.652 509.076 249.37 511.138C248.998 511.285 248.589 511.34 248.31 511.451C248.015 510.707 247.776 509.833 247.574 509.053C247.335 508.179 247.096 507.306 246.95 506.396C246.163 502.512 246.063 498.464 247.337 494.624C247.768 493.269 248.422 491.934 249.242 490.748C249.242 490.748 249.335 490.711 249.298 490.618C250.99 489.732 252.867 489.31 254.835 489.39C256.395 489.524 257.842 489.918 259.27 490.535C260.346 491.077 261.328 491.655 262.292 492.457C263.588 493.556 264.736 494.822 265.698 496.162C266.179 496.832 266.567 497.538 266.955 498.245C267.269 498.766 267.453 499.231 267.767 499.751C268.264 501.276 268.817 502.67 269.278 504.101Z" fill="#FBA540"/>
<path d="M299.132 486.341C298.703 487.157 298.144 487.916 297.584 488.676C296.615 490.029 295.572 491.196 294.306 492.344C293.096 493.362 291.756 494.323 290.342 495.099C286.772 496.946 281.417 499.178 275.004 501.722L274.725 501.833C274.074 502.091 273.33 502.386 272.68 502.644C271.758 500.32 271.301 497.812 271.382 495.305C271.384 494.767 271.385 494.228 271.517 493.746C271.65 492.725 271.875 491.667 272.194 490.572C272.569 489.348 273.13 488.049 273.764 486.937C276.432 482.544 281.269 479.549 286.414 479.23C287.045 479.194 287.677 479.159 288.345 479.216C288.791 479.255 289.236 479.293 289.626 479.462C293.541 480.383 297.136 482.937 299.132 486.341Z" fill="#FB7840"/>
<path d="M295.272 492.068C294.062 493.086 292.722 494.048 291.309 494.823C287.738 496.67 282.384 498.902 275.97 501.446L275.691 501.557C275.04 501.815 274.297 502.11 273.646 502.368C272.724 500.044 272.267 497.536 272.349 495.029C272.35 494.491 272.352 493.952 272.483 493.47C272.616 492.449 272.842 491.391 273.161 490.296C275.805 487.741 279.449 486.08 283.145 485.905C283.776 485.87 284.445 485.928 285.076 485.892C285.522 485.931 285.967 485.969 286.357 486.137C289.883 486.89 293.108 489.053 295.272 492.068Z" fill="#FBA540"/>
<path d="M248.496 511.377C248.124 511.524 247.715 511.579 247.437 511.689C245.912 512.186 244.481 512.647 243.05 513.107C236.043 515.241 229.836 516.95 224.708 518.124C222.05 518.748 219.672 519.261 217.629 519.534C217.065 515.131 218.36 510.529 221.044 506.99C221.603 506.231 222.199 505.564 222.832 504.99C222.832 504.99 222.832 504.99 222.925 504.953C224.582 503.435 226.573 502.215 228.748 501.46C229.993 501.074 231.182 500.817 232.501 500.616C234.581 500.437 236.772 500.536 238.776 501.247C238.906 501.303 239.128 501.322 239.295 501.471C242.041 502.426 244.394 504.29 246.17 506.598C246.78 507.324 247.205 508.123 247.63 508.923C247.869 509.797 248.201 510.633 248.496 511.377Z" fill="#FB7840"/>
<path d="M242.957 513.144C235.95 515.278 229.743 516.987 224.615 518.161C221.957 518.785 219.579 519.298 217.536 519.57C216.973 515.168 218.267 510.566 220.951 507.027C221.9 506.436 223.015 505.993 224.038 505.588C225.283 505.201 226.472 504.945 227.791 504.744C229.871 504.564 232.062 504.663 234.066 505.375C234.196 505.431 234.419 505.45 234.585 505.599C237.331 506.554 239.684 508.418 241.46 510.725C241.978 511.488 242.495 512.251 242.957 513.144Z" fill="#FBA540"/>
</g>
<g opacity="0.9">
<path d="M1148.92 560.17C1149.72 561.598 1149.48 563.455 1148.46 564.74C1147.45 566.025 1145.75 566.64 1144.12 566.476C1142.81 566.345 1141.65 565.714 1140.71 564.787C1140.83 566.098 1140.58 567.401 1139.85 568.491C1138.93 569.854 1137.38 570.775 1135.74 570.737C1134.91 570.692 1134.04 570.42 1133.37 569.927C1132.72 569.484 1132.19 568.867 1131.9 568.131C1131.45 567.038 1131.55 565.681 1131.98 564.609C1132.44 563.462 1133.16 562.497 1134.06 561.637L1125.29 543.011L1133.73 539.029L1142.51 557.655C1143.7 557.532 1144.96 557.561 1146.13 557.941C1147.25 558.344 1148.29 559.098 1148.92 560.17Z" fill="#DEB774"/>
<path d="M1134.36 547.877C1138.34 556.325 1137.76 565.246 1133.39 569.977C1132.75 569.535 1132.21 568.918 1131.92 568.182C1131.47 567.089 1131.58 565.732 1132.01 564.66C1132.46 563.513 1133.19 562.548 1134.09 561.688L1125.29 543.011L1129.71 540.924C1131.51 542.878 1133.09 545.18 1134.36 547.877Z" fill="#F0D493"/>
<path d="M1135.49 486.016C1138.76 493.743 1138.46 502.343 1138.14 510.641C1137.87 517.052 1138.39 523.709 1138.12 530.12C1140.81 531.466 1142.72 534.481 1142.75 537.577C1142.78 540.673 1140.93 543.6 1138.21 544.821C1136.09 545.753 1133.5 545.668 1131.37 544.561C1131.29 544.534 1131.19 544.456 1131.12 544.43C1130.66 546.885 1129.1 549.114 1126.91 550.146C1124.23 551.468 1120.77 550.985 1118.43 549.043C1116.06 547.05 1114.93 543.726 1115.62 540.723C1110.5 536.854 1105.7 532.212 1100.58 528.343C1093.98 523.307 1087.16 518.065 1083.28 510.626C1079.4 503.187 1079.01 494.042 1082.23 486.491C1084.14 481.98 1087.5 478.408 1091.46 475.606C1093.23 474.338 1095.19 473.226 1097.13 472.315C1103.49 469.316 1110.7 467.848 1117.55 469.844C1125.4 472.115 1132.22 478.289 1135.49 486.016Z" fill="#70311F"/>
<path d="M1123.64 491.605C1126.9 499.332 1126.6 507.932 1126.29 516.23C1126.01 522.641 1127.04 530.367 1126.76 536.778C1129.45 538.124 1131.39 541.189 1131.4 544.235C1131.4 544.361 1131.39 544.486 1131.39 544.612C1131.31 544.585 1131.22 544.507 1131.14 544.48C1130.68 546.936 1129.12 549.165 1126.93 550.197C1124.26 551.519 1120.8 551.036 1118.45 549.094C1116.08 547.101 1114.95 543.777 1115.65 540.774C1110.53 536.905 1105.73 532.263 1100.61 528.394C1094.01 523.358 1087.18 518.116 1083.3 510.677C1079.42 503.238 1079.03 494.093 1082.25 486.542C1084.17 482.031 1087.52 478.459 1091.49 475.657C1096.17 474.381 1101.01 474.091 1105.76 475.46C1113.59 477.68 1120.42 483.854 1123.64 491.605Z" fill="#8E422A"/>
<path d="M1093.76 499.1C1093.42 494.327 1091.34 490.584 1089.11 490.741C1086.88 490.899 1085.34 494.896 1085.67 499.669C1086.01 504.443 1088.09 508.185 1090.32 508.028C1092.56 507.871 1094.09 503.874 1093.76 499.1Z" fill="#BA755F"/>
</g>
<g opacity="0.9">
<path d="M1195.66 730.597L1183.53 728.235L1165.79 724.8L1142.07 705.739C1142.07 705.739 1167.22 682.61 1182.39 671.511C1187.73 667.618 1191.82 665.156 1193.16 665.779C1198.27 668.148 1195.66 730.597 1195.66 730.597Z" fill="#CF2323"/>
<path d="M1183.57 728.256L1165.83 724.821L1142.11 705.759C1142.11 705.759 1167.27 682.631 1182.43 671.532C1184.83 682.225 1183.95 715.691 1183.57 728.256Z" fill="#E83C3C"/>
<path d="M1170.69 717.163C1170.47 717.767 1170.11 718.418 1169.47 718.503C1168.83 718.588 1168.26 717.942 1168.24 717.28C1168.22 716.617 1168.49 716.034 1168.87 715.449C1169.59 714.256 1170.51 713.212 1171.54 712.276C1171.53 713.956 1171.24 715.622 1170.69 717.163Z" fill="#5B2326"/>
<path d="M1182.05 705.933C1181.98 706.554 1181.74 707.313 1181.11 707.508C1180.47 707.704 1179.84 707.192 1179.64 706.556C1179.49 705.942 1179.65 705.252 1179.92 704.67C1180.41 703.373 1181.08 702.16 1181.93 701.03C1182.27 702.656 1182.32 704.312 1182.05 705.933Z" fill="#5B2326"/>
<path d="M1192.2 709.657C1192.28 710.296 1192.26 711.048 1191.76 711.416C1191.22 711.764 1190.44 711.455 1190.09 710.913C1189.74 710.37 1189.74 709.663 1189.77 709.021C1189.86 707.648 1190.17 706.269 1190.67 704.972C1191.46 706.43 1191.97 708.028 1192.2 709.657Z" fill="#5B2326"/>
<path d="M1182.8 720.653C1182.73 721.274 1182.48 722.033 1181.85 722.228C1181.21 722.424 1180.58 721.912 1180.38 721.277C1180.23 720.662 1180.39 719.973 1180.66 719.39C1181.15 718.094 1181.82 716.88 1182.67 715.75C1183.03 717.331 1183.06 719.032 1182.8 720.653Z" fill="#5B2326"/>
<path d="M1194.46 721.106C1194.54 721.745 1194.52 722.497 1194.02 722.865C1193.48 723.213 1192.7 722.904 1192.35 722.362C1192 721.819 1192 721.112 1192.03 720.47C1192.12 719.097 1192.43 717.718 1192.93 716.421C1193.72 717.879 1194.23 719.477 1194.46 721.106Z" fill="#5B2326"/>
<path d="M1158.28 709.284C1157.85 709.739 1157.43 710.415 1157.69 711.026C1157.95 711.637 1158.75 711.79 1159.36 711.529C1159.93 711.247 1160.36 710.682 1160.63 710.1C1161.3 708.886 1161.79 707.59 1162.1 706.21C1160.71 706.981 1159.4 708.058 1158.28 709.284Z" fill="#5B2326"/>
<path d="M1150.4 700.675C1149.86 701.023 1149.3 701.525 1149.34 702.143C1149.43 702.781 1150.17 703.18 1150.81 703.095C1151.44 703.009 1151.98 702.552 1152.46 702.118C1153.45 701.16 1154.3 700.03 1154.97 698.817C1153.39 699.173 1151.79 699.794 1150.4 700.675Z" fill="#5B2326"/>
<path d="M1169.15 699.947C1168.72 700.402 1168.3 701.077 1168.56 701.688C1168.82 702.3 1169.62 702.453 1170.23 702.192C1170.8 701.91 1171.22 701.345 1171.49 700.762C1172.16 699.549 1172.66 698.253 1172.97 696.873C1171.51 697.667 1170.22 698.7 1169.15 699.947Z" fill="#5B2326"/>
<path d="M1159.75 694.609C1159.21 694.957 1158.65 695.46 1158.69 696.077C1158.77 696.716 1159.52 697.114 1160.15 697.029C1160.79 696.944 1161.33 696.486 1161.8 696.052C1162.79 695.095 1163.64 693.964 1164.32 692.751C1162.69 693.086 1161.14 693.729 1159.75 694.609Z" fill="#5B2326"/>
<path d="M1190.45 696.16C1190.54 696.799 1190.52 697.551 1190.02 697.919C1189.48 698.266 1188.69 697.958 1188.35 697.416C1188 696.873 1188 696.166 1188.02 695.524C1188.12 694.151 1188.43 692.772 1188.92 691.475C1189.72 692.933 1190.23 694.531 1190.45 696.16Z" fill="#5B2326"/>
<path d="M1172.39 687.784C1171.85 688.132 1171.29 688.634 1171.33 689.252C1171.42 689.89 1172.16 690.289 1172.79 690.204C1173.43 690.118 1173.97 689.661 1174.45 689.227C1175.43 688.269 1176.29 687.139 1176.96 685.926C1175.33 686.261 1173.78 686.903 1172.39 687.784Z" fill="#5B2326"/>
<path d="M1181.96 692.873C1181.73 693.477 1181.37 694.128 1180.74 694.213C1180.1 694.298 1179.53 693.652 1179.51 692.99C1179.49 692.327 1179.76 691.745 1180.14 691.159C1180.85 689.966 1181.77 688.923 1182.81 687.986C1182.79 689.666 1182.53 691.287 1181.96 692.873Z" fill="#5B2326"/>
<path d="M1188.22 680.423C1188 681.026 1187.64 681.678 1187 681.763C1186.36 681.848 1185.81 681.157 1185.79 680.494C1185.77 679.832 1186.11 679.225 1186.47 678.684C1187.23 677.512 1188.15 676.469 1189.18 675.532C1189.1 677.236 1188.82 678.902 1188.22 680.423Z" fill="#5B2326"/>
<path d="M1195.49 735.199C1193.48 736.009 1191.02 735.905 1188.63 735.666C1180.27 734.784 1171.51 732.898 1163.71 729.282C1155.91 725.665 1148.81 720.194 1142.74 714.383C1142.22 713.867 1141.69 713.352 1141.21 712.858C1140.09 711.631 1139.13 710.311 1138.64 708.889C1137.96 706.831 1138.47 704.452 1140.45 703.576C1142.31 702.747 1144.83 703.425 1146.72 704.629C1146.92 704.778 1147.12 704.927 1147.33 705.075C1148.91 706.244 1150.17 707.755 1151.54 709.151C1151.83 709.452 1152.17 709.773 1152.45 710.119C1156.73 714.502 1161.68 718.755 1167.32 721.373C1173.42 724.2 1180.39 725.145 1186.85 725.529C1189.07 725.685 1191.27 725.62 1193.46 726.307C1193.84 726.429 1194.17 726.529 1194.53 726.696C1196.3 727.461 1197.86 728.786 1198.31 730.408C1198.99 732.466 1197.5 734.388 1195.49 735.199Z" fill="#4B4C18"/>
<path d="M1191.71 731.597C1189.7 732.407 1187.25 732.303 1184.88 732.019C1176.52 731.138 1167.75 729.251 1159.96 725.635C1153.1 722.455 1146.8 717.844 1141.26 712.879C1140.14 711.652 1139.17 710.332 1138.69 708.91C1138.01 706.852 1138.51 704.473 1140.5 703.597C1142.35 702.768 1144.87 703.446 1146.76 704.65C1146.97 704.799 1147.17 704.948 1147.37 705.096C1147.51 705.269 1147.67 705.397 1147.81 705.57C1149.27 707.118 1150.84 708.663 1152.49 710.14C1156.78 714.523 1161.72 718.776 1167.37 721.394C1173.46 724.221 1180.43 725.165 1186.9 725.55C1189.11 725.706 1191.32 725.641 1193.5 726.328C1193.88 726.45 1194.22 726.55 1194.58 726.717L1194.6 726.782C1195.21 728.864 1193.72 730.786 1191.71 731.597Z" fill="#696E2B"/>
</g>
</svg>
