<svg width="1440" height="506" viewBox="0 0 1440 506" fill="none" xmlns="http://www.w3.org/2000/svg">
<rect y="3" width="1440" height="503" fill="white"/>
<g opacity="0.9">
<path d="M1268.01 117.701C1267.21 116.167 1268.29 113.201 1270.71 109.047C1286.51 82.3505 1360.47 9.7837 1368.05 5.76432C1368.11 5.73383 1368.24 5.67286 1368.31 5.64237C1375.23 2.08876 1383.64 5.46448 1386.25 12.7451C1387.5 16.4484 1388.41 21.1086 1387.88 26.6005C1387.3 32.8315 1384.92 40.1423 1379.23 48.2037C1378.47 49.2783 1377.7 50.3528 1376.93 51.4274C1374.76 54.2684 1372.43 57.266 1369.8 60.3204C1367.51 63.0615 1365.02 65.894 1362.44 68.6919C1360.02 71.3331 1357.47 74.0352 1354.89 76.6722C1352.54 79.122 1350.09 81.5371 1347.68 83.8565C1345 86.4588 1342.33 89.0611 1339.69 91.5676C1337.28 93.8871 1334.8 96.0761 1332.4 98.2347C1329.72 100.676 1327.06 102.957 1324.52 105.176C1321.98 107.396 1319.51 109.424 1317.21 111.295C1314.28 113.698 1311.59 115.752 1309.22 117.493C1306.5 119.483 1304.14 121.063 1302.44 122.016C1289.34 129.175 1276.59 134.186 1268.01 117.701Z" fill="#C75E12"/>
<path d="M1270.71 109.047C1286.51 82.3505 1360.47 9.7837 1368.05 5.76432C1368.11 5.73383 1368.24 5.67286 1368.31 5.64237C1375.23 2.08876 1383.64 5.46448 1386.25 12.7451C1387.5 16.4484 1388.41 21.1086 1387.88 26.6005C1386.46 30.3626 1384.46 34.3991 1381.45 38.6669C1380.68 39.7415 1379.91 40.816 1379.14 41.8906C1376.97 44.7316 1374.64 47.7292 1372.02 50.7836C1369.73 53.5247 1367.24 56.3572 1364.65 59.1551C1362.23 61.7963 1359.68 64.4984 1357.1 67.1354C1354.75 69.5852 1352.37 71.9698 1349.89 74.3198C1347.22 76.922 1344.54 79.5243 1341.9 82.0308C1339.49 84.3503 1337.02 86.5393 1334.61 88.6979C1331.94 91.1392 1329.27 93.4198 1326.73 95.6393C1324.2 97.8588 1321.73 99.887 1319.42 101.758C1316.5 104.161 1313.8 106.215 1311.44 107.957C1308.71 109.946 1306.42 111.496 1304.66 112.48C1291.79 119.451 1279.33 124.405 1270.71 109.047Z" fill="#F2994A"/>
<path d="M1369.71 60.2857C1365.52 55.4108 1361.34 50.5359 1357.21 45.6305C1356.47 44.7094 1355.62 43.7536 1355.17 42.6148C1354.71 41.476 1354.72 40.1238 1355.45 39.1449C1356.29 38.0399 1357.97 37.7298 1359.28 38.1504C1360.65 38.5406 1361.79 39.4397 1362.89 40.2736C1366.8 43.3704 1370.78 46.4367 1374.69 49.5336C1375.42 50.0678 1376.11 50.6976 1376.8 51.3275C1374.7 54.2989 1372.27 57.2618 1369.71 60.2857Z" fill="#C75E12"/>
<path d="M1354.73 76.668C1351.17 72.4535 1347.51 68.2043 1343.89 64.0202C1343.07 63.1296 1342.29 62.1432 1341.84 61.0045C1341.39 59.8657 1341.39 58.5135 1342.12 57.5346C1342.96 56.4295 1344.57 56.1499 1345.95 56.5401C1347.32 56.9303 1348.46 57.8293 1349.56 58.6632C1353.47 61.7601 1357.39 64.8569 1361.36 67.9232C1361.65 68.1882 1361.96 68.3575 1362.25 68.6225C1359.86 71.3289 1357.31 74.031 1354.73 76.668Z" fill="#C75E12"/>
<path d="M1339.53 91.5634C1335.84 87.249 1332.15 82.9346 1328.47 78.6202C1327.72 77.699 1326.87 76.7432 1326.42 75.6044C1325.97 74.4656 1325.97 73.1134 1326.7 72.1345C1327.54 71.0295 1329.22 70.7194 1330.53 71.1401C1331.9 71.5302 1333.04 72.4293 1334.14 73.2632C1338.06 76.36 1341.97 79.4569 1345.94 82.5232C1346.45 82.9228 1346.98 83.3876 1347.49 83.7872C1344.87 86.5198 1342.2 89.1221 1339.53 91.5634Z" fill="#C75E12"/>
<path d="M1324.36 105.172C1321.52 101.813 1318.58 98.42 1315.74 95.0614C1314.92 94.1708 1314.14 93.1844 1313.69 92.0457C1313.24 90.9069 1313.24 89.5547 1313.97 88.5758C1314.81 87.4707 1316.49 87.1606 1317.8 87.5813C1319.17 87.9715 1320.31 88.8705 1321.41 89.7044C1325.04 92.5363 1328.61 95.3986 1332.23 98.2304C1329.56 100.672 1326.93 103.018 1324.36 105.172Z" fill="#C75E12"/>
<path d="M1309.06 117.489C1306.75 114.756 1304.47 112.088 1302.1 109.386C1301.35 108.465 1300.5 107.509 1300.05 106.37C1299.6 105.231 1299.6 103.879 1300.33 102.9C1301.17 101.795 1302.79 101.516 1304.16 101.906C1305.53 102.296 1306.67 103.195 1307.77 104.029C1310.8 106.427 1313.93 108.859 1316.95 111.256C1314.19 113.663 1311.43 115.748 1309.06 117.489Z" fill="#C75E12"/>
</g>
<path d="M1330.52 472.201V492.215C1330.52 492.215 1303.06 496.451 1304.81 492.215C1306.56 487.978 1320.44 487.248 1320.44 487.248V470.886L1330.52 472.201Z" fill="#FCB682"/>
<path d="M1405.47 402.957L1416.13 386.011C1416.13 386.011 1441.69 397.113 1437.9 399.743C1434.1 402.372 1421.97 395.506 1421.97 395.506L1413.21 409.385L1405.47 402.957Z" fill="#FCB682"/>
<path d="M1414.38 389.078L1416.27 386.156C1416.27 386.156 1441.84 397.259 1438.04 399.889C1434.24 402.518 1422.12 395.652 1422.12 395.652L1421.68 396.383C1421.53 396.236 1421.39 396.09 1421.24 395.944C1418.9 393.607 1416.57 391.416 1414.38 389.078Z" fill="#BD537B"/>
<path d="M1324.68 366.727C1311.39 401.496 1305.98 439.186 1308.9 476.292H1337.1C1333.01 448.535 1337.1 419.318 1348.35 393.753C1350.24 406.024 1352.14 418.296 1358.28 429.106C1364.41 439.916 1375.52 448.828 1387.93 448.681C1397.43 448.535 1406.34 443.13 1412.04 435.68C1417.88 428.229 1420.8 418.88 1422.12 409.53C1415.25 404.417 1408.68 399.743 1401.81 394.776C1401.23 400.765 1400.21 407.485 1397.43 410.699C1394.22 414.497 1390.13 416.396 1385.74 415.812C1382.09 415.374 1378.44 409.823 1376.54 406.609C1374.35 402.664 1373.47 397.698 1372.74 393.169C1371.43 385.426 1369.24 373.155 1367.92 365.559C1366.75 365.851 1365.73 364.974 1364.71 365.12L1324.68 366.727Z" fill="#342D27"/>
<path d="M1318.84 324.07L1311.82 328.16L1295.61 339.263C1295.61 339.263 1294.88 345.252 1298.68 347.005C1298.68 347.005 1308.9 347.736 1324.39 333.858L1318.84 324.07Z" fill="#FCB682"/>
<path d="M1337.1 299.675L1340.16 300.551L1359.16 308.294L1370.7 367.897C1370.7 367.897 1344.25 378.999 1322.05 368.335C1324.53 355.187 1325.41 347.445 1328.48 336.488C1328.48 336.488 1316.5 330.937 1319.71 322.464C1322.93 313.991 1327.75 305.664 1332.13 303.911L1337.1 299.675Z" fill="#BD537B"/>
<path d="M1332.13 303.91C1332.13 303.91 1328.33 304.349 1325.41 307.124C1322.34 309.9 1308.76 328.453 1308.76 328.453C1308.76 328.453 1314.31 339.117 1321.9 339.555L1329.35 328.014L1332.13 303.91Z" fill="#BD537B"/>
<path d="M1330.52 488.856V492.216C1330.52 492.216 1303.06 496.452 1304.81 492.216C1306.56 487.979 1320.44 487.249 1320.44 487.249V486.372C1320.59 486.372 1320.88 486.518 1321.03 486.518C1324.24 487.249 1327.31 488.125 1330.52 488.856Z" fill="#BD537B"/>
<path d="M1278.95 273.525L1347.03 371.11C1350.24 375.785 1348.93 382.066 1344.11 384.988C1339.29 387.91 1333.15 386.303 1330.38 381.336L1273.26 276.3L1278.95 273.525Z" fill="#A58E7C"/>
<path d="M1273.26 231.014C1270.92 231.598 1280.56 260.085 1276.32 261.984C1272.38 263.737 1258.5 233.205 1254.56 235.25C1250.61 237.295 1267.56 266.074 1263.91 268.412C1259.96 270.749 1242.14 246.645 1240.24 248.252C1238.34 249.859 1247.98 267.827 1256.9 276.154C1264.78 283.605 1274.43 278.346 1276.32 277.177C1278.37 276.3 1288.3 271.48 1286.7 260.669C1284.8 248.544 1275.59 230.429 1273.26 231.014Z" fill="#A58E7C"/>
<path d="M1298.53 341.601C1304.37 334.296 1308.03 323.486 1306.71 314.283C1306.71 314.283 1312.7 308.731 1311.97 307.709C1311.24 306.686 1305.98 310.338 1305.98 310.338C1305.98 310.338 1308.17 305.225 1307.44 304.641C1306.71 304.057 1303.06 309.754 1303.06 309.754C1303.06 309.754 1303.35 302.011 1302.47 302.011C1301.6 302.011 1299.85 309.316 1299.85 309.316C1299.85 309.316 1298.82 302.742 1297.36 302.888C1295.9 303.034 1297.22 310.192 1297.22 310.192C1297.22 310.192 1294.88 307.271 1293.56 308.001C1292.25 308.731 1297.51 314.283 1297.51 314.283L1298.97 316.036C1298.97 316.036 1296.05 321.441 1290.35 331.813C1290.35 331.813 1285.09 341.016 1289.18 345.837C1290.35 347.152 1292.1 347.736 1293.71 347.882C1297.95 348.029 1302.62 346.714 1302.62 346.714C1300.14 345.545 1297.51 343.938 1298.53 341.601Z" fill="#FCB682"/>
<path d="M1370.84 331.812C1374.2 336.779 1374.2 343.645 1371.57 349.051C1368.94 354.456 1363.83 358.4 1357.99 360.299C1352.29 362.198 1346.01 362.198 1340.16 361.03C1330.96 359.13 1321.32 353.433 1316.21 345.544C1316.21 345.544 1308.03 345.106 1307.88 343.938C1307.73 342.623 1314.16 342.038 1314.16 342.038C1314.16 342.038 1309.19 339.555 1309.34 338.678C1309.49 337.802 1316.06 339.701 1316.06 339.701C1316.06 339.701 1310.95 334.004 1311.53 333.419C1312.12 332.835 1318.25 337.218 1318.25 337.218C1318.25 337.218 1314.89 331.52 1316.06 330.79C1317.23 330.059 1320.88 336.341 1320.88 336.341C1320.88 336.341 1320.74 332.543 1322.2 332.397C1323.66 332.105 1323.22 339.847 1323.22 339.847V342.038C1323.22 342.038 1348.78 356.793 1356.53 339.847L1356.96 336.487L1370.84 331.812Z" fill="#FCB682"/>
<path d="M1340.16 300.551C1340.16 300.551 1358.57 299.382 1368.36 316.328C1373.91 327.43 1375.08 330.06 1375.08 330.06C1375.08 330.06 1369.97 338.241 1356.82 339.702L1336.66 303.034L1340.16 300.551Z" fill="#BD537B"/>
<path d="M1316.79 272.94C1316.79 272.94 1312.41 264.321 1317.81 259.792C1323.22 255.264 1341.04 256.871 1344.11 264.759C1347.18 272.648 1350.54 285.649 1340.16 287.11L1316.79 272.94Z" fill="#4E3E49"/>
<path d="M1342.8 265.636C1341.92 263.737 1341.33 261.692 1341.33 259.647C1341.33 257.455 1342.06 255.41 1343.53 253.803C1344.99 252.342 1347.32 251.466 1349.37 252.05C1351.41 252.488 1352.88 254.242 1354.04 255.995C1355.36 258.04 1356.23 260.523 1356.23 263.007C1356.23 265.49 1355.21 267.974 1353.31 269.581C1351.41 271.187 1348.49 271.48 1346.3 270.311C1344.55 269.288 1343.53 267.535 1342.8 265.636Z" fill="#4E3E49"/>
<path d="M1316.94 269.727C1316.94 269.727 1315.48 287.842 1320.44 289.449C1325.26 291.056 1332.13 287.696 1332.13 287.696V303.765C1332.13 303.765 1328.48 308.002 1329.79 309.316C1331.11 310.631 1339.29 305.226 1340.16 300.405V284.043C1341.48 284.043 1342.79 282.875 1343.38 281.706C1344.11 280.537 1344.25 279.077 1343.82 277.762C1343.38 276.447 1342.06 275.57 1340.75 275.424C1339.43 275.278 1337.97 276.009 1337.39 277.177C1333.74 278.346 1329.5 277.762 1325.85 276.593C1322.34 275.57 1319.27 272.795 1316.94 269.727Z" fill="#FCB682"/>
<path d="M170.556 458.057C172.193 459.928 172.427 462.736 171.257 464.841C170.088 466.946 168.216 468.818 165.994 468.35C167.281 471.274 165.994 475.134 163.304 476.771C160.614 478.409 156.52 479.111 154.648 476.538C154.414 479.93 151.841 483.088 148.566 483.789C145.291 484.491 141.08 484.023 139.56 480.982C138.858 483.322 136.753 485.193 134.296 485.661C131.957 486.129 128.331 486.129 126.811 484.14C125.758 487.064 122.717 489.17 119.676 488.936C116.635 488.819 112.658 486.48 111.839 483.555C110.786 486.012 108.33 487.766 105.757 488C103.184 488.351 99.5577 487.883 98.0372 485.778C96.7506 488.702 93.5925 490.69 90.4345 490.69C87.2764 490.69 83.7675 489.053 82.3639 486.129C81.5451 489.287 78.621 491.743 75.4629 491.977C72.3049 492.094 67.8602 491.041 66.8075 488C65.053 490.807 61.5441 492.445 58.2691 492.094C54.994 491.743 51.719 489.872 50.6663 486.714C48.7949 489.872 44.3502 491.158 41.1921 489.521C39.6716 488.819 38.385 487.415 37.5662 485.895C36.6305 484.14 36.3966 482.152 36.9814 480.28C34.2912 481.801 30.5483 480.982 28.5599 478.526C26.6885 476.07 26.1036 472.21 28.209 469.871C25.1679 472.093 20.4893 471.274 18.384 468.116C16.2786 464.958 17.2143 460.045 20.4893 458.057C17.0973 456.186 14.875 452.209 14.875 448.232C14.992 444.255 17.3313 440.395 20.8402 438.758C22.9456 437.705 25.8697 436.068 27.7412 434.781H166.813C171.023 436.652 174.181 440.746 174.883 445.425C175.468 449.986 173.831 454.899 170.556 458.057Z" fill="#EBDCBF"/>
<path d="M146.578 452.092C148.216 453.846 148.45 456.77 147.28 458.876C146.11 460.981 144.239 462.853 141.9 462.385C143.186 465.309 142.017 469.169 139.209 470.806C136.519 472.444 132.425 473.146 130.554 470.572C130.32 473.964 127.747 477.122 124.472 477.824C121.197 478.526 116.986 478.058 115.466 475.017C114.647 477.356 112.541 479.228 110.202 479.696C107.746 480.163 104.12 480.163 102.599 478.175C101.547 481.099 98.5056 483.205 95.4645 482.971C92.4234 482.854 88.4466 480.514 87.6278 477.59C86.5751 480.046 84.1189 481.801 81.5456 482.035C78.9724 482.269 75.3465 481.918 73.8259 479.813C72.5393 482.737 69.3813 484.725 66.3402 484.725C63.1821 484.725 59.6732 483.088 58.2696 480.163C57.4508 483.322 54.5267 485.778 51.3686 486.012C48.2106 486.246 43.7659 485.076 42.7132 482.035C41.5435 483.906 39.5551 485.31 37.4498 485.895C36.514 484.14 36.2801 482.152 36.8649 480.28C34.1747 481.801 30.4319 480.982 28.4435 478.526C26.572 476.07 25.9872 472.21 28.0926 469.871C25.0515 472.093 20.3729 471.274 18.2675 468.116C16.1621 464.958 17.0979 460.045 20.3729 458.057C16.9809 456.186 14.7585 452.209 14.7585 448.232C14.8755 444.255 17.2148 440.395 20.7238 438.758C22.8291 437.705 25.7533 436.068 27.6247 434.781H149.035C149.853 436.185 150.438 437.822 150.672 439.46C151.374 444.138 149.853 448.934 146.578 452.092Z" fill="#F5ECDA"/>
<path d="M165.877 449.519C163.304 451.858 160.38 453.496 157.105 454.548C153.947 455.601 150.555 455.952 147.163 455.952C145.876 455.952 144.706 455.835 143.42 455.718C141.665 455.601 140.028 455.25 138.39 454.899C133.595 453.847 128.916 452.092 124.355 450.104C123.302 449.636 122.249 449.168 121.08 448.817C117.804 447.414 114.413 446.01 111.021 444.723C108.213 443.671 105.406 442.735 102.482 442.15C101.312 441.916 100.143 441.682 98.9731 441.448C97.1017 441.097 95.3472 440.98 93.4758 440.98C87.5106 441.097 81.5453 442.735 75.931 444.84C75.814 444.84 75.6971 444.957 75.5801 444.957C73.9426 445.542 72.422 446.244 70.7845 446.829C63.4157 449.87 56.2808 453.262 48.5611 455.016C47.2745 455.25 46.1049 455.484 44.8183 455.718C43.5317 455.835 42.1281 456.069 40.8415 456.069C33.9405 456.303 27.0396 454.665 21.7761 450.221C21.5422 449.987 21.3083 449.87 21.0743 449.636C20.3725 448.934 19.7878 448.349 19.2029 447.531C12.7698 439.577 12.5359 427.413 17.2145 418.172C22.361 408.113 31.9521 400.978 42.1281 395.949C42.8298 395.598 43.5317 395.247 44.2335 395.013C45.871 394.194 47.5085 393.493 49.146 392.791C57.2166 389.516 65.6381 387.176 74.1765 385.89C75.5801 385.656 76.8667 385.539 78.2703 385.305C83.2998 384.72 88.4463 384.486 93.4758 384.603C95.8151 384.486 98.0374 384.603 100.377 384.603C101.663 384.603 102.833 384.72 104.12 384.837C110.904 385.305 117.688 386.475 124.355 388.112C125.524 388.463 126.694 388.697 127.747 389.048C133.595 390.802 139.326 393.025 144.823 395.832C145.174 396.066 145.642 396.183 145.993 396.417C147.046 396.885 148.098 397.469 149.034 398.054C154.999 401.446 160.497 405.54 164.824 410.686C165.643 411.739 166.462 412.792 167.164 413.845C168.1 415.131 168.918 416.652 169.62 418.055C174.767 428.231 174.182 441.799 165.877 449.519Z" fill="#FB7840"/>
<path d="M157.105 454.548C153.947 455.601 150.555 455.951 147.163 455.951C145.876 455.951 144.706 455.835 143.42 455.718C141.665 455.601 140.028 455.25 138.39 454.899C133.595 453.846 128.916 452.092 124.355 450.103C123.302 449.635 122.249 449.168 121.08 448.817C117.804 447.413 114.413 446.009 111.021 444.723C108.213 443.67 105.406 442.734 102.482 442.15C101.312 441.916 100.143 441.682 98.9731 441.448C97.1017 441.097 95.3472 440.98 93.4758 440.98C87.5105 441.097 81.5453 442.734 75.931 444.84C75.814 444.84 75.697 444.957 75.5801 444.957C73.9426 445.542 72.422 446.243 70.7845 446.828C63.4157 449.869 56.2808 453.261 48.5611 455.016C47.2745 455.25 46.1049 455.484 44.8183 455.718C43.5317 455.835 42.1281 456.068 40.8415 456.068C33.9405 456.302 27.0396 454.665 21.7761 450.22C21.5422 449.986 21.3083 449.869 21.0743 449.635C20.3725 448.934 19.7878 448.349 19.2029 447.53C12.7698 439.576 12.5359 427.412 17.2145 418.172C20.2556 416.066 23.5306 414.195 26.9226 412.44C27.6244 412.09 28.3262 411.739 29.028 411.505C30.6655 410.686 32.303 409.984 33.9405 409.282C42.0111 406.007 50.4326 403.668 58.9711 402.381C60.3746 402.148 61.7782 402.031 63.0648 401.797C68.0943 401.212 73.2408 400.978 78.2703 401.095C80.6096 400.978 82.8319 401.095 85.1712 401.095C86.4578 401.095 87.7444 401.212 88.9141 401.329C95.6981 401.797 102.482 402.966 109.149 404.604C110.319 404.955 111.371 405.189 112.541 405.54C118.389 407.294 124.121 409.516 129.618 412.323C129.969 412.557 130.437 412.674 130.788 412.908C131.84 413.376 132.893 413.961 133.829 414.546C139.794 417.938 145.291 422.032 149.619 427.178C150.438 428.231 151.257 429.283 151.958 430.336C152.894 431.623 153.713 433.143 154.415 434.547C157.573 440.629 158.508 447.998 157.105 454.548Z" fill="#F2994A"/>
<path d="M167.164 413.845C160.497 427.881 153.83 441.916 147.163 455.952C145.876 455.952 144.707 455.835 143.42 455.718C150.555 440.747 157.69 425.658 164.825 410.687C165.643 411.739 166.462 412.792 167.164 413.845Z" fill="#D96230"/>
<path d="M149.034 398.054C140.73 415.365 132.542 432.793 124.238 450.104C123.185 449.636 122.132 449.168 120.963 448.817C129.267 431.389 137.572 413.845 145.876 396.417C147.046 397.002 147.982 397.47 149.034 398.054Z" fill="#D96230"/>
<path d="M127.747 389.049C119.325 406.71 110.904 424.489 102.482 442.151C101.313 441.917 100.143 441.683 98.9734 441.449C107.395 423.67 115.816 405.891 124.355 388.113C125.408 388.464 126.577 388.698 127.747 389.049Z" fill="#D96230"/>
<path d="M104.12 384.838C94.6456 404.839 85.0544 424.957 75.5802 444.958C73.9427 445.543 72.4222 446.244 70.7847 446.829C80.6097 426.126 90.5518 405.307 100.377 384.604C101.547 384.604 102.833 384.721 104.12 384.838Z" fill="#D96230"/>
<path d="M78.2702 385.189C67.1585 408.699 55.9298 432.092 44.8181 455.602C43.5315 455.836 42.1279 455.952 40.7244 455.952C51.8361 432.559 62.9477 409.166 74.0594 385.773C75.463 385.539 76.8666 385.306 78.2702 385.189Z" fill="#D96230"/>
<path d="M49.029 392.675C39.9057 411.857 30.7824 430.922 21.7761 450.105C21.5422 449.871 21.3082 449.754 21.0743 449.52C20.3725 448.935 19.7877 448.233 19.2029 447.414C27.5074 429.87 35.9289 412.325 44.2334 394.78C45.754 394.078 47.3915 393.377 49.029 392.675Z" fill="#D96230"/>
<path d="M84.5152 427.033L95.276 438.847C95.276 438.847 81.3571 456.158 80.0705 452.766C78.7839 449.257 86.7375 441.42 86.7375 441.42L77.8481 431.712L84.5152 427.033Z" fill="#FCB682"/>
<path d="M93.4048 436.859L95.2762 438.847C95.2762 438.847 81.3574 456.158 80.0707 452.766C78.7841 449.257 86.7377 441.42 86.7377 441.42L86.2699 440.836C86.3868 440.719 86.6208 440.719 86.7377 440.602C88.8431 439.315 91.1824 438.028 93.4048 436.859Z" fill="#E83C3C"/>
<path d="M107.908 427.034L97.147 438.847C97.147 438.847 111.066 456.158 112.352 452.766C113.639 449.257 105.685 441.42 105.685 441.42L114.575 431.712L107.908 427.034Z" fill="#FCB682"/>
<path d="M99.0187 436.859L97.1472 438.847C97.1472 438.847 111.066 456.158 112.353 452.766C113.639 449.257 105.686 441.42 105.686 441.42L106.154 440.835C106.037 440.718 105.803 440.718 105.686 440.601C103.463 439.315 101.241 438.028 99.0187 436.859Z" fill="#E83C3C"/>
<path d="M96.329 372.996V389.137C96.329 389.137 78.3164 389.722 75.8601 391.359C75.8601 391.359 65.4502 401.418 91.0656 429.373L78.7842 438.964C78.7842 438.964 44.1625 407.033 48.2563 389.839C52.818 370.539 73.5208 372.879 73.5208 372.879L96.329 372.996Z" fill="#4E3E49"/>
<path d="M95.9778 372.996V389.137C95.9778 389.137 113.99 389.722 116.447 391.359C116.447 391.359 126.857 401.418 101.241 429.373L113.523 438.964C113.523 438.964 148.144 407.033 144.05 389.839C139.489 370.539 118.786 372.879 118.786 372.879L95.9778 372.996Z" fill="#4E3E49"/>
<path d="M102.568 295.211C104.601 294.948 106.635 294.684 108.593 294.092C110.551 293.499 112.359 292.445 113.489 290.931C114.619 289.416 114.92 287.375 113.941 285.794C113.338 284.872 112.359 284.082 112.058 283.094C111.606 281.843 112.359 280.46 112.284 279.143C112.208 277.958 111.531 276.772 110.476 276.048C109.346 275.323 107.765 275.06 106.409 275.323C105.43 273.743 104.451 272.162 103.17 270.845C101.815 269.528 100.082 268.409 98.0487 268.08C96.2411 267.816 94.2829 268.211 92.7765 269.199C91.3455 270.187 90.0651 271.636 89.9144 273.282C89.0106 273.282 88.1068 273.348 87.203 273.545C86.2992 273.743 85.4707 274.072 84.8682 274.731C84.0397 275.521 83.8137 276.706 83.8891 277.76C83.9644 278.814 84.4163 279.867 84.8682 280.855C84.2657 281.514 84.0397 282.238 83.4372 282.963C82.6087 283.95 81.7802 285.004 81.4036 286.189C80.9517 287.902 81.7049 289.745 83.0606 291.063C84.4163 292.38 86.2992 293.17 88.1822 293.697C87.9562 293.565 88.2575 293.697 88.0315 293.565C88.1068 293.565 88.2575 293.565 88.3328 293.565H100.986C100.986 293.894 100.911 294.289 100.911 294.619C101.589 294.816 102.041 294.948 102.568 295.211Z" fill="#4E3E49"/>
<path d="M118.319 319.894C118.319 319.894 107.441 309.952 96.2121 312.291C84.9835 309.952 74.1057 319.894 74.1057 319.894L79.2522 332.526L74.1057 372.645C83.6969 380.833 108.727 380.833 118.319 372.645L113.172 332.526L118.319 319.894Z" fill="#F2994A"/>
<path d="M85.9192 335.568C85.9192 341.182 90.5978 345.744 96.2121 345.744C101.826 345.744 106.505 341.182 106.505 335.568H85.9192Z" fill="white"/>
<path d="M108.727 285.272C108.727 285.272 107.908 302.583 97.4984 302.7C88.3752 302.7 86.7376 292.875 86.2698 286.676C86.2698 286.676 88.2582 283.05 92.4689 285.272C92.4689 285.272 93.6386 280.009 96.0948 279.775C98.5511 279.541 105.686 285.74 108.727 285.272Z" fill="#FCB682"/>
<path d="M100.794 299.863V312.771C100.794 312.771 106.521 316.259 106.203 319.05C105.885 321.841 84.8844 321.492 85.839 318.004C86.7935 314.515 93.6346 312.073 93.6346 312.073L93.7937 299.747H100.794V299.863Z" fill="#FCB682"/>
<path d="M93.7556 324.924C94.8083 323.169 96.7967 322.116 97.7324 320.362C98.5511 319.075 98.6681 317.438 98.4342 315.8C98.2002 314.28 97.6154 312.876 97.0306 311.356C98.4342 312.642 99.4869 314.514 99.8378 316.385C100.189 318.374 99.8377 320.362 98.902 322.116C98.0833 323.637 96.7967 324.807 96.3288 326.444C95.627 328.666 96.7967 331.357 98.902 332.292C97.0306 332.526 95.0422 331.708 93.9895 330.187C92.9368 328.666 92.8198 326.561 93.7556 324.924Z" fill="#E0CCB1"/>
<path d="M90.7147 350.071C88.2584 352.761 82.1762 355.919 75.8601 358.024C67.9065 360.715 59.8359 361.533 58.5493 357.674C53.5198 342.936 73.9887 319.894 73.9887 319.894L79.2521 332.526C79.2521 332.526 69.0761 346.913 70.7137 349.72C71.2985 350.773 73.9887 350.422 77.0298 349.603C82.0593 348.316 88.1414 345.626 88.1414 345.626L90.7147 350.071Z" fill="#FCB682"/>
<path d="M87.0887 347.263C87.0887 347.263 86.9717 340.479 88.1414 340.479C89.311 340.479 89.311 344.69 89.311 344.69C89.311 344.69 92.2351 339.777 93.0539 340.479C93.8726 341.181 91.7673 345.392 91.7673 345.392C91.7673 345.392 95.0423 341.883 95.6271 342.585C96.212 343.286 93.1709 347.146 93.1709 347.146C93.1709 347.146 95.6271 346.328 96.212 347.146C96.7968 347.965 93.4048 349.252 93.4048 349.252C93.4048 349.252 95.3932 349.603 95.5102 350.421C95.6271 351.24 89.7789 351.006 89.7789 351.006L87.0887 347.263Z" fill="#FCB682"/>
<path d="M133.758 357.674C132.471 361.533 124.284 360.598 116.447 358.024C110.131 355.919 104.049 352.761 101.593 350.071L104.166 345.626C104.166 345.626 110.248 348.316 115.277 349.603C118.319 350.422 121.009 350.773 121.594 349.72C123.231 347.03 113.055 332.526 113.055 332.526L118.202 319.894C118.319 319.894 138.787 342.936 133.758 357.674Z" fill="#FCB682"/>
<path d="M105.218 347.263C105.218 347.263 105.335 340.479 104.166 340.479C102.996 340.479 102.996 344.69 102.996 344.69C102.996 344.69 100.072 339.777 99.2532 340.479C98.4344 341.181 100.54 345.392 100.54 345.392C100.54 345.392 97.2648 341.883 96.6799 342.585C96.0951 343.286 99.1362 347.146 99.1362 347.146C99.1362 347.146 96.6799 346.328 96.0951 347.146C95.5103 347.965 98.9023 349.252 98.9023 349.252C98.9023 349.252 96.9139 349.603 96.7969 350.421C96.68 351.24 102.528 351.006 102.528 351.006L105.218 347.263Z" fill="#FCB682"/>
<g opacity="0.9">
<path d="M148.273 94.8109L147.619 101.601L144.68 134.668C139.759 148.335 80.4504 167.104 69.1877 158.227L47.8843 132.725L43.5635 127.487L148.273 94.8109Z" fill="#EBDCBF"/>
<path d="M148.273 94.8109L147.619 101.601C140.647 111.749 123.327 122.614 101.611 129.39C79.8161 136.192 59.3905 137.107 47.9089 132.804L43.5881 127.566L148.298 94.8899L148.273 94.8109Z" fill="#E0CCB1"/>
<path d="M143.117 79.9551C132.342 74.3054 110.406 74.8248 86.7954 82.1931C63.2634 89.5367 44.9258 101.585 39.1972 112.385L35.1699 113.642L37.7328 121.855C41.5524 134.094 69.6898 136.232 100.566 126.597C131.442 116.962 153.369 99.1999 149.549 86.9601L146.987 78.7476L143.117 79.9551Z" fill="#EBDCBF"/>
<path d="M147.12 78.6193C147.564 80.0407 147.667 81.4817 147.454 83.0213C145.761 94.8148 125.459 109.73 98.1363 118.256C70.8139 126.783 45.6319 126.062 37.5324 117.324C36.4817 116.179 35.7469 114.935 35.3033 113.514C31.4837 101.274 53.4111 83.5123 84.287 73.8769C115.163 64.2415 143.3 66.3795 147.12 78.6193Z" fill="#E0CCB1"/>
<path d="M147.479 83.1003C145.786 94.8938 125.483 109.809 98.161 118.335C70.8386 126.862 45.6566 126.141 37.5571 117.403C39.1704 105.634 59.5521 90.6949 86.8746 82.1685C114.197 73.642 139.354 74.2836 147.479 83.1003Z" fill="#ABB344"/>
<path d="M119.402 77.8239C111.969 67.0581 101.136 59.0003 88.7064 54.9933C88.213 54.8006 88.0399 55.6345 88.5333 55.8272C100.78 59.8045 111.406 67.7537 118.765 78.2826C118.992 78.7317 119.708 78.2484 119.402 77.8239Z" fill="#696E2B"/>
<path d="M116.092 60.8321C118.089 64.455 117.446 69.3353 114.563 72.3148C113.044 69.6691 111.974 66.7966 111.64 63.7813C111.502 62.7845 111.498 61.6593 111.883 60.6725C112.293 59.7647 113.354 59.0002 114.371 59.2029C115.047 59.4253 115.609 60.1163 116.092 60.8321Z" fill="#696E2B"/>
<path d="M109.724 54.587C111.721 58.2099 111.077 63.0902 108.194 66.0697C106.675 63.424 105.685 60.5269 105.271 57.5363C105.134 56.5394 105.129 55.4142 105.514 54.4274C105.924 53.5196 106.986 52.7551 108.002 52.9578C108.757 53.1555 109.344 53.9256 109.724 54.587Z" fill="#696E2B"/>
<path d="M102.807 49.6396C104.804 53.2625 104.161 58.1428 101.278 61.1223C99.7591 58.4766 98.6893 55.6041 98.355 52.5889C98.2172 51.592 98.2127 50.4668 98.598 49.48C99.0079 48.5722 100.069 47.8077 101.086 48.0104C101.841 48.2081 102.403 48.8992 102.807 49.6396Z" fill="#696E2B"/>
<path d="M94.908 45.4321C96.9052 49.055 96.2617 53.9353 93.3786 56.9148C91.8597 54.2691 90.869 51.372 90.4556 48.3813C90.3178 47.3845 90.3133 46.2593 90.6987 45.2725C91.1086 44.3647 92.1699 43.6002 93.1864 43.8029C93.9413 44.0006 94.5036 44.6917 94.908 45.4321Z" fill="#696E2B"/>
<path d="M81.4597 48.1557C85.244 50.0078 88.5147 52.7133 90.9611 56.1094C87.4025 57.4799 83.2918 57.6362 79.6503 56.5195C77.726 55.9068 75.861 54.929 74.8994 53.236C73.8588 51.5676 74.0374 49.0855 75.6565 47.8869C77.3299 46.5848 79.6194 47.2568 81.4597 48.1557Z" fill="#696E2B"/>
<path d="M90.7607 63.7978C92.5725 62.1059 93.8712 59.8808 94.415 57.458C91.7105 57.9553 89.0749 58.9511 86.7451 60.3714C85.7135 60.9534 84.6769 61.7968 84.6271 63.0255C84.5229 64.3579 85.8894 65.4046 87.1971 65.4298C88.5838 65.4303 89.7487 64.7202 90.7607 63.7978Z" fill="#696E2B"/>
<path d="M97.8747 67.9902C99.6865 66.2982 100.985 64.0731 101.529 61.6504C98.8245 62.1477 96.1889 63.1435 93.8591 64.5638C92.8275 65.1457 91.7909 65.9892 91.7411 67.2179C91.6369 68.5503 93.0034 69.597 94.3112 69.6222C95.6189 69.6474 96.8627 68.9126 97.8747 67.9902Z" fill="#696E2B"/>
<path d="M104.131 71.9306C105.942 70.2387 107.241 68.0136 107.785 65.5908C105.08 66.0882 102.445 67.084 100.115 68.5043C99.0834 69.0862 98.0468 69.9296 97.9969 71.1583C97.8928 72.4907 99.2593 73.5374 100.567 73.5626C101.954 73.5632 103.198 72.8284 104.131 71.9306Z" fill="#696E2B"/>
<path d="M109.552 77.0848C111.364 75.3928 112.662 73.1678 113.206 70.745C110.502 71.2423 107.866 72.2381 105.536 73.6584C104.505 74.2403 103.468 75.0838 103.418 76.3125C103.314 77.6449 104.681 78.6916 105.988 78.7168C107.296 78.742 108.515 77.9282 109.552 77.0848Z" fill="#696E2B"/>
<path d="M115.008 80.408C111.318 77.7467 108.142 74.2318 106.732 69.9923C105.298 65.6738 105.946 60.5319 109.096 57.296C112.221 53.981 117.886 53.2529 121.335 56.2497C123.063 53.4572 124.826 50.2207 127.506 48.2577C130.187 46.2947 133.997 45.4523 136.868 47.156C138.965 48.3214 140.203 50.6215 140.68 52.9855C141.079 55.3741 140.797 57.8019 140.228 60.1457C143.14 59.757 145.996 62.2453 146.726 65.1374C147.43 67.9505 146.402 71.0442 144.477 73.2049C142.576 75.4445 140.01 76.9388 137.32 78.0382C130.277 81.016 121.175 84.8961 115.008 80.408Z" fill="#ABB344"/>
<path d="M142.906 66.5028C137.047 69.111 131.292 71.7736 125.433 74.3818C128.688 67.0401 131.968 59.7773 135.223 52.4356C135.415 51.9422 134.69 51.562 134.497 52.0554C131.242 59.3971 127.987 66.7388 124.629 74.0262C122.327 68.592 119.496 63.4094 116.004 58.6064C115.698 58.1819 114.983 58.6652 115.288 59.0898C118.83 64.0506 121.788 69.3666 124.086 75.0623C123.819 75.3188 123.967 75.7926 124.308 75.7729C124.515 75.8816 124.752 75.8077 124.86 75.6004L143.073 67.3171C143.601 67.0657 143.355 66.276 142.906 66.5028Z" fill="#696E2B"/>
<path d="M147.383 81.7312C147.547 76.1142 143.126 71.4279 137.509 71.2641C131.892 71.1002 127.206 75.5209 127.042 81.1379C126.878 86.7549 131.299 91.4412 136.916 91.605C142.533 91.7688 147.219 87.3481 147.383 81.7312Z" fill="#BD537B"/>
<path d="M139.793 89.5718C135.292 90.9764 130.526 88.4775 129.121 83.9764C127.716 79.4753 130.215 74.7093 134.716 73.3047C139.217 71.9 143.983 74.3989 145.388 78.9C146.714 83.4257 144.215 88.1918 139.793 89.5718ZM134.913 73.9364C130.728 75.2425 128.471 79.673 129.753 83.7793C131.059 87.9645 135.489 90.2215 139.596 88.94C143.781 87.634 146.038 83.2034 144.756 79.0971C143.475 74.9909 139.02 72.655 134.913 73.9364Z" fill="#DB749B"/>
<path d="M139.177 87.5977C135.781 88.6573 132.155 86.756 131.095 83.3604C130.036 79.9649 131.937 76.3385 135.332 75.2789C138.728 74.2193 142.354 76.1206 143.414 79.5161C144.474 82.9117 142.572 86.538 139.177 87.5977ZM135.505 75.8317C132.425 76.7927 130.687 80.1082 131.648 83.1879C132.609 86.2676 135.925 88.006 139.004 87.0449C142.084 86.0838 143.822 82.7683 142.861 79.6886C141.821 76.6336 138.585 74.8706 135.505 75.8317Z" fill="#DB749B"/>
<path d="M138.585 85.7024C136.216 86.4417 133.729 85.1379 132.99 82.769C132.251 80.4 133.555 77.9133 135.924 77.174C138.293 76.4348 140.779 77.7385 141.519 80.1075C142.179 82.5012 140.875 84.9878 138.585 85.7024ZM136.121 77.8058C134.068 78.4465 132.927 80.6223 133.568 82.6754C134.208 84.7286 136.384 85.8693 138.437 85.2286C140.49 84.5879 141.631 82.4121 140.99 80.359C140.246 78.2515 138.095 77.1897 136.121 77.8058Z" fill="#DB749B"/>
<path d="M137.994 83.8073C136.73 84.2016 135.383 83.4954 134.989 82.2319C134.595 80.9685 135.301 79.6215 136.564 79.2273C137.828 78.833 139.175 79.5392 139.569 80.8026C139.939 81.9871 139.257 83.413 137.994 83.8073ZM136.712 79.701C135.765 79.9967 135.221 81.0329 135.517 81.9804C135.813 82.928 136.849 83.4713 137.797 83.1756C138.744 82.8799 139.287 81.8438 138.992 80.8962C138.696 79.9486 137.66 79.4053 136.712 79.701Z" fill="#DB749B"/>
<path d="M141.355 94.0236C138.445 102.471 129.255 106.899 120.807 103.989C116.233 102.383 112.845 99.0212 111.119 94.8802C109.67 91.3464 109.459 87.3392 110.763 83.4659C113.673 75.0186 122.864 70.5908 131.311 73.5008C134.118 74.4444 136.467 76.138 138.257 78.2656C141.996 82.4715 143.321 88.3839 141.355 94.0236Z" fill="#BC2A57"/>
<path d="M138.589 89.6009C135.679 98.0482 126.488 102.476 118.041 99.5661C115.234 98.6224 112.885 96.9289 111.095 94.8013C109.645 91.2674 109.435 87.2602 110.739 83.3869C113.649 74.9397 122.839 70.5118 131.287 73.4218C134.094 74.3654 136.442 76.059 138.233 78.1866C139.761 81.6958 139.997 85.7819 138.589 89.6009Z" fill="#E83C3C"/>
<path d="M131.812 92.3223C130.643 91.9073 129.384 92.0401 128.274 92.6466C127.163 93.2532 125.905 93.3859 124.656 92.9955C123.383 92.5262 122.485 91.5932 121.958 90.458C121.509 89.2981 120.557 88.4687 119.388 88.0537C115.88 86.8088 112.542 90.2766 113.888 93.7562C115.288 97.1322 118.061 99.9066 121.751 101.181C125.442 102.456 129.375 102.008 132.524 100.159C135.777 98.3641 135.32 93.5673 131.812 92.3223Z" fill="#FF484B"/>
<path d="M120.331 85.2462C121.501 85.6612 122.759 85.5285 123.87 84.9219C124.98 84.3154 126.239 84.1826 127.487 84.573C128.76 85.0423 129.658 85.9753 130.186 87.1105C130.634 88.2704 131.586 89.0998 132.756 89.5148C136.264 90.7597 139.601 87.2919 138.255 83.8123C136.855 80.4364 134.083 77.6619 130.392 76.3873C126.701 75.1127 122.768 75.5602 119.619 77.4095C116.366 79.2045 116.848 84.0802 120.331 85.2462Z" fill="#FF484B"/>
<path d="M123.647 97.8166C123.509 98.2064 123.114 98.3296 122.828 98.2456C122.438 98.1073 122.315 97.7124 122.399 97.4262C122.537 97.0364 123.045 96.4444 123.411 96.5038C123.776 96.5632 123.785 97.4268 123.647 97.8166Z" fill="#53360A"/>
<path d="M120.504 95.2443C120.445 95.6094 120.178 95.8659 119.838 95.8856C119.473 95.8262 119.216 95.5596 119.197 95.2191C119.256 94.8539 119.533 94.0744 119.952 94.0301C120.293 94.0105 120.485 94.9038 120.504 95.2443Z" fill="#53360A"/>
<path d="M117.392 92.4894C117.332 92.8546 117.066 93.1111 116.725 93.1307C116.36 93.0713 116.104 92.8047 116.084 92.4642C116.143 92.0991 116.42 91.3195 116.84 91.2752C117.205 91.3346 117.451 92.1243 117.392 92.4894Z" fill="#53360A"/>
<path d="M126.534 97.3489C126.371 97.6597 126.415 98.0792 126.726 98.2421C127.037 98.4051 127.456 98.3609 127.619 98.05C127.782 97.7392 128.034 96.8806 127.723 96.7177C127.388 96.4757 126.697 97.038 126.534 97.3489Z" fill="#53360A"/>
<path d="M130.595 97.0347C130.432 97.3455 130.476 97.765 130.787 97.928C131.098 98.0909 131.517 98.0467 131.68 97.7358C131.843 97.425 132.095 96.5664 131.785 96.4035C131.474 96.2405 130.783 96.8028 130.595 97.0347Z" fill="#53360A"/>
<path d="M129.768 80.2213C129.907 79.8315 129.705 79.4613 129.339 79.402C128.95 79.2636 128.579 79.4658 128.52 79.831C128.382 80.2208 128.391 81.0844 128.756 81.1437C129.122 81.2031 129.606 80.5321 129.768 80.2213Z" fill="#53360A"/>
<path d="M125.633 80.2986C125.796 79.9878 125.752 79.5683 125.441 79.4054C125.131 79.2424 124.711 79.2866 124.548 79.5975C124.385 79.9083 124.133 80.7669 124.444 80.9298C124.755 81.0928 125.446 80.5305 125.633 80.2986Z" fill="#53360A"/>
<path d="M121.626 80.5093C121.789 80.1985 121.745 79.779 121.434 79.6161C121.123 79.4531 120.703 79.4973 120.541 79.8082C120.378 80.119 120.126 80.9775 120.436 81.1405C120.668 81.3281 121.359 80.7658 121.626 80.5093Z" fill="#53360A"/>
<path d="M131.717 82.2997C131.776 81.9345 132.043 81.678 132.384 81.6584C132.749 81.7178 133.005 81.9844 133.025 82.3249C132.965 82.69 132.689 83.4696 132.269 83.5139C131.929 83.5335 131.682 82.7438 131.717 82.2997Z" fill="#53360A"/>
<path d="M134.751 85.0791C134.81 84.714 135.077 84.4575 135.418 84.4379C135.783 84.4972 136.039 84.7638 136.059 85.1043C135.999 85.4695 135.723 86.2491 135.303 86.2933C134.938 86.2339 134.692 85.4443 134.751 85.0791Z" fill="#53360A"/>
<path d="M131.844 110.386C137.187 104.686 136.898 95.7343 131.199 90.3913C125.499 85.0483 116.547 85.3374 111.204 91.037C105.861 96.7366 106.15 105.688 111.85 111.031C117.549 116.374 126.501 116.085 131.844 110.386Z" fill="#BD537B"/>
<path d="M125.024 111.945C118.865 113.867 112.234 110.391 110.312 104.231C108.389 98.0719 111.866 91.4409 118.026 89.5188C124.185 87.5966 130.816 91.0733 132.738 97.2327C134.66 103.392 131.184 110.023 125.024 111.945ZM118.272 90.3084C112.507 92.1074 109.302 98.2203 111.101 103.985C112.9 109.749 119.013 112.955 124.778 111.156C130.542 109.357 133.747 103.244 131.948 97.4792C130.149 91.7146 123.958 88.5341 118.272 90.3084Z" fill="#DB749B"/>
<path d="M124.186 109.26C119.448 110.739 114.45 108.053 112.996 103.394C111.542 98.7345 114.204 93.6576 118.863 92.2037C123.522 90.7497 128.599 93.4116 130.053 98.0706C131.507 102.73 128.845 107.807 124.186 109.26ZM119.085 92.9144C114.821 94.2451 112.43 98.8039 113.761 103.068C115.092 107.332 119.651 109.723 123.915 108.392C128.179 107.061 130.569 102.502 129.239 98.2381C127.908 93.9739 123.349 91.5837 119.085 92.9144Z" fill="#DB749B"/>
<path d="M123.348 106.576C120.111 107.586 116.612 105.818 115.577 102.501C114.542 99.1848 116.335 95.7656 119.652 94.7306C122.889 93.7203 126.387 95.4883 127.422 98.8049C128.457 102.122 126.586 105.565 123.348 106.576ZM119.923 95.5993C117.08 96.4864 115.505 99.4911 116.392 102.334C117.279 105.177 120.284 106.752 123.126 105.865C125.969 104.978 127.545 101.973 126.657 99.1303C125.691 96.3122 122.687 94.7368 119.923 95.5993Z" fill="#DB749B"/>
<path d="M122.51 103.891C120.773 104.433 118.829 103.48 118.262 101.663C117.696 99.8472 118.673 97.9822 120.49 97.4154C122.227 96.8733 124.171 97.8265 124.738 99.6427C125.304 101.459 124.248 103.349 122.51 103.891ZM120.761 98.2841C119.418 98.703 118.658 100.154 119.077 101.496C119.496 102.838 120.946 103.599 122.289 103.18C123.631 102.761 124.391 101.311 123.973 99.9681C123.475 98.6503 122.103 97.8651 120.761 98.2841Z" fill="#DB749B"/>
<path d="M62.6143 121.889C72.2526 118.881 77.6276 108.63 74.6198 98.9913C71.612 89.3531 61.3604 83.978 51.7221 86.9858C42.0839 89.9936 36.7088 100.245 39.7166 109.884C42.7244 119.522 52.976 124.897 62.6143 121.889Z" fill="#BD537B"/>
<path d="M61.7027 118.967C53.7271 121.456 45.1521 117.026 42.6386 108.972C40.1496 100.996 44.5795 92.4212 52.6341 89.9076C60.6887 87.394 69.1847 91.8486 71.6983 99.9032C74.1872 107.879 69.7573 116.454 61.7027 118.967ZM52.9545 90.9342C45.5316 93.2506 41.3487 101.229 43.6651 108.651C45.9816 116.074 53.9595 120.257 61.3823 117.941C68.8052 115.624 72.9881 107.646 70.6717 100.224C68.3553 92.8007 60.3773 88.6177 52.9545 90.9342Z" fill="#DB749B"/>
<path d="M60.6182 115.493C54.5378 117.39 48.0104 113.968 46.1129 107.887C44.2153 101.807 47.6377 95.2796 53.7182 93.3821C59.7986 91.4846 66.326 94.907 68.2235 100.987C70.121 107.068 66.6986 113.595 60.6182 115.493ZM54.0385 94.4087C48.5109 96.1337 45.4144 102.039 47.1394 107.567C48.8644 113.095 54.7702 116.191 60.2978 114.466C65.8255 112.741 68.9219 106.835 67.1969 101.308C65.4719 95.7801 59.5662 92.6837 54.0385 94.4087Z" fill="#DB749B"/>
<path d="M59.5339 112.018C55.3487 113.324 50.8935 110.988 49.5874 106.803C48.2813 102.618 50.6172 98.1626 54.8025 96.8566C58.9877 95.5505 63.4429 97.8864 64.749 102.072C66.134 106.232 63.7191 110.712 59.5339 112.018ZM55.0982 97.8042C51.4657 98.9377 49.4557 102.771 50.5893 106.404C51.7229 110.036 55.5564 112.046 59.1889 110.913C62.8214 109.779 64.8314 105.945 63.6978 102.313C62.6678 98.7349 58.7306 96.6706 55.0982 97.8042Z" fill="#DB749B"/>
<path d="M58.4744 108.623C56.1844 109.337 53.6977 108.034 52.9831 105.743C52.2684 103.453 53.5722 100.967 55.8622 100.252C58.1523 99.5375 60.6389 100.841 61.3535 103.131C62.0682 105.421 60.7644 107.908 58.4744 108.623ZM56.1826 101.279C54.4453 101.821 53.4675 103.686 54.0096 105.423C54.5518 107.16 56.4168 108.138 58.154 107.596C59.8913 107.054 60.8691 105.189 60.327 103.452C59.7848 101.714 57.9199 100.737 56.1826 101.279Z" fill="#DB749B"/>
<path d="M98.6708 101.365C98.3857 98.5072 98.155 95.5462 99.0443 92.8423C99.9336 90.1384 102.284 87.6719 105.24 87.7027C107.046 87.659 108.753 88.6861 109.932 89.9647C111.135 91.3222 111.835 93.0102 112.298 94.7721C113.594 99.4804 113.025 104.598 110.847 109.003C108.644 113.33 104.809 116.867 100.327 118.612C99.7569 112.898 99.2657 107.158 98.6708 101.365Z" fill="#C6CF5D"/>
<path d="M76.9609 94.2747C82.6196 85.7496 85.6437 75.4469 85.3171 65.2366C85.195 62.0684 84.7867 58.8162 83.1396 56.0373C81.5714 53.2337 78.5768 51.1352 75.4086 51.2573C73.0004 51.3156 70.7496 52.7113 69.2733 54.6452C67.797 56.579 66.9867 59.2583 66.6008 61.6318C65.4521 58.784 62.6401 56.7151 59.5559 56.5511C56.5507 56.3624 53.4312 58.0291 51.9399 60.7476C50.0682 64.1914 50.8759 68.4455 51.7182 72.2555C49.7849 69.3925 45.1068 69.1193 42.2438 71.0526C39.3809 72.9859 37.978 76.5434 37.8582 80.047C37.8218 84.6512 39.8285 89.1377 43.0349 92.47C46.2412 95.8022 50.4892 98.0295 54.9152 99.1613C62.0996 101.079 69.9117 100.287 76.644 97.1466C76.7431 96.0758 76.9408 95.3208 76.9609 94.2747Z" fill="#ABB344"/>
<path d="M73.3164 63.4357C75.5925 72.9509 76.0575 82.7713 74.588 92.5022C72.2133 82.6711 67.4696 73.5793 60.6823 65.9919C60.2975 65.592 59.789 66.184 60.0948 66.6085C67.0103 74.3293 71.749 83.6826 73.9361 93.7455C68.2644 85.2899 59.3792 79.3104 49.3425 77.4164C48.7948 77.3274 48.6218 78.1613 49.1695 78.2503C59.3887 80.174 68.4268 86.3658 73.9356 95.1322C74.0638 95.2655 74.1674 95.3198 74.35 95.3495C74.3746 95.4284 74.3746 95.4284 74.3993 95.5074C74.4682 96.0059 75.2578 95.7594 75.1889 95.261C75.1397 95.1031 75.0657 94.8661 75.0954 94.6836C76.9451 84.2274 76.6532 73.5731 74.1307 63.2682C74.0371 62.6908 73.2475 62.9373 73.3164 63.4357Z" fill="#696E2B"/>
<path d="M83.985 89.5696C81.4194 88.2905 79.234 86.2861 77.9224 83.7491C76.6107 81.2121 76.2517 78.1178 77.2446 75.4682C78.2376 72.8186 80.5825 70.6137 83.4449 70.0671C86.2283 69.5451 89.3959 70.8096 90.7866 73.322C91.1478 70.8695 92.0864 68.3235 93.8981 66.6316C95.7345 65.0186 98.5476 64.3141 100.723 65.4549C102.381 66.324 103.446 68.0714 103.697 69.9862C103.924 71.822 103.572 73.7514 102.728 75.4881C105.576 74.3394 109.03 75.688 110.548 78.3336C112.067 80.9793 111.765 84.4533 110.274 87.1718C108.782 89.8903 106.26 91.804 103.486 93.1896C100.687 94.4962 97.7163 95.25 94.7452 96.0039C91.2819 93.7917 87.7149 91.5253 83.985 89.5696Z" fill="#B39944"/>
<path d="M108.099 81.8709C102.167 82.8555 96.7826 85.3159 92.1325 89.0201C93.8126 83.2964 95.5716 77.548 97.2517 71.8243C97.4444 71.3309 96.6105 71.1578 96.4178 71.6512C94.7377 77.3749 92.954 83.0443 91.2739 88.768C90.6886 83.8379 88.7363 79.2478 85.7769 75.3185C85.4711 74.894 84.7554 75.3774 85.0612 75.8019C88.3017 80.0767 90.1947 85.032 90.6417 90.3519C90.5084 90.4801 90.4294 90.5048 90.2961 90.633C90.0296 90.8895 90.2317 91.2597 90.5969 91.3191C90.4882 91.5263 90.4832 91.7878 90.3745 91.995C90.1819 92.4885 91.0158 92.6615 91.2085 92.1681C91.3765 91.5957 91.5445 91.0234 91.7125 90.451C96.4219 86.3816 101.994 83.6894 108.163 82.6309C108.686 82.6409 108.598 81.802 108.099 81.8709Z" fill="#856E25"/>
<path d="M104.842 96.146C105.298 102.329 104.605 108.439 102.895 114.345C102.702 114.838 103.536 115.011 103.729 114.518C105.493 108.508 106.162 102.32 105.681 96.0575C105.636 95.638 104.852 95.6229 104.842 96.146Z" fill="#696E2B"/>
<path d="M126.179 98.153C125.128 98.3944 124.061 99.4204 123.701 100.486C123.923 98.4235 123.362 96.3458 122.321 94.6774C121.636 93.5915 120.452 92.5744 119.218 92.7861C117.905 93.0225 117.199 94.3694 116.912 95.6721C116.141 99.0324 116.436 102.753 118.423 105.513C117.708 104.609 117.018 103.785 116.115 103.113C115.212 102.442 114.176 101.899 113.051 101.903C111.926 101.908 110.815 102.514 110.351 103.526C109.97 104.251 110.005 105.194 110.33 105.959C110.655 106.724 111.139 107.439 111.755 108.027C114.015 110.268 117.291 111.325 120.41 111.045C122.246 110.819 124.343 110.598 125.651 109.236C126.96 107.875 127.75 106.242 128.619 104.584C129.379 103.133 130.091 101.525 129.519 99.9703C129.021 98.6526 127.546 97.813 126.179 98.153Z" fill="#ABB344"/>
<path d="M126.434 101.193C124.578 103.852 122.721 106.511 120.786 109.195C120.516 105.553 120.221 101.832 120.03 98.1654C119.961 97.667 119.176 97.6518 119.166 98.1749C119.387 101.659 119.662 105.039 119.883 108.524C118.423 106.899 116.587 105.739 114.481 105.097C113.987 104.904 113.814 105.738 114.307 105.931C116.597 106.603 118.482 107.921 119.937 109.807C119.961 109.886 120.04 109.861 120.065 109.94C120.109 110.359 120.153 110.779 120.119 111.223C120.188 111.721 120.972 111.736 120.982 111.213C121.012 111.031 120.938 110.794 120.968 110.611C123.012 107.72 125.056 104.829 127.1 101.938C127.347 101.341 126.809 100.729 126.434 101.193Z" fill="#696E2B"/>
<path d="M91.8864 124.886C82.1136 129.669 70.2618 125.568 65.5578 115.771C62.9395 110.435 63.0257 104.603 65.0855 99.5403C66.8687 95.2575 70.1567 91.6318 74.6729 89.4425C84.4457 84.6596 96.2975 88.7601 101.001 98.5576C102.614 101.781 103.175 105.245 102.927 108.615C102.431 115.356 98.4361 121.716 91.8864 124.886Z" fill="#BC2A57"/>
<path d="M93.4185 118.689C83.6457 123.472 71.7939 119.371 67.0899 109.574C65.4775 106.351 64.9163 102.886 65.1644 99.5157C66.9475 95.233 70.2355 91.6072 74.7517 89.4179C84.5245 84.635 96.3763 88.7355 101.08 98.533C102.693 101.756 103.254 105.22 103.006 108.591C101.223 112.874 97.9347 116.499 93.4185 118.689Z" fill="#E83C3C"/>
<path d="M85.1941 115.103C84.5136 113.755 83.3297 112.738 81.8988 112.318C80.4678 111.898 79.1259 110.93 78.4208 109.504C77.7157 108.078 77.7213 106.429 78.3239 105.028C78.9265 103.627 78.8777 102.082 78.1973 100.735C76.2348 96.6677 70.2933 96.7887 68.5644 100.968C66.811 105.068 66.8239 109.83 68.8849 114.213C71.0003 118.492 74.789 121.469 79.0572 122.651C83.4832 123.782 87.1566 119.17 85.1941 115.103Z" fill="#FF484B"/>
<path d="M81.42 99.1223C82.1004 100.47 83.2844 101.487 84.7153 101.907C86.1462 102.327 87.4881 103.295 88.1932 104.721C88.8984 106.147 88.8928 107.796 88.2902 109.197C87.6876 110.598 87.7363 112.143 88.4168 113.49C90.3792 117.557 96.3208 117.436 98.0496 113.257C99.8031 109.157 99.7902 104.395 97.7291 100.012C95.6138 95.7328 91.825 92.7556 87.5569 91.5745C83.1555 90.5216 79.4575 95.0552 81.42 99.1223Z" fill="#FF484B"/>
<path d="M73.3855 112.808C73.0153 113.011 72.5219 112.818 72.3197 112.448C72.1175 112.078 72.3102 111.584 72.6804 111.382C73.0506 111.18 74.1511 111.096 74.3532 111.466C74.5554 111.837 73.7803 112.685 73.3855 112.808Z" fill="#53360A"/>
<path d="M72.8794 107.854C72.5338 108.135 72.0108 108.125 71.7296 107.779C71.4485 107.434 71.4585 106.911 71.8041 106.629C72.1496 106.348 73.1516 105.949 73.4327 106.294C73.7139 106.64 73.2249 107.572 72.8794 107.854Z" fill="#53360A"/>
<path d="M72.6345 102.904C72.289 103.185 71.7659 103.175 71.4847 102.829C71.2036 102.484 71.2137 101.961 71.5592 101.68C71.9048 101.399 72.9067 100.999 73.1878 101.345C73.4443 101.611 72.9554 102.544 72.6345 102.904Z" fill="#53360A"/>
<path d="M76.2765 114.853C75.857 114.897 75.5607 115.336 75.605 115.755C75.6492 116.175 76.0883 116.471 76.5078 116.427C76.9273 116.383 77.8799 115.825 77.811 115.327C77.7914 114.986 76.7749 114.784 76.2765 114.853Z" fill="#53360A"/>
<path d="M80.0848 118.17C79.6653 118.214 79.3691 118.654 79.4133 119.073C79.4576 119.492 79.8967 119.789 80.3161 119.744C80.7356 119.7 81.6882 119.143 81.6194 118.645C81.4961 118.25 80.4796 118.047 80.0848 118.17Z" fill="#53360A"/>
<path d="M93.9331 102.843C94.3033 102.641 94.4959 102.148 94.2937 101.777C94.0916 101.407 93.5982 101.215 93.228 101.417C92.8578 101.619 92.058 102.388 92.2602 102.759C92.487 103.208 93.4839 103.07 93.9331 102.843Z" fill="#53360A"/>
<path d="M90.2581 99.3973C90.6776 99.353 90.9738 98.914 90.9296 98.4945C90.8853 98.075 90.4462 97.7787 90.0268 97.823C89.6073 97.8672 88.6547 98.4245 88.7235 98.923C88.8468 99.3178 89.8386 99.4415 90.2581 99.3973Z" fill="#53360A"/>
<path d="M86.5533 96.1339C86.9727 96.0896 87.269 95.6505 87.2247 95.2311C87.1805 94.8116 86.7414 94.5153 86.3219 94.5596C85.9025 94.6038 84.9498 95.1611 85.0187 95.6595C85.0383 96.0001 86.1338 96.1781 86.5533 96.1339Z" fill="#53360A"/>
<path d="M93.7348 106.372C94.0804 106.09 94.6035 106.101 94.8846 106.446C95.1658 106.792 95.1557 107.315 94.8101 107.596C94.4646 107.877 93.4627 108.276 93.1815 107.931C92.8214 107.61 93.4139 106.732 93.7348 106.372Z" fill="#53360A"/>
<path d="M94.0041 111.4C94.3497 111.119 94.8728 111.129 95.1539 111.475C95.4351 111.82 95.425 112.343 95.0794 112.624C94.7339 112.906 93.732 113.305 93.4508 112.959C93.1697 112.614 93.6586 111.681 94.0041 111.4Z" fill="#53360A"/>
</g>
<g opacity="0.9">
<path d="M1195.66 212.597L1183.53 210.235L1165.79 206.8L1142.07 187.739C1142.07 187.739 1167.22 164.61 1182.39 153.511C1187.73 149.618 1191.82 147.156 1193.16 147.779C1198.27 150.148 1195.66 212.597 1195.66 212.597Z" fill="#CF2323"/>
<path d="M1183.57 210.256L1165.83 206.821L1142.11 187.759C1142.11 187.759 1167.27 164.631 1182.43 153.532C1184.83 164.225 1183.95 197.691 1183.57 210.256Z" fill="#E83C3C"/>
<path d="M1170.69 199.163C1170.47 199.767 1170.11 200.418 1169.47 200.503C1168.83 200.588 1168.26 199.942 1168.24 199.28C1168.22 198.617 1168.49 198.035 1168.87 197.449C1169.59 196.256 1170.51 195.213 1171.54 194.276C1171.53 195.956 1171.24 197.622 1170.69 199.163Z" fill="#5B2326"/>
<path d="M1182.05 187.933C1181.98 188.554 1181.74 189.313 1181.11 189.508C1180.47 189.704 1179.84 189.192 1179.64 188.557C1179.49 187.942 1179.65 187.252 1179.92 186.67C1180.41 185.373 1181.08 184.16 1181.93 183.03C1182.27 184.656 1182.32 186.312 1182.05 187.933Z" fill="#5B2326"/>
<path d="M1192.2 191.657C1192.28 192.296 1192.26 193.048 1191.76 193.416C1191.22 193.764 1190.44 193.455 1190.09 192.913C1189.74 192.37 1189.74 191.663 1189.77 191.021C1189.86 189.648 1190.17 188.269 1190.67 186.973C1191.46 188.43 1191.97 190.028 1192.2 191.657Z" fill="#5B2326"/>
<path d="M1182.8 202.653C1182.73 203.274 1182.48 204.033 1181.85 204.228C1181.21 204.424 1180.58 203.912 1180.38 203.277C1180.23 202.662 1180.39 201.973 1180.66 201.39C1181.15 200.094 1181.82 198.88 1182.67 197.75C1183.03 199.331 1183.06 201.032 1182.8 202.653Z" fill="#5B2326"/>
<path d="M1194.46 203.106C1194.54 203.745 1194.52 204.497 1194.02 204.865C1193.48 205.213 1192.7 204.904 1192.35 204.362C1192 203.819 1192 203.112 1192.03 202.47C1192.12 201.097 1192.43 199.718 1192.93 198.421C1193.72 199.879 1194.23 201.477 1194.46 203.106Z" fill="#5B2326"/>
<path d="M1158.28 191.285C1157.85 191.739 1157.43 192.415 1157.69 193.026C1157.95 193.637 1158.75 193.79 1159.36 193.529C1159.93 193.247 1160.36 192.682 1160.63 192.1C1161.3 190.886 1161.79 189.59 1162.1 188.211C1160.71 188.981 1159.4 190.058 1158.28 191.285Z" fill="#5B2326"/>
<path d="M1150.4 182.675C1149.86 183.023 1149.3 183.525 1149.34 184.143C1149.43 184.782 1150.17 185.18 1150.81 185.095C1151.44 185.01 1151.98 184.552 1152.46 184.118C1153.45 183.16 1154.3 182.03 1154.97 180.817C1153.39 181.173 1151.79 181.795 1150.4 182.675Z" fill="#5B2326"/>
<path d="M1169.15 181.947C1168.72 182.402 1168.3 183.077 1168.56 183.688C1168.82 184.3 1169.62 184.453 1170.23 184.192C1170.8 183.91 1171.22 183.345 1171.49 182.762C1172.16 181.549 1172.66 180.253 1172.97 178.873C1171.51 179.667 1170.22 180.7 1169.15 181.947Z" fill="#5B2326"/>
<path d="M1159.75 176.609C1159.21 176.957 1158.65 177.46 1158.69 178.077C1158.77 178.716 1159.52 179.114 1160.15 179.029C1160.79 178.944 1161.33 178.486 1161.8 178.052C1162.79 177.095 1163.64 175.965 1164.32 174.751C1162.69 175.086 1161.14 175.729 1159.75 176.609Z" fill="#5B2326"/>
<path d="M1190.45 178.16C1190.54 178.799 1190.52 179.551 1190.02 179.919C1189.48 180.266 1188.69 179.958 1188.35 179.416C1188 178.873 1188 178.166 1188.02 177.524C1188.12 176.151 1188.43 174.772 1188.92 173.475C1189.72 174.933 1190.23 176.531 1190.45 178.16Z" fill="#5B2326"/>
<path d="M1172.39 169.784C1171.85 170.132 1171.29 170.634 1171.33 171.252C1171.42 171.891 1172.16 172.289 1172.79 172.204C1173.43 172.119 1173.97 171.661 1174.45 171.227C1175.43 170.27 1176.29 169.139 1176.96 167.926C1175.33 168.261 1173.78 168.904 1172.39 169.784Z" fill="#5B2326"/>
<path d="M1181.96 174.874C1181.73 175.477 1181.37 176.128 1180.74 176.213C1180.1 176.299 1179.53 175.652 1179.51 174.99C1179.49 174.327 1179.76 173.745 1180.14 173.159C1180.85 171.966 1181.77 170.923 1182.81 169.986C1182.79 171.666 1182.53 173.288 1181.96 174.874Z" fill="#5B2326"/>
<path d="M1188.22 162.423C1188 163.026 1187.64 163.678 1187 163.763C1186.36 163.848 1185.81 163.157 1185.79 162.494C1185.77 161.832 1186.11 161.225 1186.47 160.684C1187.23 159.512 1188.15 158.469 1189.18 157.532C1189.1 159.236 1188.82 160.902 1188.22 162.423Z" fill="#5B2326"/>
<path d="M1195.49 217.199C1193.48 218.009 1191.02 217.905 1188.63 217.666C1180.27 216.784 1171.51 214.898 1163.71 211.282C1155.91 207.665 1148.81 202.194 1142.74 196.383C1142.22 195.867 1141.69 195.352 1141.21 194.858C1140.09 193.631 1139.13 192.311 1138.64 190.889C1137.96 188.831 1138.47 186.452 1140.45 185.576C1142.31 184.747 1144.83 185.425 1146.72 186.629C1146.92 186.778 1147.12 186.927 1147.33 187.075C1148.91 188.244 1150.17 189.755 1151.54 191.151C1151.83 191.452 1152.17 191.773 1152.45 192.119C1156.73 196.502 1161.68 200.755 1167.32 203.373C1173.42 206.2 1180.39 207.144 1186.85 207.529C1189.07 207.685 1191.27 207.62 1193.46 208.307C1193.84 208.429 1194.17 208.529 1194.53 208.696C1196.3 209.461 1197.86 210.786 1198.31 212.408C1198.99 214.466 1197.5 216.388 1195.49 217.199Z" fill="#4B4C18"/>
<path d="M1191.71 213.597C1189.7 214.407 1187.25 214.303 1184.88 214.019C1176.52 213.138 1167.75 211.251 1159.96 207.635C1153.1 204.455 1146.8 199.844 1141.26 194.879C1140.14 193.652 1139.17 192.332 1138.69 190.91C1138.01 188.852 1138.51 186.473 1140.5 185.597C1142.35 184.768 1144.87 185.446 1146.76 186.65C1146.97 186.799 1147.17 186.948 1147.37 187.096C1147.51 187.269 1147.67 187.397 1147.81 187.57C1149.27 189.118 1150.84 190.663 1152.49 192.14C1156.78 196.523 1161.72 200.776 1167.37 203.394C1173.46 206.221 1180.43 207.166 1186.9 207.55C1189.11 207.706 1191.32 207.641 1193.5 208.328C1193.88 208.45 1194.22 208.55 1194.58 208.717L1194.6 208.782C1195.21 210.864 1193.72 212.786 1191.71 213.597Z" fill="#696E2B"/>
</g>
</svg>
