<svg width="1440" height="1210" viewBox="0 0 1440 1210" fill="none" xmlns="http://www.w3.org/2000/svg">
<rect y="0.619141" width="1440" height="1214.2" fill="white"/>
<g opacity="0.9">
<path d="M165.352 130.41C164.46 132.502 163.035 134.847 160.926 136.091L139.806 182.063L130.447 202.493C130.447 202.493 128.772 207.866 113.107 205.837C110.049 205.45 106.43 204.767 102.27 203.716C76.4897 197.198 77.8459 189.195 77.8459 189.195L78.6512 168.302L80.6706 115.879C79.3788 113.698 79.1522 111.013 79.302 108.733C79.4643 106.069 80.191 104.012 80.191 104.012L122.897 117.513L166.818 125.912C166.687 125.801 166.332 127.953 165.352 130.41Z" fill="#E24D6D"/>
<path d="M165.365 129.966C157.305 135.853 139.293 136.967 119.607 132.036C99.9204 127.106 84.4586 117.608 79.9836 108.582C80.1444 105.962 80.8654 103.938 80.8654 103.938L123.248 117.213L166.836 125.47C166.689 125.433 166.337 127.549 165.365 129.966Z" fill="#BC2A57"/>
<path d="M160.778 135.727L139.478 181.921L130.039 202.45C130.039 202.45 128.35 207.848 112.55 205.811L148.589 143.839C148.589 143.839 137.335 143.723 126.694 135.065C127.501 135.345 144.285 141.901 160.778 135.727Z" fill="#BC2A57"/>
<path d="M168.763 121.559C166.205 132.263 144.469 135.985 120.151 129.854C99.381 124.618 83.4577 113.855 80.9142 104.166C80.4468 102.514 80.4401 100.902 80.803 99.3832C83.3607 88.6791 105.096 84.9569 129.414 91.0879C145.75 95.2063 159.082 102.708 165.296 110.486C168.243 114.22 169.592 118.087 168.763 121.559Z" fill="#EBEBFF"/>
<path d="M165.43 115.234C162.874 125.928 141.147 129.647 116.837 123.522C100.508 119.408 87.1807 111.913 80.9695 104.142C80.5023 102.493 80.4956 100.882 80.8584 99.3647C83.415 88.6708 105.142 84.952 129.451 91.0769C145.781 95.1912 159.108 102.686 165.319 110.456C165.713 112.088 165.793 113.717 165.43 115.234Z" fill="white"/>
<path d="M121.71 123.311C97.5629 117.234 86.4385 105.487 87.4916 101.087C88.5274 96.7592 103.709 91.5555 127.856 97.6321C152.002 103.709 163.127 115.456 162.074 119.856C161.038 124.184 145.857 129.388 121.71 123.311Z" fill="#E24D6D"/>
<path d="M170.59 125.436C168.191 125.291 165.804 124.766 163.579 123.896C164.616 121.85 165.654 119.804 166.691 117.759C167.698 118.474 168.991 118.647 170.193 118.874C171.412 119.028 172.631 119.182 173.729 119.844C174.844 120.433 175.673 121.565 175.618 122.782C175.524 123.835 174.689 124.702 173.736 125.076C172.784 125.451 171.678 125.48 170.59 125.436Z" fill="#EBEBFF"/>
<path d="M139.681 182.183L130.321 202.614C130.321 202.614 127.924 210.355 102.142 203.837C76.3601 197.319 77.7164 189.315 77.7164 189.315L77.7919 187.016L78.5391 168.348C81.079 166.286 84.7131 165.581 87.9128 166.7C90.3125 167.538 93.0413 169.31 95.1103 167.901C96.6118 166.889 96.8011 164.773 96.1827 163.071C95.5642 161.369 94.3215 159.973 93.3364 158.488C89.8639 152.896 90.264 145.269 94.4426 140.297C96.3138 138.066 99.4307 136.226 102.242 137.323C104.904 138.382 106.118 141.549 105.939 144.286C105.833 147.041 104.727 149.698 104.159 152.414C103.903 153.817 103.796 155.259 104.261 156.613C104.726 157.967 105.855 159.18 107.318 159.318C109.245 159.496 110.829 157.81 111.412 156.025C111.995 154.24 111.909 152.287 112.361 150.391C112.795 148.569 114.116 146.662 116.039 146.53C118.127 146.362 119.86 148.346 120.409 150.339C120.958 152.333 120.694 154.43 120.985 156.513C121.277 158.596 122.254 160.775 124.282 161.52C126.756 162.377 129.17 160.514 131.011 158.738C132.324 157.525 133.838 156.13 135.59 155.723C136.271 155.509 136.975 155.532 137.718 155.72C140.392 156.396 141.463 159.835 140.707 162.349C139.932 164.935 137.908 166.819 136.032 168.741C134.156 170.662 132.359 172.913 132.271 175.595C132.143 178.113 133.812 180.699 136.234 181.775C137.222 182.256 138.445 182.411 139.681 182.183Z" fill="white"/>
<path d="M139.6 182.203L130.246 202.62C130.246 202.62 127.851 210.356 102.088 203.842C76.3245 197.329 77.6798 189.331 77.6798 189.331L77.7552 187.033C84.9899 187.395 92.2594 187.611 99.4007 186.714C108 185.644 116.479 182.768 123.051 177.324C128.07 173.11 131.699 167.463 133.506 161.202C134.032 159.327 134.518 157.287 135.529 155.689C136.209 155.475 136.912 155.498 137.655 155.686C140.328 156.362 141.398 159.799 140.642 162.311C139.868 164.895 137.845 166.778 135.97 168.698C134.096 170.618 132.3 172.867 132.212 175.548C132.085 178.064 133.752 180.648 136.172 181.723C137.142 182.277 138.364 182.432 139.6 182.203Z" fill="#EBEBFF"/>
<path d="M117.427 191.592C111.693 194.049 104.077 196.408 100.51 194.029C98.9251 193.006 98.2734 190.374 98.1493 187.184C98.0395 182.919 98.876 177.665 99.6471 173.703C101.418 165.145 111.64 161.144 119.064 166.361C119.271 166.491 119.537 166.713 119.744 166.844C120.009 167.066 120.274 167.288 120.557 167.437C121.75 168.437 122.76 169.543 123.569 170.829C128.209 178.105 125.706 188.093 117.427 191.592Z" fill="#BC2A57"/>
<path d="M115.193 184.826C109.463 187.281 101.853 189.639 98.2882 187.262C98.2882 187.262 98.2882 187.262 98.2134 187.243C98.1036 182.98 98.9395 177.729 99.7101 173.769C101.479 165.216 111.694 161.217 119.113 166.431C119.32 166.562 119.585 166.784 119.793 166.914C120.058 167.136 120.323 167.358 120.605 167.507C121.797 168.506 122.806 169.612 123.615 170.897C124.016 176.62 121.014 182.316 115.193 184.826Z" fill="#E24D6D"/>
<path d="M117.292 167.122C116.85 166.32 116.407 165.518 116.205 164.701C116.003 163.885 116 162.889 116.409 162.153C116.819 161.417 117.806 160.905 118.624 161.115C119.367 161.305 119.935 161.91 120.229 162.674C120.539 163.365 120.593 164.144 120.572 164.904C120.816 164.201 121.58 163.632 122.202 163.333C122.899 163.052 123.734 163.19 124.244 163.703C124.754 164.217 124.791 165.067 124.564 165.698C124.337 166.328 123.887 166.901 123.437 167.474C124.414 167.342 125.597 167.34 126.496 167.876C127.395 168.413 127.918 169.541 127.475 170.422C126.998 171.447 125.524 171.681 124.317 171.448C121.556 171.122 118.677 169.619 117.292 167.122Z" fill="#68B229"/>
<path d="M109.05 169.65C108.524 169.516 108.045 169.857 107.942 170.294C107.73 170.858 107.535 171.348 107.323 171.912C107.128 172.403 107.568 172.902 108.019 173.018C108.546 173.153 109.025 172.812 109.127 172.374C109.34 171.811 109.535 171.32 109.747 170.756C109.925 170.338 109.501 169.766 109.05 169.65Z" fill="#342D27"/>
<path d="M114.334 173.518L112.969 174.94C112.131 175.803 113.574 177.098 114.319 176.288C114.755 175.783 115.174 175.351 115.685 174.866C116.54 173.93 115.172 172.654 114.334 173.518Z" fill="#342D27"/>
<path d="M119.912 179.822C119.681 179.455 119.026 179.21 118.567 179.477C118.091 179.817 117.616 180.156 117.123 180.568C116.739 180.854 116.545 181.343 116.816 181.874C117.047 182.241 117.703 182.486 118.161 182.219C118.637 181.88 119.113 181.54 119.606 181.128C120.007 180.77 120.201 180.281 119.912 179.822Z" fill="#342D27"/>
<path d="M116.27 186.719C116.132 186.3 115.528 185.838 115.07 186.104C114.721 186.245 114.372 186.386 114.022 186.526C113.582 186.72 113.239 187.17 113.435 187.681C113.574 188.101 114.177 188.563 114.635 188.296L115.683 187.874C116.124 187.68 116.45 187.303 116.27 186.719Z" fill="#342D27"/>
<path d="M112.595 182.934C112.306 182.475 111.709 182.322 111.251 182.589C110.884 182.802 110.5 183.088 110.134 183.301C109.75 183.587 109.539 184.148 109.827 184.606C110.116 185.065 110.713 185.218 111.171 184.951C111.538 184.738 111.922 184.452 112.288 184.239C112.747 183.972 112.883 183.392 112.595 182.934Z" fill="#342D27"/>
<path d="M108.917 178.83C108.52 178.497 107.887 178.488 107.577 178.794C107.268 179.1 106.941 179.478 106.632 179.783C106.305 180.161 106.26 180.689 106.641 181.095C107.039 181.428 107.671 181.436 107.981 181.13C108.29 180.825 108.617 180.447 108.927 180.141C109.253 179.763 109.315 179.163 108.917 178.83Z" fill="#342D27"/>
<path d="M104.289 176.361C103.872 176.1 103.204 176.237 103.009 176.728C102.831 177.145 102.561 177.616 102.384 178.034C102.114 178.505 102.311 179.019 102.803 179.299C103.219 179.56 103.888 179.423 104.082 178.933C104.26 178.515 104.53 178.044 104.708 177.626C104.902 177.136 104.78 176.641 104.289 176.361Z" fill="#342D27"/>
<path d="M103.687 182.296C103.27 182.034 102.601 182.172 102.406 182.662C102.228 183.08 102.033 183.571 101.855 183.988C101.661 184.479 101.783 184.974 102.275 185.254C102.691 185.515 103.361 185.378 103.555 184.887C103.733 184.47 103.928 183.979 104.106 183.561C104.284 183.143 104.253 182.595 103.687 182.296Z" fill="#342D27"/>
<path d="M107.197 185.189C106.8 184.857 106.168 184.848 105.858 185.154C105.658 185.333 105.44 185.585 105.24 185.764C104.913 186.142 104.927 186.761 105.249 187.074C105.647 187.407 106.278 187.416 106.588 187.11C106.788 186.931 107.006 186.679 107.206 186.5C107.607 186.141 107.594 185.522 107.197 185.189Z" fill="#342D27"/>
<path d="M110.541 188.741C110.311 188.374 109.656 188.129 109.198 188.396L108.631 188.788C108.247 189.074 108.053 189.563 108.324 190.094C108.555 190.46 109.21 190.705 109.668 190.439C109.852 190.332 110.052 190.153 110.235 190.046C110.619 189.76 110.83 189.199 110.541 188.741Z" fill="#342D27"/>
<path d="M104.899 189.145C104.519 188.74 103.945 188.823 103.561 189.109C103.452 189.235 103.269 189.342 103.16 189.468C102.776 189.754 102.847 190.464 103.169 190.778C103.55 191.183 104.123 191.1 104.507 190.814C104.616 190.688 104.799 190.581 104.908 190.455C105.309 190.096 105.221 189.459 104.899 189.145Z" fill="#342D27"/>
<path d="M96.5414 107.75C98.8642 106.267 102.521 104.819 103.831 103.616C105.466 102.035 105.762 100.112 107.163 98.8555C107.546 98.5691 108.806 98.5835 108.904 98.8391C109.214 99.5333 107.223 100.946 107.298 101.965C108.901 101.529 110.502 100.093 112.054 99.8748C112.867 99.7751 113.651 100.129 113.011 100.504C111.58 101.214 109.16 102.441 107.214 103.328C106.573 103.702 106.173 104.061 106.145 104.515C106.185 104.679 105.561 104.981 105.287 105.141C104.697 105.298 104.193 105.092 103.569 105.394C101.887 106.502 99.4732 108.038 97.2761 109.321C96.7269 109.642 95.4904 109.864 95.0718 109.296C94.785 108.838 95.792 108.25 96.5414 107.75Z" fill="white"/>
<path d="M117.603 104.276C118.178 106.191 115.948 108.619 112.76 109.419C110.493 109.993 108.524 109.643 107.961 108.346C107.381 107.122 107.906 105.565 109.588 104.457C112.22 102.67 116.85 101.778 117.603 104.276ZM111.768 107.935C113.634 107.72 115.109 106.483 115.549 105.289C115.777 104.655 114.786 104.171 114.082 104.145C113.395 104.046 111.106 105.383 110.821 105.925C110.301 106.792 110.068 108.116 111.768 107.935Z" fill="white"/>
<path d="M121.738 103.626C123.329 103.262 124.881 103.735 125.847 104.676C126.169 104.99 125.877 105.224 125.469 105.274C124.486 105.409 123.802 104.617 122.779 104.587C121.922 104.522 121.211 105.189 120.625 105.656C119.202 106.989 117.429 109.468 119.264 111.093C119.718 111.518 120.5 111.563 120.844 111.111C121.447 110.571 122.325 109.87 121.813 109.354C121.606 109.224 121.284 108.91 121.301 108.837C121.099 108.014 122.248 107.845 122.88 107.852C124.07 107.847 125.502 108.83 124.537 109.895C124.52 109.968 124.038 109.999 124.021 110.072C123.774 110.78 123.321 111.359 122.908 112.102C122.622 112.645 121.955 112.784 121.479 113.125C120.87 113.355 120.289 113.129 119.789 113.233C116.992 113.675 115.127 111.502 115.992 109.178C117.11 106.455 118.814 104.268 121.738 103.626Z" fill="white"/>
<path d="M127.002 104.797C127.346 104.345 128.161 104.245 128.856 104.654C128.971 104.838 129.144 105.113 129.001 105.385C127.694 106.9 126.98 110.264 129.25 112.385C131.141 114.102 132.355 111.637 132.548 110.145C132.983 108.637 132.487 107.046 132.48 105.734C132.376 105.168 133.289 105.324 133.995 105.351C134.018 105.588 134.334 105.591 134.392 105.683C134.94 108.059 135.236 110.832 133.516 113.09C132.066 114.878 128.301 116.074 126.685 113.194C124.821 110.02 125.633 106.913 127.002 104.797Z" fill="white"/>
<path d="M135.454 106.484C135.299 106.137 135.029 105.606 135.453 105.484C137.297 105.032 140.106 106.519 141.832 108.576C143.025 109.881 141.817 110.649 140.844 111.092C141.832 113.268 143.164 115.993 145.035 118.779C145.683 119.714 144.28 119.971 143.523 119.162C140.896 116.567 140.761 113.456 138.811 111.342C138.507 110.957 137.447 110.763 137.304 111.034C137.036 112.504 138.339 114.683 138.731 116.706C138.835 117.271 137.93 117.425 137.219 117.089C136.881 116.849 136.594 116.391 136.422 116.116C135.411 113.704 135.443 111.558 135.315 109.756C135.199 108.573 135.994 107.545 135.454 106.484ZM137.382 109.361C138.523 109.884 139.783 109.898 140.441 109.451C140.607 109.416 140.882 109.256 140.635 108.962C139.855 107.917 138.674 107.23 137.723 106.91C137.07 106.666 137.369 107.743 137.266 108.178C137.181 108.541 136.878 109.156 137.382 109.361Z" fill="white"/>
<path d="M148.723 119.821C146.723 115.229 146.008 111.89 144.8 108.963C144.645 108.615 144.146 108.719 143.905 108.734C143.441 108.693 143.04 109.052 142.403 108.735C141.709 108.327 141.547 107.67 142.046 107.566C144.207 107.118 145.538 107.843 148.182 108.365C148.257 108.384 148.446 108.586 148.578 108.697C149.015 109.193 148.797 109.446 148.39 109.496C147.295 109.447 147.627 109.378 146.566 109.184C147.344 111.923 148.804 115.453 150.765 119.881C151.132 120.668 150.45 120.879 150.009 121.074C149.602 121.124 148.936 120.261 148.723 119.821Z" fill="white"/>
</g>
<path d="M1330.52 1181.2V1201.21C1330.52 1201.21 1303.06 1205.45 1304.81 1201.21C1306.56 1196.98 1320.44 1196.25 1320.44 1196.25V1179.89L1330.52 1181.2Z" fill="#FCB682"/>
<path d="M1405.47 1111.96L1416.13 1095.01C1416.13 1095.01 1441.69 1106.11 1437.9 1108.74C1434.1 1111.37 1421.97 1104.51 1421.97 1104.51L1413.21 1118.38L1405.47 1111.96Z" fill="#FCB682"/>
<path d="M1414.38 1098.08L1416.27 1095.16C1416.27 1095.16 1441.84 1106.26 1438.04 1108.89C1434.24 1111.52 1422.12 1104.65 1422.12 1104.65L1421.68 1105.38C1421.53 1105.24 1421.39 1105.09 1421.24 1104.94C1418.9 1102.61 1416.57 1100.42 1414.38 1098.08Z" fill="#BD537B"/>
<path d="M1324.68 1075.73C1311.39 1110.5 1305.98 1148.19 1308.9 1185.29H1337.1C1333.01 1157.54 1337.1 1128.32 1348.35 1102.75C1350.24 1115.02 1352.14 1127.3 1358.28 1138.11C1364.41 1148.92 1375.52 1157.83 1387.93 1157.68C1397.43 1157.54 1406.34 1152.13 1412.04 1144.68C1417.88 1137.23 1420.8 1127.88 1422.12 1118.53C1415.25 1113.42 1408.68 1108.74 1401.81 1103.78C1401.23 1109.77 1400.21 1116.49 1397.43 1119.7C1394.22 1123.5 1390.13 1125.4 1385.74 1124.81C1382.09 1124.37 1378.44 1118.82 1376.54 1115.61C1374.35 1111.66 1373.47 1106.7 1372.74 1102.17C1371.43 1094.43 1369.24 1082.16 1367.92 1074.56C1366.75 1074.85 1365.73 1073.97 1364.71 1074.12L1324.68 1075.73Z" fill="#342D27"/>
<path d="M1318.84 1033.07L1311.82 1037.16L1295.61 1048.26C1295.61 1048.26 1294.88 1054.25 1298.68 1056.01C1298.68 1056.01 1308.9 1056.74 1324.39 1042.86L1318.84 1033.07Z" fill="#FCB682"/>
<path d="M1337.1 1008.67L1340.16 1009.55L1359.16 1017.29L1370.7 1076.9C1370.7 1076.9 1344.25 1088 1322.05 1077.34C1324.53 1064.19 1325.41 1056.44 1328.48 1045.49C1328.48 1045.49 1316.5 1039.94 1319.71 1031.46C1322.93 1022.99 1327.75 1014.66 1332.13 1012.91L1337.1 1008.67Z" fill="#BD537B"/>
<path d="M1332.13 1012.91C1332.13 1012.91 1328.33 1013.35 1325.41 1016.12C1322.34 1018.9 1308.76 1037.45 1308.76 1037.45C1308.76 1037.45 1314.31 1048.12 1321.9 1048.56L1329.35 1037.01L1332.13 1012.91Z" fill="#BD537B"/>
<path d="M1330.52 1197.86V1201.22C1330.52 1201.22 1303.06 1205.45 1304.81 1201.22C1306.56 1196.98 1320.44 1196.25 1320.44 1196.25V1195.37C1320.59 1195.37 1320.88 1195.52 1321.03 1195.52C1324.24 1196.25 1327.31 1197.13 1330.52 1197.86Z" fill="#BD537B"/>
<path d="M1278.95 982.525L1347.03 1080.11C1350.24 1084.78 1348.93 1091.07 1344.11 1093.99C1339.29 1096.91 1333.15 1095.3 1330.38 1090.34L1273.26 985.3L1278.95 982.525Z" fill="#A58E7C"/>
<path d="M1273.26 940.014C1270.92 940.598 1280.56 969.085 1276.32 970.984C1272.38 972.737 1258.5 942.205 1254.56 944.25C1250.61 946.295 1267.56 975.074 1263.91 977.412C1259.96 979.749 1242.14 955.645 1240.24 957.252C1238.34 958.859 1247.98 976.827 1256.9 985.154C1264.78 992.605 1274.43 987.346 1276.32 986.177C1278.37 985.3 1288.3 980.48 1286.7 969.669C1284.8 957.544 1275.59 939.429 1273.26 940.014Z" fill="#A58E7C"/>
<path d="M1298.53 1050.6C1304.37 1043.3 1308.03 1032.49 1306.71 1023.28C1306.71 1023.28 1312.7 1017.73 1311.97 1016.71C1311.24 1015.69 1305.98 1019.34 1305.98 1019.34C1305.98 1019.34 1308.17 1014.23 1307.44 1013.64C1306.71 1013.06 1303.06 1018.75 1303.06 1018.75C1303.06 1018.75 1303.35 1011.01 1302.47 1011.01C1301.6 1011.01 1299.85 1018.32 1299.85 1018.32C1299.85 1018.32 1298.82 1011.74 1297.36 1011.89C1295.9 1012.03 1297.22 1019.19 1297.22 1019.19C1297.22 1019.19 1294.88 1016.27 1293.56 1017C1292.25 1017.73 1297.51 1023.28 1297.51 1023.28L1298.97 1025.04C1298.97 1025.04 1296.05 1030.44 1290.35 1040.81C1290.35 1040.81 1285.09 1050.02 1289.18 1054.84C1290.35 1056.15 1292.1 1056.74 1293.71 1056.88C1297.95 1057.03 1302.62 1055.71 1302.62 1055.71C1300.14 1054.55 1297.51 1052.94 1298.53 1050.6Z" fill="#FCB682"/>
<path d="M1370.84 1040.81C1374.2 1045.78 1374.2 1052.65 1371.57 1058.05C1368.94 1063.46 1363.83 1067.4 1357.99 1069.3C1352.29 1071.2 1346.01 1071.2 1340.16 1070.03C1330.96 1068.13 1321.32 1062.43 1316.21 1054.54C1316.21 1054.54 1308.03 1054.11 1307.88 1052.94C1307.73 1051.62 1314.16 1051.04 1314.16 1051.04C1314.16 1051.04 1309.19 1048.55 1309.34 1047.68C1309.49 1046.8 1316.06 1048.7 1316.06 1048.7C1316.06 1048.7 1310.95 1043 1311.53 1042.42C1312.12 1041.84 1318.25 1046.22 1318.25 1046.22C1318.25 1046.22 1314.89 1040.52 1316.06 1039.79C1317.23 1039.06 1320.88 1045.34 1320.88 1045.34C1320.88 1045.34 1320.74 1041.54 1322.2 1041.4C1323.66 1041.1 1323.22 1048.85 1323.22 1048.85V1051.04C1323.22 1051.04 1348.78 1065.79 1356.53 1048.85L1356.96 1045.49L1370.84 1040.81Z" fill="#FCB682"/>
<path d="M1340.16 1009.55C1340.16 1009.55 1358.57 1008.38 1368.36 1025.33C1373.91 1036.43 1375.08 1039.06 1375.08 1039.06C1375.08 1039.06 1369.97 1047.24 1356.82 1048.7L1336.66 1012.03L1340.16 1009.55Z" fill="#BD537B"/>
<path d="M1316.79 981.94C1316.79 981.94 1312.41 973.321 1317.81 968.792C1323.22 964.264 1341.04 965.871 1344.11 973.759C1347.18 981.648 1350.54 994.649 1340.16 996.11L1316.79 981.94Z" fill="#4E3E49"/>
<path d="M1342.79 974.636C1341.92 972.737 1341.33 970.692 1341.33 968.647C1341.33 966.455 1342.06 964.41 1343.53 962.803C1344.99 961.342 1347.32 960.466 1349.37 961.05C1351.41 961.488 1352.87 963.242 1354.04 964.995C1355.36 967.04 1356.23 969.523 1356.23 972.007C1356.23 974.49 1355.21 976.974 1353.31 978.581C1351.41 980.187 1348.49 980.48 1346.3 979.311C1344.55 978.288 1343.53 976.535 1342.79 974.636Z" fill="#4E3E49"/>
<path d="M1316.94 978.727C1316.94 978.727 1315.48 996.842 1320.44 998.449C1325.26 1000.06 1332.13 996.696 1332.13 996.696V1012.77C1332.13 1012.77 1328.48 1017 1329.79 1018.32C1331.11 1019.63 1339.29 1014.23 1340.16 1009.41V993.043C1341.48 993.043 1342.79 991.875 1343.38 990.706C1344.11 989.537 1344.25 988.077 1343.82 986.762C1343.38 985.447 1342.06 984.57 1340.75 984.424C1339.43 984.278 1337.97 985.009 1337.39 986.177C1333.74 987.346 1329.5 986.762 1325.85 985.593C1322.34 984.57 1319.27 981.795 1316.94 978.727Z" fill="#FCB682"/>
<path d="M169.555 1166.06C171.193 1167.93 171.427 1170.74 170.257 1172.84C169.088 1174.95 167.216 1176.82 164.994 1176.35C166.28 1179.27 164.994 1183.13 162.304 1184.77C159.613 1186.41 155.52 1187.11 153.648 1184.54C153.414 1187.93 150.841 1191.09 147.566 1191.79C144.291 1192.49 140.08 1192.02 138.56 1188.98C137.858 1191.32 135.753 1193.19 133.296 1193.66C130.957 1194.13 127.331 1194.13 125.811 1192.14C124.758 1195.06 121.717 1197.17 118.676 1196.94C115.635 1196.82 111.658 1194.48 110.839 1191.56C109.786 1194.01 107.33 1195.77 104.757 1196C102.184 1196.35 98.5577 1195.88 97.0371 1193.78C95.7505 1196.7 92.5925 1198.69 89.4344 1198.69C86.2763 1198.69 82.7674 1197.05 81.3638 1194.13C80.5451 1197.29 77.6209 1199.74 74.4628 1199.98C71.3048 1200.09 66.8601 1199.04 65.8074 1196C64.053 1198.81 60.544 1200.44 57.269 1200.09C53.994 1199.74 50.719 1197.87 49.6663 1194.71C47.7948 1197.87 43.3501 1199.16 40.1921 1197.52C38.6715 1196.82 37.3849 1195.42 36.5662 1193.89C35.6304 1192.14 35.3965 1190.15 35.9813 1188.28C33.2911 1189.8 29.5483 1188.98 27.5599 1186.53C25.6884 1184.07 25.1036 1180.21 27.209 1177.87C24.1679 1180.09 19.4893 1179.27 17.3839 1176.12C15.2785 1172.96 16.2142 1168.05 19.4892 1166.06C16.0973 1164.19 13.8749 1160.21 13.8749 1156.23C13.9919 1152.26 16.3312 1148.4 19.8402 1146.76C21.9455 1145.71 24.8697 1144.07 26.7411 1142.78H165.813C170.023 1144.65 173.181 1148.75 173.883 1153.42C174.468 1157.99 172.831 1162.9 169.555 1166.06Z" fill="#EBDCBF"/>
<path d="M145.578 1160.09C147.216 1161.85 147.45 1164.77 146.28 1166.88C145.11 1168.98 143.239 1170.85 140.9 1170.38C142.186 1173.31 141.016 1177.17 138.209 1178.81C135.519 1180.44 131.425 1181.15 129.554 1178.57C129.32 1181.96 126.747 1185.12 123.472 1185.82C120.197 1186.53 115.986 1186.06 114.465 1183.02C113.647 1185.36 111.541 1187.23 109.202 1187.7C106.746 1188.16 103.12 1188.16 101.599 1186.18C100.547 1189.1 97.5055 1191.2 94.4644 1190.97C91.4233 1190.85 87.4465 1188.51 86.6277 1185.59C85.5751 1188.05 83.1188 1189.8 80.5455 1190.04C77.9723 1190.27 74.3464 1189.92 72.8258 1187.81C71.5392 1190.74 68.3812 1192.73 65.3401 1192.73C62.182 1192.73 58.6731 1191.09 57.2695 1188.16C56.4507 1191.32 53.5266 1193.78 50.3686 1194.01C47.2105 1194.25 42.7658 1193.08 41.7131 1190.04C40.5435 1191.91 38.555 1193.31 36.4497 1193.89C35.514 1192.14 35.28 1190.15 35.8649 1188.28C33.1747 1189.8 29.4318 1188.98 27.4434 1186.53C25.5719 1184.07 24.9871 1180.21 27.0925 1177.87C24.0514 1180.09 19.3728 1179.27 17.2674 1176.12C15.162 1172.96 16.0978 1168.05 19.3728 1166.06C15.9808 1164.19 13.7585 1160.21 13.7585 1156.23C13.8754 1152.26 16.2147 1148.4 19.7237 1146.76C21.8291 1145.71 24.7532 1144.07 26.6246 1142.78H148.034C148.853 1144.18 149.438 1145.82 149.672 1147.46C150.374 1152.14 148.853 1156.93 145.578 1160.09Z" fill="#F5ECDA"/>
<path d="M164.877 1157.52C162.304 1159.86 159.38 1161.5 156.105 1162.55C152.947 1163.6 149.555 1163.95 146.163 1163.95C144.876 1163.95 143.706 1163.84 142.42 1163.72C140.665 1163.6 139.028 1163.25 137.39 1162.9C132.595 1161.85 127.916 1160.09 123.355 1158.1C122.302 1157.64 121.249 1157.17 120.08 1156.82C116.804 1155.41 113.413 1154.01 110.021 1152.72C107.213 1151.67 104.406 1150.74 101.482 1150.15C100.312 1149.92 99.1428 1149.68 97.9731 1149.45C96.1017 1149.1 94.3472 1148.98 92.4758 1148.98C86.5106 1149.1 80.5453 1150.74 74.931 1152.84C74.814 1152.84 74.6971 1152.96 74.5801 1152.96C72.9426 1153.54 71.422 1154.24 69.7845 1154.83C62.4157 1157.87 55.2808 1161.26 47.5611 1163.02C46.2745 1163.25 45.1049 1163.48 43.8183 1163.72C42.5317 1163.84 41.1281 1164.07 39.8415 1164.07C32.9405 1164.3 26.0396 1162.67 20.7761 1158.22C20.5422 1157.99 20.3083 1157.87 20.0743 1157.64C19.3725 1156.93 18.7878 1156.35 18.2029 1155.53C11.7698 1147.58 11.5359 1135.41 16.2145 1126.17C21.361 1116.11 30.9521 1108.98 41.1281 1103.95C41.8298 1103.6 42.5317 1103.25 43.2335 1103.01C44.871 1102.19 46.5085 1101.49 48.146 1100.79C56.2166 1097.52 64.6381 1095.18 73.1765 1093.89C74.5801 1093.66 75.8667 1093.54 77.2703 1093.31C82.2998 1092.72 87.4463 1092.49 92.4758 1092.6C94.8151 1092.49 97.0374 1092.6 99.3767 1092.6C100.663 1092.6 101.833 1092.72 103.12 1092.84C109.904 1093.31 116.688 1094.47 123.355 1096.11C124.524 1096.46 125.694 1096.7 126.747 1097.05C132.595 1098.8 138.326 1101.02 143.823 1103.83C144.174 1104.07 144.642 1104.18 144.993 1104.42C146.046 1104.88 147.098 1105.47 148.034 1106.05C153.999 1109.45 159.497 1113.54 163.824 1118.69C164.643 1119.74 165.462 1120.79 166.164 1121.84C167.1 1123.13 167.918 1124.65 168.62 1126.06C173.766 1136.23 173.182 1149.8 164.877 1157.52Z" fill="#FB7840"/>
<path d="M156.105 1162.55C152.947 1163.6 149.555 1163.95 146.163 1163.95C144.876 1163.95 143.706 1163.83 142.42 1163.72C140.665 1163.6 139.028 1163.25 137.39 1162.9C132.595 1161.85 127.916 1160.09 123.355 1158.1C122.302 1157.64 121.249 1157.17 120.08 1156.82C116.804 1155.41 113.413 1154.01 110.021 1152.72C107.213 1151.67 104.406 1150.73 101.482 1150.15C100.312 1149.92 99.1428 1149.68 97.9731 1149.45C96.1017 1149.1 94.3472 1148.98 92.4758 1148.98C86.5105 1149.1 80.5453 1150.73 74.931 1152.84C74.814 1152.84 74.697 1152.96 74.5801 1152.96C72.9426 1153.54 71.422 1154.24 69.7845 1154.83C62.4157 1157.87 55.2808 1161.26 47.5611 1163.02C46.2745 1163.25 45.1049 1163.48 43.8183 1163.72C42.5317 1163.83 41.1281 1164.07 39.8415 1164.07C32.9405 1164.3 26.0396 1162.66 20.7761 1158.22C20.5422 1157.99 20.3083 1157.87 20.0743 1157.64C19.3725 1156.93 18.7878 1156.35 18.2029 1155.53C11.7698 1147.58 11.5359 1135.41 16.2145 1126.17C19.2556 1124.07 22.5306 1122.19 25.9226 1120.44C26.6244 1120.09 27.3262 1119.74 28.028 1119.5C29.6655 1118.69 31.303 1117.98 32.9405 1117.28C41.0111 1114.01 49.4326 1111.67 57.9711 1110.38C59.3746 1110.15 60.7782 1110.03 62.0648 1109.8C67.0943 1109.21 72.2408 1108.98 77.2703 1109.09C79.6096 1108.98 81.8319 1109.09 84.1712 1109.09C85.4578 1109.09 86.7444 1109.21 87.9141 1109.33C94.6981 1109.8 101.482 1110.97 108.149 1112.6C109.319 1112.95 110.371 1113.19 111.541 1113.54C117.389 1115.29 123.121 1117.52 128.618 1120.32C128.969 1120.56 129.437 1120.67 129.788 1120.91C130.84 1121.38 131.893 1121.96 132.829 1122.55C138.794 1125.94 144.291 1130.03 148.619 1135.18C149.438 1136.23 150.257 1137.28 150.958 1138.34C151.894 1139.62 152.713 1141.14 153.415 1142.55C156.573 1148.63 157.508 1156 156.105 1162.55Z" fill="#F2994A"/>
<path d="M166.164 1121.84C159.497 1135.88 152.83 1149.92 146.163 1163.95C144.876 1163.95 143.707 1163.84 142.42 1163.72C149.555 1148.75 156.69 1133.66 163.825 1118.69C164.643 1119.74 165.462 1120.79 166.164 1121.84Z" fill="#D96230"/>
<path d="M148.034 1106.05C139.73 1123.37 131.542 1140.79 123.238 1158.1C122.185 1157.64 121.132 1157.17 119.963 1156.82C128.267 1139.39 136.572 1121.84 144.876 1104.42C146.046 1105 146.981 1105.47 148.034 1106.05Z" fill="#D96230"/>
<path d="M126.747 1097.05C118.325 1114.71 109.904 1132.49 101.482 1150.15C100.313 1149.92 99.143 1149.68 97.9733 1149.45C106.395 1131.67 114.816 1113.89 123.355 1096.11C124.407 1096.46 125.577 1096.7 126.747 1097.05Z" fill="#D96230"/>
<path d="M103.12 1092.84C93.6455 1112.84 84.0544 1132.96 74.5802 1152.96C72.9427 1153.54 71.4221 1154.24 69.7846 1154.83C79.6097 1134.13 89.5518 1113.31 99.3768 1092.6C100.546 1092.6 101.833 1092.72 103.12 1092.84Z" fill="#D96230"/>
<path d="M77.2702 1093.19C66.1585 1116.7 54.9298 1140.09 43.8181 1163.6C42.5315 1163.84 41.1279 1163.95 39.7244 1163.95C50.8361 1140.56 61.9477 1117.17 73.0594 1093.77C74.463 1093.54 75.8666 1093.31 77.2702 1093.19Z" fill="#D96230"/>
<path d="M48.029 1100.67C38.9057 1119.86 29.7824 1138.92 20.7761 1158.1C20.5422 1157.87 20.3083 1157.75 20.0743 1157.52C19.3725 1156.93 18.7877 1156.23 18.2029 1155.41C26.5074 1137.87 34.9289 1120.32 43.2334 1102.78C44.754 1102.08 46.3915 1101.38 48.029 1100.67Z" fill="#D96230"/>
<path d="M83.5152 1135.03L94.276 1146.85C94.276 1146.85 80.3572 1164.16 79.0706 1160.77C77.784 1157.26 85.7376 1149.42 85.7376 1149.42L76.8482 1139.71L83.5152 1135.03Z" fill="#FCB682"/>
<path d="M92.4049 1144.86L94.2763 1146.85C94.2763 1146.85 80.3575 1164.16 79.0708 1160.77C77.7842 1157.26 85.7378 1149.42 85.7378 1149.42L85.27 1148.84C85.3869 1148.72 85.6209 1148.72 85.7378 1148.6C87.8432 1147.32 90.1825 1146.03 92.4049 1144.86Z" fill="#E83C3C"/>
<path d="M106.908 1135.03L96.1471 1146.85C96.1471 1146.85 110.066 1164.16 111.353 1160.77C112.639 1157.26 104.686 1149.42 104.686 1149.42L113.575 1139.71L106.908 1135.03Z" fill="#FCB682"/>
<path d="M98.0189 1144.86L96.1475 1146.85C96.1475 1146.85 110.066 1164.16 111.353 1160.77C112.64 1157.26 104.686 1149.42 104.686 1149.42L105.154 1148.84C105.037 1148.72 104.803 1148.72 104.686 1148.6C102.464 1147.31 100.241 1146.03 98.0189 1144.86Z" fill="#E83C3C"/>
<path d="M95.3289 1081V1097.14C95.3289 1097.14 77.3163 1097.72 74.86 1099.36C74.86 1099.36 64.4501 1109.42 90.0655 1137.37L77.7842 1146.96C77.7842 1146.96 43.1625 1115.03 47.2563 1097.84C51.8179 1078.54 72.5207 1080.88 72.5207 1080.88L95.3289 1081Z" fill="#4E3E49"/>
<path d="M94.9778 1081V1097.14C94.9778 1097.14 112.99 1097.72 115.447 1099.36C115.447 1099.36 125.857 1109.42 100.241 1137.37L112.523 1146.96C112.523 1146.96 147.144 1115.03 143.05 1097.84C138.489 1078.54 117.786 1080.88 117.786 1080.88L94.9778 1081Z" fill="#4E3E49"/>
<path d="M101.568 1003.21C103.601 1002.95 105.635 1002.68 107.593 1002.09C109.551 1001.5 111.359 1000.45 112.489 998.931C113.619 997.416 113.92 995.375 112.941 993.794C112.338 992.872 111.359 992.082 111.058 991.094C110.606 989.843 111.359 988.46 111.284 987.143C111.208 985.958 110.531 984.772 109.476 984.048C108.346 983.323 106.765 983.06 105.409 983.323C104.43 981.743 103.451 980.162 102.17 978.845C100.815 977.528 99.0823 976.409 97.0488 976.08C95.2411 975.816 93.2829 976.211 91.7766 977.199C90.3455 978.187 89.0651 979.636 88.9145 981.282C88.0107 981.282 87.1069 981.348 86.2031 981.545C85.2993 981.743 84.4708 982.072 83.8682 982.731C83.0397 983.521 82.8138 984.706 82.8891 985.76C82.9644 986.814 83.4163 987.867 83.8682 988.855C83.2657 989.514 83.0397 990.238 82.4372 990.963C81.6087 991.95 80.7802 993.004 80.4036 994.189C79.9517 995.902 80.7049 997.745 82.0606 999.063C83.4163 1000.38 85.2993 1001.17 87.1822 1001.7C86.9562 1001.56 87.2575 1001.7 87.0315 1001.56C87.1069 1001.56 87.2575 1001.56 87.3328 1001.56H99.9861C99.9861 1001.89 99.9108 1002.29 99.9108 1002.62C100.589 1002.82 101.041 1002.95 101.568 1003.21Z" fill="#4E3E49"/>
<path d="M117.318 1027.89C117.318 1027.89 106.441 1017.95 95.2121 1020.29C83.9834 1017.95 73.1057 1027.89 73.1057 1027.89L78.2521 1040.53L73.1057 1080.65C82.6968 1088.83 107.727 1088.83 117.318 1080.65L112.172 1040.53L117.318 1027.89Z" fill="#F2994A"/>
<path d="M84.9193 1043.57C84.9193 1049.18 89.5978 1053.74 95.2122 1053.74C100.826 1053.74 105.505 1049.18 105.505 1043.57H84.9193Z" fill="white"/>
<path d="M107.727 993.272C107.727 993.272 106.908 1010.58 96.4986 1010.7C87.3753 1010.7 85.7378 1000.87 85.2699 994.676C85.2699 994.676 87.2583 991.05 91.469 993.272C91.469 993.272 92.6387 988.009 95.095 987.775C97.5512 987.541 104.686 993.74 107.727 993.272Z" fill="#FCB682"/>
<path d="M99.794 1007.86V1020.77C99.794 1020.77 105.521 1024.26 105.203 1027.05C104.885 1029.84 83.8845 1029.49 84.839 1026C85.7936 1022.52 92.6347 1020.07 92.6347 1020.07L92.7938 1007.75H99.794V1007.86Z" fill="#FCB682"/>
<path d="M92.7555 1032.92C93.8082 1031.17 95.7966 1030.12 96.7323 1028.36C97.5511 1027.08 97.668 1025.44 97.4341 1023.8C97.2002 1022.28 96.6154 1020.88 96.0306 1019.36C97.4341 1020.64 98.4868 1022.51 98.8377 1024.39C99.1886 1026.37 98.8377 1028.36 97.902 1030.12C97.0832 1031.64 95.7966 1032.81 95.3288 1034.44C94.627 1036.67 95.7966 1039.36 97.902 1040.29C96.0305 1040.53 94.0421 1039.71 92.9895 1038.19C91.9368 1036.67 91.8198 1034.56 92.7555 1032.92Z" fill="#E0CCB1"/>
<path d="M89.7147 1058.07C87.2585 1060.76 81.1763 1063.92 74.8602 1066.02C66.9065 1068.71 58.8359 1069.53 57.5493 1065.67C52.5198 1050.94 72.9887 1027.89 72.9887 1027.89L78.2522 1040.53C78.2522 1040.53 68.0762 1054.91 69.7137 1057.72C70.2985 1058.77 72.9887 1058.42 76.0298 1057.6C81.0593 1056.32 87.1415 1053.63 87.1415 1053.63L89.7147 1058.07Z" fill="#FCB682"/>
<path d="M86.0887 1055.26C86.0887 1055.26 85.9717 1048.48 87.1414 1048.48C88.311 1048.48 88.311 1052.69 88.311 1052.69C88.311 1052.69 91.2351 1047.78 92.0539 1048.48C92.8726 1049.18 90.7673 1053.39 90.7673 1053.39C90.7673 1053.39 94.0423 1049.88 94.6271 1050.58C95.212 1051.29 92.1709 1055.15 92.1709 1055.15C92.1709 1055.15 94.6271 1054.33 95.212 1055.15C95.7968 1055.97 92.4048 1057.25 92.4048 1057.25C92.4048 1057.25 94.3932 1057.6 94.5102 1058.42C94.6271 1059.24 88.7789 1059.01 88.7789 1059.01L86.0887 1055.26Z" fill="#FCB682"/>
<path d="M132.758 1065.67C131.471 1069.53 123.284 1068.6 115.447 1066.02C109.131 1063.92 103.049 1060.76 100.592 1058.07L103.166 1053.63C103.166 1053.63 109.248 1056.32 114.277 1057.6C117.318 1058.42 120.009 1058.77 120.594 1057.72C122.231 1055.03 112.055 1040.53 112.055 1040.53L117.201 1027.89C117.318 1027.89 137.787 1050.94 132.758 1065.67Z" fill="#FCB682"/>
<path d="M104.219 1055.26C104.219 1055.26 104.335 1048.48 103.166 1048.48C101.996 1048.48 101.996 1052.69 101.996 1052.69C101.996 1052.69 99.0721 1047.78 98.2533 1048.48C97.4346 1049.18 99.5399 1053.39 99.5399 1053.39C99.5399 1053.39 96.2649 1049.88 95.6801 1050.58C95.0952 1051.29 98.1363 1055.15 98.1363 1055.15C98.1363 1055.15 95.6801 1054.33 95.0952 1055.15C94.5104 1055.97 97.9024 1057.25 97.9024 1057.25C97.9024 1057.25 95.914 1057.6 95.797 1058.42C95.6801 1059.24 101.528 1059.01 101.528 1059.01L104.219 1055.26Z" fill="#FCB682"/>
<g opacity="0.9">
<path d="M1257.81 345.189C1261.09 341.19 1263.06 336.256 1265.62 331.703C1268.2 327.247 1271.93 322.854 1277.06 321.585C1282.57 320.136 1288.46 322.931 1291.85 327.252C1295.24 331.572 1296.6 337.219 1296.89 342.686C1297.86 356.757 1293.14 371.308 1283.96 382.465C1274.81 393.718 1261.37 401.438 1247.03 403.719C1241.73 404.621 1235.73 404.563 1231.87 401.044C1228.27 397.773 1227.47 392.41 1227.8 387.517C1228.56 376.101 1234.23 364.971 1243.15 357.387C1248.06 353.25 1253.76 350.053 1257.81 345.189Z" fill="#C6CF5D"/>
<path d="M1276.18 339.271C1271.47 367.6 1250.18 390.961 1221.77 398.772C1220.5 399.137 1220.86 401.065 1222.13 400.701C1251.42 392.608 1273.33 368.717 1278.15 339.362C1278.43 338.101 1276.46 338.011 1276.18 339.271Z" fill="#696E2B"/>
<path d="M1250 325.65C1249.89 319.528 1251.85 313.379 1255.57 308.374C1259.18 303.292 1264.45 299.375 1270.39 297.335C1272.59 304.13 1271.72 312.267 1268.15 318.65C1264.48 325.054 1258.15 329.996 1250.97 331.994C1250.74 329.625 1250.03 328.06 1250 325.65Z" fill="#696E2B"/>
<path d="M1264.26 305.279C1257.11 314.725 1251.6 325.141 1247.76 336.216C1247.36 337.408 1249.24 338.025 1249.64 336.834C1253.39 325.876 1258.84 315.675 1265.91 306.347C1266.74 305.267 1264.99 304.22 1264.26 305.279Z" fill="#ABB344"/>
</g>
<g opacity="0.9">
<path d="M166.053 603.811L165.273 610.47L161.721 642.894C156.54 656.361 96.7851 675.78 85.6664 667.287L64.7954 642.697L60.5635 637.645L166.053 603.811Z" fill="#EBDCBF"/>
<path d="M165.624 603.811L164.846 610.385C157.703 620.314 140.224 631.113 118.435 638.037C96.5676 644.985 76.1746 646.221 64.8002 642.259L60.5866 637.27L165.647 603.887L165.624 603.811Z" fill="#E0CCB1"/>
<path d="M160.636 588.616C149.949 583.279 127.974 584.173 104.194 591.796C80.4947 599.394 61.9102 611.503 55.975 622.169L51.919 623.47L54.3344 631.459C57.9343 643.365 86.0715 644.962 117.167 634.993C148.263 625.024 170.548 607.263 166.948 595.356L164.532 587.367L160.636 588.616Z" fill="#EBDCBF"/>
<path d="M164.518 587.015C164.936 588.398 165.013 589.806 164.772 591.316C162.86 602.882 142.255 617.83 114.738 626.652C87.2208 635.474 62.017 635.212 54.0669 626.806C53.0359 625.705 52.3229 624.501 51.9049 623.118C48.305 611.211 70.5894 593.45 101.685 583.481C132.781 573.512 160.918 575.109 164.518 587.015Z" fill="#E0CCB1"/>
<path d="M164.81 591.559C162.9 603.093 142.317 617.998 114.83 626.793C87.3427 635.589 62.1668 635.327 54.2258 626.945C56.0562 615.436 76.7185 600.506 104.206 591.71C131.693 582.914 156.845 583.1 164.81 591.559Z" fill="#ABB344"/>
<path d="M136.41 586.408C129.093 575.881 118.26 568.115 105.718 564.404C105.221 564.224 105.027 565.055 105.524 565.236C117.881 568.921 128.505 576.584 135.753 586.877C135.973 587.318 136.711 586.823 136.41 586.408Z" fill="#696E2B"/>
<path d="M133.23 569.816C135.197 573.387 134.429 578.269 131.407 581.303C129.908 578.696 128.875 575.854 128.599 572.853C128.48 571.862 128.5 570.74 128.917 569.747C129.358 568.832 130.463 568.047 131.501 568.227C132.189 568.435 132.75 569.112 133.23 569.816Z" fill="#696E2B"/>
<path d="M126.861 563.571C128.828 567.142 128.061 572.024 125.038 575.058C123.539 572.452 122.588 569.583 122.23 566.608C122.111 565.617 122.131 564.495 122.548 563.502C122.989 562.587 124.094 561.802 125.132 561.982C125.901 562.163 126.486 562.919 126.861 563.571Z" fill="#696E2B"/>
<path d="M119.945 558.623C121.912 562.194 121.144 567.076 118.122 570.11C116.624 567.504 115.59 564.661 115.314 561.661C115.195 560.669 115.216 559.547 115.632 558.554C116.073 557.64 117.178 556.855 118.216 557.035C118.985 557.216 119.547 557.893 119.945 558.623Z" fill="#696E2B"/>
<path d="M112.045 554.416C114.013 557.987 113.245 562.869 110.222 565.903C108.724 563.297 107.772 560.428 107.414 557.453C107.295 556.462 107.315 555.34 107.732 554.347C108.173 553.433 109.278 552.647 110.316 552.828C111.086 553.009 111.647 553.686 112.045 554.416Z" fill="#696E2B"/>
<path d="M98.5432 557.224C102.323 558.971 105.566 561.571 107.962 564.87C104.34 566.298 100.186 566.54 96.5347 565.516C94.6054 564.952 92.744 564.027 91.8101 562.377C90.7959 560.753 91.0302 558.3 92.6907 557.083C94.4083 555.762 96.7049 556.376 98.5432 557.224Z" fill="#696E2B"/>
<path d="M107.719 572.736C109.575 571.042 110.927 568.836 111.525 566.454C108.799 566.997 106.132 568.028 103.762 569.467C102.714 570.058 101.655 570.906 101.578 572.11C101.445 573.416 102.794 574.412 104.106 574.409C105.498 574.38 106.683 573.66 107.719 572.736Z" fill="#696E2B"/>
<path d="M114.833 576.929C116.689 575.234 118.041 573.029 118.639 570.646C115.913 571.19 113.246 572.22 110.876 573.66C109.828 574.251 108.769 575.098 108.692 576.302C108.559 577.608 109.908 578.604 111.22 578.601C112.533 578.598 113.797 577.853 114.833 576.929Z" fill="#696E2B"/>
<path d="M121.089 580.869C122.945 579.175 124.297 576.969 124.895 574.586C122.169 575.13 119.502 576.161 117.132 577.6C116.084 578.191 115.025 579.039 114.948 580.243C114.815 581.549 116.164 582.545 117.476 582.542C118.868 582.513 120.133 581.768 121.089 580.869Z" fill="#696E2B"/>
<path d="M126.51 586.023C128.366 584.329 129.718 582.123 130.316 579.741C127.591 580.284 124.923 581.315 122.553 582.754C121.505 583.345 120.446 584.193 120.37 585.396C120.236 586.703 121.585 587.698 122.898 587.695C124.21 587.693 125.451 586.87 126.51 586.023Z" fill="#696E2B"/>
<path d="M131.582 589.428C127.917 586.882 124.789 583.483 123.459 579.333C122.105 575.105 122.871 570.021 126.118 566.764C129.342 563.429 135.073 562.59 138.486 565.472C140.29 562.682 142.139 559.453 144.885 557.461C147.631 555.468 151.493 554.557 154.352 556.176C156.442 557.28 157.641 559.522 158.072 561.843C158.423 564.19 158.085 566.59 157.461 568.913C160.407 568.468 163.234 570.861 163.907 573.697C164.557 576.456 163.453 579.528 161.464 581.7C159.499 583.948 156.877 585.476 154.14 586.617C146.971 589.703 137.706 593.722 131.582 589.428Z" fill="#ABB344"/>
<path d="M159.962 575.183C153.997 577.879 148.135 580.626 142.169 583.321C145.611 576.014 149.076 568.785 152.518 561.478C152.723 560.987 151.999 560.628 151.794 561.118C148.353 568.425 144.911 575.732 141.366 582.988C139.161 577.679 136.418 572.63 133 567.969C132.701 567.557 131.969 568.049 132.268 568.461C135.732 573.276 138.602 578.454 140.795 584.021C140.521 584.279 140.66 584.743 141.004 584.717C141.21 584.819 141.451 584.741 141.565 584.535L160.113 575.982C160.652 575.723 160.42 574.95 159.962 575.183Z" fill="#696E2B"/>
<path d="M164.185 590.499C164.458 584.753 160.215 580.067 154.707 580.032C149.199 579.996 144.513 584.625 144.24 590.37C143.967 596.116 148.21 600.802 153.718 600.837C159.226 600.873 163.912 596.244 164.185 590.499Z" fill="#BD537B"/>
<path d="M156.64 598.421C152.054 599.909 147.288 597.545 145.968 593.127C144.648 588.709 147.283 583.943 151.869 582.455C156.455 580.967 161.221 583.332 162.541 587.749C163.78 592.193 161.145 596.959 156.64 598.421ZM152.054 583.075C147.79 584.459 145.407 588.888 146.611 592.918C147.839 597.026 152.271 599.159 156.454 597.801C160.718 596.418 163.101 591.988 161.897 587.958C160.693 583.928 156.238 581.718 152.054 583.075Z" fill="#DB749B"/>
<path d="M156.061 596.484C152.601 597.606 148.975 595.807 147.979 592.474C146.983 589.142 148.989 585.515 152.448 584.393C155.908 583.27 159.534 585.069 160.53 588.402C161.526 591.735 159.52 595.361 156.061 596.484ZM152.61 584.935C149.473 585.954 147.639 589.269 148.542 592.292C149.446 595.314 152.761 596.959 155.899 595.941C159.036 594.923 160.87 591.607 159.967 588.585C158.983 585.588 155.748 583.917 152.61 584.935Z" fill="#DB749B"/>
<path d="M155.505 594.623C153.091 595.407 150.605 594.173 149.91 591.848C149.215 589.523 150.59 587.036 153.004 586.253C155.417 585.47 157.904 586.703 158.599 589.028C159.213 591.38 157.838 593.866 155.505 594.623ZM153.189 586.873C151.097 587.552 149.894 589.727 150.496 591.743C151.098 593.758 153.274 594.837 155.366 594.158C157.458 593.48 158.661 591.304 158.059 589.289C157.353 587.222 155.2 586.22 153.189 586.873Z" fill="#DB749B"/>
<path d="M154.951 592.765C153.663 593.183 152.317 592.514 151.946 591.274C151.575 590.034 152.32 588.687 153.608 588.27C154.895 587.852 156.242 588.52 156.612 589.76C156.96 590.923 156.238 592.347 154.951 592.765ZM153.746 588.735C152.781 589.048 152.208 590.084 152.486 591.014C152.764 591.944 153.8 592.458 154.765 592.145C155.731 591.832 156.304 590.795 156.026 589.865C155.748 588.935 154.712 588.421 153.746 588.735Z" fill="#DB749B"/>
<path d="M158.416 602.624C155.282 611.037 145.884 615.617 137.402 612.928C132.811 611.443 129.457 608.195 127.805 604.14C126.418 600.679 126.295 596.723 127.701 592.866C130.836 584.453 140.234 579.873 148.715 582.562C151.534 583.432 153.872 585.054 155.636 587.118C159.324 591.192 160.532 597.006 158.416 602.624Z" fill="#BC2A57"/>
<path d="M155.658 598.255C152.531 606.654 143.151 611.224 134.684 608.538C131.87 607.668 129.536 606.048 127.775 603.988C126.39 600.533 126.266 596.583 127.669 592.733C130.796 584.334 140.176 579.764 148.643 582.451C151.457 583.321 153.791 584.94 155.552 587C157.018 590.43 157.164 594.456 155.658 598.255Z" fill="#E83C3C"/>
<path d="M148.933 601.182C147.761 600.799 146.487 600.957 145.352 601.58C144.217 602.203 142.944 602.362 141.692 602.004C140.417 601.569 139.531 600.669 139.024 599.561C138.597 598.427 137.654 597.63 136.483 597.247C132.969 596.096 129.521 599.59 130.802 602.992C132.139 606.291 134.877 608.966 138.575 610.142C142.273 611.317 146.254 610.789 149.476 608.895C152.801 607.053 152.447 602.332 148.933 601.182Z" fill="#FF484B"/>
<path d="M137.211 594.387C138.382 594.77 139.656 594.612 140.791 593.989C141.926 593.366 143.2 593.207 144.452 593.565C145.726 593.999 146.612 594.9 147.119 596.008C147.546 597.142 148.489 597.939 149.66 598.322C153.175 599.473 156.623 595.978 155.342 592.576C154.004 589.278 151.267 586.603 147.569 585.427C143.871 584.252 139.889 584.78 136.668 586.673C133.343 588.516 133.72 593.314 137.211 594.387Z" fill="#FF484B"/>
<path d="M140.646 606.8C140.497 607.189 140.094 607.319 139.806 607.242C139.414 607.114 139.298 606.726 139.39 606.441C139.539 606.052 140.067 605.455 140.436 605.506C140.804 605.557 140.794 606.411 140.646 606.8Z" fill="#53360A"/>
<path d="M137.51 604.227C137.441 604.591 137.165 604.851 136.818 604.878C136.449 604.827 136.194 604.568 136.182 604.231C136.25 603.867 136.549 603.088 136.976 603.034C137.322 603.008 137.498 603.89 137.51 604.227Z" fill="#53360A"/>
<path d="M134.397 601.472C134.328 601.836 134.052 602.096 133.706 602.123C133.336 602.072 133.081 601.813 133.069 601.476C133.138 601.113 133.436 600.333 133.863 600.28C134.233 600.331 134.465 601.109 134.397 601.472Z" fill="#53360A"/>
<path d="M143.531 606.365C143.36 606.675 143.396 607.089 143.706 607.244C144.017 607.399 144.441 607.346 144.613 607.036C144.784 606.725 145.057 605.871 144.746 605.717C144.412 605.484 143.702 606.054 143.531 606.365Z" fill="#53360A"/>
<path d="M147.593 606.051C147.422 606.362 147.458 606.775 147.768 606.93C148.079 607.084 148.503 607.032 148.674 606.722C148.845 606.411 149.118 605.558 148.808 605.403C148.497 605.249 147.787 605.818 147.593 606.051Z" fill="#53360A"/>
<path d="M146.777 589.207C146.925 588.818 146.729 588.456 146.36 588.405C145.969 588.277 145.589 588.485 145.521 588.848C145.372 589.237 145.362 590.091 145.731 590.142C146.099 590.192 146.605 589.518 146.777 589.207Z" fill="#53360A"/>
<path d="M142.636 589.282C142.807 588.972 142.771 588.558 142.461 588.404C142.15 588.249 141.726 588.302 141.554 588.612C141.383 588.923 141.111 589.776 141.421 589.93C141.731 590.085 142.441 589.515 142.636 589.282Z" fill="#53360A"/>
<path d="M138.628 589.493C138.799 589.182 138.764 588.769 138.453 588.614C138.143 588.46 137.718 588.512 137.547 588.823C137.376 589.133 137.103 589.987 137.414 590.141C137.644 590.322 138.354 589.752 138.628 589.493Z" fill="#53360A"/>
<path d="M148.712 591.317C148.781 590.953 149.057 590.693 149.404 590.666C149.773 590.717 150.028 590.976 150.04 591.313C149.971 591.677 149.673 592.456 149.246 592.509C148.9 592.536 148.667 591.758 148.712 591.317Z" fill="#53360A"/>
<path d="M151.746 594.096C151.815 593.733 152.091 593.473 152.437 593.446C152.807 593.497 153.061 593.755 153.074 594.093C153.005 594.456 152.707 595.235 152.28 595.288C151.91 595.238 151.678 594.46 151.746 594.096Z" fill="#53360A"/>
<path d="M148.634 619.163C154.093 613.34 153.992 604.388 148.409 599.168C142.825 593.949 133.874 594.437 128.414 600.26C122.955 606.083 123.056 615.035 128.64 620.255C134.223 625.474 143.175 624.985 148.634 619.163Z" fill="#BD537B"/>
<path d="M141.813 620.738C135.538 622.774 128.907 619.484 127.101 613.439C125.294 607.394 128.961 600.763 135.236 598.726C141.512 596.69 148.143 599.98 149.949 606.025C151.755 612.07 148.088 618.701 141.813 620.738ZM135.468 599.501C129.595 601.407 126.215 607.52 127.905 613.178C129.596 618.836 135.709 621.868 141.582 619.963C147.455 618.057 150.835 611.944 149.144 606.286C147.454 600.628 141.261 597.622 135.468 599.501Z" fill="#DB749B"/>
<path d="M141.026 618.103C136.199 619.669 131.202 617.124 129.836 612.551C128.47 607.979 131.277 602.902 136.024 601.362C140.77 599.821 145.847 602.34 147.214 606.913C148.58 611.485 145.772 616.562 141.026 618.103ZM136.232 602.059C131.888 603.469 129.367 608.028 130.617 612.213C131.868 616.398 136.427 618.66 140.771 617.25C145.115 615.84 147.636 611.281 146.386 607.096C145.135 602.911 140.577 600.649 136.232 602.059Z" fill="#DB749B"/>
<path d="M140.237 615.466C136.938 616.536 133.439 614.866 132.466 611.611C131.494 608.356 133.384 604.937 136.763 603.84C140.062 602.77 143.561 604.44 144.534 607.695C145.507 610.95 143.535 614.396 140.237 615.466ZM137.018 604.693C134.122 605.633 132.46 608.637 133.294 611.427C134.128 614.218 137.132 615.708 140.029 614.768C142.925 613.829 144.586 610.824 143.753 608.034C142.838 605.27 139.834 603.779 137.018 604.693Z" fill="#DB749B"/>
<path d="M139.449 612.831C137.679 613.405 135.734 612.506 135.201 610.723C134.669 608.941 135.7 607.076 137.55 606.475C139.32 605.901 141.266 606.8 141.798 608.583C142.331 610.365 141.219 612.257 139.449 612.831ZM137.805 607.328C136.438 607.772 135.635 609.222 136.029 610.54C136.423 611.857 137.873 612.577 139.241 612.133C140.609 611.69 141.411 610.239 141.017 608.921C140.543 607.63 139.173 606.884 137.805 607.328Z" fill="#DB749B"/>
<path d="M79.2964 630.577C89.1102 627.396 94.77 617.145 91.9378 607.679C89.1056 598.213 78.8539 593.118 69.0401 596.298C59.2262 599.478 53.5665 609.73 56.3987 619.196C59.2309 628.662 69.4825 633.757 79.2964 630.577Z" fill="#BD537B"/>
<path d="M78.4294 627.698C70.3037 630.335 61.7273 626.146 59.3652 618.241C57.0263 610.413 61.7012 601.839 69.9073 599.177C78.1134 596.514 86.6094 600.729 88.9715 608.634C91.3104 616.462 86.6355 625.036 78.4294 627.698ZM70.2084 600.184C62.6459 602.638 58.2343 610.616 60.4111 617.901C62.5879 625.187 70.5658 629.145 78.1283 626.691C85.6908 624.237 90.1024 616.259 87.9256 608.973C85.7488 601.688 77.7709 597.73 70.2084 600.184Z" fill="#DB749B"/>
<path d="M77.4102 624.288C71.2155 626.298 64.6881 623.06 62.9049 617.092C61.1218 611.124 64.7313 604.597 70.926 602.587C77.1208 600.577 83.6482 603.815 85.4314 609.783C87.2145 615.751 83.605 622.278 77.4102 624.288ZM71.2271 603.594C65.5955 605.422 62.3297 611.327 63.9508 616.753C65.5718 622.178 71.4776 625.108 77.1092 623.28C82.7408 621.453 86.0066 615.547 84.3855 610.122C82.7645 604.697 76.8587 601.767 71.2271 603.594Z" fill="#DB749B"/>
<path d="M76.3915 620.878C72.1275 622.262 67.6723 620.051 66.445 615.944C65.2176 611.836 67.6813 607.381 71.9452 605.997C76.2091 604.614 80.6643 606.824 81.8917 610.931C83.1995 615.013 80.6554 619.494 76.3915 620.878ZM72.2231 606.927C68.5223 608.128 66.4024 611.962 67.4677 615.527C68.5329 619.092 72.3665 620.994 76.0673 619.793C79.768 618.592 81.8879 614.759 80.8227 611.193C79.861 607.68 75.9239 605.726 72.2231 606.927Z" fill="#DB749B"/>
<path d="M75.3957 617.545C73.0626 618.302 70.576 617.069 69.9044 614.821C69.2329 612.573 70.6079 610.087 72.941 609.33C75.2741 608.573 77.7608 609.806 78.4323 612.054C79.1039 614.301 77.7288 616.788 75.3957 617.545ZM73.2421 610.337C71.4721 610.912 70.4408 612.777 70.9503 614.482C71.4598 616.187 73.3247 617.112 75.0947 616.538C76.8646 615.963 77.8959 614.098 77.3864 612.393C76.877 610.688 75.012 609.763 73.2421 610.337Z" fill="#DB749B"/>
<path d="M115.584 610.498C115.353 607.663 115.18 604.724 116.141 602.017C117.101 599.311 119.543 596.811 122.548 596.782C124.386 596.702 126.101 597.688 127.274 598.936C128.47 600.261 129.147 601.925 129.581 603.667C130.801 608.322 130.116 613.421 127.809 617.846C125.479 622.192 121.504 625.786 116.91 627.612C116.449 621.942 116.068 616.246 115.584 610.498Z" fill="#C6CF5D"/>
<path d="M93.7395 602.775C99.6368 594.241 102.913 584.009 102.805 573.94C102.75 570.816 102.409 567.616 100.806 564.908C99.284 562.175 96.3065 560.168 93.1056 560.356C90.6732 560.465 88.3707 561.89 86.8385 563.83C85.3063 565.77 84.4301 568.431 83.9891 570.781C82.8913 567.995 80.0974 566.014 76.9875 565.917C73.9578 565.795 70.7726 567.506 69.2081 570.221C67.244 573.659 67.967 577.84 68.7347 581.582C66.8451 578.798 62.1285 578.628 59.1965 580.597C56.2644 582.566 54.771 586.106 54.5741 589.567C54.4375 594.111 56.3659 598.496 59.5304 601.716C62.6949 604.936 66.9349 607.044 71.3784 608.066C78.5894 609.806 86.4929 608.858 93.3572 605.616C93.4805 604.557 93.6965 603.807 93.7395 602.775Z" fill="#ABB344"/>
<path d="M90.8253 572.427C92.9249 581.804 93.1823 591.523 91.4812 601.194C89.2886 591.506 84.679 582.601 77.9656 575.229C77.5844 574.841 77.0561 575.439 77.3568 575.853C84.1973 583.353 88.796 592.518 90.7935 602.44C85.2296 594.185 76.355 588.451 66.2246 586.789C65.6714 586.713 65.4779 587.543 66.031 587.619C76.3458 589.306 85.3708 595.247 90.7627 603.814C90.8898 603.943 90.9936 603.995 91.178 604.02C91.2013 604.098 91.2013 604.098 91.2245 604.175C91.2835 604.668 92.0891 604.407 92.0302 603.914C91.9837 603.759 91.9139 603.526 91.9479 603.344C94.0502 592.947 93.9863 582.398 91.6542 572.243C91.572 571.673 90.7663 571.934 90.8253 572.427Z" fill="#696E2B"/>
<path d="M100.702 598.679C98.1398 597.471 95.9768 595.539 94.7076 593.063C93.4383 590.587 93.143 587.54 94.203 584.904C95.263 582.267 97.6784 580.041 100.58 579.441C103.402 578.866 106.573 580.047 107.922 582.497C108.34 580.069 109.343 577.536 111.209 575.827C113.098 574.196 115.954 573.441 118.126 574.52C119.78 575.343 120.818 577.045 121.03 578.93C121.218 580.737 120.822 582.649 119.932 584.381C122.832 583.186 126.29 584.444 127.766 587.023C129.242 589.602 128.861 593.037 127.297 595.752C125.732 598.467 123.144 600.409 120.313 601.836C117.459 603.185 114.443 603.993 111.427 604.8C107.978 602.69 104.426 600.529 100.702 598.679Z" fill="#B39944"/>
<path d="M125.183 590.628C119.171 591.727 113.679 594.27 108.903 598.027C110.724 592.34 112.625 586.627 114.446 580.94C114.651 580.449 113.813 580.296 113.607 580.787C111.786 586.474 109.862 592.109 108.041 597.796C107.557 592.941 105.685 588.451 102.782 584.635C102.482 584.222 101.749 584.715 102.048 585.127C105.228 589.279 107.032 594.131 107.368 599.373C107.231 599.503 107.15 599.529 107.013 599.658C106.738 599.917 106.934 600.278 107.302 600.329C107.188 600.536 107.177 600.794 107.063 601.001C106.857 601.493 107.696 601.646 107.901 601.154C108.083 600.586 108.265 600.017 108.447 599.448C113.292 595.33 118.978 592.554 125.231 591.377C125.759 591.376 125.688 590.549 125.183 590.628Z" fill="#856E25"/>
<path d="M122.046 605.159C122.384 611.317 121.546 617.423 119.673 623.348C119.466 623.844 120.315 624 120.523 623.504C122.454 617.475 123.267 611.29 122.906 605.054C122.87 604.636 122.067 604.637 122.046 605.159Z" fill="#696E2B"/>
<path d="M143.331 607.064C142.264 607.325 141.165 608.361 140.777 609.421C141.047 607.38 140.525 605.34 139.51 603.715C138.841 602.657 137.668 601.678 136.417 601.914C135.086 602.175 134.343 603.52 134.025 604.812C133.174 608.147 133.39 611.815 135.338 614.497C134.635 613.62 133.956 612.821 133.058 612.177C132.161 611.533 131.126 611.019 129.99 611.048C128.853 611.076 127.718 611.699 127.228 612.707C126.828 613.431 126.842 614.361 127.154 615.11C127.466 615.858 127.938 616.555 128.548 617.122C130.782 619.286 134.068 620.261 137.224 619.918C139.083 619.655 141.207 619.392 142.558 618.019C143.908 616.647 144.742 615.018 145.656 613.362C146.456 611.914 147.209 610.311 146.665 608.788C146.191 607.497 144.719 606.7 143.331 607.064Z" fill="#ABB344"/>
<path d="M143.567 610.111C141.632 612.78 139.697 615.448 137.681 618.142C137.488 614.548 137.271 610.876 137.157 607.255C137.098 606.764 136.305 606.766 136.284 607.283C136.431 610.722 136.636 614.058 136.783 617.498C135.342 615.924 133.511 614.816 131.395 614.226C130.9 614.046 130.707 614.874 131.202 615.054C133.502 615.669 135.379 616.932 136.809 618.765C136.833 618.843 136.913 618.817 136.936 618.894C136.972 619.308 137.008 619.722 136.963 620.161C137.022 620.653 137.815 620.651 137.836 620.134C137.87 619.952 137.801 619.72 137.835 619.539C139.964 616.637 142.094 613.736 144.224 610.834C144.487 610.238 143.956 609.645 143.567 610.111Z" fill="#696E2B"/>
<path d="M108.589 633.49C98.5936 638.434 86.6944 634.643 82.1553 625.064C79.6262 619.848 79.8445 614.081 82.0425 609.032C83.9429 604.759 87.3512 601.103 91.9699 598.839C101.965 593.895 113.865 597.686 118.404 607.265C119.963 610.415 120.453 613.827 120.126 617.164C119.472 623.837 115.287 630.211 108.589 633.49Z" fill="#BC2A57"/>
<path d="M110.193 627.303C100.209 632.241 88.3206 628.45 83.784 618.877C82.226 615.729 81.7358 612.32 82.0616 608.986C83.9593 604.717 87.3634 601.065 91.977 598.804C101.962 593.866 113.85 597.656 118.386 607.229C119.944 610.377 120.434 613.786 120.109 617.12C118.211 621.389 114.807 625.042 110.193 627.303Z" fill="#E83C3C"/>
<path d="M102.287 623.873C101.623 622.548 100.437 621.562 98.9868 621.175C97.5361 620.788 96.1885 619.855 95.501 618.451C94.8135 617.047 94.8561 615.407 95.5023 614C96.1486 612.593 96.1334 611.057 95.4692 609.731C93.5579 605.728 87.4925 605.978 85.6349 610.174C83.7539 614.292 83.6605 619.029 85.6654 623.345C87.728 627.556 91.5273 630.436 95.856 631.517C100.347 632.546 104.198 627.877 102.287 623.873Z" fill="#FF484B"/>
<path d="M98.3273 608.352C98.9914 609.678 100.177 610.664 101.627 611.051C103.078 611.437 104.426 612.371 105.113 613.774C105.801 615.178 105.758 616.818 105.112 618.225C104.466 619.633 104.481 621.168 105.145 622.494C107.056 626.497 113.121 626.247 114.979 622.051C116.86 617.934 116.953 613.196 114.948 608.88C112.886 604.669 109.087 601.79 104.758 600.708C100.291 599.757 96.416 604.349 98.3273 608.352Z" fill="#FF484B"/>
<path d="M90.3686 621.795C89.9916 622.002 89.4988 621.822 89.303 621.462C89.1073 621.101 89.3116 620.612 89.6886 620.405C90.0656 620.199 91.1754 620.094 91.3712 620.454C91.567 620.814 90.7687 621.665 90.3686 621.795Z" fill="#53360A"/>
<path d="M89.8661 616.837C89.5118 617.122 88.9848 617.123 88.7087 616.788C88.4326 616.453 88.4538 615.937 88.808 615.653C89.1623 615.369 90.1807 614.954 90.4568 615.289C90.7329 615.624 90.2203 616.553 89.8661 616.837Z" fill="#53360A"/>
<path d="M89.6213 611.888C89.2671 612.172 88.74 612.173 88.4639 611.838C88.1878 611.503 88.209 610.987 88.5633 610.703C88.9175 610.419 89.9359 610.004 90.212 610.339C90.4649 610.597 89.9524 611.526 89.6213 611.888Z" fill="#53360A"/>
<path d="M93.2882 623.873C92.8648 623.925 92.557 624.363 92.5925 624.775C92.6281 625.187 93.0639 625.469 93.4872 625.417C93.9106 625.364 94.8819 624.796 94.8233 624.307C94.8109 623.972 93.7916 623.794 93.2882 623.873Z" fill="#53360A"/>
<path d="M97.0965 627.19C96.6731 627.243 96.3653 627.681 96.4008 628.093C96.4364 628.505 96.8722 628.787 97.2956 628.735C97.7189 628.682 98.6903 628.114 98.6316 627.625C98.5161 627.239 97.4968 627.061 97.0965 627.19Z" fill="#53360A"/>
<path d="M110.925 611.82C111.302 611.614 111.506 611.124 111.31 610.764C111.114 610.403 110.622 610.224 110.245 610.431C109.868 610.637 109.046 611.411 109.242 611.771C109.461 612.209 110.467 612.053 110.925 611.82Z" fill="#53360A"/>
<path d="M107.246 608.377C107.67 608.325 107.977 607.887 107.942 607.475C107.906 607.063 107.47 606.781 107.047 606.833C106.624 606.885 105.652 607.454 105.711 607.943C105.827 608.329 106.823 608.43 107.246 608.377Z" fill="#53360A"/>
<path d="M103.541 605.114C103.965 605.062 104.272 604.623 104.237 604.212C104.201 603.8 103.766 603.517 103.342 603.57C102.919 603.622 101.947 604.191 102.006 604.68C102.019 605.014 103.118 605.166 103.541 605.114Z" fill="#53360A"/>
<path d="M110.748 615.388C111.102 615.104 111.629 615.103 111.905 615.438C112.181 615.772 112.16 616.288 111.806 616.572C111.451 616.857 110.433 617.271 110.157 616.936C109.801 616.627 110.417 615.749 110.748 615.388Z" fill="#53360A"/>
<path d="M111.017 620.417C111.371 620.132 111.898 620.132 112.174 620.466C112.451 620.801 112.429 621.317 112.075 621.601C111.721 621.886 110.702 622.3 110.426 621.965C110.15 621.63 110.663 620.701 111.017 620.417Z" fill="#53360A"/>
</g>
<g opacity="0.9">
<path d="M262.761 368.398L280.526 414.019C279.45 414.876 278.209 415.588 276.933 416.208C258.358 425.597 198.597 447.017 192.172 441.656C191.842 441.366 191.606 441.037 191.333 440.617C191.333 440.617 191.298 440.525 191.226 440.342C189.848 437.082 176.247 404.938 174.464 400.358C172.573 395.503 173.212 394.08 173.212 394.08L179.67 394.234C179.67 394.234 250.549 370.455 251.652 370.223C252.754 369.991 260.874 366.615 260.874 366.615L262.761 368.398Z" fill="#4E3E49"/>
<path d="M221.292 380.312C221.587 399.286 221.845 418.168 222.683 437.136C228.337 435.393 234.368 433.498 240.328 431.418C240.932 412.509 238.912 393.59 238.524 374.654C233.472 376.261 227.477 378.248 221.292 380.312Z" fill="#5C5567"/>
<path d="M293.623 372.281C296.539 379.46 293.863 404.403 279.844 414.95L261.833 368.871L262.169 364.668L269.669 352.348L273.719 340.768L272.752 325.636L274.544 324.595C274.544 324.595 276.042 324.209 278.859 330.571C281.699 336.711 293.623 372.281 293.623 372.281Z" fill="#3A2C39"/>
<path d="M194.427 352.007C204.055 346.768 269.783 320.78 274.399 324.299C279.015 327.819 276.929 360.693 258.452 370.119C239.939 379.455 180.378 400.752 173.974 395.421C167.771 390.326 184.763 357.154 194.427 352.007Z" fill="#5C5567"/>
<path d="M234.457 348.152C235.684 349.35 236.946 350.64 237.078 352.387C237.306 354.942 235.095 357.107 232.989 358.7C230.048 360.949 226.835 362.778 223.516 364.333C221.48 365.262 219.054 366.031 217.345 364.711C216.095 363.734 215.774 362.064 215.619 360.538C215.19 357.746 214.856 354.916 215.288 352.094C215.72 349.272 217.046 346.511 219.47 344.896C221.8 343.318 224.885 343.129 227.56 343.847C230.176 344.695 232.44 346.321 234.457 348.152Z" fill="#D96230"/>
<path d="M219.868 356.751C217.619 359.668 214.581 361.955 211.167 363.55C208.566 364.71 205.729 365.543 202.833 365.661C200.067 365.832 197.054 365.365 195.289 363.336C193.76 361.633 193.443 359.123 193.774 356.878C194.316 353.491 196.271 350.377 199.156 348.257C201.511 346.459 204.277 345.443 207.173 345.325C213.552 345.484 219.317 350.535 219.868 356.751Z" fill="#FB7840"/>
<path d="M216.454 358.772C214.992 360.633 213.235 362.297 211.242 363.633C208.637 364.795 205.796 365.63 202.896 365.748C200.126 365.92 197.109 365.451 195.342 363.419C193.81 361.714 193.493 359.2 193.824 356.951C194.367 353.559 196.325 350.439 199.214 348.317C200.628 347.743 202.243 347.406 203.776 347.419C210.094 347.395 215.903 352.546 216.454 358.772Z" fill="#FBA540"/>
<path d="M249.973 345.882C246.521 349.076 242.435 351.472 238.03 353.046C236.864 353.413 235.698 353.78 234.497 354.056C232.413 354.584 230.093 354.785 228.363 353.691C226.962 352.886 226.138 351.319 225.821 349.653C225.539 348.077 225.858 346.364 226.212 344.742C227.073 341.331 228.981 337.812 231.844 335.912C232.468 335.554 233.186 335.157 233.881 334.981C237.343 333.788 241.217 335.069 243.947 337.342C246.678 339.614 248.455 342.801 249.973 345.882Z" fill="#FB7840"/>
<path d="M247.833 346.756C245.179 349.208 242.218 351.148 238.986 352.67C237.819 353.038 236.651 353.405 235.448 353.682C233.361 354.211 231.037 354.412 229.304 353.317C227.901 352.51 227.076 350.941 226.759 349.271C226.476 347.694 226.795 345.978 227.15 344.353C228.012 340.936 229.924 337.411 232.79 335.508C235.927 334.871 239.323 336.033 241.763 338.111C244.534 340.478 246.313 343.671 247.833 346.756Z" fill="#FBA540"/>
<path d="M263.533 341.836C263.438 343.568 262.045 344.767 260.487 345.822C260.145 346.067 259.803 346.311 259.425 346.464C256.864 348.032 254.174 349.546 251.189 350.015C248.204 350.485 244.877 349.506 243.38 347.045C242.26 345.277 242.309 343.141 242.262 341.044C242.275 338.816 242.406 336.33 243.481 334.307C243.599 334.047 243.752 333.879 243.87 333.62C245.936 330.772 250.195 330.209 253.368 331.356C256.636 332.465 259.065 335.077 261.364 337.637C262.59 338.832 263.663 340.196 263.533 341.836Z" fill="#D96230"/>
<path d="M261.981 343.965C261.969 344.5 261.733 345.019 261.556 345.409C261.213 345.654 260.87 345.899 260.492 346.052C257.929 347.621 255.141 349.175 252.247 349.607C249.258 350.077 245.928 349.097 244.429 346.633C243.308 344.863 243.356 342.725 243.31 340.625C243.323 338.396 243.454 335.906 244.53 333.881C246.692 332.687 249.597 332.568 251.995 333.397C255.301 334.599 257.697 337.123 259.905 339.723C261.038 340.958 262.112 342.323 261.981 343.965Z" fill="#FB7840"/>
<path d="M271.194 331.208C271.217 331.834 271.276 332.552 271.276 333.4C271.264 333.935 271.252 334.47 271.24 335.004C271.144 336.739 270.966 338.824 270.599 340.986C270.599 340.986 270.599 340.986 270.504 341.025C269.818 341.515 269.227 341.966 268.471 342.273C267.904 342.503 267.242 342.771 266.639 342.91C265.469 343.278 264.228 343.463 263.011 343.427C260.707 343.407 258.439 342.631 257.092 340.846C256.62 340.19 256.242 339.495 256.054 338.724C255.983 338.541 255.912 338.357 255.971 338.227C255.83 337.861 255.818 337.548 255.771 337.143C255.594 335.837 255.607 334.454 255.844 333.087C255.903 332.957 255.927 332.735 255.95 332.514C256.282 331.108 256.932 329.678 257.914 328.539C259.841 326.168 263.315 324.971 266.104 325.96C267.628 326.508 268.951 327.667 269.895 328.979C270.096 329.216 270.297 329.452 270.533 329.781C270.686 330.46 270.923 330.788 271.194 331.208Z" fill="#FB7840"/>
<path d="M271.291 333.439C271.279 333.973 271.267 334.507 271.255 335.04C271.16 336.771 270.982 338.852 270.615 341.01C270.615 341.01 270.615 341.01 270.521 341.049C269.837 341.538 269.247 341.988 268.492 342.294C268.209 342.409 267.926 342.524 267.607 342.547C266.44 342.915 265.202 343.1 263.987 343.063C261.688 343.044 259.424 342.27 258.08 340.488C257.609 339.833 257.232 339.139 257.044 338.37C257.091 337.927 257.174 337.577 257.257 337.226C257.316 337.096 257.339 336.875 257.363 336.654C257.694 335.251 258.343 333.824 259.322 332.687C261.246 330.321 264.713 329.126 267.495 330.113C269.016 330.66 270.337 331.817 271.279 333.127C271.256 333.348 271.256 333.348 271.291 333.439Z" fill="#FBA540"/>
<path d="M208.891 368.956C207.972 369.962 206.958 371.007 205.874 371.87C201.878 375.074 196.776 376.826 191.827 376.719C189.53 376.699 187.056 376.223 185.619 374.481C184.218 372.83 184.195 370.514 184.338 368.343C184.539 366.042 185.117 363.589 186.32 361.622C186.591 361.195 186.956 360.73 187.322 360.265C190.575 356.832 196.184 356.672 200.188 358.852C204.252 360.903 206.89 364.906 208.891 368.956Z" fill="#FB7840"/>
<path d="M206.816 371.399C202.817 374.607 197.709 376.361 192.756 376.253C190.456 376.234 187.98 375.757 186.542 374.013C185.139 372.36 185.116 370.042 185.259 367.869C185.46 365.566 186.039 363.11 187.243 361.141C190.463 359.306 194.91 359.513 198.199 361.247C202.208 363.43 204.813 367.345 206.816 371.399Z" fill="#FBA540"/>
<path d="M226.274 367.895C224.694 370.86 222.526 373.43 219.897 375.658C217.363 377.847 214.335 379.603 211.153 380.682C208.573 381.622 205.686 382.053 203.283 380.914C201.787 380.147 200.657 378.914 199.774 377.476C197.29 373.306 197.493 367.623 200.075 363.301C200.346 362.874 200.617 362.447 200.982 361.982C204.389 357.537 210.622 355.327 215.9 356.568C221.307 357.863 225.629 362.556 226.274 367.895Z" fill="#FB7840"/>
<path d="M223.158 371.822C222.533 373.028 221.777 374.18 220.892 375.279C218.356 377.471 215.324 379.229 212.139 380.309C209.556 381.251 206.667 381.682 204.261 380.541C202.764 379.773 201.632 378.54 200.748 377.1C198.262 372.925 198.465 367.236 201.049 362.909C204.411 360.594 208.846 359.643 212.808 360.575C218.28 361.741 222.512 366.478 223.158 371.822Z" fill="#FBA540"/>
<path d="M256.356 354.872C256.026 356.273 255.084 357.5 253.941 358.491C253.388 359.032 252.705 359.52 252.116 359.97C248.948 362.204 245.51 364.02 241.859 365.289C239.469 366.152 236.784 366.818 234.36 365.9C231.935 364.983 230.44 362.526 229.9 360C229.547 358.243 229.572 356.332 229.949 354.49C230.963 350.067 234.156 345.922 238.395 344.204C244.518 341.721 252.005 344.177 255.205 349.637C256.252 351.219 256.769 353.121 256.356 354.872Z" fill="#FB7840"/>
<path d="M254.961 358.222C254.408 358.762 253.725 359.25 253.137 359.7C249.971 361.933 246.534 363.747 242.886 365.015C240.497 365.878 237.814 366.543 235.39 365.626C232.967 364.709 231.473 362.255 230.933 359.73C230.581 357.974 230.605 356.065 230.982 354.224C232.466 352.145 234.538 350.461 236.985 349.469C243.105 346.989 250.588 349.443 253.786 354.899C254.362 355.827 254.821 357.012 254.961 358.222Z" fill="#FBA540"/>
<path d="M270.812 341.176C270.385 343.469 269.864 345.8 269 348.376C268.396 350.211 267.52 352.474 266.302 354.982C265.947 355.761 265.462 356.488 264.977 357.215C264.527 358.033 263.948 358.798 263.368 359.563C262.139 360.061 260.874 360.468 259.562 360.47C257.481 360.465 255.78 359.459 254.634 357.91C253.925 356.925 253.406 355.864 253.04 354.634C252.639 353.313 252.426 351.915 252.214 350.517C252.143 350.334 252.203 350.204 252.132 350.02C251.991 348.806 251.979 347.644 252.098 346.536C252.169 345.871 252.276 345.298 252.347 344.633C252.371 344.412 252.43 344.282 252.454 344.06C253.046 341.912 254.312 339.809 255.92 338.309C256.972 337.353 258.131 336.671 259.526 336.317C259.715 336.241 259.94 336.256 260.034 336.217C263.084 335.617 266.228 336.674 268.543 338.703C269.501 339.481 270.138 340.283 270.812 341.176Z" fill="#FB7840"/>
<path d="M269.784 345.222C269.452 347.477 268.836 349.847 267.972 352.424C267.771 353.035 267.51 353.777 267.191 354.649C266.836 355.429 266.351 356.155 265.866 356.882C265.416 357.7 264.836 358.465 264.257 359.23C263.027 359.729 261.762 360.136 260.45 360.138C258.369 360.133 256.667 359.127 255.521 357.577C254.812 356.592 254.292 355.531 253.927 354.301C253.525 352.98 253.219 351.62 253.101 350.183C253.03 350 253.089 349.87 253.018 349.687C252.877 348.472 252.866 347.31 252.985 346.202C253.056 345.537 253.163 344.964 253.234 344.299C253.719 343.572 254.334 342.899 254.89 342.355C255.942 341.399 257.101 340.717 258.497 340.363C258.686 340.287 258.78 340.248 259.005 340.263C262.055 339.663 265.2 340.72 267.48 342.658C268.568 343.489 269.206 344.291 269.784 345.222Z" fill="#FBA540"/>
<path d="M199.96 380.28C199.017 381.508 197.85 382.721 196.683 383.934C194.809 385.857 192.581 387.711 190.4 389.123C187.713 389.79 185.309 390.342 183.247 390.649C180.808 391.11 178.899 391.25 177.685 391.214C176.591 386.69 174.767 383.097 176.1 378.646C176.159 378.517 176.218 378.387 176.183 378.296C177.41 374.416 180.628 370.892 184.447 369.767C185.048 369.629 185.649 369.491 186.285 369.444C186.473 369.368 186.603 369.421 186.827 369.436C189.82 369.279 192.647 370.67 194.697 372.586C194.826 372.639 194.862 372.731 194.991 372.784C196.016 373.742 196.852 374.777 197.629 375.942C198.477 377.289 199.266 378.766 199.96 380.28Z" fill="#D96230"/>
<path d="M196.833 383.897C194.959 385.82 192.731 387.674 190.551 389.086C187.864 389.753 185.46 390.305 183.397 390.613C180.958 391.073 179.049 391.213 177.836 391.177C176.742 386.653 174.917 383.06 176.25 378.61C177.807 376.71 179.763 375.283 182.038 374.678C182.639 374.54 183.24 374.402 183.876 374.356C184.065 374.279 184.194 374.332 184.418 374.347C187.411 374.19 190.238 375.581 192.382 377.459C192.417 377.55 192.547 377.604 192.582 377.695C193.607 378.653 194.443 379.688 195.22 380.853C195.703 381.819 196.221 382.877 196.833 383.897Z" fill="#FB7840"/>
<path d="M240.758 372.549C240.099 372.816 239.345 373.122 238.686 373.389C237.273 373.961 235.767 374.572 234.319 375.053C227.314 377.787 220.522 380.223 214.165 382.378C213.788 382.531 213.376 382.592 213.094 382.706C212.811 381.976 212.588 381.117 212.4 380.349C212.177 379.489 211.953 378.63 211.824 377.732C211.108 373.906 211.086 369.903 212.441 366.082C212.9 364.734 213.584 363.402 214.432 362.214C214.432 362.214 214.526 362.176 214.491 362.084C214.914 361.49 215.433 360.858 215.986 360.317C216.905 359.311 217.894 358.488 219.047 357.81C219.295 357.604 219.671 357.451 219.954 357.337C221.767 356.391 223.756 355.901 225.734 355.944C227.299 356.048 228.747 356.412 230.171 356.996C231.242 357.511 232.218 358.066 233.171 358.84C234.454 359.904 235.584 361.135 236.525 362.442C236.995 363.096 237.372 363.788 237.748 364.48C238.054 364.989 238.23 365.446 238.536 365.955C239.288 368.183 240.041 370.412 240.758 372.549Z" fill="#FB7840"/>
<path d="M235.275 374.798C228.259 377.536 221.456 379.977 215.089 382.135C214.712 382.288 214.299 382.35 214.016 382.464C213.734 381.733 213.51 380.872 213.322 380.102C213.098 379.241 212.874 378.38 212.745 377.481C212.027 373.648 212.005 369.639 213.362 365.811C213.823 364.461 214.507 363.126 215.356 361.936C215.356 361.936 215.45 361.897 215.415 361.806C217.137 360.897 219.035 360.444 221.015 360.487C222.583 360.592 224.033 360.956 225.46 361.541C226.532 362.058 227.51 362.613 228.465 363.389C229.75 364.454 230.881 365.687 231.824 366.997C232.295 367.652 232.672 368.345 233.049 369.038C233.355 369.549 233.532 370.006 233.838 370.516C234.309 372.017 234.839 373.388 235.275 374.798Z" fill="#FBA540"/>
<path d="M265.223 357.1C264.777 357.912 264.201 358.671 263.626 359.43C262.628 360.78 261.56 361.949 260.269 363.103C259.036 364.128 257.674 365.1 256.242 365.89C252.627 367.775 247.215 370.07 240.736 372.693L240.454 372.807C239.797 373.074 239.045 373.378 238.388 373.644C237.508 371.37 237.097 368.906 237.227 366.434C237.239 365.903 237.251 365.372 237.391 364.894C237.544 363.886 237.791 362.839 238.131 361.754C238.531 360.541 239.118 359.251 239.775 358.143C242.534 353.765 247.441 350.727 252.605 350.319C253.239 350.273 253.873 350.227 254.542 350.272C254.988 350.302 255.434 350.331 255.822 350.49C259.73 351.328 263.286 353.781 265.223 357.1Z" fill="#FB7840"/>
<path d="M261.299 362.838C260.067 363.862 258.707 364.833 257.275 365.623C253.662 367.505 248.254 369.798 241.779 372.419L241.497 372.533C240.841 372.798 240.09 373.102 239.433 373.368C238.553 371.096 238.143 368.635 238.273 366.165C238.284 365.635 238.296 365.105 238.437 364.627C238.59 363.62 238.836 362.574 239.176 361.491C241.875 358.927 245.558 357.227 249.265 356.988C249.898 356.942 250.567 356.987 251.2 356.94C251.646 356.97 252.092 357 252.479 357.159C255.998 357.837 259.188 359.909 261.299 362.838Z" fill="#FBA540"/>
<path d="M214.495 382.033C214.12 382.185 213.709 382.246 213.428 382.36C211.891 382.876 210.449 383.355 209.006 383.833C201.945 386.059 195.694 387.852 190.533 389.099C187.859 389.76 185.467 390.308 183.414 390.613C182.933 386.288 184.317 381.734 187.073 378.202C187.648 377.444 188.258 376.777 188.903 376.201C188.903 376.201 188.903 376.201 188.997 376.163C190.686 374.639 192.703 373.402 194.896 372.62C196.151 372.217 197.348 371.944 198.673 371.723C200.761 371.509 202.954 371.567 204.948 372.232C205.077 372.285 205.3 372.3 205.464 372.444C208.197 373.335 210.519 375.128 212.255 377.369C212.853 378.073 213.263 378.853 213.674 379.632C213.897 380.488 214.214 381.306 214.495 382.033Z" fill="#FB7840"/>
<path d="M208.957 383.857C201.894 386.084 195.641 387.878 190.479 389.125C187.804 389.787 185.411 390.335 183.358 390.64C182.877 386.313 184.261 381.758 187.018 378.224C187.98 377.624 189.106 377.168 190.139 376.751C191.394 376.348 192.591 376.074 193.917 375.853C196.005 375.639 198.199 375.697 200.193 376.363C200.322 376.415 200.545 376.43 200.709 376.574C203.443 377.466 205.766 379.26 207.502 381.502C208.007 382.244 208.511 382.986 208.957 383.857Z" fill="#FBA540"/>
</g>
<g opacity="0.9">
<path d="M1330.97 199.955C1331.75 201.368 1331.47 203.225 1330.43 204.524C1329.38 205.822 1327.66 206.463 1326.01 206.325C1324.69 206.215 1323.52 205.603 1322.59 204.692C1322.69 205.999 1322.41 207.303 1321.65 208.403C1320.71 209.778 1319.12 210.721 1317.47 210.709C1316.63 210.677 1315.75 210.42 1315.08 209.937C1314.44 209.505 1313.9 208.899 1313.63 208.168C1313.19 207.084 1313.32 205.729 1313.77 204.652C1314.25 203.5 1315 202.525 1315.93 201.653L1307.37 183.199L1315.97 179.092L1324.53 197.546C1325.73 197.404 1327 197.414 1328.19 197.774C1329.31 198.159 1330.35 198.896 1330.97 199.955Z" fill="#DEB774"/>
<path d="M1316.53 187.83C1320.43 196.225 1319.68 205.164 1315.17 209.969C1314.52 209.536 1313.98 208.927 1313.71 208.194C1313.26 207.107 1313.4 205.748 1313.85 204.668C1314.33 203.512 1315.09 202.535 1316.02 201.66L1307.39 183.1L1311.92 180.942C1313.71 182.87 1315.28 185.15 1316.53 187.83Z" fill="#F0D493"/>
<path d="M1318.1 125.755C1321.27 133.41 1320.82 141.993 1320.36 150.274C1319.97 156.672 1320.39 163.303 1320 169.702C1322.69 171.002 1324.58 173.979 1324.56 177.066C1324.53 180.154 1322.61 183.102 1319.84 184.362C1317.69 185.325 1315.08 185.281 1312.94 184.21C1312.86 184.185 1312.77 184.109 1312.69 184.083C1312.19 186.539 1310.57 188.787 1308.34 189.85C1305.62 191.211 1302.13 190.783 1299.8 188.883C1297.44 186.932 1296.35 183.636 1297.11 180.629C1292.01 176.85 1287.24 172.296 1282.13 168.518C1275.55 163.599 1268.75 158.477 1264.96 151.119C1261.17 143.76 1260.93 134.645 1264.31 127.064C1266.32 122.535 1269.77 118.92 1273.82 116.063C1275.62 114.771 1277.62 113.631 1279.59 112.692C1286.07 109.601 1293.37 108.024 1300.25 109.907C1308.14 112.049 1314.93 118.1 1318.1 125.755Z" fill="#70311F"/>
<path d="M1306.18 131.395C1309.36 139.063 1308.91 147.661 1308.45 155.957C1308.06 162.367 1308.97 170.069 1308.58 176.48C1311.28 177.782 1313.19 180.814 1313.15 183.857C1313.14 183.983 1313.14 184.108 1313.13 184.234C1313.06 184.208 1312.96 184.132 1312.88 184.106C1312.37 186.567 1310.76 188.819 1308.52 189.884C1305.79 191.247 1302.3 190.818 1299.95 188.915C1297.59 186.961 1296.5 183.658 1297.26 180.646C1292.14 176.861 1287.36 172.298 1282.24 168.513C1275.64 163.585 1268.82 158.455 1265.02 151.083C1261.22 143.711 1260.98 134.58 1264.37 126.985C1266.38 122.448 1269.84 118.827 1273.9 115.965C1278.67 114.617 1283.57 114.251 1288.36 115.544C1296.25 117.64 1303.06 123.701 1306.18 131.395Z" fill="#8E422A"/>
<path d="M1275.87 139.051C1275.59 134.305 1273.51 130.607 1271.22 130.791C1268.92 130.975 1267.29 134.972 1267.57 139.719C1267.84 144.465 1269.92 148.163 1272.21 147.979C1274.51 147.794 1276.14 143.797 1275.87 139.051Z" fill="#BA755F"/>
</g>
<g opacity="0.9">
<path d="M1255.05 580.146L1245.63 588.43L1231.89 600.547L1202.09 608.119C1202.09 608.119 1199.48 574.228 1200.15 555.493C1200.4 548.902 1200.99 544.172 1202.32 543.471C1207.37 540.804 1255.05 580.146 1255.05 580.146Z" fill="#CF2323"/>
<path d="M1245.8 588.396L1232.05 600.518L1202.24 608.094C1202.24 608.094 1199.62 574.189 1200.29 555.446C1210.23 559.918 1236.12 580.591 1245.8 588.396Z" fill="#E83C3C"/>
<path d="M1229.14 592.262C1229.48 592.804 1229.77 593.48 1229.44 594.044C1229.1 594.609 1228.23 594.682 1227.69 594.301C1227.15 593.921 1226.86 593.355 1226.63 592.699C1226.13 591.41 1225.88 590.046 1225.79 588.655C1227.11 589.673 1228.26 590.897 1229.14 592.262Z" fill="#5B2326"/>
<path d="M1227.14 576.414C1227.59 576.841 1228.04 577.489 1227.79 578.117C1227.55 578.744 1226.74 578.948 1226.11 578.726C1225.53 578.48 1225.08 577.942 1224.79 577.377C1224.07 576.206 1223.53 574.942 1223.16 573.583C1224.67 574.285 1226.01 575.235 1227.14 576.414Z" fill="#5B2326"/>
<path d="M1236.26 570.627C1236.82 570.939 1237.4 571.405 1237.38 572.023C1237.32 572.665 1236.58 573.108 1235.94 573.064C1235.29 573.019 1234.73 572.597 1234.24 572.194C1233.21 571.303 1232.32 570.23 1231.6 569.063C1233.25 569.295 1234.84 569.837 1236.26 570.627Z" fill="#5B2326"/>
<path d="M1239.27 584.779C1239.72 585.207 1240.17 585.855 1239.93 586.482C1239.68 587.11 1238.88 587.314 1238.25 587.091C1237.66 586.845 1237.21 586.307 1236.92 585.742C1236.2 584.572 1235.66 583.308 1235.3 581.949C1236.78 582.607 1238.15 583.6 1239.27 584.779Z" fill="#5B2326"/>
<path d="M1246.73 575.798C1247.28 576.11 1247.87 576.576 1247.85 577.194C1247.78 577.836 1247.05 578.28 1246.4 578.235C1245.75 578.191 1245.19 577.768 1244.7 577.366C1243.67 576.474 1242.78 575.401 1242.06 574.234C1243.71 574.466 1245.3 575.008 1246.73 575.798Z" fill="#5B2326"/>
<path d="M1215.29 597.352C1215.38 597.968 1215.65 598.711 1216.3 598.866C1216.95 599.021 1217.58 598.47 1217.75 597.823C1217.89 597.199 1217.71 596.519 1217.41 595.954C1216.87 594.69 1216.15 593.52 1215.25 592.444C1214.99 594.023 1215.02 595.725 1215.29 597.352Z" fill="#5B2326"/>
<path d="M1203.67 598.371C1203.6 599.013 1203.65 599.761 1204.16 600.097C1204.72 600.409 1205.5 600.052 1205.83 599.489C1206.17 598.927 1206.14 598.222 1206.1 597.584C1205.96 596.221 1205.6 594.866 1205.06 593.605C1204.35 595.084 1203.84 596.733 1203.67 598.371Z" fill="#5B2326"/>
<path d="M1214.49 583.049C1214.58 583.665 1214.85 584.408 1215.5 584.563C1216.15 584.718 1216.78 584.167 1216.95 583.519C1217.09 582.896 1216.9 582.216 1216.61 581.651C1216.07 580.386 1215.35 579.216 1214.45 578.14C1214.16 579.787 1214.17 581.445 1214.49 583.049Z" fill="#5B2326"/>
<path d="M1204.54 587.262C1204.47 587.904 1204.52 588.652 1205.03 588.987C1205.59 589.3 1206.37 588.943 1206.71 588.38C1207.04 587.818 1207.01 587.113 1206.97 586.475C1206.83 585.112 1206.47 583.757 1205.93 582.496C1205.18 583.999 1204.71 585.624 1204.54 587.262Z" fill="#5B2326"/>
<path d="M1224.49 563.802C1225.05 564.114 1225.63 564.58 1225.61 565.198C1225.54 565.839 1224.81 566.283 1224.16 566.239C1223.52 566.194 1222.96 565.772 1222.47 565.369C1221.44 564.477 1220.54 563.405 1219.83 562.238C1221.48 562.469 1223.06 563.012 1224.49 563.802Z" fill="#5B2326"/>
<path d="M1206.81 573.077C1206.75 573.719 1206.79 574.467 1207.31 574.803C1207.87 575.115 1208.64 574.758 1208.98 574.195C1209.31 573.633 1209.29 572.928 1209.24 572.29C1209.1 570.927 1208.74 569.572 1208.2 568.311C1207.45 569.814 1206.98 571.439 1206.81 573.077Z" fill="#5B2326"/>
<path d="M1216.71 568.544C1217.05 569.086 1217.34 569.762 1217.01 570.327C1216.67 570.891 1215.8 570.965 1215.26 570.584C1214.72 570.204 1214.43 569.638 1214.2 568.982C1213.71 567.693 1213.45 566.33 1213.36 564.939C1214.69 565.957 1215.81 567.136 1216.71 568.544Z" fill="#5B2326"/>
<path d="M1210.64 555.998C1210.98 556.54 1211.27 557.217 1210.94 557.781C1210.6 558.345 1209.71 558.375 1209.17 557.995C1208.63 557.615 1208.36 556.982 1208.15 556.369C1207.7 555.056 1207.45 553.693 1207.36 552.302C1208.66 553.387 1209.81 554.61 1210.64 555.998Z" fill="#5B2326"/>
<path d="M1258.63 583.45C1258.02 585.515 1256.43 587.394 1254.76 589.144C1248.92 595.227 1242.03 601.036 1234.39 605.062C1226.75 609.087 1218.09 611.467 1209.79 612.833C1209.07 612.943 1208.34 613.052 1207.66 613.139C1206.01 613.298 1204.38 613.283 1202.97 612.826C1200.94 612.148 1199.39 610.345 1199.93 608.259C1200.42 606.306 1202.5 604.717 1204.61 603.933C1204.86 603.86 1205.1 603.787 1205.34 603.715C1207.23 603.155 1209.19 603.051 1211.13 602.796C1211.54 602.739 1212.01 602.66 1212.45 602.646C1218.52 601.849 1224.9 600.454 1230.43 597.539C1236.4 594.393 1241.44 589.446 1245.73 584.566C1247.22 582.909 1248.53 581.126 1250.41 579.805C1250.74 579.577 1251.03 579.372 1251.38 579.187C1253.07 578.242 1255.07 577.788 1256.62 578.394C1258.65 579.071 1259.23 581.384 1258.63 583.45Z" fill="#4B4C18"/>
<path d="M1253.47 584.284C1252.87 586.349 1251.27 588.227 1249.58 589.934C1243.74 596.015 1236.86 601.823 1229.22 605.847C1222.5 609.386 1215.01 611.642 1207.7 613.086C1206.05 613.246 1204.42 613.231 1203.01 612.774C1200.98 612.096 1199.43 610.293 1199.97 608.208C1200.46 606.255 1202.55 604.667 1204.66 603.883C1204.9 603.81 1205.14 603.738 1205.38 603.665C1205.6 603.658 1205.8 603.608 1206.02 603.602C1208.13 603.362 1210.31 603.034 1212.49 602.596C1218.56 601.8 1224.94 600.405 1230.47 597.491C1236.44 594.346 1241.48 589.4 1245.77 584.521C1247.25 582.864 1248.57 581.082 1250.45 579.761C1250.78 579.533 1251.07 579.328 1251.42 579.143L1251.48 579.163C1253.49 579.907 1254.08 582.218 1253.47 584.284Z" fill="#696E2B"/>
</g>
<g opacity="0.9">
<path d="M1262.27 769.972C1261.5 768.463 1262.62 765.513 1265.1 761.369C1281.28 734.736 1356.29 661.942 1363.93 657.865C1363.99 657.834 1364.12 657.772 1364.19 657.741C1371.16 654.134 1379.53 657.368 1382.04 664.543C1383.24 668.193 1384.09 672.795 1383.48 678.239C1382.81 684.416 1380.33 691.684 1374.53 699.738C1373.74 700.812 1372.96 701.886 1372.17 702.96C1369.97 705.8 1367.59 708.798 1364.92 711.856C1362.59 714.599 1360.06 717.435 1357.44 720.238C1354.98 722.884 1352.39 725.592 1349.77 728.236C1347.39 730.692 1344.9 733.114 1342.46 735.441C1339.75 738.052 1337.03 740.663 1334.35 743.178C1331.91 745.506 1329.41 747.705 1326.97 749.873C1324.26 752.324 1321.56 754.616 1318.99 756.846C1316.42 759.076 1313.92 761.116 1311.59 762.998C1308.63 765.414 1305.9 767.483 1303.52 769.237C1300.76 771.242 1298.38 772.836 1296.67 773.802C1283.46 781.058 1270.63 786.182 1262.27 769.972Z" fill="#C75E12"/>
<path d="M1265.05 761.311C1281.23 734.692 1356.21 661.936 1363.84 657.862C1363.91 657.831 1364.04 657.769 1364.11 657.738C1371.08 654.133 1379.44 657.365 1381.95 664.536C1383.16 668.184 1384 672.784 1383.39 678.225C1381.92 681.966 1379.86 685.986 1376.79 690.248C1376.01 691.321 1375.22 692.394 1374.44 693.467C1372.23 696.307 1369.86 699.303 1367.19 702.359C1364.86 705.101 1362.33 707.935 1359.7 710.737C1357.25 713.382 1354.66 716.088 1352.04 718.731C1349.66 721.185 1347.24 723.575 1344.73 725.932C1342.02 728.542 1339.31 731.151 1336.63 733.665C1334.19 735.991 1331.68 738.189 1329.25 740.356C1326.54 742.806 1323.84 745.097 1321.27 747.326C1318.7 749.554 1316.21 751.593 1313.88 753.474C1310.91 755.889 1308.19 757.957 1305.8 759.71C1303.05 761.713 1300.73 763.276 1298.95 764.273C1285.99 771.336 1273.45 776.398 1265.05 761.311Z" fill="#F2994A"/>
<path d="M1364.56 712.223C1360.41 707.41 1356.25 702.597 1352.16 697.752C1351.42 696.842 1350.58 695.899 1350.14 694.768C1349.7 693.637 1349.72 692.287 1350.47 691.3C1351.33 690.186 1353.03 689.854 1354.35 690.257C1355.73 690.629 1356.86 691.512 1357.97 692.33C1361.87 695.371 1365.84 698.381 1369.74 701.423C1370.47 701.947 1371.16 702.567 1371.85 703.187C1369.68 706.18 1367.19 709.17 1364.56 712.223Z" fill="#C75E12"/>
<path d="M1349.59 728.613C1346.05 724.453 1342.43 720.259 1338.83 716.13C1338.02 715.252 1337.25 714.277 1336.81 713.147C1336.37 712.016 1336.39 710.666 1337.14 709.68C1338 708.566 1339.64 708.266 1341.02 708.638C1342.4 709.009 1343.53 709.892 1344.63 710.71C1348.53 713.75 1352.43 716.79 1356.4 719.799C1356.68 720.06 1357 720.225 1357.28 720.486C1354.84 723.218 1352.23 725.948 1349.59 728.613Z" fill="#C75E12"/>
<path d="M1334.38 743.508C1330.72 739.249 1327.07 734.991 1323.41 730.733C1322.67 729.824 1321.83 728.881 1321.39 727.75C1320.95 726.619 1320.97 725.27 1321.73 724.283C1322.58 723.17 1324.28 722.839 1325.6 723.241C1326.98 723.613 1328.11 724.496 1329.21 725.314C1333.11 728.353 1337.01 731.393 1340.98 734.402C1341.49 734.794 1342.02 735.251 1342.52 735.644C1339.85 738.405 1337.11 741.036 1334.38 743.508Z" fill="#C75E12"/>
<path d="M1319.23 757.128C1316.41 753.814 1313.5 750.467 1310.68 747.154C1309.87 746.276 1309.1 745.302 1308.66 744.172C1308.22 743.042 1308.24 741.693 1308.99 740.707C1309.85 739.593 1311.55 739.262 1312.86 739.665C1314.24 740.036 1315.37 740.919 1316.48 741.736C1320.09 744.514 1323.65 747.323 1327.26 750.101C1324.54 752.571 1321.84 754.945 1319.23 757.128Z" fill="#C75E12"/>
<path d="M1303.94 769.453C1301.65 766.757 1299.39 764.127 1297.04 761.463C1296.3 760.554 1295.46 759.612 1295.02 758.482C1294.58 757.353 1294.6 756.004 1295.35 755.019C1296.21 753.906 1297.84 753.606 1299.22 753.978C1300.6 754.349 1301.73 755.231 1302.83 756.048C1305.85 758.399 1308.96 760.784 1311.98 763.136C1309.15 765.571 1306.35 767.686 1303.94 769.453Z" fill="#C75E12"/>
</g>
</svg>
