<svg width="1278" height="152" viewBox="0 0 1278 152" fill="none" xmlns="http://www.w3.org/2000/svg">
<g opacity="0.9">
<path d="M86.4166 39.7066C85.6885 41.3994 84.535 43.2997 82.8491 44.3204L65.6549 81.5239L58.0343 98.0572C58.0343 98.0572 56.6553 102.398 44.2317 100.904C41.8058 100.619 38.9381 100.102 35.6431 99.2917C15.2258 94.2728 16.376 87.8169 16.376 87.8169L17.2061 70.9872L19.288 28.7585C18.2818 27.0136 18.1263 24.854 18.266 23.0165C18.4192 20.8703 19.0152 19.2074 19.0152 19.2074L52.8124 29.6991L87.622 36.072C87.5188 35.9842 87.217 37.7195 86.4166 39.7066Z" fill="#E24D6D"/>
<path d="M86.4164 39.7065C79.9109 44.5964 65.484 45.6673 49.7738 41.8055C34.0637 37.9437 21.7775 30.3064 18.2803 22.9577C18.4335 20.8115 19.0295 19.1485 19.0295 19.1485L52.8267 29.6402L87.6363 36.0131C87.5186 35.9842 87.2169 37.7195 86.4164 39.7065Z" fill="#BC2A57"/>
<path d="M82.79 44.3062L65.5958 81.5098L57.9752 98.043C57.9752 98.043 56.5963 102.384 44.1726 100.89L73.1169 50.9133C73.1169 50.9133 64.2555 50.9188 55.9549 44.074C56.5877 44.2919 69.7457 49.3982 82.79 44.3062Z" fill="#BC2A57"/>
<path d="M89.0058 32.9807C86.8651 41.689 69.4782 44.9024 50.12 40.1438C33.5861 36.0795 20.9728 27.4882 19.0315 19.6484C18.6735 18.3126 18.683 17.0046 18.9868 15.769C21.1274 7.06075 38.5143 3.84733 57.8725 8.60586C70.876 11.8023 81.451 17.7711 86.3399 24.0269C88.659 27.0303 89.7 30.1564 89.0058 32.9807Z" fill="#EBEBFF"/>
<path d="M86.3846 27.9064C84.244 36.6146 66.8571 39.828 47.4989 35.0695C34.4954 31.873 23.9204 25.9042 19.0315 19.6484C18.6735 18.3126 18.683 17.0046 18.9868 15.769C21.1274 7.06075 38.5143 3.84733 57.8725 8.60586C70.8761 11.8023 81.451 17.7711 86.3399 24.0269C86.6391 25.3483 86.6884 26.6707 86.3846 27.9064Z" fill="white"/>
<path d="M51.4218 34.8485C32.1813 30.1189 23.4001 20.6602 24.2824 17.071C25.1502 13.5406 37.3304 9.17206 56.5709 13.9017C75.8114 18.6313 84.5926 28.09 83.7103 31.6792C82.8425 35.2096 70.6623 39.5781 51.4218 34.8485Z" fill="#E24D6D"/>
<path d="M90.6063 36.3689C88.6955 36.2735 86.7982 35.8695 85.032 35.1858C85.8778 33.5219 86.7236 31.8579 87.5694 30.194C88.3652 30.764 89.3944 30.8922 90.3503 31.0648C91.3206 31.1785 92.291 31.2922 93.1601 31.8179C94.0437 32.2846 94.6939 33.1932 94.639 34.178C94.5542 35.0307 93.8809 35.7387 93.118 36.0504C92.3551 36.362 91.4735 36.3948 90.6063 36.3689Z" fill="#EBEBFF"/>
<path d="M65.655 81.5242L58.0344 98.0574C58.0344 98.0574 56.0604 104.311 35.6431 99.292C15.2258 94.2731 16.376 87.8172 16.376 87.8172L16.4569 85.9652L17.2206 70.9286C19.2566 69.2453 22.1493 68.646 24.6804 69.5178C26.5787 70.1716 28.7298 71.5739 30.3858 70.4211C31.5876 69.5934 31.7572 67.8881 31.2816 66.5233C30.806 65.1584 29.8317 64.0454 29.0628 62.8581C26.3559 58.3866 26.7431 52.2423 30.1072 48.2025C31.6137 46.389 34.106 44.8802 36.3284 45.7385C38.4332 46.5678 39.369 49.1065 39.2013 51.3115C39.0925 53.5309 38.1899 55.6801 37.7135 57.8716C37.4976 59.004 37.3993 60.1653 37.7563 61.2514C38.1133 62.3375 38.9988 63.3039 40.1601 63.4022C41.689 63.5284 42.9621 62.1567 43.4414 60.7146C43.9206 59.2726 43.8703 57.7003 44.2464 56.1705C44.608 54.6995 45.6747 53.1523 47.2025 53.0287C48.8625 52.8752 50.2207 54.457 50.6385 56.0571C51.0563 57.6573 50.8279 59.3482 51.0402 61.0227C51.2525 62.6971 52.0089 64.4429 53.613 65.0244C55.5702 65.6927 57.504 64.1714 58.9825 62.7254C60.0367 61.7367 61.252 60.6003 62.6467 60.2568C63.1898 60.0784 63.7482 60.0908 64.3366 60.2355C66.4548 60.7562 67.274 63.5157 66.6501 65.5462C66.0117 67.6355 64.3866 69.1702 62.8791 70.7339C61.3716 72.2976 59.9239 74.1255 59.8296 76.2862C59.7053 78.3146 61.0067 80.3816 62.9204 81.2264C63.7008 81.6054 64.6712 81.7191 65.655 81.5242Z" fill="white"/>
<path d="M65.6548 81.5242L58.0342 98.0574C58.0342 98.0574 56.0602 104.311 35.6429 99.2919C15.2256 94.2731 16.3758 87.8172 16.3758 87.8172L16.4567 85.9652C22.2036 86.1924 27.9794 86.3019 33.6635 85.5153C40.508 84.5772 47.2732 82.1845 52.5461 77.7403C56.5738 74.3004 59.5096 69.7184 61.0033 64.6573C61.4382 63.1419 61.8432 61.4944 62.661 60.198C63.204 60.0195 63.7625 60.032 64.3509 60.1766C66.4691 60.6973 67.2883 63.4568 66.6644 65.4873C66.026 67.5766 64.4008 69.1113 62.8934 70.675C61.3859 72.2387 59.9382 74.0667 59.8439 76.2273C59.7196 78.2558 61.021 80.3227 62.9347 81.1675C63.7006 81.6054 64.671 81.7191 65.6548 81.5242Z" fill="#EBEBFF"/>
<path d="M47.9038 89.2654C43.3416 91.326 37.2949 93.3338 34.51 91.4637C33.2724 90.6603 32.7938 88.5461 32.7396 85.9745C32.7114 82.5359 33.4441 78.286 34.1074 75.0797C35.6232 68.1521 43.7513 64.7842 49.5428 68.8908C49.7049 68.993 49.9113 69.1685 50.0734 69.2708C50.2798 69.4463 50.4862 69.6218 50.7071 69.7385C51.6361 70.5284 52.4184 71.4071 53.0397 72.4333C56.6042 78.2387 54.4905 86.3297 47.9038 89.2654Z" fill="#BC2A57"/>
<path d="M46.1775 83.8492C41.6153 85.9099 35.5687 87.9177 32.7838 86.0476C32.7838 86.0476 32.7838 86.0476 32.725 86.0331C32.6967 82.5945 33.4294 78.3446 34.0928 75.1383C35.6085 68.2107 43.7366 64.8427 49.5282 68.9494C49.6902 69.0516 49.8967 69.2272 50.0587 69.3294C50.2651 69.5049 50.4716 69.6805 50.6925 69.7971C51.6214 70.587 52.4037 71.4657 53.025 72.4919C53.2636 77.1054 50.8131 81.7442 46.1775 83.8492Z" fill="#E24D6D"/>
<path d="M48.0179 69.7635C47.6774 69.1182 47.3368 68.473 47.1873 67.8123C47.0377 67.1515 47.0492 66.3432 47.3849 65.7394C47.7205 65.1356 48.5123 64.7063 49.1596 64.8654C49.748 65.01 50.1907 65.4932 50.4136 66.1095C50.6509 66.667 50.6828 67.2988 50.6559 67.9162C50.8593 67.3422 51.4747 66.8695 51.9734 66.6177C52.5309 66.3804 53.1925 66.4807 53.5909 66.8906C53.9893 67.3005 54.0068 67.9911 53.8177 68.5062C53.6287 69.0213 53.2632 69.493 52.8977 69.9647C53.6761 69.8441 54.6165 69.8257 55.3236 70.249C56.0306 70.6724 56.431 71.582 56.0664 72.3035C55.673 73.1427 54.4982 73.3531 53.5423 73.1805C51.3517 72.954 49.0839 71.7726 48.0179 69.7635Z" fill="#68B229"/>
<path d="M41.4271 71.7C41.0152 71.5988 40.6342 71.8795 40.5474 72.2325C40.3729 72.6888 40.2128 73.0862 40.0382 73.5425C39.8782 73.9399 40.2177 74.3353 40.5707 74.4221C40.9826 74.5233 41.3636 74.2426 41.4504 73.8896C41.6249 73.4333 41.785 73.0359 41.9596 72.5797C42.1052 72.2411 41.7801 71.7868 41.4271 71.7Z" fill="#342D27"/>
<path d="M45.6571 74.7991L44.5595 75.9644C43.8863 76.6724 45.0072 77.6967 45.6071 77.033C45.9582 76.6201 46.2948 76.2661 46.7047 75.8677C47.3923 75.1008 46.3303 74.091 45.6571 74.7991Z" fill="#342D27"/>
<path d="M50.1002 79.8219C49.9227 79.5287 49.4076 79.3397 49.0411 79.5615C48.6601 79.8423 48.2792 80.123 47.8837 80.4625C47.576 80.6989 47.416 81.0963 47.6234 81.5217C47.8009 81.8149 48.316 82.0039 48.6825 81.782C49.0635 81.5013 49.4444 81.2206 49.8399 80.881C50.162 80.5858 50.3221 80.1884 50.1002 79.8219Z" fill="#342D27"/>
<path d="M47.1828 85.3444C47.0786 85.0068 46.6069 84.6413 46.2404 84.8632C45.9617 84.9818 45.6829 85.1005 45.4042 85.2191C45.0521 85.3822 44.7743 85.7507 44.9229 86.1616C45.0271 86.4992 45.4988 86.8647 45.8653 86.6428L46.7016 86.2868C47.0536 86.1238 47.3169 85.8141 47.1828 85.3444Z" fill="#342D27"/>
<path d="M44.2468 82.3141C44.0249 81.9476 43.5542 81.8319 43.1877 82.0538C42.8945 82.2313 42.5868 82.4676 42.2936 82.6451C41.9859 82.8815 41.8114 83.3377 42.0333 83.7042C42.2551 84.0708 42.7259 84.1865 43.0924 83.9646C43.3856 83.7871 43.6932 83.5507 43.9865 83.3732C44.353 83.1514 44.4687 82.6806 44.2468 82.3141Z" fill="#342D27"/>
<path d="M41.3092 79.0335C40.9996 78.7702 40.4999 78.7721 40.2511 79.0229C40.0022 79.2737 39.7389 79.5834 39.4901 79.8342C39.2268 80.1438 39.1844 80.5702 39.4796 80.8923C39.7892 81.1556 40.2889 81.1537 40.5377 80.9028C40.7865 80.652 41.0498 80.3424 41.2987 80.0916C41.562 79.7819 41.6188 79.2968 41.3092 79.0335Z" fill="#342D27"/>
<path d="M37.6127 77.0646C37.2886 76.8602 36.7601 76.9798 36.6 77.3772C36.4543 77.7158 36.2354 78.0987 36.0898 78.4373C35.8709 78.8203 36.0195 79.2312 36.4024 79.4501C36.7265 79.6545 37.2551 79.5349 37.4152 79.1375C37.5608 78.7989 37.7797 78.416 37.9253 78.0774C38.0854 77.68 37.9957 77.2836 37.6127 77.0646Z" fill="#342D27"/>
<path d="M37.1318 81.8128C36.8077 81.6083 36.2791 81.728 36.119 82.1254C35.9734 82.4639 35.8133 82.8614 35.6677 83.1999C35.5076 83.5973 35.5973 83.9938 35.9803 84.2127C36.3044 84.4172 36.833 84.2975 36.9931 83.9001C37.1387 83.5615 37.2988 83.1641 37.4444 82.8255C37.59 82.487 37.5736 82.0461 37.1318 81.8128Z" fill="#342D27"/>
<path d="M39.9332 84.1241C39.6236 83.8608 39.1239 83.8628 38.8751 84.1136C38.714 84.2612 38.5385 84.4676 38.3774 84.6152C38.1141 84.9248 38.1161 85.4245 38.3669 85.6733C38.6765 85.9366 39.1762 85.9347 39.425 85.6838C39.5861 85.5363 39.7616 85.3298 39.9227 85.1822C40.2448 84.8871 40.2428 84.3874 39.9332 84.1241Z" fill="#342D27"/>
<path d="M42.6041 86.9643C42.4266 86.6711 41.9115 86.4821 41.545 86.704L41.0907 87.0291C40.7831 87.2654 40.623 87.6628 40.8304 88.0882C41.0079 88.3814 41.523 88.5704 41.8895 88.3485C42.0361 88.2598 42.1972 88.1122 42.3438 88.0234C42.6514 87.7871 42.826 87.3308 42.6041 86.9643Z" fill="#342D27"/>
<path d="M38.094 87.2903C37.7988 86.9682 37.3436 87.0434 37.0359 87.2798C36.9481 87.383 36.8015 87.4718 36.7137 87.575C36.4061 87.8113 36.4524 88.3843 36.7032 88.6331C36.9984 88.9552 37.4537 88.88 37.7613 88.6436C37.8491 88.5404 37.9957 88.4516 38.0835 88.3484C38.4056 88.0533 38.3448 87.5392 38.094 87.2903Z" fill="#342D27"/>
<path d="M31.4159 22.3177C33.2774 21.0907 36.1971 19.8741 37.2513 18.8853C38.5687 17.5869 38.8271 16.0282 39.9546 14.995C40.2623 14.7587 41.2616 14.7548 41.3359 14.9602C41.5732 15.5177 39.976 16.685 40.0233 17.5077C41.3003 17.1353 42.5889 15.9546 43.8226 15.7587C44.4688 15.6679 45.0871 15.9447 44.574 16.2553C43.4301 16.8477 41.4943 17.8693 39.9395 18.6102C39.4263 18.9209 39.1042 19.216 39.0763 19.5835C39.1062 19.7157 38.6075 19.9675 38.3876 20.1006C37.9179 20.2347 37.5205 20.0746 37.0218 20.3264C35.6734 21.2429 33.7386 22.5143 31.9793 23.5793C31.5395 23.8456 30.5557 24.0405 30.2306 23.5862C30.0087 23.2197 30.815 22.7316 31.4159 22.3177Z" fill="white"/>
<path d="M48.2451 19.3421C48.6773 20.8834 46.8776 22.8744 44.338 23.5604C42.5323 24.0525 40.9736 23.7941 40.5433 22.7524C40.0986 21.7696 40.5344 20.5041 41.8828 19.5876C43.9932 18.1097 47.6787 17.331 48.2451 19.3421ZM43.5691 22.3731C45.0526 22.1762 46.2389 21.1576 46.6025 20.1862C46.7915 19.6711 46.0111 19.2921 45.4527 19.2796C44.9086 19.2083 43.0761 20.3177 42.8427 20.7595C42.4193 21.4665 42.2178 22.5401 43.5691 22.3731Z" fill="white"/>
<path d="M51.6088 18.8586C52.8714 18.545 54.0925 18.9076 54.845 19.6541C55.0958 19.9029 54.8614 20.0949 54.5383 20.1402C53.7599 20.2609 53.2283 19.6311 52.42 19.6195C51.7439 19.5781 51.1729 20.1241 50.7041 20.5081C49.5622 21.6 48.13 23.619 49.5605 24.9066C49.9146 25.2432 50.5319 25.2701 50.8096 24.9016C51.2928 24.4589 51.996 23.883 51.5976 23.473C51.4355 23.3708 51.1847 23.122 51.1992 23.0631C51.0496 22.4024 51.9602 22.2519 52.4598 22.2499C53.4002 22.2315 54.5202 23.006 53.7447 23.8761C53.7303 23.9349 53.3483 23.9658 53.3338 24.0246C53.1304 24.5986 52.7648 25.0703 52.4292 25.6741C52.1958 26.1159 51.6673 26.2355 51.2863 26.5163C50.8021 26.7092 50.3458 26.5347 49.9494 26.6244C47.7319 27.0152 46.2849 25.2868 46.9976 23.403C47.9147 21.195 49.2891 19.4115 51.6088 18.8586Z" fill="white"/>
<path d="M55.8596 19.8413C56.1374 19.4728 56.7836 19.3821 57.3286 19.7032C57.4174 19.8498 57.5505 20.0697 57.4338 20.2906C56.3806 21.5292 55.7741 24.2503 57.5442 25.9333C59.0192 27.2942 60.0106 25.2917 60.1822 24.086C60.5447 22.8648 60.1723 21.5877 60.1828 20.5296C60.1076 20.0744 60.8281 20.1891 61.3866 20.2016C61.402 20.3926 61.6519 20.3916 61.6962 20.4649C62.1005 22.3737 62.3004 24.6067 60.9116 26.4491C59.7417 27.9086 56.7477 28.9197 55.5042 26.6174C54.0688 24.0807 54.7495 21.565 55.8596 19.8413Z" fill="white"/>
<path d="M62.6395 21.1959C62.5208 20.9172 62.3134 20.4918 62.651 20.3876C64.119 19.9997 66.328 21.1667 67.6717 22.8073C68.6017 23.847 67.6343 24.4827 66.8568 24.8532C67.6132 26.599 68.6358 28.7846 70.0848 31.0126C70.5874 31.7601 69.4714 31.985 68.881 31.3407C66.8302 29.2767 66.7615 26.764 65.2412 25.08C65.0049 24.7723 64.1667 24.6287 64.05 24.8496C63.8195 26.0408 64.8257 27.7856 65.1114 29.4157C65.1866 29.871 64.4671 30.0061 63.9076 29.7438C63.6424 29.5538 63.4205 29.1872 63.2873 28.9673C62.5155 27.0306 62.5675 25.2963 62.4883 23.8417C62.411 22.8868 63.0543 22.0466 62.6395 21.1959ZM64.1328 23.4973C65.0309 23.9052 66.0301 23.9012 66.5577 23.5318C66.6899 23.5019 66.9098 23.3687 66.7178 23.1344C66.112 22.2991 65.184 21.759 64.4336 21.5121C63.9185 21.3231 64.1424 22.1893 64.0556 22.5423C63.9833 22.8365 63.7354 23.3372 64.1328 23.4973Z" fill="white"/>
<path d="M73.0568 31.8677C71.5286 28.1851 71.0036 25.4978 70.0833 23.1502C69.9646 22.8714 69.5682 22.9612 69.3772 22.9766C69.0097 22.9487 68.6875 23.2438 68.1869 22.996C67.6419 22.6748 67.5223 22.1463 67.9187 22.0565C69.6366 21.6677 70.6822 22.2367 72.7705 22.6252C72.8293 22.6397 72.9769 22.8008 73.0801 22.8885C73.4197 23.284 73.2442 23.4904 72.921 23.5358C72.0539 23.5098 72.3182 23.45 71.48 23.3063C72.0618 25.5084 73.1751 28.3402 74.6734 31.8907C74.9551 32.5215 74.412 32.6999 74.06 32.863C73.7369 32.9083 73.2198 32.2197 73.0568 31.8677Z" fill="white"/>
</g>
<g opacity="0.9">
<path d="M1228.58 87.935C1231.77 83.943 1233.64 78.9864 1236.11 74.4236C1238.59 69.9589 1242.21 65.5758 1247.27 64.3738C1252.71 62.9963 1258.58 65.9149 1262 70.3369C1265.42 74.7589 1266.86 80.4895 1267.24 86.021C1268.41 100.262 1263.96 114.9 1255.05 126.035C1246.15 137.267 1232.97 144.86 1218.81 146.939C1213.57 147.768 1207.63 147.615 1203.75 143.996C1200.13 140.632 1199.27 135.197 1199.51 130.256C1200.1 118.726 1205.54 107.562 1214.25 100.035C1219.04 95.9301 1224.64 92.7879 1228.58 87.935Z" fill="#C6CF5D"/>
<path d="M1246.52 82.2576C1242.28 110.918 1221.51 134.278 1193.42 141.751C1192.17 142.101 1192.55 144.063 1193.81 143.713C1222.76 135.968 1244.14 112.08 1248.48 82.3806C1248.74 81.1066 1246.78 80.9836 1246.52 82.2576Z" fill="#696E2B"/>
<path d="M1221.3 68.5779C1221.1 62.3997 1222.94 56.2271 1226.54 51.236C1230.03 46.1661 1235.17 42.2971 1241 40.3323C1243.28 47.2222 1242.55 55.4179 1239.12 61.8019C1235.59 68.2053 1229.42 73.0913 1222.36 74.9939C1222.09 72.6005 1221.37 71.01 1221.3 68.5779Z" fill="#696E2B"/>
<path d="M1234.92 48.2583C1228.01 57.6725 1222.73 68.0915 1219.11 79.2014C1218.73 80.3967 1220.59 81.0489 1220.97 79.8537C1224.51 68.8612 1229.74 58.6579 1236.57 49.361C1237.37 48.2846 1235.63 47.2012 1234.92 48.2583Z" fill="#ABB344"/>
</g>
</svg>
