<svg width="1440" height="1719" viewBox="0 0 1440 1719" fill="none" xmlns="http://www.w3.org/2000/svg">
<rect y="611" width="1440" height="1113" fill="white"/>
<path d="M269.569 -8H0V166.776C15.239 172.548 33.3642 170.47 46.8715 161.35C60.3788 152.23 70.1918 136.299 70.5381 119.907C78.8503 122.909 88.4324 122.216 96.1674 117.829C103.902 113.442 109.675 106.978 111.406 98.3199C117.063 104.438 126.53 106.632 134.265 103.63C142 100.629 147.772 92.7788 148.003 84.5826C149.735 98.089 161.395 109.748 174.902 111.365C188.41 112.981 202.61 104.438 207.458 91.7398C210.922 82.7355 209.998 71.8842 205.265 63.5726C211.73 68.6519 220.042 71.5379 228.239 71.0761C240.476 70.4989 252.021 62.7645 257.331 51.6823C262.065 41.639 260.679 30.326 255.023 20.8599C258.948 25.2466 266.452 26.5164 271.301 22.9378C276.496 19.2437 277.881 11.9711 276.496 5.73731C275.226 0.773411 272.57 -3.72873 269.569 -8Z" fill="#F2F9FF"/>
<path d="M1083 0C1083.4 20.4685 1093.77 40.6712 1110.38 52.7663C1128.32 65.7917 1153.04 68.9816 1173.65 61.0069C1172.32 69.7791 1170.99 78.0197 1171.92 86.9248C1172.98 95.83 1176.84 104.735 1184.01 110.052C1192.65 116.431 1204.88 116.431 1214.58 111.779C1224.28 107.128 1231.59 98.6211 1236.78 89.1843C1238.91 110.185 1256.32 129.058 1276.39 135.571C1296.46 142.084 1320.11 135.704 1334.2 120.02C1337.79 135.571 1352.15 148.729 1367.7 152.584C1383.25 156.438 1400.13 152.185 1413.15 142.748C1426.04 133.311 1435.22 119.223 1440 104.071V0H1083Z" fill="#F2F9FF"/>
<g opacity="0.9">
<path d="M165.312 735.637C164.401 737.754 162.959 740.129 160.852 741.405L139.357 787.914L129.831 808.582C129.831 808.582 128.107 814.008 112.576 812.14C109.543 811.785 105.958 811.138 101.839 810.125C76.3154 803.851 77.7533 795.78 77.7533 795.78L78.791 774.741L81.3937 721.951C80.1358 719.77 79.9415 717.07 80.1161 714.773C80.3076 712.09 81.0526 710.011 81.0526 710.011L123.303 723.127L166.818 731.094C166.689 730.984 166.312 733.153 165.312 735.637Z" fill="#E24D6D"/>
<path d="M165.311 735.637C157.179 741.75 139.144 743.089 119.504 738.261C99.8649 733.434 84.5058 723.886 80.134 714.699C80.3255 712.017 81.0705 709.938 81.0705 709.938L123.321 723.053L166.836 731.02C166.689 730.984 166.312 733.153 165.311 735.637Z" fill="#BC2A57"/>
<path d="M160.778 741.387L139.283 787.896L129.757 808.564C129.757 808.564 128.033 813.99 112.502 812.123L148.686 749.647C148.686 749.647 137.608 749.654 127.231 741.097C128.022 741.37 144.471 747.753 160.778 741.387Z" fill="#BC2A57"/>
<path d="M168.548 727.229C165.872 738.116 144.137 742.133 119.937 736.184C99.268 731.103 83.5 720.363 81.0731 710.563C80.6256 708.893 80.6375 707.258 81.0172 705.713C83.6932 694.827 105.429 690.81 129.629 696.758C145.884 700.754 159.104 708.216 165.216 716.036C168.115 719.791 169.416 723.699 168.548 727.229Z" fill="#EBEBFF"/>
<path d="M165.272 720.886C162.596 731.772 140.86 735.789 116.66 729.841C100.405 725.845 87.1847 718.383 81.0731 710.563C80.6256 708.893 80.6375 707.258 81.0172 705.713C83.6932 694.827 105.429 690.81 129.629 696.758C145.884 700.754 159.104 708.216 165.216 716.036C165.59 717.688 165.651 719.341 165.272 720.886Z" fill="white"/>
<path d="M121.564 729.564C97.5116 723.652 86.5342 711.827 87.6371 707.341C88.722 702.927 103.948 697.466 128.001 703.379C152.054 709.291 163.031 721.116 161.928 725.602C160.843 730.016 145.617 735.477 121.564 729.564Z" fill="#E24D6D"/>
<path d="M170.549 731.465C168.16 731.346 165.789 730.841 163.581 729.986C164.638 727.906 165.695 725.826 166.753 723.746C167.747 724.458 169.034 724.618 170.229 724.834C171.442 724.976 172.655 725.119 173.742 725.776C174.846 726.359 175.659 727.495 175.59 728.726C175.484 729.792 174.643 730.677 173.689 731.067C172.735 731.456 171.633 731.497 170.549 731.465Z" fill="#EBEBFF"/>
<path d="M139.357 787.914L129.831 808.582C129.831 808.582 127.363 816.4 101.839 810.125C76.3155 803.851 77.7533 795.781 77.7533 795.781L77.8544 793.466L78.8091 774.668C81.3544 772.564 84.9705 771.815 88.1346 772.905C90.5077 773.722 93.1968 775.475 95.2671 774.034C96.7694 772.999 96.9815 770.867 96.3869 769.161C95.7923 767.455 94.5743 766.064 93.6131 764.579C90.2292 758.989 90.7133 751.308 94.9187 746.258C96.802 743.991 99.9177 742.105 102.696 743.178C105.327 744.215 106.497 747.388 106.287 750.145C106.151 752.919 105.023 755.606 104.427 758.346C104.158 759.761 104.035 761.213 104.481 762.571C104.927 763.928 106.034 765.137 107.486 765.259C109.397 765.417 110.989 763.702 111.588 761.9C112.187 760.097 112.124 758.131 112.594 756.219C113.046 754.38 114.38 752.446 116.29 752.291C118.365 752.1 120.063 754.077 120.585 756.077C121.107 758.078 120.822 760.192 121.087 762.285C121.353 764.378 122.298 766.56 124.304 767.287C126.75 768.123 129.168 766.221 131.016 764.413C132.334 763.177 133.853 761.757 135.597 761.327C136.275 761.104 136.974 761.12 137.709 761.301C140.357 761.952 141.381 765.401 140.601 767.94C139.803 770.551 137.772 772.47 135.887 774.425C134.003 776.38 132.193 778.665 132.075 781.366C131.92 783.902 133.546 786.485 135.939 787.542C136.914 788.015 138.127 788.158 139.357 787.914Z" fill="white"/>
<path d="M139.357 787.914L129.831 808.582C129.831 808.582 127.363 816.4 101.839 810.125C76.3155 803.851 77.7534 795.781 77.7534 795.781L77.8544 793.466C85.0387 793.75 92.259 793.887 99.3648 792.903C107.921 791.73 116.378 788.739 122.97 783.184C128.005 778.883 131.675 773.155 133.542 766.828C134.086 764.934 134.592 762.875 135.615 761.254C136.294 761.031 136.992 761.046 137.727 761.227C140.375 761.878 141.399 765.328 140.619 767.866C139.821 770.478 137.79 772.397 135.905 774.351C134.021 776.306 132.211 778.591 132.093 781.292C131.938 783.828 133.564 786.412 135.957 787.468C136.914 788.015 138.127 788.158 139.357 787.914Z" fill="#EBEBFF"/>
<path d="M117.166 797.591C111.463 800.167 103.904 802.677 100.423 800.339C98.8758 799.335 98.2775 796.692 98.2097 793.477C98.1743 789.179 99.0903 783.866 99.9196 779.858C101.814 771.197 111.975 766.987 119.215 772.121C119.418 772.249 119.676 772.468 119.879 772.596C120.137 772.815 120.395 773.035 120.671 773.18C121.832 774.168 122.81 775.266 123.587 776.549C128.043 783.807 125.401 793.921 117.166 797.591Z" fill="#BC2A57"/>
<path d="M115.009 790.82C109.305 793.396 101.746 795.906 98.2651 793.569C98.2651 793.569 98.2651 793.569 98.1915 793.55C98.1562 789.252 99.0722 783.939 99.9015 779.931C101.796 771.271 111.957 767.06 119.197 772.194C119.4 772.322 119.658 772.541 119.861 772.669C120.119 772.888 120.377 773.108 120.653 773.254C121.814 774.241 122.792 775.34 123.569 776.623C123.867 782.39 120.804 788.189 115.009 790.82Z" fill="#E24D6D"/>
<path d="M117.309 773.212C116.884 772.405 116.458 771.598 116.271 770.772C116.084 769.947 116.098 768.936 116.518 768.181C116.937 767.426 117.927 766.89 118.736 767.089C119.472 767.269 120.026 767.873 120.304 768.644C120.601 769.341 120.641 770.131 120.607 770.902C120.861 770.185 121.631 769.594 122.254 769.279C122.951 768.983 123.778 769.108 124.276 769.62C124.774 770.133 124.796 770.996 124.56 771.64C124.323 772.284 123.866 772.874 123.409 773.463C124.383 773.312 125.558 773.289 126.442 773.819C127.326 774.348 127.826 775.485 127.371 776.387C126.879 777.436 125.41 777.699 124.215 777.483C121.477 777.2 118.642 775.723 117.309 773.212Z" fill="#68B229"/>
<path d="M109.07 775.633C108.555 775.506 108.079 775.857 107.97 776.298C107.752 776.869 107.552 777.365 107.334 777.936C107.134 778.433 107.558 778.927 108 779.035C108.515 779.162 108.991 778.811 109.099 778.37C109.317 777.799 109.518 777.303 109.736 776.732C109.918 776.309 109.511 775.741 109.07 775.633Z" fill="#342D27"/>
<path d="M114.358 779.507L112.986 780.963C112.144 781.849 113.545 783.129 114.295 782.299C114.734 781.783 115.155 781.341 115.667 780.843C116.527 779.884 115.199 778.622 114.358 779.507Z" fill="#342D27"/>
<path d="M119.912 785.786C119.691 785.419 119.047 785.183 118.588 785.46C118.112 785.811 117.636 786.162 117.142 786.587C116.757 786.882 116.557 787.379 116.816 787.911C117.038 788.277 117.682 788.513 118.14 788.236C118.616 787.885 119.093 787.534 119.587 787.11C119.99 786.741 120.19 786.244 119.912 785.786Z" fill="#342D27"/>
<path d="M116.265 792.689C116.135 792.267 115.545 791.81 115.087 792.088C114.739 792.236 114.39 792.385 114.042 792.533C113.602 792.737 113.255 793.197 113.44 793.711C113.571 794.133 114.16 794.59 114.618 794.313L115.664 793.868C116.104 793.664 116.433 793.277 116.265 792.689Z" fill="#342D27"/>
<path d="M112.595 788.901C112.317 788.443 111.729 788.298 111.271 788.576C110.904 788.798 110.52 789.093 110.153 789.315C109.768 789.611 109.55 790.181 109.828 790.639C110.105 791.097 110.693 791.242 111.152 790.965C111.518 790.743 111.903 790.447 112.269 790.225C112.728 789.948 112.872 789.359 112.595 788.901Z" fill="#342D27"/>
<path d="M108.923 784.8C108.536 784.471 107.911 784.474 107.6 784.787C107.289 785.101 106.96 785.488 106.649 785.801C106.32 786.188 106.267 786.721 106.636 787.124C107.023 787.453 107.647 787.451 107.958 787.137C108.269 786.824 108.599 786.436 108.91 786.123C109.239 785.736 109.31 785.129 108.923 784.8Z" fill="#342D27"/>
<path d="M104.302 782.339C103.897 782.083 103.236 782.233 103.036 782.73C102.854 783.153 102.58 783.632 102.398 784.055C102.124 784.534 102.31 785.047 102.789 785.321C103.194 785.576 103.855 785.427 104.055 784.93C104.237 784.507 104.511 784.028 104.693 783.605C104.893 783.108 104.781 782.613 104.302 782.339Z" fill="#342D27"/>
<path d="M103.701 788.275C103.295 788.019 102.635 788.169 102.434 788.665C102.252 789.089 102.052 789.585 101.87 790.009C101.67 790.506 101.782 791.001 102.261 791.275C102.666 791.53 103.327 791.381 103.527 790.884C103.709 790.461 103.909 789.964 104.091 789.541C104.273 789.117 104.253 788.566 103.701 788.275Z" fill="#342D27"/>
<path d="M107.203 791.164C106.815 790.835 106.191 790.837 105.88 791.151C105.678 791.335 105.459 791.593 105.258 791.778C104.928 792.165 104.931 792.79 105.244 793.101C105.632 793.43 106.256 793.427 106.567 793.114C106.769 792.929 106.988 792.671 107.189 792.487C107.592 792.118 107.59 791.493 107.203 791.164Z" fill="#342D27"/>
<path d="M110.542 794.715C110.32 794.348 109.676 794.112 109.218 794.389L108.65 794.796C108.265 795.091 108.065 795.588 108.324 796.12C108.546 796.486 109.19 796.722 109.648 796.445C109.832 796.334 110.033 796.15 110.216 796.039C110.601 795.743 110.819 795.173 110.542 794.715Z" fill="#342D27"/>
<path d="M104.903 795.122C104.534 794.719 103.965 794.814 103.581 795.109C103.471 795.238 103.288 795.349 103.178 795.478C102.793 795.773 102.851 796.49 103.165 796.801C103.534 797.203 104.103 797.109 104.488 796.814C104.597 796.685 104.781 796.574 104.89 796.445C105.293 796.076 105.217 795.433 104.903 795.122Z" fill="#342D27"/>
<path d="M96.5548 713.9C98.8819 712.366 102.532 710.845 103.85 709.609C105.497 707.986 105.82 706.038 107.229 704.746C107.614 704.451 108.863 704.446 108.956 704.703C109.252 705.399 107.256 706.859 107.315 707.887C108.911 707.422 110.522 705.946 112.064 705.701C112.872 705.587 113.645 705.933 113.004 706.322C111.574 707.062 109.154 708.339 107.21 709.265C106.569 709.654 106.166 710.023 106.131 710.482C106.168 710.647 105.545 710.962 105.27 711.129C104.683 711.296 104.186 711.096 103.563 711.411C101.877 712.556 99.4584 714.146 97.2591 715.477C96.7093 715.81 95.4794 716.054 95.073 715.486C94.7956 715.028 95.8036 714.418 96.5548 713.9Z" fill="white"/>
<path d="M117.593 710.18C118.134 712.106 115.884 714.595 112.709 715.453C110.452 716.068 108.503 715.745 107.965 714.443C107.409 713.214 107.954 711.632 109.64 710.486C112.278 708.639 116.885 707.665 117.593 710.18ZM111.748 713.969C113.602 713.723 115.085 712.449 115.54 711.235C115.776 710.591 114.801 710.117 114.103 710.101C113.422 710.012 111.132 711.399 110.84 711.951C110.311 712.835 110.059 714.177 111.748 713.969Z" fill="white"/>
<path d="M121.798 709.575C123.376 709.183 124.903 709.636 125.844 710.57C126.157 710.881 125.864 711.121 125.46 711.177C124.487 711.328 123.823 710.541 122.812 710.526C121.967 710.475 121.253 711.157 120.667 711.637C119.24 713.002 117.449 715.526 119.237 717.136C119.68 717.556 120.452 717.59 120.799 717.13C121.403 716.576 122.282 715.856 121.784 715.344C121.581 715.216 121.268 714.905 121.286 714.831C121.099 714.005 122.237 713.817 122.862 713.815C124.038 713.792 125.438 714.76 124.468 715.847C124.45 715.921 123.973 715.96 123.955 716.033C123.7 716.751 123.243 717.34 122.824 718.095C122.532 718.647 121.871 718.797 121.395 719.148C120.79 719.389 120.219 719.171 119.724 719.283C116.952 719.772 115.143 717.611 116.034 715.256C117.18 712.496 118.898 710.266 121.798 709.575Z" fill="white"/>
<path d="M127.112 710.804C127.459 710.343 128.267 710.23 128.949 710.631C129.06 710.814 129.226 711.089 129.08 711.365C127.763 712.914 127.005 716.315 129.218 718.419C131.062 720.121 132.301 717.617 132.516 716.11C132.969 714.583 132.503 712.987 132.517 711.664C132.423 711.095 133.323 711.238 134.021 711.254C134.041 711.493 134.353 711.492 134.409 711.583C134.914 713.969 135.164 716.761 133.428 719.064C131.965 720.889 128.222 722.153 126.668 719.274C124.873 716.103 125.724 712.959 127.112 710.804Z" fill="white"/>
<path d="M135.588 712.497C135.439 712.149 135.18 711.617 135.602 711.487C137.437 711.002 140.199 712.461 141.879 714.512C143.041 715.811 141.832 716.606 140.86 717.069C141.805 719.252 143.084 721.984 144.895 724.769C145.523 725.704 144.128 725.985 143.39 725.179C140.826 722.599 140.741 719.458 138.84 717.353C138.545 716.968 137.497 716.788 137.351 717.065C137.063 718.554 138.321 720.735 138.678 722.773C138.772 723.342 137.872 723.511 137.173 723.183C136.841 722.945 136.564 722.487 136.398 722.212C135.433 719.791 135.498 717.623 135.399 715.805C135.302 714.611 136.106 713.561 135.588 712.497ZM137.454 715.374C138.577 715.884 139.826 715.879 140.486 715.417C140.651 715.38 140.926 715.213 140.686 714.92C139.929 713.876 138.769 713.201 137.83 712.892C137.187 712.656 137.466 713.739 137.358 714.18C137.268 714.548 136.958 715.174 137.454 715.374Z" fill="white"/>
<path d="M148.61 725.838C146.7 721.234 146.044 717.875 144.893 714.94C144.745 714.592 144.249 714.704 144.011 714.723C143.551 714.688 143.149 715.057 142.523 714.747C141.841 714.346 141.692 713.685 142.187 713.573C144.335 713.087 145.642 713.798 148.253 714.284C148.326 714.302 148.511 714.503 148.64 714.613C149.064 715.107 148.845 715.365 148.441 715.422C147.357 715.39 147.687 715.315 146.639 715.135C147.367 717.888 148.758 721.428 150.631 725.867C150.984 726.655 150.305 726.878 149.865 727.082C149.461 727.139 148.814 726.278 148.61 725.838Z" fill="white"/>
</g>
<path d="M1330.52 1690.2V1710.21C1330.52 1710.21 1303.06 1714.45 1304.81 1710.21C1306.56 1705.98 1320.44 1705.25 1320.44 1705.25V1688.89L1330.52 1690.2Z" fill="#FCB682"/>
<path d="M1405.47 1620.96L1416.13 1604.01C1416.13 1604.01 1441.69 1615.11 1437.9 1617.74C1434.1 1620.37 1421.97 1613.51 1421.97 1613.51L1413.21 1627.38L1405.47 1620.96Z" fill="#FCB682"/>
<path d="M1414.38 1607.08L1416.27 1604.16C1416.27 1604.16 1441.84 1615.26 1438.04 1617.89C1434.24 1620.52 1422.12 1613.65 1422.12 1613.65L1421.68 1614.38C1421.53 1614.24 1421.39 1614.09 1421.24 1613.94C1418.9 1611.61 1416.57 1609.42 1414.38 1607.08Z" fill="#BD537B"/>
<path d="M1324.68 1584.73C1311.39 1619.5 1305.98 1657.19 1308.9 1694.29H1337.1C1333.01 1666.54 1337.1 1637.32 1348.35 1611.75C1350.24 1624.02 1352.14 1636.3 1358.28 1647.11C1364.41 1657.92 1375.52 1666.83 1387.93 1666.68C1397.43 1666.54 1406.34 1661.13 1412.04 1653.68C1417.88 1646.23 1420.8 1636.88 1422.12 1627.53C1415.25 1622.42 1408.68 1617.74 1401.81 1612.78C1401.23 1618.77 1400.21 1625.49 1397.43 1628.7C1394.22 1632.5 1390.13 1634.4 1385.74 1633.81C1382.09 1633.37 1378.44 1627.82 1376.54 1624.61C1374.35 1620.66 1373.47 1615.7 1372.74 1611.17C1371.43 1603.43 1369.24 1591.16 1367.92 1583.56C1366.75 1583.85 1365.73 1582.97 1364.71 1583.12L1324.68 1584.73Z" fill="#342D27"/>
<path d="M1318.84 1542.07L1311.82 1546.16L1295.61 1557.26C1295.61 1557.26 1294.88 1563.25 1298.68 1565.01C1298.68 1565.01 1308.9 1565.74 1324.39 1551.86L1318.84 1542.07Z" fill="#FCB682"/>
<path d="M1337.1 1517.67L1340.16 1518.55L1359.16 1526.29L1370.7 1585.9C1370.7 1585.9 1344.25 1597 1322.05 1586.34C1324.53 1573.19 1325.41 1565.44 1328.48 1554.49C1328.48 1554.49 1316.5 1548.94 1319.71 1540.46C1322.93 1531.99 1327.75 1523.66 1332.13 1521.91L1337.1 1517.67Z" fill="#BD537B"/>
<path d="M1332.13 1521.91C1332.13 1521.91 1328.33 1522.35 1325.41 1525.12C1322.34 1527.9 1308.76 1546.45 1308.76 1546.45C1308.76 1546.45 1314.31 1557.12 1321.9 1557.56L1329.35 1546.01L1332.13 1521.91Z" fill="#BD537B"/>
<path d="M1330.52 1706.86V1710.22C1330.52 1710.22 1303.06 1714.45 1304.81 1710.22C1306.56 1705.98 1320.44 1705.25 1320.44 1705.25V1704.37C1320.59 1704.37 1320.88 1704.52 1321.03 1704.52C1324.24 1705.25 1327.31 1706.13 1330.52 1706.86Z" fill="#BD537B"/>
<path d="M1278.95 1491.52L1347.03 1589.11C1350.24 1593.78 1348.93 1600.07 1344.11 1602.99C1339.29 1605.91 1333.15 1604.3 1330.38 1599.34L1273.26 1494.3L1278.95 1491.52Z" fill="#A58E7C"/>
<path d="M1273.26 1449.01C1270.92 1449.6 1280.56 1478.08 1276.32 1479.98C1272.38 1481.74 1258.5 1451.21 1254.56 1453.25C1250.61 1455.3 1267.56 1484.07 1263.91 1486.41C1259.96 1488.75 1242.14 1464.64 1240.24 1466.25C1238.34 1467.86 1247.98 1485.83 1256.9 1494.15C1264.78 1501.6 1274.43 1496.35 1276.32 1495.18C1278.37 1494.3 1288.3 1489.48 1286.7 1478.67C1284.8 1466.54 1275.59 1448.43 1273.26 1449.01Z" fill="#A58E7C"/>
<path d="M1298.53 1559.6C1304.37 1552.3 1308.03 1541.49 1306.71 1532.28C1306.71 1532.28 1312.7 1526.73 1311.97 1525.71C1311.24 1524.69 1305.98 1528.34 1305.98 1528.34C1305.98 1528.34 1308.17 1523.23 1307.44 1522.64C1306.71 1522.06 1303.06 1527.75 1303.06 1527.75C1303.06 1527.75 1303.35 1520.01 1302.47 1520.01C1301.6 1520.01 1299.85 1527.32 1299.85 1527.32C1299.85 1527.32 1298.82 1520.74 1297.36 1520.89C1295.9 1521.03 1297.22 1528.19 1297.22 1528.19C1297.22 1528.19 1294.88 1525.27 1293.56 1526C1292.25 1526.73 1297.51 1532.28 1297.51 1532.28L1298.97 1534.04C1298.97 1534.04 1296.05 1539.44 1290.35 1549.81C1290.35 1549.81 1285.09 1559.02 1289.18 1563.84C1290.35 1565.15 1292.1 1565.74 1293.71 1565.88C1297.95 1566.03 1302.62 1564.71 1302.62 1564.71C1300.14 1563.55 1297.51 1561.94 1298.53 1559.6Z" fill="#FCB682"/>
<path d="M1370.84 1549.81C1374.2 1554.78 1374.2 1561.65 1371.57 1567.05C1368.94 1572.46 1363.83 1576.4 1357.99 1578.3C1352.29 1580.2 1346.01 1580.2 1340.16 1579.03C1330.96 1577.13 1321.32 1571.43 1316.21 1563.54C1316.21 1563.54 1308.03 1563.11 1307.88 1561.94C1307.73 1560.62 1314.16 1560.04 1314.16 1560.04C1314.16 1560.04 1309.19 1557.56 1309.34 1556.68C1309.49 1555.8 1316.06 1557.7 1316.06 1557.7C1316.06 1557.7 1310.95 1552 1311.53 1551.42C1312.12 1550.84 1318.25 1555.22 1318.25 1555.22C1318.25 1555.22 1314.89 1549.52 1316.06 1548.79C1317.23 1548.06 1320.88 1554.34 1320.88 1554.34C1320.88 1554.34 1320.74 1550.54 1322.2 1550.4C1323.66 1550.1 1323.22 1557.85 1323.22 1557.85V1560.04C1323.22 1560.04 1348.78 1574.79 1356.53 1557.85L1356.96 1554.49L1370.84 1549.81Z" fill="#FCB682"/>
<path d="M1340.16 1518.55C1340.16 1518.55 1358.57 1517.38 1368.36 1534.33C1373.91 1545.43 1375.08 1548.06 1375.08 1548.06C1375.08 1548.06 1369.97 1556.24 1356.82 1557.7L1336.66 1521.03L1340.16 1518.55Z" fill="#BD537B"/>
<path d="M1316.79 1490.94C1316.79 1490.94 1312.41 1482.32 1317.81 1477.79C1323.22 1473.26 1341.04 1474.87 1344.11 1482.76C1347.18 1490.65 1350.54 1503.65 1340.16 1505.11L1316.79 1490.94Z" fill="#4E3E49"/>
<path d="M1342.79 1483.64C1341.92 1481.74 1341.33 1479.69 1341.33 1477.65C1341.33 1475.46 1342.06 1473.41 1343.53 1471.8C1344.99 1470.34 1347.32 1469.47 1349.37 1470.05C1351.41 1470.49 1352.87 1472.24 1354.04 1473.99C1355.36 1476.04 1356.23 1478.52 1356.23 1481.01C1356.23 1483.49 1355.21 1485.97 1353.31 1487.58C1351.41 1489.19 1348.49 1489.48 1346.3 1488.31C1344.55 1487.29 1343.53 1485.54 1342.79 1483.64Z" fill="#4E3E49"/>
<path d="M1316.94 1487.73C1316.94 1487.73 1315.48 1505.84 1320.44 1507.45C1325.26 1509.06 1332.13 1505.7 1332.13 1505.7V1521.77C1332.13 1521.77 1328.48 1526 1329.79 1527.32C1331.11 1528.63 1339.29 1523.23 1340.16 1518.41V1502.04C1341.48 1502.04 1342.79 1500.87 1343.38 1499.71C1344.11 1498.54 1344.25 1497.08 1343.82 1495.76C1343.38 1494.45 1342.06 1493.57 1340.75 1493.42C1339.43 1493.28 1337.97 1494.01 1337.39 1495.18C1333.74 1496.35 1329.5 1495.76 1325.85 1494.59C1322.34 1493.57 1319.27 1490.79 1316.94 1487.73Z" fill="#FCB682"/>
<path d="M169.555 1675.06C171.193 1676.93 171.427 1679.74 170.257 1681.84C169.088 1683.95 167.216 1685.82 164.994 1685.35C166.28 1688.27 164.994 1692.13 162.304 1693.77C159.613 1695.41 155.52 1696.11 153.648 1693.54C153.414 1696.93 150.841 1700.09 147.566 1700.79C144.291 1701.49 140.08 1701.02 138.56 1697.98C137.858 1700.32 135.753 1702.19 133.296 1702.66C130.957 1703.13 127.331 1703.13 125.811 1701.14C124.758 1704.06 121.717 1706.17 118.676 1705.94C115.635 1705.82 111.658 1703.48 110.839 1700.56C109.786 1703.01 107.33 1704.77 104.757 1705C102.184 1705.35 98.5577 1704.88 97.0371 1702.78C95.7505 1705.7 92.5925 1707.69 89.4344 1707.69C86.2763 1707.69 82.7674 1706.05 81.3638 1703.13C80.5451 1706.29 77.6209 1708.74 74.4628 1708.98C71.3048 1709.09 66.8601 1708.04 65.8074 1705C64.053 1707.81 60.544 1709.44 57.269 1709.09C53.994 1708.74 50.719 1706.87 49.6663 1703.71C47.7948 1706.87 43.3501 1708.16 40.1921 1706.52C38.6715 1705.82 37.3849 1704.42 36.5662 1702.89C35.6304 1701.14 35.3965 1699.15 35.9813 1697.28C33.2911 1698.8 29.5483 1697.98 27.5599 1695.53C25.6884 1693.07 25.1036 1689.21 27.209 1686.87C24.1679 1689.09 19.4893 1688.27 17.3839 1685.12C15.2785 1681.96 16.2142 1677.05 19.4892 1675.06C16.0973 1673.19 13.8749 1669.21 13.8749 1665.23C13.9919 1661.26 16.3312 1657.4 19.8402 1655.76C21.9455 1654.71 24.8697 1653.07 26.7411 1651.78H165.813C170.023 1653.65 173.181 1657.75 173.883 1662.42C174.468 1666.99 172.831 1671.9 169.555 1675.06Z" fill="#EBDCBF"/>
<path d="M145.578 1669.09C147.216 1670.85 147.45 1673.77 146.28 1675.88C145.11 1677.98 143.239 1679.85 140.9 1679.38C142.186 1682.31 141.016 1686.17 138.209 1687.81C135.519 1689.44 131.425 1690.15 129.554 1687.57C129.32 1690.96 126.747 1694.12 123.472 1694.82C120.197 1695.53 115.986 1695.06 114.465 1692.02C113.647 1694.36 111.541 1696.23 109.202 1696.7C106.746 1697.16 103.12 1697.16 101.599 1695.18C100.547 1698.1 97.5055 1700.2 94.4644 1699.97C91.4233 1699.85 87.4465 1697.51 86.6277 1694.59C85.5751 1697.05 83.1188 1698.8 80.5455 1699.04C77.9723 1699.27 74.3464 1698.92 72.8258 1696.81C71.5392 1699.74 68.3812 1701.73 65.3401 1701.73C62.182 1701.73 58.6731 1700.09 57.2695 1697.16C56.4507 1700.32 53.5266 1702.78 50.3686 1703.01C47.2105 1703.25 42.7658 1702.08 41.7131 1699.04C40.5435 1700.91 38.555 1702.31 36.4497 1702.89C35.514 1701.14 35.28 1699.15 35.8649 1697.28C33.1747 1698.8 29.4318 1697.98 27.4434 1695.53C25.5719 1693.07 24.9871 1689.21 27.0925 1686.87C24.0514 1689.09 19.3728 1688.27 17.2674 1685.12C15.162 1681.96 16.0978 1677.05 19.3728 1675.06C15.9808 1673.19 13.7585 1669.21 13.7585 1665.23C13.8754 1661.26 16.2147 1657.4 19.7237 1655.76C21.8291 1654.71 24.7532 1653.07 26.6246 1651.78H148.034C148.853 1653.18 149.438 1654.82 149.672 1656.46C150.374 1661.14 148.853 1665.93 145.578 1669.09Z" fill="#F5ECDA"/>
<path d="M164.877 1666.52C162.304 1668.86 159.38 1670.5 156.105 1671.55C152.947 1672.6 149.555 1672.95 146.163 1672.95C144.876 1672.95 143.706 1672.84 142.42 1672.72C140.665 1672.6 139.028 1672.25 137.39 1671.9C132.595 1670.85 127.916 1669.09 123.355 1667.1C122.302 1666.64 121.249 1666.17 120.08 1665.82C116.804 1664.41 113.413 1663.01 110.021 1661.72C107.213 1660.67 104.406 1659.73 101.482 1659.15C100.312 1658.92 99.1428 1658.68 97.9731 1658.45C96.1017 1658.1 94.3472 1657.98 92.4758 1657.98C86.5106 1658.1 80.5453 1659.73 74.931 1661.84C74.814 1661.84 74.6971 1661.96 74.5801 1661.96C72.9426 1662.54 71.422 1663.24 69.7845 1663.83C62.4157 1666.87 55.2808 1670.26 47.5611 1672.02C46.2745 1672.25 45.1049 1672.48 43.8183 1672.72C42.5317 1672.84 41.1281 1673.07 39.8415 1673.07C32.9405 1673.3 26.0396 1671.67 20.7761 1667.22C20.5422 1666.99 20.3083 1666.87 20.0743 1666.64C19.3725 1665.93 18.7878 1665.35 18.2029 1664.53C11.7698 1656.58 11.5359 1644.41 16.2145 1635.17C21.361 1625.11 30.9521 1617.98 41.1281 1612.95C41.8298 1612.6 42.5317 1612.25 43.2335 1612.01C44.871 1611.19 46.5085 1610.49 48.146 1609.79C56.2166 1606.52 64.6381 1604.18 73.1765 1602.89C74.5801 1602.66 75.8667 1602.54 77.2703 1602.31C82.2998 1601.72 87.4463 1601.49 92.4758 1601.6C94.8151 1601.49 97.0374 1601.6 99.3767 1601.6C100.663 1601.6 101.833 1601.72 103.12 1601.84C109.904 1602.31 116.688 1603.47 123.355 1605.11C124.524 1605.46 125.694 1605.7 126.747 1606.05C132.595 1607.8 138.326 1610.02 143.823 1612.83C144.174 1613.07 144.642 1613.18 144.993 1613.42C146.046 1613.88 147.098 1614.47 148.034 1615.05C153.999 1618.45 159.497 1622.54 163.824 1627.69C164.643 1628.74 165.462 1629.79 166.164 1630.84C167.1 1632.13 167.918 1633.65 168.62 1635.06C173.766 1645.23 173.182 1658.8 164.877 1666.52Z" fill="#FB7840"/>
<path d="M156.105 1671.55C152.947 1672.6 149.555 1672.95 146.163 1672.95C144.876 1672.95 143.706 1672.83 142.42 1672.72C140.665 1672.6 139.028 1672.25 137.39 1671.9C132.595 1670.85 127.916 1669.09 123.355 1667.1C122.302 1666.64 121.249 1666.17 120.08 1665.82C116.804 1664.41 113.413 1663.01 110.021 1661.72C107.213 1660.67 104.406 1659.73 101.482 1659.15C100.312 1658.92 99.1428 1658.68 97.9731 1658.45C96.1017 1658.1 94.3472 1657.98 92.4758 1657.98C86.5105 1658.1 80.5453 1659.73 74.931 1661.84C74.814 1661.84 74.697 1661.96 74.5801 1661.96C72.9426 1662.54 71.422 1663.24 69.7845 1663.83C62.4157 1666.87 55.2808 1670.26 47.5611 1672.02C46.2745 1672.25 45.1049 1672.48 43.8183 1672.72C42.5317 1672.83 41.1281 1673.07 39.8415 1673.07C32.9405 1673.3 26.0396 1671.66 20.7761 1667.22C20.5422 1666.99 20.3083 1666.87 20.0743 1666.64C19.3725 1665.93 18.7878 1665.35 18.2029 1664.53C11.7698 1656.58 11.5359 1644.41 16.2145 1635.17C19.2556 1633.07 22.5306 1631.19 25.9226 1629.44C26.6244 1629.09 27.3262 1628.74 28.028 1628.5C29.6655 1627.69 31.303 1626.98 32.9405 1626.28C41.0111 1623.01 49.4326 1620.67 57.9711 1619.38C59.3746 1619.15 60.7782 1619.03 62.0648 1618.8C67.0943 1618.21 72.2408 1617.98 77.2703 1618.09C79.6096 1617.98 81.8319 1618.09 84.1712 1618.09C85.4578 1618.09 86.7444 1618.21 87.9141 1618.33C94.6981 1618.8 101.482 1619.97 108.149 1621.6C109.319 1621.95 110.371 1622.19 111.541 1622.54C117.389 1624.29 123.121 1626.52 128.618 1629.32C128.969 1629.56 129.437 1629.67 129.788 1629.91C130.84 1630.38 131.893 1630.96 132.829 1631.55C138.794 1634.94 144.291 1639.03 148.619 1644.18C149.438 1645.23 150.257 1646.28 150.958 1647.34C151.894 1648.62 152.713 1650.14 153.415 1651.55C156.573 1657.63 157.508 1665 156.105 1671.55Z" fill="#F2994A"/>
<path d="M166.164 1630.84C159.497 1644.88 152.83 1658.92 146.163 1672.95C144.876 1672.95 143.707 1672.84 142.42 1672.72C149.555 1657.75 156.69 1642.66 163.825 1627.69C164.643 1628.74 165.462 1629.79 166.164 1630.84Z" fill="#D96230"/>
<path d="M148.034 1615.05C139.73 1632.37 131.542 1649.79 123.238 1667.1C122.185 1666.64 121.132 1666.17 119.963 1665.82C128.267 1648.39 136.572 1630.84 144.876 1613.42C146.046 1614 146.981 1614.47 148.034 1615.05Z" fill="#D96230"/>
<path d="M126.747 1606.05C118.325 1623.71 109.904 1641.49 101.482 1659.15C100.313 1658.92 99.143 1658.68 97.9733 1658.45C106.395 1640.67 114.816 1622.89 123.355 1605.11C124.407 1605.46 125.577 1605.7 126.747 1606.05Z" fill="#D96230"/>
<path d="M103.12 1601.84C93.6455 1621.84 84.0544 1641.96 74.5802 1661.96C72.9427 1662.54 71.4221 1663.24 69.7846 1663.83C79.6097 1643.13 89.5518 1622.31 99.3768 1601.6C100.546 1601.6 101.833 1601.72 103.12 1601.84Z" fill="#D96230"/>
<path d="M77.2702 1602.19C66.1585 1625.7 54.9299 1649.09 43.8182 1672.6C42.5316 1672.84 41.128 1672.95 39.7244 1672.95C50.8361 1649.56 61.9478 1626.17 73.0594 1602.77C74.463 1602.54 75.8666 1602.31 77.2702 1602.19Z" fill="#D96230"/>
<path d="M48.029 1609.67C38.9057 1628.86 29.7824 1647.92 20.7761 1667.1C20.5422 1666.87 20.3083 1666.75 20.0743 1666.52C19.3725 1665.94 18.7877 1665.23 18.2029 1664.41C26.5074 1646.87 34.9289 1629.32 43.2334 1611.78C44.754 1611.08 46.3915 1610.38 48.029 1609.67Z" fill="#D96230"/>
<path d="M83.5153 1644.03L94.2761 1655.85C94.2761 1655.85 80.3572 1673.16 79.0706 1669.77C77.784 1666.26 85.7376 1658.42 85.7376 1658.42L76.8482 1648.71L83.5153 1644.03Z" fill="#FCB682"/>
<path d="M92.4049 1653.86L94.2763 1655.85C94.2763 1655.85 80.3575 1673.16 79.0709 1669.77C77.7843 1666.26 85.7379 1658.42 85.7379 1658.42L85.27 1657.84C85.387 1657.72 85.6209 1657.72 85.7379 1657.6C87.8432 1656.32 90.1825 1655.03 92.4049 1653.86Z" fill="#E83C3C"/>
<path d="M106.908 1644.03L96.1472 1655.85C96.1472 1655.85 110.066 1673.16 111.353 1669.77C112.639 1666.26 104.686 1658.42 104.686 1658.42L113.575 1648.71L106.908 1644.03Z" fill="#FCB682"/>
<path d="M98.019 1653.86L96.1475 1655.85C96.1475 1655.85 110.066 1673.16 111.353 1669.77C112.64 1666.26 104.686 1658.42 104.686 1658.42L105.154 1657.84C105.037 1657.72 104.803 1657.72 104.686 1657.6C102.464 1656.31 100.241 1655.03 98.019 1653.86Z" fill="#E83C3C"/>
<path d="M95.329 1590V1606.14C95.329 1606.14 77.3163 1606.72 74.8601 1608.36C74.8601 1608.36 64.4502 1618.42 90.0655 1646.37L77.7842 1655.96C77.7842 1655.96 43.1625 1624.03 47.2563 1606.84C51.8179 1587.54 72.5208 1589.88 72.5208 1589.88L95.329 1590Z" fill="#4E3E49"/>
<path d="M94.9778 1590V1606.14C94.9778 1606.14 112.99 1606.72 115.447 1608.36C115.447 1608.36 125.857 1618.42 100.241 1646.37L112.523 1655.96C112.523 1655.96 147.144 1624.03 143.05 1606.84C138.489 1587.54 117.786 1589.88 117.786 1589.88L94.9778 1590Z" fill="#4E3E49"/>
<path d="M101.568 1512.21C103.601 1511.95 105.635 1511.68 107.593 1511.09C109.551 1510.5 111.359 1509.45 112.489 1507.93C113.619 1506.42 113.92 1504.37 112.941 1502.79C112.338 1501.87 111.359 1501.08 111.058 1500.09C110.606 1498.84 111.359 1497.46 111.284 1496.14C111.208 1494.96 110.531 1493.77 109.476 1493.05C108.346 1492.32 106.765 1492.06 105.409 1492.32C104.43 1490.74 103.451 1489.16 102.17 1487.85C100.815 1486.53 99.0824 1485.41 97.0488 1485.08C95.2412 1484.82 93.2829 1485.21 91.7766 1486.2C90.3456 1487.19 89.0651 1488.64 88.9145 1490.28C88.0107 1490.28 87.1069 1490.35 86.2031 1490.55C85.2993 1490.74 84.4708 1491.07 83.8683 1491.73C83.0398 1492.52 82.8138 1493.71 82.8891 1494.76C82.9644 1495.81 83.4164 1496.87 83.8683 1497.86C83.2657 1498.51 83.0398 1499.24 82.4372 1499.96C81.6087 1500.95 80.7802 1502 80.4037 1503.19C79.9518 1504.9 80.7049 1506.75 82.0606 1508.06C83.4164 1509.38 85.2993 1510.17 87.1822 1510.7C86.9563 1510.56 87.2575 1510.7 87.0316 1510.56C87.1069 1510.56 87.2575 1510.56 87.3329 1510.56H99.9862C99.9862 1510.89 99.9108 1511.29 99.9108 1511.62C100.589 1511.82 101.041 1511.95 101.568 1512.21Z" fill="#4E3E49"/>
<path d="M117.318 1536.89C117.318 1536.89 106.441 1526.95 95.2121 1529.29C83.9834 1526.95 73.1057 1536.89 73.1057 1536.89L78.2521 1549.53L73.1057 1589.65C82.6968 1597.83 107.727 1597.83 117.318 1589.65L112.172 1549.53L117.318 1536.89Z" fill="#F2994A"/>
<path d="M84.9193 1552.57C84.9193 1558.18 89.5979 1562.74 95.2122 1562.74C100.827 1562.74 105.505 1558.18 105.505 1552.57H84.9193Z" fill="white"/>
<path d="M107.727 1502.27C107.727 1502.27 106.908 1519.58 96.4986 1519.7C87.3753 1519.7 85.7378 1509.87 85.2699 1503.68C85.2699 1503.68 87.2583 1500.05 91.4691 1502.27C91.4691 1502.27 92.6387 1497.01 95.095 1496.77C97.5513 1496.54 104.686 1502.74 107.727 1502.27Z" fill="#FCB682"/>
<path d="M99.794 1516.86V1529.77C99.794 1529.77 105.521 1533.26 105.203 1536.05C104.885 1538.84 83.8845 1538.49 84.8391 1535C85.7936 1531.52 92.6347 1529.07 92.6347 1529.07L92.7938 1516.75H99.794V1516.86Z" fill="#FCB682"/>
<path d="M92.7555 1541.92C93.8082 1540.17 95.7966 1539.12 96.7323 1537.36C97.5511 1536.08 97.6681 1534.44 97.4341 1532.8C97.2002 1531.28 96.6154 1529.88 96.0306 1528.36C97.4342 1529.64 98.4868 1531.51 98.8377 1533.39C99.1886 1535.37 98.8377 1537.36 97.902 1539.12C97.0832 1540.64 95.7966 1541.81 95.3288 1543.44C94.627 1545.67 95.7966 1548.36 97.902 1549.29C96.0306 1549.53 94.0422 1548.71 92.9895 1547.19C91.9368 1545.67 91.8198 1543.56 92.7555 1541.92Z" fill="#E0CCB1"/>
<path d="M89.7147 1567.07C87.2585 1569.76 81.1763 1572.92 74.8602 1575.02C66.9066 1577.71 58.836 1578.53 57.5493 1574.67C52.5198 1559.94 72.9888 1536.89 72.9888 1536.89L78.2522 1549.53C78.2522 1549.53 68.0762 1563.91 69.7137 1566.72C70.2986 1567.77 72.9888 1567.42 76.0299 1566.6C81.0594 1565.32 87.1415 1562.63 87.1415 1562.63L89.7147 1567.07Z" fill="#FCB682"/>
<path d="M86.0887 1564.26C86.0887 1564.26 85.9718 1557.48 87.1414 1557.48C88.3111 1557.48 88.3111 1561.69 88.3111 1561.69C88.3111 1561.69 91.2352 1556.78 92.0539 1557.48C92.8727 1558.18 90.7673 1562.39 90.7673 1562.39C90.7673 1562.39 94.0423 1558.88 94.6272 1559.58C95.212 1560.29 92.1709 1564.15 92.1709 1564.15C92.1709 1564.15 94.6272 1563.33 95.212 1564.15C95.7968 1564.97 92.4048 1566.25 92.4048 1566.25C92.4048 1566.25 94.3932 1566.6 94.5102 1567.42C94.6272 1568.24 88.7789 1568.01 88.7789 1568.01L86.0887 1564.26Z" fill="#FCB682"/>
<path d="M132.758 1574.67C131.471 1578.53 123.284 1577.6 115.447 1575.02C109.131 1572.92 103.049 1569.76 100.592 1567.07L103.166 1562.63C103.166 1562.63 109.248 1565.32 114.277 1566.6C117.318 1567.42 120.009 1567.77 120.594 1566.72C122.231 1564.03 112.055 1549.53 112.055 1549.53L117.201 1536.89C117.318 1536.89 137.787 1559.94 132.758 1574.67Z" fill="#FCB682"/>
<path d="M104.219 1564.26C104.219 1564.26 104.336 1557.48 103.166 1557.48C101.996 1557.48 101.996 1561.69 101.996 1561.69C101.996 1561.69 99.0721 1556.78 98.2533 1557.48C97.4346 1558.18 99.54 1562.39 99.54 1562.39C99.54 1562.39 96.2649 1558.88 95.6801 1559.58C95.0953 1560.29 98.1364 1564.15 98.1364 1564.15C98.1364 1564.15 95.6801 1563.33 95.0953 1564.15C94.5105 1564.97 97.9024 1566.25 97.9024 1566.25C97.9024 1566.25 95.914 1566.6 95.7971 1567.42C95.6801 1568.24 101.528 1568.01 101.528 1568.01L104.219 1564.26Z" fill="#FCB682"/>
<g opacity="0.9">
<path d="M1257.58 950.935C1260.77 946.943 1262.64 941.986 1265.11 937.424C1267.59 932.959 1271.21 928.576 1276.27 927.374C1281.71 925.996 1287.58 928.915 1291 933.337C1294.42 937.759 1295.86 943.489 1296.24 949.021C1297.41 963.262 1292.96 977.9 1284.05 989.035C1275.15 1000.27 1261.97 1007.86 1247.81 1009.94C1242.57 1010.77 1236.63 1010.61 1232.75 1007C1229.13 1003.63 1228.27 998.197 1228.51 993.256C1229.1 981.726 1234.54 970.562 1243.25 963.035C1248.04 958.93 1253.64 955.788 1257.58 950.935Z" fill="#C6CF5D"/>
<path d="M1275.52 945.258C1271.28 973.918 1250.51 997.278 1222.42 1004.75C1221.17 1005.1 1221.55 1007.06 1222.81 1006.71C1251.76 998.968 1273.14 975.08 1277.48 945.381C1277.74 944.107 1275.78 943.983 1275.52 945.258Z" fill="#696E2B"/>
<path d="M1250.3 931.578C1250.1 925.4 1251.94 919.227 1255.54 914.236C1259.03 909.166 1264.17 905.297 1270 903.332C1272.28 910.222 1271.55 918.418 1268.12 924.802C1264.59 931.205 1258.42 936.091 1251.36 937.994C1251.09 935.6 1250.37 934.01 1250.3 931.578Z" fill="#696E2B"/>
<path d="M1263.92 911.258C1257.01 920.673 1251.73 931.092 1248.11 942.201C1247.73 943.397 1249.59 944.049 1249.97 942.854C1253.51 931.861 1258.74 921.658 1265.57 912.361C1266.37 911.285 1264.63 910.201 1263.92 911.258Z" fill="#ABB344"/>
</g>
<g opacity="0.9">
<path d="M165.273 1209.81L164.619 1216.6L161.68 1249.67C156.759 1263.34 97.4504 1282.1 86.1877 1273.23L64.8843 1247.72L60.5635 1242.49L165.273 1209.81Z" fill="#EBDCBF"/>
<path d="M165.273 1209.81L164.619 1216.6C157.647 1226.75 140.327 1237.61 118.611 1244.39C96.8161 1251.19 76.3906 1252.11 64.909 1247.8L60.5882 1242.57L165.298 1209.89L165.273 1209.81Z" fill="#E0CCB1"/>
<path d="M160.117 1194.96C149.342 1189.31 127.407 1189.82 103.796 1197.19C80.2635 1204.54 61.9259 1216.59 56.1973 1227.39L52.17 1228.64L54.7329 1236.85C58.5525 1249.09 86.6899 1251.23 117.566 1241.6C148.442 1231.96 170.369 1214.2 166.55 1201.96L163.987 1193.75L160.117 1194.96Z" fill="#EBDCBF"/>
<path d="M164.12 1193.62C164.564 1195.04 164.667 1196.48 164.454 1198.02C162.761 1209.81 142.459 1224.73 115.136 1233.26C87.8139 1241.78 62.6318 1241.06 54.5323 1232.32C53.4817 1231.18 52.7469 1229.94 52.3033 1228.51C48.4836 1216.27 70.411 1198.51 101.287 1188.88C132.163 1179.24 160.3 1181.38 164.12 1193.62Z" fill="#E0CCB1"/>
<path d="M164.478 1198.1C162.786 1209.89 142.483 1224.81 115.161 1233.34C87.8385 1241.86 62.6565 1241.14 54.557 1232.4C56.1703 1220.63 76.552 1205.69 103.874 1197.17C131.197 1188.64 156.354 1189.28 164.478 1198.1Z" fill="#ABB344"/>
<path d="M136.402 1192.82C128.969 1182.06 118.136 1174 105.706 1169.99C105.213 1169.8 105.04 1170.63 105.533 1170.83C117.78 1174.8 128.406 1182.75 135.765 1193.28C135.992 1193.73 136.708 1193.25 136.402 1192.82Z" fill="#696E2B"/>
<path d="M133.092 1175.83C135.089 1179.45 134.446 1184.34 131.563 1187.31C130.044 1184.67 128.974 1181.8 128.64 1178.78C128.502 1177.78 128.498 1176.66 128.883 1175.67C129.293 1174.76 130.354 1174 131.371 1174.2C132.047 1174.43 132.609 1175.12 133.092 1175.83Z" fill="#696E2B"/>
<path d="M126.724 1169.59C128.721 1173.21 128.077 1178.09 125.194 1181.07C123.675 1178.42 122.685 1175.53 122.271 1172.54C122.134 1171.54 122.129 1170.41 122.514 1169.43C122.924 1168.52 123.986 1167.76 125.002 1167.96C125.757 1168.16 126.344 1168.93 126.724 1169.59Z" fill="#696E2B"/>
<path d="M119.807 1164.64C121.804 1168.26 121.161 1173.14 118.278 1176.12C116.759 1173.48 115.689 1170.6 115.355 1167.59C115.217 1166.59 115.213 1165.47 115.598 1164.48C116.008 1163.57 117.069 1162.81 118.086 1163.01C118.841 1163.21 119.403 1163.9 119.807 1164.64Z" fill="#696E2B"/>
<path d="M111.908 1160.43C113.905 1164.05 113.262 1168.94 110.379 1171.91C108.86 1169.27 107.869 1166.37 107.456 1163.38C107.318 1162.38 107.313 1161.26 107.699 1160.27C108.109 1159.36 109.17 1158.6 110.186 1158.8C110.941 1159 111.504 1159.69 111.908 1160.43Z" fill="#696E2B"/>
<path d="M98.4597 1163.16C102.244 1165.01 105.515 1167.71 107.961 1171.11C104.403 1172.48 100.292 1172.64 96.6503 1171.52C94.726 1170.91 92.861 1169.93 91.8994 1168.24C90.8588 1166.57 91.0374 1164.09 92.6565 1162.89C94.3299 1161.58 96.6194 1162.26 98.4597 1163.16Z" fill="#696E2B"/>
<path d="M107.761 1178.8C109.572 1177.11 110.871 1174.88 111.415 1172.46C108.71 1172.96 106.075 1173.95 103.745 1175.37C102.713 1175.95 101.677 1176.8 101.627 1178.03C101.523 1179.36 102.889 1180.4 104.197 1180.43C105.584 1180.43 106.749 1179.72 107.761 1178.8Z" fill="#696E2B"/>
<path d="M114.875 1182.99C116.687 1181.3 117.985 1179.07 118.529 1176.65C115.825 1177.15 113.189 1178.14 110.859 1179.56C109.828 1180.15 108.791 1180.99 108.741 1182.22C108.637 1183.55 110.004 1184.6 111.311 1184.62C112.619 1184.65 113.863 1183.91 114.875 1182.99Z" fill="#696E2B"/>
<path d="M121.131 1186.93C122.942 1185.24 124.241 1183.01 124.785 1180.59C122.08 1181.09 119.445 1182.08 117.115 1183.5C116.083 1184.09 115.047 1184.93 114.997 1186.16C114.893 1187.49 116.259 1188.54 117.567 1188.56C118.954 1188.56 120.198 1187.83 121.131 1186.93Z" fill="#696E2B"/>
<path d="M126.552 1192.08C128.364 1190.39 129.663 1188.17 130.206 1185.74C127.502 1186.24 124.866 1187.24 122.536 1188.66C121.505 1189.24 120.468 1190.08 120.418 1191.31C120.314 1192.64 121.681 1193.69 122.989 1193.72C124.296 1193.74 125.515 1192.93 126.552 1192.08Z" fill="#696E2B"/>
<path d="M132.008 1195.41C128.318 1192.75 125.142 1189.23 123.732 1184.99C122.298 1180.67 122.946 1175.53 126.096 1172.3C129.221 1168.98 134.886 1168.25 138.334 1171.25C140.063 1168.46 141.826 1165.22 144.506 1163.26C147.187 1161.29 150.997 1160.45 153.868 1162.16C155.965 1163.32 157.202 1165.62 157.68 1167.99C158.079 1170.37 157.797 1172.8 157.228 1175.15C160.14 1174.76 162.996 1177.25 163.725 1180.14C164.43 1182.95 163.402 1186.04 161.477 1188.2C159.576 1190.44 157.01 1191.94 154.32 1193.04C147.276 1196.02 138.175 1199.9 132.008 1195.41Z" fill="#ABB344"/>
<path d="M159.905 1181.5C154.047 1184.11 148.292 1186.77 142.433 1189.38C145.688 1182.04 148.968 1174.78 152.222 1167.44C152.415 1166.94 151.69 1166.56 151.497 1167.06C148.242 1174.4 144.987 1181.74 141.629 1189.03C139.326 1183.59 136.496 1178.41 133.004 1173.61C132.698 1173.18 131.982 1173.67 132.288 1174.09C135.829 1179.05 138.788 1184.37 141.086 1190.06C140.819 1190.32 140.967 1190.79 141.307 1190.77C141.515 1190.88 141.751 1190.81 141.86 1190.6L160.073 1182.32C160.601 1182.07 160.355 1181.28 159.905 1181.5Z" fill="#696E2B"/>
<path d="M164.383 1196.73C164.547 1191.11 160.126 1186.43 154.509 1186.26C148.892 1186.1 144.206 1190.52 144.042 1196.14C143.878 1201.75 148.299 1206.44 153.916 1206.6C159.533 1206.77 164.219 1202.35 164.383 1196.73Z" fill="#BD537B"/>
<path d="M156.793 1204.57C152.292 1205.98 147.525 1203.48 146.121 1198.98C144.716 1194.48 147.215 1189.71 151.716 1188.3C156.217 1186.9 160.983 1189.4 162.388 1193.9C163.714 1198.43 161.215 1203.19 156.793 1204.57ZM151.913 1188.94C147.728 1190.24 145.471 1194.67 146.753 1198.78C148.059 1202.96 152.489 1205.22 156.595 1203.94C160.781 1202.63 163.038 1198.2 161.756 1194.1C160.475 1189.99 156.02 1187.65 151.913 1188.94Z" fill="#DB749B"/>
<path d="M156.177 1202.6C152.781 1203.66 149.155 1201.76 148.095 1198.36C147.035 1194.96 148.937 1191.34 152.332 1190.28C155.728 1189.22 159.354 1191.12 160.414 1194.52C161.474 1197.91 159.572 1201.54 156.177 1202.6ZM152.505 1190.83C149.425 1191.79 147.687 1195.11 148.648 1198.19C149.609 1201.27 152.924 1203.01 156.004 1202.04C159.084 1201.08 160.822 1197.77 159.861 1194.69C158.821 1191.63 155.585 1189.87 152.505 1190.83Z" fill="#DB749B"/>
<path d="M155.585 1200.7C153.216 1201.44 150.729 1200.14 149.99 1197.77C149.251 1195.4 150.555 1192.91 152.924 1192.17C155.293 1191.43 157.779 1192.74 158.519 1195.11C159.179 1197.5 157.875 1199.99 155.585 1200.7ZM153.121 1192.81C151.068 1193.45 149.927 1195.62 150.568 1197.68C151.208 1199.73 153.384 1200.87 155.437 1200.23C157.49 1199.59 158.631 1197.41 157.99 1195.36C157.246 1193.25 155.095 1192.19 153.121 1192.81Z" fill="#DB749B"/>
<path d="M154.994 1198.81C153.73 1199.2 152.383 1198.5 151.989 1197.23C151.595 1195.97 152.301 1194.62 153.564 1194.23C154.828 1193.83 156.175 1194.54 156.569 1195.8C156.939 1196.99 156.257 1198.41 154.994 1198.81ZM153.712 1194.7C152.765 1195 152.221 1196.03 152.517 1196.98C152.813 1197.93 153.849 1198.47 154.797 1198.18C155.744 1197.88 156.287 1196.84 155.992 1195.9C155.696 1194.95 154.66 1194.41 153.712 1194.7Z" fill="#DB749B"/>
<path d="M158.355 1209.02C155.445 1217.47 146.255 1221.9 137.807 1218.99C133.233 1217.38 129.845 1214.02 128.119 1209.88C126.67 1206.35 126.459 1202.34 127.763 1198.47C130.673 1190.02 139.864 1185.59 148.311 1188.5C151.118 1189.44 153.467 1191.14 155.257 1193.27C158.996 1197.47 160.321 1203.38 158.355 1209.02Z" fill="#BC2A57"/>
<path d="M155.589 1204.6C152.679 1213.05 143.488 1217.48 135.041 1214.57C132.234 1213.62 129.885 1211.93 128.095 1209.8C126.645 1206.27 126.435 1202.26 127.739 1198.39C130.649 1189.94 139.839 1185.51 148.287 1188.42C151.094 1189.37 153.442 1191.06 155.233 1193.19C156.761 1196.7 156.997 1200.78 155.589 1204.6Z" fill="#E83C3C"/>
<path d="M148.812 1207.32C147.643 1206.91 146.384 1207.04 145.274 1207.65C144.163 1208.25 142.905 1208.39 141.656 1208C140.383 1207.53 139.485 1206.59 138.958 1205.46C138.509 1204.3 137.557 1203.47 136.388 1203.05C132.88 1201.81 129.542 1205.28 130.888 1208.76C132.288 1212.13 135.061 1214.91 138.751 1216.18C142.442 1217.46 146.375 1217.01 149.524 1215.16C152.777 1213.36 152.32 1208.57 148.812 1207.32Z" fill="#FF484B"/>
<path d="M137.331 1200.25C138.501 1200.66 139.759 1200.53 140.87 1199.92C141.98 1199.32 143.239 1199.18 144.487 1199.57C145.76 1200.04 146.658 1200.98 147.186 1202.11C147.634 1203.27 148.586 1204.1 149.756 1204.51C153.264 1205.76 156.601 1202.29 155.255 1198.81C153.855 1195.44 151.083 1192.66 147.392 1191.39C143.701 1190.11 139.768 1190.56 136.619 1192.41C133.366 1194.2 133.848 1199.08 137.331 1200.25Z" fill="#FF484B"/>
<path d="M140.647 1212.82C140.509 1213.21 140.114 1213.33 139.828 1213.25C139.438 1213.11 139.315 1212.71 139.399 1212.43C139.537 1212.04 140.046 1211.44 140.411 1211.5C140.776 1211.56 140.785 1212.43 140.647 1212.82Z" fill="#53360A"/>
<path d="M137.504 1210.24C137.445 1210.61 137.178 1210.87 136.838 1210.89C136.473 1210.83 136.216 1210.56 136.197 1210.22C136.256 1209.85 136.533 1209.07 136.952 1209.03C137.293 1209.01 137.485 1209.9 137.504 1210.24Z" fill="#53360A"/>
<path d="M134.392 1207.49C134.332 1207.85 134.066 1208.11 133.725 1208.13C133.36 1208.07 133.104 1207.8 133.084 1207.46C133.144 1207.1 133.42 1206.32 133.84 1206.28C134.205 1206.33 134.451 1207.12 134.392 1207.49Z" fill="#53360A"/>
<path d="M143.534 1212.35C143.371 1212.66 143.415 1213.08 143.726 1213.24C144.037 1213.4 144.456 1213.36 144.619 1213.05C144.782 1212.74 145.034 1211.88 144.723 1211.72C144.388 1211.48 143.697 1212.04 143.534 1212.35Z" fill="#53360A"/>
<path d="M147.595 1212.03C147.432 1212.35 147.476 1212.76 147.787 1212.93C148.098 1213.09 148.518 1213.05 148.681 1212.74C148.844 1212.42 149.096 1211.57 148.785 1211.4C148.474 1211.24 147.783 1211.8 147.595 1212.03Z" fill="#53360A"/>
<path d="M146.769 1195.22C146.907 1194.83 146.705 1194.46 146.34 1194.4C145.95 1194.26 145.58 1194.47 145.52 1194.83C145.382 1195.22 145.391 1196.08 145.757 1196.14C146.122 1196.2 146.606 1195.53 146.769 1195.22Z" fill="#53360A"/>
<path d="M142.634 1195.3C142.796 1194.99 142.752 1194.57 142.441 1194.41C142.131 1194.24 141.711 1194.29 141.548 1194.6C141.385 1194.91 141.133 1195.77 141.444 1195.93C141.755 1196.09 142.446 1195.53 142.634 1195.3Z" fill="#53360A"/>
<path d="M138.626 1195.51C138.789 1195.2 138.745 1194.78 138.434 1194.62C138.123 1194.45 137.704 1194.5 137.541 1194.81C137.378 1195.12 137.126 1195.98 137.436 1196.14C137.668 1196.33 138.359 1195.77 138.626 1195.51Z" fill="#53360A"/>
<path d="M148.717 1197.3C148.777 1196.93 149.043 1196.68 149.384 1196.66C149.749 1196.72 150.005 1196.98 150.025 1197.32C149.966 1197.69 149.689 1198.47 149.27 1198.51C148.929 1198.53 148.683 1197.74 148.717 1197.3Z" fill="#53360A"/>
<path d="M151.751 1200.08C151.811 1199.71 152.077 1199.46 152.418 1199.44C152.783 1199.5 153.039 1199.76 153.059 1200.1C153 1200.47 152.723 1201.25 152.303 1201.29C151.938 1201.23 151.692 1200.44 151.751 1200.08Z" fill="#53360A"/>
<path d="M148.844 1225.39C154.187 1219.69 153.898 1210.73 148.199 1205.39C142.499 1200.05 133.547 1200.34 128.204 1206.04C122.861 1211.74 123.15 1220.69 128.85 1226.03C134.549 1231.37 143.501 1231.09 148.844 1225.39Z" fill="#BD537B"/>
<path d="M142.024 1226.95C135.865 1228.87 129.234 1225.39 127.312 1219.23C125.389 1213.07 128.866 1206.44 135.026 1204.52C141.185 1202.6 147.816 1206.07 149.738 1212.23C151.66 1218.39 148.184 1225.02 142.024 1226.95ZM135.272 1205.31C129.507 1207.11 126.302 1213.22 128.101 1218.98C129.9 1224.75 136.013 1227.95 141.778 1226.16C147.542 1224.36 150.747 1218.24 148.948 1212.48C147.149 1206.71 140.958 1203.53 135.272 1205.31Z" fill="#DB749B"/>
<path d="M141.186 1224.26C136.448 1225.74 131.45 1223.05 129.996 1218.39C128.542 1213.73 131.204 1208.66 135.863 1207.2C140.522 1205.75 145.599 1208.41 147.053 1213.07C148.507 1217.73 145.845 1222.81 141.186 1224.26ZM136.085 1207.91C131.821 1209.25 129.431 1213.8 130.761 1218.07C132.092 1222.33 136.651 1224.72 140.915 1223.39C145.179 1222.06 147.57 1217.5 146.239 1213.24C144.908 1208.97 140.349 1206.58 136.085 1207.91Z" fill="#DB749B"/>
<path d="M140.348 1221.58C137.111 1222.59 133.613 1220.82 132.578 1217.5C131.543 1214.18 133.335 1210.77 136.652 1209.73C139.889 1208.72 143.388 1210.49 144.423 1213.8C145.458 1217.12 143.586 1220.57 140.348 1221.58ZM136.923 1210.6C134.08 1211.49 132.505 1214.49 133.392 1217.33C134.279 1220.18 137.284 1221.75 140.127 1220.86C142.969 1219.98 144.545 1216.97 143.658 1214.13C142.691 1211.31 139.687 1209.74 136.923 1210.6Z" fill="#DB749B"/>
<path d="M139.51 1218.89C137.773 1219.43 135.829 1218.48 135.262 1216.66C134.696 1214.85 135.673 1212.98 137.49 1212.42C139.227 1211.87 141.171 1212.83 141.738 1214.64C142.304 1216.46 141.248 1218.35 139.51 1218.89ZM137.761 1213.28C136.418 1213.7 135.658 1215.15 136.077 1216.5C136.496 1217.84 137.946 1218.6 139.289 1218.18C140.631 1217.76 141.391 1216.31 140.973 1214.97C140.475 1213.65 139.103 1212.87 137.761 1213.28Z" fill="#DB749B"/>
<path d="M79.6144 1236.89C89.2526 1233.88 94.6277 1223.63 91.6199 1213.99C88.6121 1204.35 78.3604 1198.98 68.7222 1201.99C59.0839 1204.99 53.7089 1215.25 56.7167 1224.88C59.7245 1234.52 69.9761 1239.9 79.6144 1236.89Z" fill="#BD537B"/>
<path d="M78.7027 1233.97C70.7271 1236.46 62.1521 1232.03 59.6385 1223.97C57.1496 1216 61.5795 1207.42 69.6341 1204.91C77.6887 1202.39 86.1846 1206.85 88.6982 1214.9C91.1872 1222.88 86.7573 1231.45 78.7027 1233.97ZM69.9544 1205.93C62.5316 1208.25 58.3487 1216.23 60.6651 1223.65C62.9815 1231.07 70.9595 1235.26 78.3823 1232.94C85.8052 1230.62 89.9881 1222.65 87.6717 1215.22C85.3552 1207.8 77.3773 1203.62 69.9544 1205.93Z" fill="#DB749B"/>
<path d="M77.6182 1230.49C71.5378 1232.39 65.0104 1228.97 63.1129 1222.89C61.2153 1216.81 64.6377 1210.28 70.7182 1208.38C76.7986 1206.48 83.326 1209.91 85.2235 1215.99C87.121 1222.07 83.6986 1228.6 77.6182 1230.49ZM71.0385 1209.41C65.5109 1211.13 62.4144 1217.04 64.1394 1222.57C65.8644 1228.09 71.7702 1231.19 77.2978 1229.47C82.8255 1227.74 85.9219 1221.84 84.1969 1216.31C82.4719 1210.78 76.5662 1207.68 71.0385 1209.41Z" fill="#DB749B"/>
<path d="M76.5341 1227.02C72.3489 1228.32 67.8937 1225.99 66.5876 1221.8C65.2815 1217.62 67.6174 1213.16 71.8027 1211.86C75.9879 1210.55 80.4431 1212.89 81.7492 1217.07C83.1342 1221.23 80.7193 1225.71 76.5341 1227.02ZM72.0984 1212.8C68.4659 1213.94 66.4559 1217.77 67.5895 1221.4C68.7231 1225.04 72.5566 1227.05 76.1891 1225.91C79.8216 1224.78 81.8315 1220.95 80.698 1217.31C79.668 1213.73 75.7308 1211.67 72.0984 1212.8Z" fill="#DB749B"/>
<path d="M75.4744 1223.62C73.1844 1224.34 70.6978 1223.03 69.9831 1220.74C69.2685 1218.45 70.5723 1215.97 72.8623 1215.25C75.1523 1214.54 77.639 1215.84 78.3536 1218.13C79.0682 1220.42 77.7645 1222.91 75.4744 1223.62ZM73.1827 1216.28C71.4454 1216.82 70.4676 1218.69 71.0097 1220.42C71.5519 1222.16 73.4168 1223.14 75.1541 1222.6C76.8914 1222.05 77.8692 1220.19 77.327 1218.45C76.7849 1216.71 74.9199 1215.74 73.1827 1216.28Z" fill="#DB749B"/>
<path d="M115.671 1216.36C115.386 1213.51 115.155 1210.55 116.044 1207.84C116.934 1205.14 119.284 1202.67 122.24 1202.7C124.046 1202.66 125.753 1203.69 126.932 1204.96C128.135 1206.32 128.835 1208.01 129.299 1209.77C130.595 1214.48 130.025 1219.6 127.847 1224C125.644 1228.33 121.809 1231.87 117.327 1233.61C116.757 1227.9 116.266 1222.16 115.671 1216.36Z" fill="#C6CF5D"/>
<path d="M93.9608 1209.27C99.6195 1200.75 102.644 1190.45 102.317 1180.24C102.195 1177.07 101.787 1173.82 100.139 1171.04C98.5713 1168.23 95.5767 1166.14 92.4085 1166.26C90.0003 1166.32 87.7494 1167.71 86.2732 1169.65C84.7969 1171.58 83.9865 1174.26 83.6007 1176.63C82.452 1173.78 79.64 1171.72 76.5558 1171.55C73.5506 1171.36 70.4311 1173.03 68.9397 1175.75C67.0681 1179.19 67.8757 1183.45 68.7181 1187.26C66.7848 1184.39 62.1067 1184.12 59.2437 1186.05C56.3808 1187.99 54.9779 1191.54 54.8581 1195.05C54.8217 1199.65 56.8284 1204.14 60.0347 1207.47C63.241 1210.8 67.489 1213.03 71.9151 1214.16C79.0994 1216.08 86.9115 1215.29 93.6439 1212.15C93.743 1211.08 93.9407 1210.32 93.9608 1209.27Z" fill="#ABB344"/>
<path d="M90.3162 1178.44C92.5923 1187.95 93.0572 1197.77 91.5878 1207.5C89.2131 1197.67 84.4694 1188.58 77.6821 1180.99C77.2973 1180.59 76.7888 1181.18 77.0946 1181.61C84.0101 1189.33 88.7488 1198.68 90.9359 1208.75C85.2642 1200.29 76.379 1194.31 66.3423 1192.42C65.7946 1192.33 65.6215 1193.16 66.1693 1193.25C76.3885 1195.17 85.4266 1201.37 90.9353 1210.13C91.0636 1210.27 91.1672 1210.32 91.3498 1210.35C91.3744 1210.43 91.3744 1210.43 91.3991 1210.51C91.468 1211.01 92.2576 1210.76 92.1887 1210.26C92.1394 1210.1 92.0655 1209.87 92.0952 1209.68C93.9449 1199.23 93.653 1188.57 91.1305 1178.27C91.0369 1177.69 90.2473 1177.94 90.3162 1178.44Z" fill="#696E2B"/>
<path d="M100.985 1204.57C98.4194 1203.29 96.2341 1201.29 94.9224 1198.75C93.6108 1196.21 93.2517 1193.12 94.2447 1190.47C95.2376 1187.82 97.5825 1185.61 100.445 1185.07C103.228 1184.54 106.396 1185.81 107.787 1188.32C108.148 1185.87 109.086 1183.32 110.898 1181.63C112.735 1180.02 115.548 1179.31 117.723 1180.45C119.381 1181.32 120.446 1183.07 120.697 1184.99C120.924 1186.82 120.573 1188.75 119.728 1190.49C122.576 1189.34 126.03 1190.69 127.549 1193.33C129.067 1195.98 128.765 1199.45 127.274 1202.17C125.782 1204.89 123.26 1206.8 120.486 1208.19C117.687 1209.5 114.716 1210.25 111.745 1211C108.282 1208.79 104.715 1206.53 100.985 1204.57Z" fill="#B39944"/>
<path d="M125.099 1196.87C119.167 1197.86 113.783 1200.32 109.133 1204.02C110.813 1198.3 112.572 1192.55 114.252 1186.82C114.444 1186.33 113.611 1186.16 113.418 1186.65C111.738 1192.37 109.954 1198.04 108.274 1203.77C107.689 1198.84 105.736 1194.25 102.777 1190.32C102.471 1189.89 101.755 1190.38 102.061 1190.8C105.302 1195.08 107.195 1200.03 107.642 1205.35C107.508 1205.48 107.429 1205.5 107.296 1205.63C107.03 1205.89 107.232 1206.26 107.597 1206.32C107.488 1206.53 107.483 1206.79 107.375 1207C107.182 1207.49 108.016 1207.66 108.208 1207.17C108.376 1206.6 108.545 1206.02 108.713 1205.45C113.422 1201.38 118.994 1198.69 125.163 1197.63C125.686 1197.64 125.598 1196.8 125.099 1196.87Z" fill="#856E25"/>
<path d="M121.842 1211.15C122.298 1217.33 121.605 1223.44 119.895 1229.34C119.702 1229.84 120.536 1230.01 120.729 1229.52C122.493 1223.51 123.162 1217.32 122.681 1211.06C122.636 1210.64 121.852 1210.62 121.842 1211.15Z" fill="#696E2B"/>
<path d="M143.179 1213.15C142.128 1213.39 141.061 1214.42 140.701 1215.49C140.924 1213.42 140.362 1211.35 139.321 1209.68C138.636 1208.59 137.452 1207.57 136.218 1207.79C134.905 1208.02 134.199 1209.37 133.912 1210.67C133.141 1214.03 133.436 1217.75 135.423 1220.51C134.708 1219.61 134.018 1218.78 133.115 1218.11C132.212 1217.44 131.176 1216.9 130.051 1216.9C128.926 1216.91 127.815 1217.51 127.351 1218.53C126.971 1219.25 127.005 1220.19 127.33 1220.96C127.655 1221.72 128.139 1222.44 128.755 1223.03C131.015 1225.27 134.291 1226.33 137.41 1226.05C139.246 1225.82 141.343 1225.6 142.651 1224.24C143.96 1222.87 144.75 1221.24 145.619 1219.58C146.38 1218.13 147.091 1216.52 146.519 1214.97C146.021 1213.65 144.546 1212.81 143.179 1213.15Z" fill="#ABB344"/>
<path d="M143.434 1216.19C141.578 1218.85 139.721 1221.51 137.786 1224.19C137.516 1220.55 137.221 1216.83 137.03 1213.17C136.961 1212.67 136.176 1212.65 136.166 1213.17C136.387 1216.66 136.662 1220.04 136.883 1223.52C135.423 1221.9 133.587 1220.74 131.48 1220.1C130.987 1219.9 130.814 1220.74 131.307 1220.93C133.597 1221.6 135.481 1222.92 136.937 1224.81C136.961 1224.89 137.04 1224.86 137.065 1224.94C137.109 1225.36 137.153 1225.78 137.119 1226.22C137.187 1226.72 137.972 1226.74 137.982 1226.21C138.012 1226.03 137.938 1225.79 137.968 1225.61C140.012 1222.72 142.056 1219.83 144.1 1216.94C144.347 1216.34 143.809 1215.73 143.434 1216.19Z" fill="#696E2B"/>
<path d="M108.886 1239.89C99.1136 1244.67 87.2618 1240.57 82.5578 1230.77C79.9395 1225.44 80.0257 1219.6 82.0855 1214.54C83.8687 1210.26 87.1567 1206.63 91.6729 1204.44C101.446 1199.66 113.297 1203.76 118.001 1213.56C119.614 1216.78 120.175 1220.25 119.927 1223.62C119.431 1230.36 115.436 1236.72 108.886 1239.89Z" fill="#BC2A57"/>
<path d="M110.419 1233.69C100.646 1238.47 88.794 1234.37 84.09 1224.57C82.4776 1221.35 81.9164 1217.89 82.1645 1214.52C83.9476 1210.23 87.2356 1206.61 91.7518 1204.42C101.525 1199.63 113.376 1203.74 118.08 1213.53C119.693 1216.76 120.254 1220.22 120.006 1223.59C118.223 1227.87 114.935 1231.5 110.419 1233.69Z" fill="#E83C3C"/>
<path d="M102.194 1230.1C101.513 1228.76 100.329 1227.74 98.8985 1227.32C97.4676 1226.9 96.1257 1225.93 95.4206 1224.5C94.7155 1223.08 94.7211 1221.43 95.3237 1220.03C95.9263 1218.63 95.8775 1217.08 95.1971 1215.73C93.2346 1211.67 87.2931 1211.79 85.5642 1215.97C83.8108 1220.07 83.8237 1224.83 85.8847 1229.21C88.0001 1233.49 91.7888 1236.47 96.057 1237.65C100.483 1238.78 104.156 1234.17 102.194 1230.1Z" fill="#FF484B"/>
<path d="M98.4198 1214.12C99.1003 1215.47 100.284 1216.49 101.715 1216.91C103.146 1217.33 104.488 1218.29 105.193 1219.72C105.898 1221.15 105.893 1222.8 105.29 1224.2C104.687 1225.6 104.736 1227.14 105.417 1228.49C107.379 1232.56 113.321 1232.44 115.049 1228.26C116.803 1224.16 116.79 1219.39 114.729 1215.01C112.614 1210.73 108.825 1207.76 104.557 1206.57C100.155 1205.52 96.4574 1210.06 98.4198 1214.12Z" fill="#FF484B"/>
<path d="M90.3854 1227.81C90.0152 1228.01 89.5218 1227.82 89.3196 1227.45C89.1174 1227.08 89.3101 1226.58 89.6803 1226.38C90.0504 1226.18 91.1509 1226.1 91.3531 1226.47C91.5553 1226.84 90.7802 1227.69 90.3854 1227.81Z" fill="#53360A"/>
<path d="M89.8791 1222.85C89.5336 1223.13 89.0105 1223.12 88.7293 1222.78C88.4482 1222.43 88.4583 1221.91 88.8038 1221.63C89.1494 1221.35 90.1513 1220.95 90.4324 1221.29C90.7136 1221.64 90.2247 1222.57 89.8791 1222.85Z" fill="#53360A"/>
<path d="M89.6344 1217.9C89.2888 1218.18 88.7657 1218.17 88.4846 1217.83C88.2034 1217.48 88.2135 1216.96 88.5591 1216.68C88.9046 1216.4 89.9065 1216 90.1877 1216.34C90.4442 1216.61 89.9553 1217.54 89.6344 1217.9Z" fill="#53360A"/>
<path d="M93.2763 1229.85C92.8568 1229.9 92.5606 1230.34 92.6048 1230.76C92.6491 1231.17 93.0881 1231.47 93.5076 1231.43C93.9271 1231.38 94.8797 1230.83 94.8108 1230.33C94.7912 1229.99 93.7747 1229.78 93.2763 1229.85Z" fill="#53360A"/>
<path d="M97.0846 1233.17C96.6651 1233.21 96.3689 1233.65 96.4131 1234.07C96.4574 1234.49 96.8964 1234.79 97.3159 1234.74C97.7354 1234.7 98.688 1234.14 98.6191 1233.64C98.4959 1233.25 97.4794 1233.05 97.0846 1233.17Z" fill="#53360A"/>
<path d="M110.933 1217.84C111.303 1217.64 111.496 1217.15 111.294 1216.78C111.091 1216.41 110.598 1216.21 110.228 1216.42C109.858 1216.62 109.058 1217.39 109.26 1217.76C109.487 1218.21 110.484 1218.07 110.933 1217.84Z" fill="#53360A"/>
<path d="M107.258 1214.4C107.678 1214.35 107.974 1213.91 107.93 1213.49C107.885 1213.07 107.446 1212.78 107.027 1212.82C106.607 1212.87 105.655 1213.42 105.724 1213.92C105.847 1214.32 106.839 1214.44 107.258 1214.4Z" fill="#53360A"/>
<path d="M103.553 1211.13C103.973 1211.09 104.269 1210.65 104.225 1210.23C104.18 1209.81 103.741 1209.52 103.322 1209.56C102.902 1209.6 101.95 1210.16 102.019 1210.66C102.038 1211 103.134 1211.18 103.553 1211.13Z" fill="#53360A"/>
<path d="M110.735 1221.37C111.08 1221.09 111.603 1221.1 111.884 1221.45C112.166 1221.79 112.155 1222.31 111.81 1222.6C111.464 1222.88 110.462 1223.28 110.181 1222.93C109.821 1222.61 110.414 1221.73 110.735 1221.37Z" fill="#53360A"/>
<path d="M111.004 1226.4C111.35 1226.12 111.873 1226.13 112.154 1226.47C112.435 1226.82 112.425 1227.34 112.079 1227.62C111.734 1227.91 110.732 1228.3 110.451 1227.96C110.17 1227.61 110.659 1226.68 111.004 1226.4Z" fill="#53360A"/>
</g>
<g opacity="0.9">
<path d="M262.148 974.53L280.511 1020.82C279.45 1021.67 278.223 1022.37 276.958 1022.98C258.567 1032.22 199.27 1053.05 192.786 1047.55C192.453 1047.25 192.212 1046.92 191.935 1046.49C191.935 1046.49 191.898 1046.4 191.825 1046.21C190.404 1042.9 176.384 1010.27 174.541 1005.63C172.586 1000.7 173.203 999.271 173.203 999.271L179.646 999.512C179.646 999.512 249.998 976.445 251.094 976.225C252.19 976.006 260.24 972.705 260.24 972.705L262.148 974.53Z" fill="#4E3E49"/>
<path d="M221.02 986.111C221.579 1005.15 222.1 1024.09 223.197 1043.13C228.773 1041.45 234.721 1039.63 240.594 1037.62C240.927 1018.66 238.66 999.662 238.009 980.663C233.027 982.209 227.117 984.123 221.02 986.111Z" fill="#5C5567"/>
<path d="M293.408 978.481C296.377 985.695 294.096 1010.59 280.455 1020.95L262.092 974.66L262.364 970.464L269.567 958.247L273.388 946.726L272.224 931.589L273.972 930.572C273.972 930.572 275.44 930.205 278.3 936.601C281.18 942.774 293.408 978.481 293.408 978.481Z" fill="#3A2C39"/>
<path d="M194.269 957.456C203.829 952.266 269.229 926.752 273.898 930.386C278.568 934.021 276.95 967.367 258.595 976.692C240.203 985.925 180.907 1006.76 174.423 1001.26C168.143 996.007 184.673 962.554 194.269 957.456Z" fill="#5C5567"/>
<path d="M234.314 954.265C235.555 955.494 236.832 956.816 236.995 958.581C237.266 961.163 235.105 963.311 233.04 964.883C230.155 967.104 226.993 968.896 223.721 970.409C221.713 971.313 219.315 972.049 217.592 970.689C216.332 969.682 215.984 967.992 215.803 966.45C215.328 963.626 214.946 960.765 215.326 957.925C215.705 955.085 216.976 952.322 219.357 950.731C221.646 949.178 224.71 949.038 227.382 949.807C229.998 950.706 232.277 952.384 234.314 954.265Z" fill="#D96230"/>
<path d="M219.823 963.026C217.643 965.935 214.665 968.192 211.299 969.742C208.734 970.868 205.927 971.658 203.049 971.724C200.3 971.846 197.293 971.318 195.498 969.233C193.943 967.483 193.579 964.938 193.864 962.673C194.338 959.258 196.223 956.143 199.051 954.053C201.359 952.277 204.091 951.301 206.97 951.235C213.32 951.513 219.154 956.729 219.823 963.026Z" fill="#FB7840"/>
<path d="M216.42 965.022C215.003 966.875 213.29 968.522 211.336 969.835C208.771 970.961 205.964 971.751 203.086 971.817C200.337 971.939 197.33 971.411 195.535 969.326C193.98 967.576 193.616 965.031 193.901 962.766C194.375 959.351 196.259 956.236 199.088 954.146C200.482 953.593 202.08 953.282 203.603 953.323C209.879 953.416 215.75 958.725 216.42 965.022Z" fill="#FBA540"/>
<path d="M249.937 952.156C246.567 955.322 242.549 957.668 238.2 959.179C237.048 959.528 235.895 959.878 234.706 960.134C232.643 960.63 230.34 960.79 228.598 959.653C227.189 958.813 226.339 957.214 225.991 955.523C225.68 953.925 225.964 952.199 226.284 950.566C227.074 947.132 228.904 943.609 231.713 941.742C232.327 941.391 233.034 941.003 233.721 940.838C237.141 939.696 241.018 941.063 243.779 943.41C246.539 945.758 248.368 949.013 249.937 952.156Z" fill="#FB7840"/>
<path d="M247.799 953.004C245.211 955.429 242.309 957.333 239.129 958.81C237.977 959.16 236.825 959.509 235.636 959.766C233.573 960.261 231.27 960.422 229.527 959.284C228.119 958.444 227.269 956.845 226.921 955.154C226.61 953.556 226.893 951.83 227.214 950.197C228.003 946.764 229.833 943.241 232.643 941.373C235.745 940.788 239.14 942.023 241.604 944.166C244.401 946.606 246.23 949.861 247.799 953.004Z" fill="#FBA540"/>
<path d="M263.486 948.072C263.425 949.817 262.067 951.002 260.541 952.037C260.206 952.278 259.871 952.518 259.499 952.666C256.988 954.2 254.347 955.678 251.393 956.097C248.439 956.515 245.118 955.466 243.584 952.955C242.438 951.15 242.444 948.996 242.357 946.879C242.327 944.632 242.408 942.125 243.435 940.104C243.547 939.844 243.696 939.678 243.809 939.418C245.804 936.583 250.02 936.093 253.192 937.309C256.457 938.489 258.919 941.17 261.251 943.795C262.492 945.024 263.584 946.42 263.486 948.072Z" fill="#D96230"/>
<path d="M261.957 950.185C261.956 950.723 261.732 951.242 261.563 951.632C261.228 951.872 260.893 952.113 260.522 952.26C258.01 953.794 255.276 955.309 252.416 955.691C249.462 956.11 246.141 955.06 244.607 952.549C243.46 950.745 243.467 948.59 243.38 946.473C243.349 944.226 243.431 941.72 244.458 939.698C246.578 938.535 249.456 938.469 251.849 939.348C255.151 940.62 257.576 943.208 259.816 945.87C260.963 947.136 262.055 948.532 261.957 950.185Z" fill="#FB7840"/>
<path d="M271.056 937.323C271.091 937.955 271.164 938.679 271.18 939.533C271.178 940.072 271.177 940.61 271.175 941.149C271.114 942.894 270.979 944.992 270.657 947.164C270.657 947.164 270.657 947.164 270.564 947.201C269.894 947.682 269.317 948.126 268.573 948.421C268.016 948.642 267.365 948.9 266.77 949.028C265.618 949.378 264.392 949.542 263.185 949.482C260.901 949.42 258.638 948.597 257.269 946.773C256.788 946.103 256.4 945.396 256.198 944.616C256.124 944.43 256.051 944.244 256.107 944.114C255.959 943.742 255.942 943.427 255.887 943.018C255.687 941.699 255.672 940.306 255.88 938.933C255.936 938.803 255.955 938.58 255.975 938.357C256.276 936.947 256.893 935.519 257.843 934.389C259.707 932.036 263.127 930.894 265.909 931.942C267.43 932.522 268.764 933.714 269.726 935.054C269.929 935.296 270.133 935.538 270.373 935.873C270.538 936.56 270.779 936.895 271.056 937.323Z" fill="#FB7840"/>
<path d="M271.18 939.533C271.178 940.072 271.177 940.61 271.175 941.149C271.114 942.894 270.979 944.992 270.657 947.164C270.657 947.164 270.657 947.164 270.564 947.201C269.894 947.682 269.317 948.126 268.573 948.421C268.294 948.531 268.016 948.642 267.7 948.66C266.547 949.009 265.321 949.173 264.115 949.114C261.831 949.051 259.568 948.228 258.199 946.404C257.718 945.734 257.33 945.028 257.128 944.247C257.166 943.802 257.241 943.449 257.317 943.096C257.373 942.966 257.392 942.744 257.411 942.521C257.712 941.11 258.329 939.682 259.279 938.552C261.143 936.199 264.563 935.058 267.346 936.106C268.867 936.686 270.2 937.878 271.162 939.218C271.143 939.44 271.143 939.44 271.18 939.533Z" fill="#FBA540"/>
<path d="M208.851 975.232C207.957 976.232 206.97 977.269 205.909 978.12C202 981.285 196.963 982.96 192.043 982.76C189.759 982.698 187.291 982.171 185.829 980.384C184.404 978.69 184.336 976.35 184.435 974.16C184.59 971.839 185.117 969.371 186.274 967.405C186.535 966.979 186.89 966.516 187.244 966.053C190.41 962.645 195.981 962.586 200.004 964.863C204.084 967.011 206.783 971.104 208.851 975.232Z" fill="#FB7840"/>
<path d="M206.802 977.659C202.893 980.823 197.856 982.498 192.935 982.299C190.652 982.236 188.183 981.709 186.721 979.923C185.296 978.229 185.229 975.889 185.328 973.698C185.483 971.377 186.01 968.909 187.167 966.944C190.329 965.152 194.748 965.443 198.048 967.253C202.071 969.53 204.734 973.53 206.802 977.659Z" fill="#FBA540"/>
<path d="M226.18 974.167C224.667 977.134 222.561 979.691 219.992 981.893C217.517 984.059 214.541 985.777 211.399 986.808C208.853 987.711 205.992 988.093 203.581 986.897C202.079 986.094 200.932 984.828 200.026 983.359C197.476 979.099 197.566 973.361 200.048 969.042C200.309 968.615 200.571 968.189 200.925 967.726C204.224 963.297 210.377 961.179 215.647 962.531C221.046 963.939 225.434 968.761 226.18 974.167Z" fill="#FB7840"/>
<path d="M223.105 978.077C222.507 979.282 221.779 980.431 220.922 981.524C218.446 983.69 215.47 985.408 212.329 986.439C209.782 987.342 206.921 987.724 204.511 986.528C203.009 985.726 201.861 984.46 200.956 982.99C198.405 978.73 198.496 972.993 200.978 968.673C204.271 966.398 208.656 965.519 212.608 966.534C218.064 967.812 222.359 972.671 223.105 978.077Z" fill="#FBA540"/>
<path d="M256.3 961.143C255.998 962.553 255.085 963.776 253.968 964.757C253.428 965.294 252.758 965.775 252.181 966.219C249.074 968.42 245.689 970.193 242.083 971.409C239.722 972.237 237.065 972.861 234.635 971.889C232.205 970.916 230.671 968.405 230.084 965.841C229.7 964.057 229.687 962.126 230.026 960.27C230.949 955.815 234.043 951.683 238.226 950.024C244.268 947.627 251.763 950.248 255.052 955.829C256.124 957.447 256.676 959.38 256.3 961.143Z" fill="#FB7840"/>
<path d="M254.934 964.482C254.394 965.019 253.725 965.5 253.148 965.944C250.04 968.144 246.655 969.917 243.05 971.133C240.689 971.962 238.032 972.585 235.602 971.613C233.172 970.64 231.638 968.129 231.051 965.565C230.666 963.781 230.653 961.85 230.992 959.994C232.428 957.918 234.457 956.253 236.874 955.294C242.916 952.897 250.411 955.518 253.7 961.098C254.291 962.047 254.771 963.256 254.934 964.482Z" fill="#FBA540"/>
<path d="M270.601 947.294C270.223 949.595 269.752 951.934 268.946 954.513C268.383 956.349 267.56 958.613 266.402 961.116C266.065 961.895 265.599 962.618 265.132 963.341C264.703 964.157 264.144 964.916 263.585 965.676C262.376 966.156 261.131 966.542 259.831 966.52C257.77 966.477 256.064 965.432 254.899 963.85C254.178 962.845 253.642 961.767 253.256 960.522C252.833 959.183 252.595 957.771 252.358 956.359C252.284 956.173 252.34 956.044 252.266 955.858C252.103 954.632 252.069 953.462 252.165 952.348C252.223 951.679 252.317 951.104 252.375 950.436C252.394 950.213 252.45 950.083 252.469 949.86C253.014 947.708 254.227 945.613 255.791 944.132C256.815 943.188 257.95 942.522 259.325 942.192C259.511 942.118 259.733 942.138 259.826 942.101C262.836 941.552 265.971 942.675 268.305 944.762C269.268 945.563 269.916 946.382 270.601 947.294Z" fill="#FB7840"/>
<path d="M269.623 951.339C269.338 953.604 268.775 955.979 267.969 958.558C267.781 959.17 267.538 959.912 267.238 960.784C266.902 961.563 266.435 962.286 265.969 963.009C265.54 963.825 264.98 964.585 264.421 965.344C263.213 965.824 261.967 966.21 260.668 966.188C258.606 966.145 256.901 965.1 255.736 963.518C255.014 962.514 254.479 961.435 254.093 960.19C253.669 958.851 253.339 957.476 253.194 956.028C253.121 955.842 253.177 955.712 253.103 955.526C252.939 954.3 252.906 953.13 253.002 952.016C253.059 951.348 253.154 950.772 253.211 950.104C253.678 949.381 254.274 948.714 254.814 948.177C255.838 947.233 256.973 946.568 258.348 946.237C258.534 946.164 258.626 946.127 258.849 946.146C261.859 945.598 264.994 946.721 267.291 948.714C268.384 949.572 269.032 950.39 269.623 951.339Z" fill="#FBA540"/>
<path d="M199.887 986.534C198.974 987.757 197.837 988.961 196.701 990.164C194.876 992.072 192.698 993.904 190.559 995.291C187.901 995.914 185.523 996.428 183.48 996.7C181.064 997.12 179.17 997.227 177.963 997.167C176.788 992.577 174.904 988.914 176.142 984.442C176.198 984.312 176.255 984.182 176.218 984.089C177.362 980.193 180.491 976.692 184.264 975.626C184.858 975.498 185.453 975.369 186.085 975.334C186.27 975.26 186.4 975.316 186.623 975.336C189.594 975.233 192.431 976.689 194.506 978.664C194.635 978.72 194.672 978.813 194.802 978.869C195.839 979.856 196.69 980.917 197.486 982.107C198.354 983.484 199.167 984.99 199.887 986.534Z" fill="#D96230"/>
<path d="M196.794 990.128C194.969 992.035 192.791 993.867 190.652 995.254C187.994 995.878 185.616 996.391 183.572 996.663C181.157 997.084 179.263 997.19 178.056 997.13C176.881 992.54 174.997 988.877 176.235 984.405C177.745 982.515 179.662 981.11 181.91 980.54C182.505 980.412 183.099 980.284 183.731 980.248C183.917 980.175 184.046 980.231 184.269 980.25C187.241 980.147 190.078 981.603 192.245 983.541C192.282 983.634 192.411 983.69 192.448 983.783C193.485 984.77 194.337 985.831 195.132 987.022C195.63 988.007 196.166 989.086 196.794 990.128Z" fill="#FB7840"/>
<path d="M240.762 978.925C240.111 979.184 239.367 979.479 238.717 979.737C237.322 980.29 235.835 980.88 234.404 981.34C227.489 983.976 220.778 986.315 214.496 988.377C214.124 988.524 213.715 988.579 213.437 988.689C213.142 987.946 212.903 987.072 212.701 986.292C212.462 985.418 212.223 984.545 212.077 983.635C211.289 979.751 211.19 975.703 212.463 971.863C212.894 970.508 213.548 969.173 214.368 967.987C214.368 967.987 214.461 967.95 214.425 967.857C214.835 967.264 215.338 966.634 215.878 966.097C216.772 965.097 217.74 964.283 218.875 963.617C219.117 963.414 219.489 963.266 219.767 963.156C221.553 962.232 223.522 961.774 225.491 961.854C227.05 961.988 228.497 962.382 229.925 962.999C231.001 963.541 231.983 964.119 232.947 964.92C234.244 966.02 235.391 967.286 236.353 968.625C236.834 969.295 237.222 970.002 237.61 970.709C237.924 971.23 238.108 971.694 238.423 972.215C239.215 974.483 240.007 976.751 240.762 978.925Z" fill="#FB7840"/>
<path d="M235.278 981.101C228.362 983.737 221.652 986.076 215.369 988.138C214.998 988.285 214.589 988.34 214.31 988.451C214.015 987.707 213.776 986.833 213.574 986.053C213.335 985.179 213.096 984.306 212.95 983.396C212.163 979.512 212.063 975.464 213.337 971.624C213.768 970.269 214.421 968.934 215.242 967.748C215.242 967.748 215.335 967.711 215.298 967.618C216.99 966.732 218.867 966.31 220.835 966.39C222.395 966.524 223.842 966.918 225.27 967.535C226.346 968.077 227.328 968.655 228.291 969.457C229.588 970.556 230.736 971.822 231.698 973.162C232.179 973.832 232.567 974.538 232.954 975.245C233.269 975.766 233.453 976.231 233.767 976.751C234.264 978.276 234.817 979.67 235.278 981.101Z" fill="#FBA540"/>
<path d="M265.132 963.341C264.703 964.157 264.144 964.916 263.585 965.676C262.615 967.029 261.572 968.196 260.306 969.344C259.096 970.362 257.756 971.323 256.343 972.099C252.772 973.946 247.418 976.178 241.004 978.722L240.725 978.833C240.074 979.091 239.331 979.386 238.68 979.644C237.758 977.32 237.301 974.812 237.382 972.305C237.384 971.767 237.386 971.228 237.517 970.746C237.65 969.725 237.876 968.667 238.194 967.572C238.569 966.348 239.13 965.049 239.765 963.937C242.433 959.544 247.269 956.549 252.414 956.23C253.045 956.194 253.677 956.159 254.345 956.216C254.791 956.255 255.236 956.293 255.626 956.462C259.541 957.383 263.137 959.937 265.132 963.341Z" fill="#FB7840"/>
<path d="M261.272 969.068C260.062 970.086 258.723 971.048 257.309 971.823C253.738 973.67 248.384 975.902 241.97 978.446L241.691 978.557C241.041 978.815 240.297 979.11 239.646 979.368C238.724 977.044 238.267 974.536 238.349 972.029C238.35 971.491 238.352 970.952 238.483 970.47C238.616 969.449 238.842 968.391 239.161 967.296C241.805 964.741 245.449 963.08 249.145 962.905C249.777 962.87 250.445 962.928 251.077 962.892C251.522 962.931 251.968 962.969 252.357 963.137C255.883 963.89 259.108 966.053 261.272 969.068Z" fill="#FBA540"/>
<path d="M214.496 988.377C214.124 988.524 213.715 988.579 213.437 988.689C211.912 989.186 210.481 989.647 209.05 990.107C202.043 992.241 195.836 993.95 190.708 995.124C188.05 995.748 185.672 996.261 183.629 996.534C183.065 992.131 184.36 987.529 187.044 983.99C187.603 983.231 188.199 982.564 188.832 981.99C188.832 981.99 188.832 981.99 188.925 981.953C190.582 980.435 192.573 979.215 194.748 978.46C195.993 978.074 197.182 977.817 198.501 977.616C200.581 977.437 202.772 977.536 204.776 978.247C204.906 978.303 205.128 978.322 205.295 978.471C208.041 979.426 210.394 981.29 212.17 983.598C212.781 984.324 213.205 985.123 213.63 985.923C213.869 986.797 214.201 987.633 214.496 988.377Z" fill="#FB7840"/>
<path d="M208.957 990.144C201.95 992.278 195.743 993.987 190.615 995.161C187.957 995.785 185.579 996.298 183.536 996.57C182.973 992.168 184.267 987.566 186.951 984.027C187.9 983.436 189.015 982.993 190.038 982.588C191.283 982.201 192.472 981.945 193.791 981.744C195.871 981.564 198.062 981.663 200.066 982.375C200.196 982.431 200.419 982.45 200.585 982.599C203.331 983.554 205.684 985.418 207.46 987.725C207.978 988.488 208.495 989.251 208.957 990.144Z" fill="#FBA540"/>
</g>
<g opacity="0.9">
<path d="M1330.92 806.17C1331.72 807.598 1331.48 809.455 1330.46 810.74C1329.45 812.025 1327.75 812.64 1326.12 812.476C1324.81 812.345 1323.65 811.714 1322.71 810.787C1322.83 812.098 1322.58 813.401 1321.85 814.491C1320.93 815.854 1319.38 816.775 1317.74 816.737C1316.91 816.692 1316.04 816.42 1315.37 815.926C1314.73 815.484 1314.19 814.867 1313.9 814.131C1313.45 813.038 1313.55 811.681 1313.98 810.609C1314.44 809.462 1315.16 808.497 1316.06 807.637L1307.29 789.011L1315.73 785.029L1324.51 803.655C1325.7 803.532 1326.96 803.561 1328.13 803.941C1329.25 804.344 1330.29 805.098 1330.92 806.17Z" fill="#DEB774"/>
<path d="M1316.36 793.877C1320.34 802.325 1319.76 811.246 1315.39 815.977C1314.75 815.535 1314.21 814.918 1313.92 814.182C1313.47 813.089 1313.58 811.732 1314.01 810.66C1314.46 809.513 1315.19 808.548 1316.09 807.688L1307.29 789.011L1311.71 786.924C1313.51 788.878 1315.09 791.18 1316.36 793.877Z" fill="#F0D493"/>
<path d="M1317.49 732.016C1320.76 739.742 1320.46 748.343 1320.14 756.641C1319.87 763.052 1320.39 769.709 1320.12 776.12C1322.81 777.466 1324.72 780.481 1324.75 783.577C1324.78 786.673 1322.93 789.6 1320.21 790.821C1318.1 791.753 1315.5 791.668 1313.37 790.561C1313.29 790.534 1313.19 790.456 1313.12 790.429C1312.66 792.885 1311.1 795.114 1308.91 796.146C1306.23 797.468 1302.77 796.985 1300.43 795.043C1298.06 793.05 1296.93 789.726 1297.62 786.722C1292.5 782.854 1287.7 778.212 1282.58 774.343C1275.98 769.307 1269.16 764.065 1265.28 756.626C1261.4 749.187 1261.01 740.042 1264.23 732.491C1266.14 727.98 1269.5 724.408 1273.46 721.606C1275.23 720.338 1277.19 719.226 1279.13 718.315C1285.49 715.316 1292.7 713.848 1299.55 715.844C1307.4 718.115 1314.22 724.289 1317.49 732.016Z" fill="#70311F"/>
<path d="M1305.64 737.605C1308.9 745.331 1308.6 753.932 1308.28 762.23C1308.01 768.641 1309.04 776.367 1308.76 782.778C1311.45 784.124 1313.39 787.189 1313.4 790.235C1313.4 790.361 1313.39 790.486 1313.39 790.612C1313.31 790.585 1313.22 790.507 1313.14 790.48C1312.68 792.936 1311.12 795.165 1308.93 796.197C1306.26 797.519 1302.8 797.036 1300.45 795.094C1298.08 793.101 1296.95 789.777 1297.65 786.773C1292.53 782.905 1287.73 778.263 1282.61 774.394C1276.01 769.358 1269.18 764.116 1265.3 756.677C1261.42 749.238 1261.03 740.093 1264.25 732.542C1266.17 728.031 1269.52 724.459 1273.49 721.657C1278.17 720.381 1283.01 720.091 1287.76 721.46C1295.59 723.68 1302.42 729.854 1305.64 737.605Z" fill="#8E422A"/>
<path d="M1275.76 745.1C1275.42 740.327 1273.34 736.584 1271.11 736.741C1268.88 736.899 1267.34 740.896 1267.67 745.669C1268.01 750.443 1270.09 754.185 1272.32 754.028C1274.56 753.871 1276.09 749.874 1275.76 745.1Z" fill="#BA755F"/>
</g>
<g opacity="0.9">
<path d="M1254.98 1186.64L1245.72 1194.83L1232.2 1206.82L1202.64 1214.06C1202.64 1214.06 1199.59 1180.02 1200.01 1161.23C1200.17 1154.62 1200.7 1149.88 1202.01 1149.19C1207 1146.58 1254.98 1186.64 1254.98 1186.64Z" fill="#CF2323"/>
<path d="M1245.76 1194.81L1232.25 1206.8L1202.69 1214.03C1202.69 1214.03 1199.63 1180 1200.05 1161.21C1209.99 1165.81 1236.02 1186.86 1245.76 1194.81Z" fill="#E83C3C"/>
<path d="M1229.12 1198.29C1229.47 1198.83 1229.77 1199.51 1229.45 1200.07C1229.12 1200.63 1228.26 1200.69 1227.73 1200.3C1227.19 1199.91 1226.89 1199.34 1226.66 1198.69C1226.15 1197.39 1225.88 1196.03 1225.76 1194.64C1227.09 1195.67 1228.24 1196.91 1229.12 1198.29Z" fill="#5B2326"/>
<path d="M1227.12 1182.44C1227.57 1182.87 1228.03 1183.52 1227.8 1184.15C1227.56 1184.77 1226.77 1184.96 1226.15 1184.73C1225.57 1184.48 1225.12 1183.93 1224.82 1183.36C1224.09 1182.18 1223.54 1180.91 1223.16 1179.55C1224.65 1180.27 1226 1181.24 1227.12 1182.44Z" fill="#5B2326"/>
<path d="M1236.25 1176.65C1236.81 1176.97 1237.39 1177.45 1237.38 1178.07C1237.33 1178.71 1236.61 1179.14 1235.96 1179.09C1235.32 1179.03 1234.76 1178.6 1234.27 1178.19C1233.23 1177.28 1232.33 1176.19 1231.6 1175.02C1233.24 1175.27 1234.82 1175.84 1236.25 1176.65Z" fill="#5B2326"/>
<path d="M1239.26 1190.8C1239.71 1191.24 1240.16 1191.89 1239.93 1192.51C1239.7 1193.14 1238.91 1193.33 1238.28 1193.1C1237.71 1192.84 1237.25 1192.3 1236.95 1191.73C1236.23 1190.55 1235.67 1189.28 1235.29 1187.92C1236.76 1188.6 1238.13 1189.61 1239.26 1190.8Z" fill="#5B2326"/>
<path d="M1246.71 1181.82C1247.27 1182.14 1247.85 1182.62 1247.84 1183.24C1247.79 1183.88 1247.07 1184.31 1246.43 1184.26C1245.78 1184.2 1245.22 1183.77 1244.73 1183.36C1243.7 1182.45 1242.79 1181.37 1242.06 1180.19C1243.7 1180.44 1245.28 1181.01 1246.71 1181.82Z" fill="#5B2326"/>
<path d="M1215.32 1203.34C1215.42 1203.96 1215.7 1204.71 1216.35 1204.87C1216.99 1205.03 1217.6 1204.49 1217.76 1203.85C1217.88 1203.23 1217.69 1202.55 1217.4 1201.98C1216.84 1200.71 1216.11 1199.53 1215.21 1198.44C1214.97 1200.01 1215.03 1201.71 1215.32 1203.34Z" fill="#5B2326"/>
<path d="M1203.7 1204.36C1203.64 1205 1203.7 1205.75 1204.22 1206.09C1204.77 1206.42 1205.54 1206.07 1205.86 1205.51C1206.18 1204.95 1206.15 1204.25 1206.09 1203.61C1205.93 1202.24 1205.55 1200.88 1205 1199.61C1204.32 1201.08 1203.84 1202.72 1203.7 1204.36Z" fill="#5B2326"/>
<path d="M1214.52 1189.04C1214.62 1189.66 1214.9 1190.4 1215.54 1190.57C1216.19 1190.73 1216.8 1190.19 1216.96 1189.55C1217.08 1188.92 1216.89 1188.24 1216.59 1187.67C1216.04 1186.4 1215.31 1185.22 1214.41 1184.14C1214.15 1185.78 1214.18 1187.43 1214.52 1189.04Z" fill="#5B2326"/>
<path d="M1204.57 1193.25C1204.51 1193.89 1204.57 1194.64 1205.09 1194.99C1205.65 1195.31 1206.41 1194.96 1206.73 1194.4C1207.05 1193.84 1207.02 1193.14 1206.96 1192.5C1206.8 1191.13 1206.42 1189.77 1205.87 1188.5C1205.15 1189.99 1204.71 1191.61 1204.57 1193.25Z" fill="#5B2326"/>
<path d="M1224.47 1169.83C1225.03 1170.15 1225.62 1170.62 1225.61 1171.24C1225.55 1171.88 1224.83 1172.32 1224.19 1172.26C1223.55 1172.21 1222.99 1171.78 1222.49 1171.37C1221.46 1170.46 1220.56 1169.37 1219.83 1168.19C1221.47 1168.45 1223.05 1169.01 1224.47 1169.83Z" fill="#5B2326"/>
<path d="M1206.84 1179.06C1206.79 1179.71 1206.84 1180.46 1207.36 1180.8C1207.92 1181.12 1208.69 1180.78 1209.01 1180.22C1209.33 1179.66 1209.29 1178.95 1209.23 1178.31C1209.08 1176.95 1208.7 1175.58 1208.14 1174.31C1207.42 1175.81 1206.99 1177.43 1206.84 1179.06Z" fill="#5B2326"/>
<path d="M1216.7 1174.57C1217.04 1175.11 1217.34 1175.79 1217.02 1176.35C1216.7 1176.91 1215.84 1176.97 1215.3 1176.58C1214.76 1176.2 1214.46 1175.63 1214.23 1174.97C1213.72 1173.68 1213.45 1172.31 1213.34 1170.92C1214.66 1171.96 1215.79 1173.15 1216.7 1174.57Z" fill="#5B2326"/>
<path d="M1210.63 1162.02C1210.97 1162.57 1211.27 1163.25 1210.95 1163.81C1210.63 1164.37 1209.74 1164.38 1209.21 1163.99C1208.67 1163.61 1208.39 1162.97 1208.18 1162.36C1207.71 1161.04 1207.44 1159.67 1207.33 1158.28C1208.63 1159.39 1209.78 1160.62 1210.63 1162.02Z" fill="#5B2326"/>
<path d="M1258.52 1189.57C1257.95 1191.66 1256.37 1193.55 1254.72 1195.3C1248.94 1201.4 1242.11 1207.21 1234.5 1211.2C1226.88 1215.19 1218.22 1217.5 1209.91 1218.78C1209.19 1218.88 1208.46 1218.98 1207.78 1219.06C1206.12 1219.21 1204.49 1219.17 1203.06 1218.69C1201.02 1217.98 1199.43 1216.13 1199.95 1214.02C1200.42 1212.04 1202.49 1210.46 1204.59 1209.69C1204.83 1209.62 1205.08 1209.55 1205.32 1209.48C1207.21 1208.93 1209.17 1208.85 1211.11 1208.62C1211.53 1208.56 1211.99 1208.49 1212.44 1208.48C1218.52 1207.75 1224.9 1206.41 1230.42 1203.52C1236.37 1200.4 1241.36 1195.45 1245.59 1190.55C1247.07 1188.89 1248.36 1187.09 1250.23 1185.78C1250.56 1185.55 1250.84 1185.35 1251.19 1185.16C1252.88 1184.22 1254.88 1183.79 1256.44 1184.42C1258.48 1185.13 1259.1 1187.49 1258.52 1189.57Z" fill="#4B4C18"/>
<path d="M1253.37 1190.38C1252.79 1192.47 1251.21 1194.35 1249.54 1196.07C1243.76 1202.16 1236.93 1207.97 1229.32 1211.96C1222.62 1215.47 1215.13 1217.67 1207.82 1219.04C1206.16 1219.18 1204.53 1219.15 1203.11 1218.67C1201.06 1217.95 1199.48 1216.11 1199.99 1214C1200.46 1212.02 1202.53 1210.44 1204.64 1209.67C1204.88 1209.6 1205.12 1209.52 1205.36 1209.45C1205.58 1209.45 1205.78 1209.4 1206 1209.4C1208.12 1209.18 1210.3 1208.87 1212.48 1208.46C1218.56 1207.72 1224.95 1206.39 1230.46 1203.5C1236.41 1200.38 1241.4 1195.42 1245.64 1190.53C1247.11 1188.86 1248.4 1187.07 1250.28 1185.75C1250.6 1185.53 1250.89 1185.32 1251.24 1185.14L1251.3 1185.16C1253.33 1185.94 1253.95 1188.29 1253.37 1190.38Z" fill="#696E2B"/>
</g>
</svg>
