<svg width="87" height="56" viewBox="0 0 87 56" fill="none" xmlns="http://www.w3.org/2000/svg">
<path fill-rule="evenodd" clip-rule="evenodd" d="M86.0999 54.767C86.0999 54.983 85.9919 55.1835 85.8376 55.3224C85.6679 55.4612 85.4519 55.5538 85.2051 55.5538C84.9583 55.5538 84.7268 55.4612 84.5726 55.3224C84.4183 55.1835 84.3103 54.983 84.3103 54.767C84.3103 51.7278 84.3103 3.82597 84.3103 0.78679C84.3103 0.570807 84.4183 0.370256 84.5726 0.23141C84.7423 0.0925639 84.9583 0 85.2051 0C85.4519 0 85.6833 0.0925639 85.8376 0.23141C86.0073 0.370256 86.0999 0.570807 86.0999 0.78679C86.0999 3.82597 86.0999 51.3421 86.0999 54.767Z" fill="#DB7743"/>
<path fill-rule="evenodd" clip-rule="evenodd" d="M46.9916 16.6923H40.543C40.2807 16.6923 39.9105 16.862 39.8796 17.3094C39.5711 19.9938 39.5556 22.2616 39.1854 24.1438C38.7843 26.1647 38.3832 27.9234 37.9203 29.3273C37.4575 30.7158 36.7633 32.7985 36.4393 33.5081C36.0999 34.2178 35.5137 35.1589 35.3131 35.6063C35.1434 36.0999 35.7914 35.9919 36.2388 35.9919H47.0379C47.3927 35.9919 47.7167 35.6834 47.7167 35.2977L47.7012 17.3866C47.6704 16.9855 47.3927 16.6923 46.9916 16.6923ZM54.9058 44.369C54.9058 44.9089 54.6744 45.3717 54.2887 45.742C53.903 46.0968 53.3785 46.3128 52.8077 46.3128C52.2215 46.3128 51.6969 46.0968 51.3267 45.742C50.941 45.3872 50.7096 44.8935 50.7096 44.3535C50.7096 43.0114 50.6787 41.7463 50.6787 40.4196C50.6942 40.0647 50.3702 39.7408 49.9845 39.7562H33.6932C33.3384 39.7716 33.0299 40.0185 33.0144 40.435C33.0144 41.7463 32.9836 43.0422 32.9836 44.3535C32.9836 44.8935 32.7522 45.3872 32.3665 45.742C31.9808 46.0968 31.4563 46.3128 30.8855 46.3128C30.2992 46.3128 29.7747 46.0968 29.4044 45.742C29.0188 45.3872 28.7874 44.8935 28.7874 44.3535C28.7874 41.9469 28.8028 39.5402 28.8182 37.1335C28.8182 36.6862 28.8953 36.3776 29.0342 36.2388C29.173 36.0999 29.4662 36.0536 29.8827 36.0228L30.2221 36.0074C30.4844 36.0074 30.6849 35.8994 30.8238 35.6834C31.3329 34.912 31.6105 33.9555 32.1197 33.0299C32.7059 31.9808 33.215 30.145 33.7087 28.556C34.2023 26.9669 34.6497 24.7917 35.0508 22.5547C35.452 20.364 35.4828 17.7568 35.8222 14.7177C35.8222 14.6714 35.8377 14.6251 35.8377 14.5788C35.9148 14.1468 36.1153 13.7612 36.4239 13.4835C36.7633 13.1749 37.2107 12.9898 37.7352 12.9898L50.2313 12.9744C50.6633 12.9744 51.265 13.1441 51.5735 13.4835C51.8821 13.8074 52.1906 14.2703 52.1906 14.8102L52.2215 35.3286C52.2215 35.668 52.5146 35.9611 52.9157 35.9765H53.8413C54.227 35.9765 54.5047 36.0536 54.659 36.1925C54.8287 36.3468 54.9058 36.6399 54.9058 37.0873V44.369Z" fill="#DB7743"/>
<path fill-rule="evenodd" clip-rule="evenodd" d="M77.7691 37.8587C77.7691 38.3986 77.5223 38.8923 77.1058 39.2471C76.7047 39.602 76.1339 39.8179 75.5168 39.8179C74.8997 39.8179 74.3288 39.602 73.9277 39.2471C73.5266 38.8923 73.2644 38.3986 73.2644 37.8587V37.6581C73.2644 37.5193 73.2952 37.3187 73.2027 37.1953C73.1101 37.0719 72.9095 37.2262 72.7553 37.3496C72.4776 37.5656 72.169 37.8124 71.7988 38.1055C71.1817 38.5838 70.58 38.9849 70.0092 39.2626C69.207 39.6791 68.4356 40.0031 67.6951 40.219C66.9546 40.435 65.9055 40.5585 64.5634 40.5585C63.4526 40.5585 62.4035 40.3579 61.4162 39.9414C60.4288 39.5248 59.5495 38.9386 58.7935 38.1826C58.0685 37.4421 57.4976 36.5319 57.0657 35.452C56.6337 34.3721 56.4177 33.2305 56.4177 32.0271C56.4177 30.1604 56.8188 28.5869 57.6056 27.2755C58.377 25.9642 59.6266 24.9306 61.3236 24.1592C62.8355 23.465 64.6096 23.0022 66.6615 22.7399C68.3122 22.5239 70.0709 22.3542 71.9222 22.2308C72.3696 22.1999 72.9867 22.1845 73.1409 21.9685C73.2952 21.7526 73.2181 21.3669 73.2644 20.9195C73.3107 20.6881 73.0638 19.2688 72.8016 18.7134C72.4776 18.0654 72.0456 17.5717 71.4594 17.2169C70.8886 16.8467 70.1789 16.6153 69.3458 16.4918C68.5128 16.3684 67.6643 16.3067 66.7849 16.3067C65.7513 16.3067 64.2702 16.5381 63.1132 16.7695C61.9561 17.0164 61.1076 17.2632 60.4134 17.4483C59.7192 17.618 59.4261 17.4483 59.0095 17.1552C58.593 16.8621 58.2844 16.4147 58.1456 15.8593C58.0068 15.3039 58.0839 14.7485 58.3153 14.3011C58.5467 13.8538 58.7781 13.4835 59.4569 13.3138C60.1357 13.1441 60.9534 12.9744 62.1721 12.743C63.3909 12.5116 65.2576 12.311 66.7849 12.311C68.6207 12.311 70.1789 12.4653 71.4439 12.743C72.709 13.0361 73.8506 13.5452 74.8534 14.3011C75.8253 15.0417 76.5504 15.9982 77.0286 17.1552C77.5069 18.3277 77.7537 19.747 77.7537 21.4286V37.3033L77.7691 37.8587ZM73.2798 32.1814V27.2755C73.2798 26.9207 73.3878 26.319 73.1409 26.0105C72.8941 25.7174 72.4776 25.8562 71.9068 25.8716C71.336 25.8871 70.2252 26.0259 69.2224 26.1339C67.5717 26.3036 66.2604 26.5504 65.2422 26.8436C64.0388 27.2138 63.0515 27.7846 62.2647 28.5406C61.4779 29.2965 61.0768 30.361 61.0768 31.7186C61.0768 33.2613 61.5088 34.4184 62.3727 35.2052C63.2366 35.992 64.5017 36.3931 66.1678 36.3931C67.5871 36.3931 68.883 36.0845 70.0401 35.4674C70.9503 34.9738 71.8142 34.3875 72.6473 33.7396C72.8324 33.6007 73.0484 33.3693 73.1564 33.1225C73.2798 32.7985 73.2798 32.4283 73.2798 32.1814Z" fill="#DB7743"/>
<path d="M13.2983 34.1406L13.3292 34.1715C14.2703 34.3875 15.3039 34.48 16.4301 34.48C17.4174 34.48 18.3585 34.3875 19.2842 34.1715C19.5156 34.1098 20.0092 33.9555 20.7189 33.7241C21.4748 33.4618 21.8759 33.3076 21.9376 33.2921C22.2462 33.1996 22.5702 33.1379 22.9404 33.1379C23.7889 33.1379 24.514 33.4464 25.1157 34.0481C25.7019 34.6343 25.995 35.3594 25.995 36.1925C25.995 37.0564 25.7019 37.7815 25.1157 38.3677C24.7609 38.6917 24.3906 38.9231 23.9895 39.0928C23.4341 39.2934 22.709 39.5093 21.8451 39.7099C20.9503 39.9413 20.0247 40.1419 19.0682 40.2807C18.1271 40.4041 16.9546 40.4813 15.5662 40.4813C14.7794 40.4813 14.0234 40.4504 13.2983 40.3887C9.34895 40.0802 6.26349 38.9077 4.0111 36.8713C1.32675 34.4646 0 31.0552 0 26.6121C0 22.2462 1.23418 18.7904 3.7334 16.1987C6.06293 13.7766 9.25639 12.4807 13.2983 12.3264C13.6069 12.311 13.9 12.2955 14.2086 12.2955C18.2968 12.2955 21.3668 13.3909 23.4187 15.597C25.4242 17.7568 26.4424 20.8114 26.4887 24.7608V24.9922C26.4887 25.8407 26.1956 26.5504 25.6094 27.1212C24.9923 27.7229 24.2672 28.0314 23.4341 28.0314H8.94785C8.77815 28.0314 8.62387 28.0931 8.51587 28.232C8.42331 28.3245 8.3616 28.4325 8.3616 28.5405V28.6331C8.51587 29.6513 8.7473 30.4843 9.0867 31.1169C9.51866 31.9499 10.1049 32.6133 10.83 33.107C11.5396 33.5852 12.3573 33.9401 13.2983 34.1406ZM13.2983 17.6334C11.8173 17.6797 10.6449 18.1579 9.78093 19.099C8.99413 19.9166 8.51588 21.012 8.34618 22.3696C8.33075 22.4159 8.31533 22.4621 8.31533 22.5239C8.31533 22.6627 8.37703 22.7861 8.51587 22.8787C8.62387 22.9713 8.76273 23.0175 8.917 23.0175H17.6951C17.8803 23.0175 18.0345 22.9558 18.1425 22.8324C18.2197 22.7244 18.266 22.601 18.266 22.4776V22.4004C18.1425 20.9503 17.7414 19.8241 17.078 19.0219C16.3067 18.0962 15.1342 17.6334 13.5606 17.6334H13.2983Z" fill="#D34D45"/>
</svg>
