<svg width="34" height="33" viewBox="0 0 34 33" fill="none" xmlns="http://www.w3.org/2000/svg">
<path d="M22 18H12C11.448 18 11 18.448 11 19C11 19.552 11.448 20 12 20H22C22.552 20 23 19.552 23 19C23 18.448 22.552 18 22 18ZM24 12H10C9.448 12 9 12.448 9 13C9 13.552 9.448 14 10 14H24C24.552 14 25 13.552 25 13C25 12.448 24.552 12 24 12ZM17 1C8.16403 1 1 7.26797 1 15C1 19.419 3.34499 23.353 7 25.919V29.447C7 31.0061 8.70467 31.9656 10.0375 31.1568L14.009 28.747C14.979 28.907 15.977 29 17 29C25.837 29 33 22.732 33 15C33 7.26797 25.837 1 17 1ZM17 27C15.832 27 14.704 26.864 13.62 26.633L8.91195 29.463L8.97495 24.825C5.36601 22.654 3 19.066 3 15C3 8.37302 9.26797 3 17 3C24.732 3 31 8.37302 31 15C31 21.627 24.732 27 17 27Z" fill="#F2994A" stroke="#FFF4DE" stroke-width="0.5"/>
</svg>
