<svg width="32" height="32" viewBox="0 0 32 32" fill="none" xmlns="http://www.w3.org/2000/svg">
<path d="M29.8237 13.0585C30.3942 12.4937 30.5957 11.6648 30.3495 10.8952C30.1033 10.1256 29.4606 9.57532 28.6721 9.45901L21.778 8.44157C21.6427 8.42164 21.5257 8.33532 21.4651 8.2107L18.382 1.86601C18.0294 1.14039 17.3155 0.689636 16.5187 0.689636C15.722 0.689636 15.008 1.14039 14.6555 1.86601L11.5723 8.21076C11.5117 8.33532 11.3948 8.42164 11.2594 8.44164L4.36536 9.45901C3.57693 9.57532 2.93429 10.1256 2.68801 10.8952C2.44173 11.6648 2.64321 12.4937 3.21379 13.0585L8.20241 17.9972C8.30032 18.0942 8.34506 18.2339 8.32192 18.3708L7.14426 25.3443C7.00961 26.1419 7.32629 26.9327 7.97084 27.4083C8.6154 27.8841 9.45404 27.9455 10.1592 27.5691L16.3254 24.2766C16.4465 24.2119 16.591 24.2119 16.7122 24.2766L22.8785 27.5691C23.1852 27.7328 23.5171 27.8138 23.8473 27.8137C24.2763 27.8137 24.7025 27.6772 25.0666 27.4083C25.7112 26.9326 26.0279 26.1417 25.8932 25.3443L24.7155 18.3708C24.6924 18.2338 24.7371 18.0941 24.835 17.9971L29.8237 13.0585ZM23.0773 18.6563L24.255 25.6299C24.2944 25.8633 24.1525 25.9963 24.0897 26.0426C24.0268 26.0889 23.8583 26.1849 23.652 26.0747L17.4857 22.7823C17.183 22.6207 16.851 22.5398 16.5188 22.5398C16.1867 22.5398 15.8546 22.6207 15.552 22.7822L9.38574 26.0746C9.17934 26.1848 9.0109 26.0888 8.94807 26.0425C8.88524 25.9962 8.74333 25.8631 8.78278 25.6298L9.96044 18.6563C10.0761 17.9716 9.85275 17.2733 9.36284 16.7884L4.37423 11.8497C4.20727 11.6843 4.24506 11.492 4.26912 11.417C4.29306 11.3419 4.37386 11.1638 4.60456 11.1298L11.4985 10.1123C12.1754 10.0124 12.7603 9.58095 13.0631 8.95789L16.1462 2.61314C16.2494 2.40082 16.4412 2.37789 16.5189 2.37789C16.5965 2.37789 16.7883 2.40076 16.8915 2.61314V2.6132L19.9747 8.95795C20.2774 9.58101 20.8622 10.0125 21.5391 10.1124L28.4332 11.1298C28.6639 11.1638 28.7446 11.342 28.7686 11.4171C28.7926 11.4921 28.8305 11.6845 28.6635 11.8498L23.6748 16.7884C23.185 17.2733 22.9617 17.9716 23.0773 18.6563Z" fill="#F2994A"/>
<path d="M25.9559 0.666195C25.5845 0.392195 25.0648 0.475821 24.795 0.852946L23.9127 2.0862C23.6429 2.46332 23.7252 2.99126 24.0966 3.26526C24.2442 3.37407 24.4151 3.42651 24.5845 3.42651C24.8415 3.42651 25.0949 3.30582 25.2575 3.07857L26.1398 1.84532C26.4096 1.46813 26.3273 0.940195 25.9559 0.666195Z" fill="#F2994A"/>
<path d="M8.57604 2.08116L7.69376 0.847912C7.42404 0.470912 6.90428 0.387287 6.53283 0.661162C6.16151 0.935162 6.07917 1.4631 6.34896 1.84022L7.23124 3.07348C7.39388 3.30091 7.6473 3.42154 7.9044 3.42154C8.07382 3.42154 8.24477 3.3691 8.39222 3.26023C8.76354 2.98629 8.84588 2.45835 8.57604 2.08116Z" fill="#F2994A"/>
<path d="M3.54177 18.4289C3.39993 17.9856 2.93107 17.7429 2.49445 17.887L1.06694 18.3581C0.630327 18.5022 0.391496 18.9785 0.533342 19.4218C0.647435 19.7786 0.973281 20.0053 1.32362 20.0053C1.40873 20.0053 1.49531 19.9919 1.58067 19.9637L3.00817 19.4926C3.44473 19.3485 3.68362 18.8723 3.54177 18.4289Z" fill="#F2994A"/>
<path d="M16.2464 27.8012C15.7874 27.8012 15.4153 28.1792 15.4153 28.6454V30.1699C15.4153 30.6361 15.7874 31.014 16.2464 31.014C16.7054 31.014 17.0776 30.6361 17.0776 30.1699V28.6454C17.0776 28.1791 16.7055 27.8012 16.2464 27.8012Z" fill="#F2994A"/>
<path d="M31.4257 18.3593L29.9981 17.8882C29.5617 17.7442 29.0927 17.9867 28.9508 18.4302C28.809 18.8736 29.0478 19.3498 29.4844 19.4939L30.9119 19.965C30.9973 19.9931 31.0838 20.0065 31.1689 20.0065C31.5193 20.0065 31.8452 19.7797 31.9593 19.4229C32.1011 18.9796 31.8622 18.5034 31.4257 18.3593Z" fill="#F2994A"/>
</svg>
