<svg width="60" height="60" viewBox="0 0 60 60" fill="none" xmlns="http://www.w3.org/2000/svg">
<path d="M50.6149 60H9.38513C4.20608 60 0 55.7939 0 50.6149V9.38514C0 4.20608 4.20608 0 9.38513 0H50.6149C55.7939 0 60 4.20608 60 9.38514V50.6149C60 55.7939 55.7939 60 50.6149 60Z" fill="#00519E"/>
<path d="M51.8817 44.3818C51.8817 43.8953 51.5979 43.6723 51.1215 43.6723H50.1283V45.071H51.1519C51.608 45.0811 51.8817 44.848 51.8817 44.3818ZM48.7297 42.375H51.1114C52.3276 42.375 53.2702 43.1554 53.2702 44.3919C53.2702 45.6385 52.3175 46.3885 51.0911 46.3885H50.1182V47.8784H48.7195L48.7297 42.375ZM47.6959 45.1115C47.6959 46.7635 46.5709 47.9189 44.8884 47.9189C43.206 47.9189 42.0607 46.7737 42.0607 45.1216C42.0607 43.4696 43.1857 42.3243 44.8884 42.3243C46.6013 42.3243 47.6959 43.4595 47.6959 45.1115ZM46.3074 45.1115C46.3074 44.25 45.8006 43.6318 44.8986 43.6318C43.9864 43.6318 43.4695 44.25 43.4695 45.1216C43.4695 45.9933 43.9864 46.6115 44.8986 46.6115C45.8107 46.6115 46.3074 45.973 46.3074 45.1115ZM19.3682 45.821L21.4661 42.375H22.9053V47.8683H21.5574V44.4122L19.4594 47.8683H18.0202V42.375H19.3682V45.821ZM15.679 44.3818C15.679 43.8953 15.3952 43.6723 14.9188 43.6723H13.9256V45.071H14.9492C15.4053 45.0811 15.679 44.848 15.679 44.3818ZM12.5269 42.375H14.9087C16.1249 42.375 17.0675 43.1554 17.0675 44.3919C17.0675 45.6385 16.1148 46.3885 14.8884 46.3885H13.9155V47.8784H12.5168L12.5269 42.375ZM25.804 44.3108H25.9763L27.5979 42.375H29.3918L27.1317 44.9291L29.5743 47.8683H27.7297L25.9357 45.5575H25.7938V47.8683H24.3952V42.375H25.7938L25.804 44.3108ZM35.0776 45.1115C35.0776 43.4595 33.9729 42.3243 32.2702 42.3243C30.5675 42.3243 29.4425 43.4696 29.4425 45.1216C29.4425 46.7737 30.5878 47.9189 32.2702 47.9189C33.9526 47.9189 35.0776 46.7635 35.0776 45.1115ZM33.679 45.1115C33.679 45.973 33.1824 46.6115 32.2702 46.6115C31.3479 46.6115 30.8411 45.9933 30.8411 45.1216C30.8411 44.25 31.3682 43.6318 32.2702 43.6318C33.1824 43.6318 33.679 44.25 33.679 45.1115ZM11.5945 42.375V43.6825H9.98303V47.8784H8.58438V43.6825H6.9729V42.375H11.5945ZM38.108 43.6723C38.0776 44.0575 38.0472 44.4325 38.0067 44.8176C37.9661 45.223 37.9053 45.6183 37.8242 46.0034C37.6013 47.1183 37.0134 47.8176 35.8884 47.8784C35.7769 47.8885 35.6655 47.8784 35.5438 47.8784V46.5608C36.1621 46.5811 36.3445 46.348 36.456 45.7703C36.5269 45.3953 36.5979 44.8987 36.6486 44.3818C36.7195 43.7129 36.7702 43.0439 36.8107 42.375H40.9864V47.8683H39.5878V43.6723H38.108Z" fill="white"/>
<path d="M18.6992 28.875L24.2026 23.6858L11.8884 12.0811H23.0573L35.2904 23.6149L29.706 28.875H18.6992Z" fill="white"/>
<path d="M41.0473 39.5575L29.7061 28.875H40.875L52.2061 39.5575H41.0473Z" fill="white"/>
</svg>
