<svg width="1440" height="502" viewBox="0 0 1440 502" fill="none" xmlns="http://www.w3.org/2000/svg">
<g opacity="0.5">
<path d="M21.7536 318.843V324.362H16.3457L21.7536 318.843Z" fill="#D34F50"/>
<path d="M4.75732 312.663V307.255H10.1652L4.75732 312.663Z" fill="#4D6AAF"/>
<path d="M21.7536 284.741V290.148H16.3457L21.7536 284.741Z" fill="#D34F50"/>
<path d="M4.75732 278.56V273.152H10.1652L4.75732 278.56Z" fill="#4D6AAF"/>
<path d="M55.9667 318.843V324.362H50.4485L55.9667 318.843Z" fill="#D34F50"/>
<path d="M38.8604 312.663V307.255H44.3786L38.8604 312.663Z" fill="#4D6AAF"/>
<path d="M90.0695 318.843V324.362H84.5513L90.0695 318.843Z" fill="#D34F50"/>
<path d="M72.9629 312.663V307.255H78.4811L72.9629 312.663Z" fill="#4D6AAF"/>
<path d="M55.9667 284.741V290.148H50.4485L55.9667 284.741Z" fill="#D34F50"/>
<path d="M38.8604 278.56V273.152H44.3786L38.8604 278.56Z" fill="#4D6AAF"/>
<path d="M90.0695 284.741V290.148H84.5513L90.0695 284.741Z" fill="#D34F50"/>
<path d="M72.9629 278.56V273.152H78.4811L72.9629 278.56Z" fill="#4D6AAF"/>
<path d="M124.172 318.843V324.362H118.764L124.172 318.843Z" fill="#D34F50"/>
<path d="M107.176 312.663V307.255H112.584L107.176 312.663Z" fill="#4D6AAF"/>
<path d="M158.385 318.843V324.362H152.867L158.385 318.843Z" fill="#D34F50"/>
<path d="M141.279 312.663V307.255H146.797L141.279 312.663Z" fill="#4D6AAF"/>
<path d="M124.172 284.741V290.148H118.764L124.172 284.741Z" fill="#D34F50"/>
<path d="M107.176 278.56V273.152H112.584L107.176 278.56Z" fill="#4D6AAF"/>
<path d="M158.385 284.741V290.148H152.867L158.385 284.741Z" fill="#D34F50"/>
<path d="M141.279 278.56V273.152H146.797L141.279 278.56Z" fill="#4D6AAF"/>
<path d="M21.7536 250.528V256.046H16.3457L21.7536 250.528Z" fill="#D34F50"/>
<path d="M4.75732 244.458V238.939H10.1652L4.75732 244.458Z" fill="#4D6AAF"/>
<path d="M21.7536 216.425V221.943H16.3457L21.7536 216.425Z" fill="#D34F50"/>
<path d="M4.75732 210.244V204.837H10.1652L4.75732 210.244Z" fill="#4D6AAF"/>
<path d="M55.9667 250.528V256.046H50.4485L55.9667 250.528Z" fill="#D34F50"/>
<path d="M38.8604 244.458V238.939H44.3786L38.8604 244.458Z" fill="#4D6AAF"/>
<path d="M90.0695 250.528V256.046H84.5513L90.0695 250.528Z" fill="#D34F50"/>
<path d="M72.9629 244.458V238.939H78.4811L72.9629 244.458Z" fill="#4D6AAF"/>
<path d="M55.9667 216.425V221.943H50.4485L55.9667 216.425Z" fill="#D34F50"/>
<path d="M38.8604 210.244V204.837H44.3786L38.8604 210.244Z" fill="#4D6AAF"/>
<path d="M90.0695 216.425V221.943H84.5513L90.0695 216.425Z" fill="#D34F50"/>
<path d="M72.9629 210.244V204.837H78.4811L72.9629 210.244Z" fill="#4D6AAF"/>
<path d="M124.172 250.528V256.046H118.764L124.172 250.528Z" fill="#D34F50"/>
<path d="M107.176 244.458V238.939H112.584L107.176 244.458Z" fill="#4D6AAF"/>
<path d="M158.385 250.528V256.046H152.867L158.385 250.528Z" fill="#D34F50"/>
<path d="M141.279 244.458V238.939H146.797L141.279 244.458Z" fill="#4D6AAF"/>
<path d="M124.172 216.425V221.943H118.764L124.172 216.425Z" fill="#D34F50"/>
<path d="M107.176 210.244V204.837H112.584L107.176 210.244Z" fill="#4D6AAF"/>
<path d="M158.385 216.425V221.943H152.867L158.385 216.425Z" fill="#D34F50"/>
<path d="M141.279 210.244V204.837H146.797L141.279 210.244Z" fill="#4D6AAF"/>
<path d="M21.7536 182.322V187.73H16.3457L21.7536 182.322Z" fill="#D34F50"/>
<path d="M4.75732 176.142V170.734H10.1652L4.75732 176.142Z" fill="#4D6AAF"/>
<path d="M21.7536 148.109V153.628H16.3457L21.7536 148.109Z" fill="#D34F50"/>
<path d="M4.75732 142.039V136.521H10.1652L4.75732 142.039Z" fill="#4D6AAF"/>
<path d="M55.9667 182.322V187.73H50.4485L55.9667 182.322Z" fill="#D34F50"/>
<path d="M38.8604 176.142V170.734H44.3786L38.8604 176.142Z" fill="#4D6AAF"/>
<path d="M90.0695 182.322V187.73H84.5513L90.0695 182.322Z" fill="#D34F50"/>
<path d="M72.9629 176.142V170.734H78.4811L72.9629 176.142Z" fill="#4D6AAF"/>
<path d="M55.9667 148.109V153.628H50.4485L55.9667 148.109Z" fill="#D34F50"/>
<path d="M38.8604 142.039V136.521H44.3786L38.8604 142.039Z" fill="#4D6AAF"/>
<path d="M90.0695 148.109V153.628H84.5513L90.0695 148.109Z" fill="#D34F50"/>
<path d="M72.9629 142.039V136.521H78.4811L72.9629 142.039Z" fill="#4D6AAF"/>
<path d="M124.172 182.322V187.73H118.764L124.172 182.322Z" fill="#D34F50"/>
<path d="M107.176 176.142V170.734H112.584L107.176 176.142Z" fill="#4D6AAF"/>
<path d="M158.385 182.322V187.73H152.867L158.385 182.322Z" fill="#D34F50"/>
<path d="M141.279 176.142V170.734H146.797L141.279 176.142Z" fill="#4D6AAF"/>
<path d="M124.172 148.109V153.628H118.764L124.172 148.109Z" fill="#D34F50"/>
<path d="M107.176 142.039V136.521H112.584L107.176 142.039Z" fill="#4D6AAF"/>
<path d="M158.385 148.109V153.628H152.867L158.385 148.109Z" fill="#D34F50"/>
<path d="M141.279 142.039V136.521H146.797L141.279 142.039Z" fill="#4D6AAF"/>
<path d="M21.7536 114.007V119.525H16.3457L21.7536 114.007Z" fill="#D34F50"/>
<path d="M4.75732 107.826V102.418H10.1652L4.75732 107.826Z" fill="#4D6AAF"/>
<path d="M21.7536 79.904V85.3118H16.3457L21.7536 79.904Z" fill="#D34F50"/>
<path d="M4.75732 73.7235V68.3157H10.1652L4.75732 73.7235Z" fill="#4D6AAF"/>
<path d="M55.9667 114.007V119.525H50.4485L55.9667 114.007Z" fill="#D34F50"/>
<path d="M38.8604 107.826V102.418H44.3786L38.8604 107.826Z" fill="#4D6AAF"/>
<path d="M90.0695 114.007V119.525H84.5513L90.0695 114.007Z" fill="#D34F50"/>
<path d="M72.9629 107.826V102.418H78.4811L72.9629 107.826Z" fill="#4D6AAF"/>
<path d="M55.9667 79.904V85.3118H50.4485L55.9667 79.904Z" fill="#D34F50"/>
<path d="M38.8604 73.7235V68.3157H44.3786L38.8604 73.7235Z" fill="#4D6AAF"/>
<path d="M90.0695 79.904V85.3118H84.5513L90.0695 79.904Z" fill="#D34F50"/>
<path d="M72.9629 73.7235V68.3157H78.4811L72.9629 73.7235Z" fill="#4D6AAF"/>
<path d="M124.172 114.007V119.525H118.764L124.172 114.007Z" fill="#D34F50"/>
<path d="M107.176 107.826V102.418H112.584L107.176 107.826Z" fill="#4D6AAF"/>
<path d="M158.385 114.007V119.525H152.867L158.385 114.007Z" fill="#D34F50"/>
<path d="M141.279 107.826V102.418H146.797L141.279 107.826Z" fill="#4D6AAF"/>
<path d="M124.172 79.904V85.3118H118.764L124.172 79.904Z" fill="#D34F50"/>
<path d="M107.176 73.7235V68.3157H112.584L107.176 73.7235Z" fill="#4D6AAF"/>
<path d="M158.385 79.904V85.3118H152.867L158.385 79.904Z" fill="#D34F50"/>
<path d="M141.279 73.7235V68.3157H146.797L141.279 73.7235Z" fill="#4D6AAF"/>
<path d="M192.488 318.843V324.362H187.08L192.488 318.843Z" fill="#D34F50"/>
<path d="M175.381 312.663V307.255H180.899L175.381 312.663Z" fill="#4D6AAF"/>
<path d="M226.59 318.843V324.362H221.183L226.59 318.843Z" fill="#D34F50"/>
<path d="M209.594 312.663V307.255H215.002L209.594 312.663Z" fill="#4D6AAF"/>
<path d="M192.488 284.741V290.148H187.08L192.488 284.741Z" fill="#D34F50"/>
<path d="M175.381 278.56V273.152H180.899L175.381 278.56Z" fill="#4D6AAF"/>
<path d="M226.59 284.741V290.148H221.183L226.59 284.741Z" fill="#D34F50"/>
<path d="M209.594 278.56V273.152H215.002L209.594 278.56Z" fill="#4D6AAF"/>
<path d="M260.803 318.843V324.362H255.285L260.803 318.843Z" fill="#D34F50"/>
<path d="M243.697 312.663V307.255H249.215L243.697 312.663Z" fill="#4D6AAF"/>
<path d="M294.906 318.843V324.362H289.498L294.906 318.843Z" fill="#D34F50"/>
<path d="M277.8 312.663V307.255H283.318L277.8 312.663Z" fill="#4D6AAF"/>
<path d="M260.803 284.741V290.148H255.285L260.803 284.741Z" fill="#D34F50"/>
<path d="M243.697 278.56V273.152H249.215L243.697 278.56Z" fill="#4D6AAF"/>
<path d="M294.906 284.741V290.148H289.498L294.906 284.741Z" fill="#D34F50"/>
<path d="M277.8 278.56V273.152H283.318L277.8 278.56Z" fill="#4D6AAF"/>
<path d="M329.009 318.843V324.362H323.601L329.009 318.843Z" fill="#D34F50"/>
<path d="M312.013 312.663V307.255H317.421L312.013 312.663Z" fill="#4D6AAF"/>
<path d="M329.009 284.741V290.148H323.601L329.009 284.741Z" fill="#D34F50"/>
<path d="M312.013 278.56V273.152H317.421L312.013 278.56Z" fill="#4D6AAF"/>
<path d="M192.488 250.528V256.046H187.08L192.488 250.528Z" fill="#D34F50"/>
<path d="M175.381 244.458V238.939H180.899L175.381 244.458Z" fill="#4D6AAF"/>
<path d="M226.59 250.528V256.046H221.183L226.59 250.528Z" fill="#D34F50"/>
<path d="M209.594 244.458V238.939H215.002L209.594 244.458Z" fill="#4D6AAF"/>
<path d="M192.488 216.425V221.943H187.08L192.488 216.425Z" fill="#D34F50"/>
<path d="M175.381 210.244V204.837H180.899L175.381 210.244Z" fill="#4D6AAF"/>
<path d="M226.59 216.425V221.943H221.183L226.59 216.425Z" fill="#D34F50"/>
<path d="M209.594 210.244V204.837H215.002L209.594 210.244Z" fill="#4D6AAF"/>
<path d="M260.803 250.528V256.046H255.285L260.803 250.528Z" fill="#D34F50"/>
<path d="M243.697 244.458V238.939H249.215L243.697 244.458Z" fill="#4D6AAF"/>
<path d="M294.906 250.528V256.046H289.498L294.906 250.528Z" fill="#D34F50"/>
<path d="M277.8 244.458V238.939H283.318L277.8 244.458Z" fill="#4D6AAF"/>
<path d="M260.803 216.425V221.943H255.285L260.803 216.425Z" fill="#D34F50"/>
<path d="M243.697 210.244V204.837H249.215L243.697 210.244Z" fill="#4D6AAF"/>
<path d="M294.906 216.425V221.943H289.498L294.906 216.425Z" fill="#D34F50"/>
<path d="M277.8 210.244V204.837H283.318L277.8 210.244Z" fill="#4D6AAF"/>
<path d="M329.009 250.528V256.046H323.601L329.009 250.528Z" fill="#D34F50"/>
<path d="M312.013 244.458V238.939H317.421L312.013 244.458Z" fill="#4D6AAF"/>
<path d="M329.009 216.425V221.943H323.601L329.009 216.425Z" fill="#D34F50"/>
<path d="M312.013 210.244V204.837H317.421L312.013 210.244Z" fill="#4D6AAF"/>
<path d="M192.488 182.322V187.73H187.08L192.488 182.322Z" fill="#D34F50"/>
<path d="M175.381 176.142V170.734H180.899L175.381 176.142Z" fill="#4D6AAF"/>
<path d="M226.59 182.322V187.73H221.183L226.59 182.322Z" fill="#D34F50"/>
<path d="M209.594 176.142V170.734H215.002L209.594 176.142Z" fill="#4D6AAF"/>
<path d="M192.488 148.109V153.628H187.08L192.488 148.109Z" fill="#D34F50"/>
<path d="M175.381 142.039V136.521H180.899L175.381 142.039Z" fill="#4D6AAF"/>
<path d="M226.59 148.109V153.628H221.183L226.59 148.109Z" fill="#D34F50"/>
<path d="M209.594 142.039V136.521H215.002L209.594 142.039Z" fill="#4D6AAF"/>
<path d="M260.803 182.322V187.73H255.285L260.803 182.322Z" fill="#D34F50"/>
<path d="M243.697 176.142V170.734H249.215L243.697 176.142Z" fill="#4D6AAF"/>
<path d="M294.906 182.322V187.73H289.498L294.906 182.322Z" fill="#D34F50"/>
<path d="M277.8 176.142V170.734H283.318L277.8 176.142Z" fill="#4D6AAF"/>
<path d="M260.803 148.109V153.628H255.285L260.803 148.109Z" fill="#D34F50"/>
<path d="M243.697 142.039V136.521H249.215L243.697 142.039Z" fill="#4D6AAF"/>
<path d="M294.906 148.109V153.628H289.498L294.906 148.109Z" fill="#D34F50"/>
<path d="M277.8 142.039V136.521H283.318L277.8 142.039Z" fill="#4D6AAF"/>
<path d="M329.009 182.322V187.73H323.601L329.009 182.322Z" fill="#D34F50"/>
<path d="M312.013 176.142V170.734H317.421L312.013 176.142Z" fill="#4D6AAF"/>
<path d="M329.009 148.109V153.628H323.601L329.009 148.109Z" fill="#D34F50"/>
<path d="M312.013 142.039V136.521H317.421L312.013 142.039Z" fill="#4D6AAF"/>
<path d="M192.488 114.007V119.525H187.08L192.488 114.007Z" fill="#D34F50"/>
<path d="M175.381 107.826V102.418H180.899L175.381 107.826Z" fill="#4D6AAF"/>
<path d="M226.59 114.007V119.525H221.183L226.59 114.007Z" fill="#D34F50"/>
<path d="M209.594 107.826V102.418H215.002L209.594 107.826Z" fill="#4D6AAF"/>
<path d="M192.488 79.904V85.3118H187.08L192.488 79.904Z" fill="#D34F50"/>
<path d="M175.381 73.7235V68.3157H180.899L175.381 73.7235Z" fill="#4D6AAF"/>
<path d="M226.59 79.904V85.3118H221.183L226.59 79.904Z" fill="#D34F50"/>
<path d="M209.594 73.7235V68.3157H215.002L209.594 73.7235Z" fill="#4D6AAF"/>
<path d="M260.803 114.007V119.525H255.285L260.803 114.007Z" fill="#D34F50"/>
<path d="M243.697 107.826V102.418H249.215L243.697 107.826Z" fill="#4D6AAF"/>
<path d="M294.906 114.007V119.525H289.498L294.906 114.007Z" fill="#D34F50"/>
<path d="M277.8 107.826V102.418H283.318L277.8 107.826Z" fill="#4D6AAF"/>
<path d="M260.803 79.904V85.3118H255.285L260.803 79.904Z" fill="#D34F50"/>
<path d="M243.697 73.7235V68.3157H249.215L243.697 73.7235Z" fill="#4D6AAF"/>
<path d="M294.906 79.904V85.3118H289.498L294.906 79.904Z" fill="#D34F50"/>
<path d="M277.8 73.7235V68.3157H283.318L277.8 73.7235Z" fill="#4D6AAF"/>
<path d="M329.009 114.007V119.525H323.601L329.009 114.007Z" fill="#D34F50"/>
<path d="M312.013 107.826V102.418H317.421L312.013 107.826Z" fill="#4D6AAF"/>
<path d="M329.009 79.904V85.3118H323.601L329.009 79.904Z" fill="#D34F50"/>
<path d="M312.013 73.7235V68.3157H317.421L312.013 73.7235Z" fill="#4D6AAF"/>
<path d="M20.7602 45.6909V51.2091H15.2419L20.7602 45.6909Z" fill="#D34F50"/>
<path d="M3.65381 39.6209V34.1027H9.17204L3.65381 39.6209Z" fill="#4D6AAF"/>
<path d="M20.7602 11.5883V17.1065H15.2419L20.7602 11.5883Z" fill="#D34F50"/>
<path d="M3.65381 5.40787V0H9.17204L3.65381 5.40787Z" fill="#4D6AAF"/>
<path d="M54.863 45.6909V51.2091H49.4551L54.863 45.6909Z" fill="#D34F50"/>
<path d="M37.8669 39.6209V34.1027H43.2748L37.8669 39.6209Z" fill="#4D6AAF"/>
<path d="M89.0761 45.6909V51.2091H83.5579L89.0761 45.6909Z" fill="#D34F50"/>
<path d="M71.9695 39.6209V34.1027H77.3773L71.9695 39.6209Z" fill="#4D6AAF"/>
<path d="M54.863 11.5883V17.1065H49.4551L54.863 11.5883Z" fill="#D34F50"/>
<path d="M37.8669 5.40787V0H43.2748L37.8669 5.40787Z" fill="#4D6AAF"/>
<path d="M89.0761 11.5883V17.1065H83.5579L89.0761 11.5883Z" fill="#D34F50"/>
<path d="M71.9695 5.40787V0H77.3773L71.9695 5.40787Z" fill="#4D6AAF"/>
<path d="M123.179 45.6909V51.2091H117.66L123.179 45.6909Z" fill="#D34F50"/>
<path d="M106.072 39.6209V34.1027H111.59L106.072 39.6209Z" fill="#4D6AAF"/>
<path d="M157.281 45.6909V51.2091H151.874L157.281 45.6909Z" fill="#D34F50"/>
<path d="M140.285 39.6209V34.1027H145.693L140.285 39.6209Z" fill="#4D6AAF"/>
<path d="M123.179 11.5883V17.1065H117.66L123.179 11.5883Z" fill="#D34F50"/>
<path d="M106.072 5.40787V0H111.59L106.072 5.40787Z" fill="#4D6AAF"/>
<path d="M157.281 11.5883V17.1065H151.874L157.281 11.5883Z" fill="#D34F50"/>
<path d="M140.285 5.40787V0H145.693L140.285 5.40787Z" fill="#4D6AAF"/>
<path d="M191.495 45.6909V51.2091H185.976L191.495 45.6909Z" fill="#D34F50"/>
<path d="M174.388 39.6209V34.1027H179.796L174.388 39.6209Z" fill="#4D6AAF"/>
<path d="M225.597 45.6909V51.2091H220.079L225.597 45.6909Z" fill="#D34F50"/>
<path d="M208.491 39.6209V34.1027H214.009L208.491 39.6209Z" fill="#4D6AAF"/>
<path d="M191.495 11.5883V17.1065H185.976L191.495 11.5883Z" fill="#D34F50"/>
<path d="M174.388 5.40787V0H179.796L174.388 5.40787Z" fill="#4D6AAF"/>
<path d="M225.597 11.5883V17.1065H220.079L225.597 11.5883Z" fill="#D34F50"/>
<path d="M208.491 5.40787V0H214.009L208.491 5.40787Z" fill="#4D6AAF"/>
<path d="M259.7 45.6909V51.2091H254.292L259.7 45.6909Z" fill="#D34F50"/>
<path d="M242.704 39.6209V34.1027H248.111L242.704 39.6209Z" fill="#4D6AAF"/>
<path d="M293.913 45.6909V51.2091H288.394L293.913 45.6909Z" fill="#D34F50"/>
<path d="M276.806 39.6209V34.1027H282.214L276.806 39.6209Z" fill="#4D6AAF"/>
<path d="M259.7 11.5883V17.1065H254.292L259.7 11.5883Z" fill="#D34F50"/>
<path d="M242.704 5.40787V0H248.111L242.704 5.40787Z" fill="#4D6AAF"/>
<path d="M293.913 11.5883V17.1065H288.394L293.913 11.5883Z" fill="#D34F50"/>
<path d="M276.806 5.40787V0H282.214L276.806 5.40787Z" fill="#4D6AAF"/>
<path d="M328.016 45.6909V51.2091H322.497L328.016 45.6909Z" fill="#D34F50"/>
<path d="M310.909 39.6209V34.1027H316.427L310.909 39.6209Z" fill="#4D6AAF"/>
<path d="M328.016 11.5883V17.1065H322.497L328.016 11.5883Z" fill="#D34F50"/>
<path d="M310.909 5.40787V0H316.427L310.909 5.40787Z" fill="#4D6AAF"/>
<path d="M359.58 318.843V324.362H354.061L359.58 318.843Z" fill="#D34F50"/>
<path d="M342.473 312.663V307.255H347.991L342.473 312.663Z" fill="#4D6AAF"/>
<path d="M393.682 318.843V324.362H388.274L393.682 318.843Z" fill="#D34F50"/>
<path d="M376.686 312.663V307.255H382.094L376.686 312.663Z" fill="#4D6AAF"/>
<path d="M359.58 284.741V290.148H354.061L359.58 284.741Z" fill="#D34F50"/>
<path d="M342.473 278.56V273.152H347.991L342.473 278.56Z" fill="#4D6AAF"/>
<path d="M393.682 284.741V290.148H388.274L393.682 284.741Z" fill="#D34F50"/>
<path d="M376.686 278.56V273.152H382.094L376.686 278.56Z" fill="#4D6AAF"/>
<path d="M427.895 318.843V324.362H422.377L427.895 318.843Z" fill="#D34F50"/>
<path d="M410.789 312.663V307.255H416.307L410.789 312.663Z" fill="#4D6AAF"/>
<path d="M461.998 318.843V324.362H456.48L461.998 318.843Z" fill="#D34F50"/>
<path d="M444.891 312.663V307.255H450.41L444.891 312.663Z" fill="#4D6AAF"/>
<path d="M427.895 284.741V290.148H422.377L427.895 284.741Z" fill="#D34F50"/>
<path d="M410.789 278.56V273.152H416.307L410.789 278.56Z" fill="#4D6AAF"/>
<path d="M461.998 284.741V290.148H456.48L461.998 284.741Z" fill="#D34F50"/>
<path d="M444.891 278.56V273.152H450.41L444.891 278.56Z" fill="#4D6AAF"/>
<path d="M496.101 318.843V324.362H490.693L496.101 318.843Z" fill="#D34F50"/>
<path d="M479.104 312.663V307.255H484.512L479.104 312.663Z" fill="#4D6AAF"/>
<path d="M530.314 318.843V324.362H524.795L530.314 318.843Z" fill="#D34F50"/>
<path d="M513.207 312.663V307.255H518.726L513.207 312.663Z" fill="#4D6AAF"/>
<path d="M496.101 284.741V290.148H490.693L496.101 284.741Z" fill="#D34F50"/>
<path d="M479.104 278.56V273.152H484.512L479.104 278.56Z" fill="#4D6AAF"/>
<path d="M530.314 284.741V290.148H524.795L530.314 284.741Z" fill="#D34F50"/>
<path d="M513.207 278.56V273.152H518.726L513.207 278.56Z" fill="#4D6AAF"/>
<path d="M359.58 250.528V256.046H354.061L359.58 250.528Z" fill="#D34F50"/>
<path d="M342.473 244.458V238.939H347.991L342.473 244.458Z" fill="#4D6AAF"/>
<path d="M393.682 250.528V256.046H388.274L393.682 250.528Z" fill="#D34F50"/>
<path d="M376.686 244.458V238.939H382.094L376.686 244.458Z" fill="#4D6AAF"/>
<path d="M359.58 216.425V221.943H354.061L359.58 216.425Z" fill="#D34F50"/>
<path d="M342.473 210.244V204.837H347.991L342.473 210.244Z" fill="#4D6AAF"/>
<path d="M393.682 216.425V221.943H388.274L393.682 216.425Z" fill="#D34F50"/>
<path d="M376.686 210.244V204.837H382.094L376.686 210.244Z" fill="#4D6AAF"/>
<path d="M427.895 250.528V256.046H422.377L427.895 250.528Z" fill="#D34F50"/>
<path d="M410.789 244.458V238.939H416.307L410.789 244.458Z" fill="#4D6AAF"/>
<path d="M461.998 250.528V256.046H456.48L461.998 250.528Z" fill="#D34F50"/>
<path d="M444.891 244.458V238.939H450.41L444.891 244.458Z" fill="#4D6AAF"/>
<path d="M427.895 216.425V221.943H422.377L427.895 216.425Z" fill="#D34F50"/>
<path d="M410.789 210.244V204.837H416.307L410.789 210.244Z" fill="#4D6AAF"/>
<path d="M461.998 216.425V221.943H456.48L461.998 216.425Z" fill="#D34F50"/>
<path d="M444.891 210.244V204.837H450.41L444.891 210.244Z" fill="#4D6AAF"/>
<path d="M496.101 250.528V256.046H490.693L496.101 250.528Z" fill="#D34F50"/>
<path d="M479.104 244.458V238.939H484.512L479.104 244.458Z" fill="#4D6AAF"/>
<path d="M530.314 250.528V256.046H524.795L530.314 250.528Z" fill="#D34F50"/>
<path d="M513.207 244.458V238.939H518.726L513.207 244.458Z" fill="#4D6AAF"/>
<path d="M496.101 216.425V221.943H490.693L496.101 216.425Z" fill="#D34F50"/>
<path d="M479.104 210.244V204.837H484.512L479.104 210.244Z" fill="#4D6AAF"/>
<path d="M530.314 216.425V221.943H524.795L530.314 216.425Z" fill="#D34F50"/>
<path d="M513.207 210.244V204.837H518.726L513.207 210.244Z" fill="#4D6AAF"/>
<path d="M359.58 182.322V187.73H354.061L359.58 182.322Z" fill="#D34F50"/>
<path d="M342.473 176.142V170.734H347.991L342.473 176.142Z" fill="#4D6AAF"/>
<path d="M393.682 182.322V187.73H388.274L393.682 182.322Z" fill="#D34F50"/>
<path d="M376.686 176.142V170.734H382.094L376.686 176.142Z" fill="#4D6AAF"/>
<path d="M359.58 148.109V153.628H354.061L359.58 148.109Z" fill="#D34F50"/>
<path d="M342.473 142.039V136.521H347.991L342.473 142.039Z" fill="#4D6AAF"/>
<path d="M393.682 148.109V153.628H388.274L393.682 148.109Z" fill="#D34F50"/>
<path d="M376.686 142.039V136.521H382.094L376.686 142.039Z" fill="#4D6AAF"/>
<path d="M427.895 182.322V187.73H422.377L427.895 182.322Z" fill="#D34F50"/>
<path d="M410.789 176.142V170.734H416.307L410.789 176.142Z" fill="#4D6AAF"/>
<path d="M461.998 182.322V187.73H456.48L461.998 182.322Z" fill="#D34F50"/>
<path d="M444.891 176.142V170.734H450.41L444.891 176.142Z" fill="#4D6AAF"/>
<path d="M427.895 148.109V153.628H422.377L427.895 148.109Z" fill="#D34F50"/>
<path d="M410.789 142.039V136.521H416.307L410.789 142.039Z" fill="#4D6AAF"/>
<path d="M461.998 148.109V153.628H456.48L461.998 148.109Z" fill="#D34F50"/>
<path d="M444.891 142.039V136.521H450.41L444.891 142.039Z" fill="#4D6AAF"/>
<path d="M496.101 182.322V187.73H490.693L496.101 182.322Z" fill="#D34F50"/>
<path d="M479.104 176.142V170.734H484.512L479.104 176.142Z" fill="#4D6AAF"/>
<path d="M530.314 182.322V187.73H524.795L530.314 182.322Z" fill="#D34F50"/>
<path d="M513.207 176.142V170.734H518.726L513.207 176.142Z" fill="#4D6AAF"/>
<path d="M496.101 148.109V153.628H490.693L496.101 148.109Z" fill="#D34F50"/>
<path d="M479.104 142.039V136.521H484.512L479.104 142.039Z" fill="#4D6AAF"/>
<path d="M530.314 148.109V153.628H524.795L530.314 148.109Z" fill="#D34F50"/>
<path d="M513.207 142.039V136.521H518.726L513.207 142.039Z" fill="#4D6AAF"/>
<path d="M359.58 114.007V119.525H354.061L359.58 114.007Z" fill="#D34F50"/>
<path d="M342.473 107.826V102.418H347.991L342.473 107.826Z" fill="#4D6AAF"/>
<path d="M393.682 114.007V119.525H388.274L393.682 114.007Z" fill="#D34F50"/>
<path d="M376.686 107.826V102.418H382.094L376.686 107.826Z" fill="#4D6AAF"/>
<path d="M359.58 79.904V85.3118H354.061L359.58 79.904Z" fill="#D34F50"/>
<path d="M342.473 73.7235V68.3157H347.991L342.473 73.7235Z" fill="#4D6AAF"/>
<path d="M393.682 79.904V85.3118H388.274L393.682 79.904Z" fill="#D34F50"/>
<path d="M376.686 73.7235V68.3157H382.094L376.686 73.7235Z" fill="#4D6AAF"/>
<path d="M427.895 114.007V119.525H422.377L427.895 114.007Z" fill="#D34F50"/>
<path d="M410.789 107.826V102.418H416.307L410.789 107.826Z" fill="#4D6AAF"/>
<path d="M461.998 114.007V119.525H456.48L461.998 114.007Z" fill="#D34F50"/>
<path d="M444.891 107.826V102.418H450.41L444.891 107.826Z" fill="#4D6AAF"/>
<path d="M427.895 79.904V85.3118H422.377L427.895 79.904Z" fill="#D34F50"/>
<path d="M410.789 73.7235V68.3157H416.307L410.789 73.7235Z" fill="#4D6AAF"/>
<path d="M461.998 79.904V85.3118H456.48L461.998 79.904Z" fill="#D34F50"/>
<path d="M444.891 73.7235V68.3157H450.41L444.891 73.7235Z" fill="#4D6AAF"/>
<path d="M496.101 114.007V119.525H490.693L496.101 114.007Z" fill="#D34F50"/>
<path d="M479.104 107.826V102.418H484.512L479.104 107.826Z" fill="#4D6AAF"/>
<path d="M530.314 114.007V119.525H524.795L530.314 114.007Z" fill="#D34F50"/>
<path d="M513.207 107.826V102.418H518.726L513.207 107.826Z" fill="#4D6AAF"/>
<path d="M496.101 79.904V85.3118H490.693L496.101 79.904Z" fill="#D34F50"/>
<path d="M479.104 73.7235V68.3157H484.512L479.104 73.7235Z" fill="#4D6AAF"/>
<path d="M530.314 79.904V85.3118H524.795L530.314 79.904Z" fill="#D34F50"/>
<path d="M513.207 73.7235V68.3157H518.726L513.207 73.7235Z" fill="#4D6AAF"/>
<path d="M564.417 318.843V324.362H559.009L564.417 318.843Z" fill="#D34F50"/>
<path d="M547.31 312.663V307.255H552.828L547.31 312.663Z" fill="#4D6AAF"/>
<path d="M598.519 318.843V324.362H593.111L598.519 318.843Z" fill="#D34F50"/>
<path d="M581.523 312.663V307.255H586.931L581.523 312.663Z" fill="#4D6AAF"/>
<path d="M564.417 284.741V290.148H559.009L564.417 284.741Z" fill="#D34F50"/>
<path d="M547.31 278.56V273.152H552.828L547.31 278.56Z" fill="#4D6AAF"/>
<path d="M598.519 284.741V290.148H593.111L598.519 284.741Z" fill="#D34F50"/>
<path d="M581.523 278.56V273.152H586.931L581.523 278.56Z" fill="#4D6AAF"/>
<path d="M632.732 318.843V324.362H627.214L632.732 318.843Z" fill="#D34F50"/>
<path d="M615.625 312.663V307.255H621.144L615.625 312.663Z" fill="#4D6AAF"/>
<path d="M666.835 318.843V324.362H661.427L666.835 318.843Z" fill="#D34F50"/>
<path d="M649.728 312.663V307.255H655.247L649.728 312.663Z" fill="#4D6AAF"/>
<path d="M632.732 284.741V290.148H627.214L632.732 284.741Z" fill="#D34F50"/>
<path d="M615.625 278.56V273.152H621.144L615.625 278.56Z" fill="#4D6AAF"/>
<path d="M666.835 284.741V290.148H661.427L666.835 284.741Z" fill="#D34F50"/>
<path d="M649.728 278.56V273.152H655.247L649.728 278.56Z" fill="#4D6AAF"/>
<path d="M700.937 318.843V324.362H695.53L700.937 318.843Z" fill="#D34F50"/>
<path d="M683.941 312.663V307.255H689.349L683.941 312.663Z" fill="#4D6AAF"/>
<path d="M700.937 284.741V290.148H695.53L700.937 284.741Z" fill="#D34F50"/>
<path d="M683.941 278.56V273.152H689.349L683.941 278.56Z" fill="#4D6AAF"/>
<path d="M564.417 250.528V256.046H559.009L564.417 250.528Z" fill="#D34F50"/>
<path d="M547.31 244.458V238.939H552.828L547.31 244.458Z" fill="#4D6AAF"/>
<path d="M598.519 250.528V256.046H593.111L598.519 250.528Z" fill="#D34F50"/>
<path d="M581.523 244.458V238.939H586.931L581.523 244.458Z" fill="#4D6AAF"/>
<path d="M564.417 216.425V221.943H559.009L564.417 216.425Z" fill="#D34F50"/>
<path d="M547.31 210.244V204.837H552.828L547.31 210.244Z" fill="#4D6AAF"/>
<path d="M598.519 216.425V221.943H593.111L598.519 216.425Z" fill="#D34F50"/>
<path d="M581.523 210.244V204.837H586.931L581.523 210.244Z" fill="#4D6AAF"/>
<path d="M632.732 250.528V256.046H627.214L632.732 250.528Z" fill="#D34F50"/>
<path d="M615.625 244.458V238.939H621.144L615.625 244.458Z" fill="#4D6AAF"/>
<path d="M666.835 250.528V256.046H661.427L666.835 250.528Z" fill="#D34F50"/>
<path d="M649.728 244.458V238.939H655.247L649.728 244.458Z" fill="#4D6AAF"/>
<path d="M632.732 216.425V221.943H627.214L632.732 216.425Z" fill="#D34F50"/>
<path d="M615.625 210.244V204.837H621.144L615.625 210.244Z" fill="#4D6AAF"/>
<path d="M666.835 216.425V221.943H661.427L666.835 216.425Z" fill="#D34F50"/>
<path d="M649.728 210.244V204.837H655.247L649.728 210.244Z" fill="#4D6AAF"/>
<path d="M700.937 250.528V256.046H695.53L700.937 250.528Z" fill="#D34F50"/>
<path d="M683.941 244.458V238.939H689.349L683.941 244.458Z" fill="#4D6AAF"/>
<path d="M700.937 216.425V221.943H695.53L700.937 216.425Z" fill="#D34F50"/>
<path d="M683.941 210.244V204.837H689.349L683.941 210.244Z" fill="#4D6AAF"/>
<path d="M564.417 182.322V187.73H559.009L564.417 182.322Z" fill="#D34F50"/>
<path d="M547.31 176.142V170.734H552.828L547.31 176.142Z" fill="#4D6AAF"/>
<path d="M598.519 182.322V187.73H593.111L598.519 182.322Z" fill="#D34F50"/>
<path d="M581.523 176.142V170.734H586.931L581.523 176.142Z" fill="#4D6AAF"/>
<path d="M564.417 148.109V153.628H559.009L564.417 148.109Z" fill="#D34F50"/>
<path d="M547.31 142.039V136.521H552.828L547.31 142.039Z" fill="#4D6AAF"/>
<path d="M598.519 148.109V153.628H593.111L598.519 148.109Z" fill="#D34F50"/>
<path d="M581.523 142.039V136.521H586.931L581.523 142.039Z" fill="#4D6AAF"/>
<path d="M632.732 182.322V187.73H627.214L632.732 182.322Z" fill="#D34F50"/>
<path d="M615.625 176.142V170.734H621.144L615.625 176.142Z" fill="#4D6AAF"/>
<path d="M666.835 182.322V187.73H661.427L666.835 182.322Z" fill="#D34F50"/>
<path d="M649.728 176.142V170.734H655.247L649.728 176.142Z" fill="#4D6AAF"/>
<path d="M632.732 148.109V153.628H627.214L632.732 148.109Z" fill="#D34F50"/>
<path d="M615.625 142.039V136.521H621.144L615.625 142.039Z" fill="#4D6AAF"/>
<path d="M666.835 148.109V153.628H661.427L666.835 148.109Z" fill="#D34F50"/>
<path d="M649.728 142.039V136.521H655.247L649.728 142.039Z" fill="#4D6AAF"/>
<path d="M700.937 182.322V187.73H695.53L700.937 182.322Z" fill="#D34F50"/>
<path d="M683.941 176.142V170.734H689.349L683.941 176.142Z" fill="#4D6AAF"/>
<path d="M700.937 148.109V153.628H695.53L700.937 148.109Z" fill="#D34F50"/>
<path d="M683.941 142.039V136.521H689.349L683.941 142.039Z" fill="#4D6AAF"/>
<path d="M564.417 114.007V119.525H559.009L564.417 114.007Z" fill="#D34F50"/>
<path d="M547.31 107.826V102.418H552.828L547.31 107.826Z" fill="#4D6AAF"/>
<path d="M598.519 114.007V119.525H593.111L598.519 114.007Z" fill="#D34F50"/>
<path d="M581.523 107.826V102.418H586.931L581.523 107.826Z" fill="#4D6AAF"/>
<path d="M564.417 79.904V85.3118H559.009L564.417 79.904Z" fill="#D34F50"/>
<path d="M547.31 73.7235V68.3157H552.828L547.31 73.7235Z" fill="#4D6AAF"/>
<path d="M598.519 79.904V85.3118H593.111L598.519 79.904Z" fill="#D34F50"/>
<path d="M581.523 73.7235V68.3157H586.931L581.523 73.7235Z" fill="#4D6AAF"/>
<path d="M632.732 114.007V119.525H627.214L632.732 114.007Z" fill="#D34F50"/>
<path d="M615.625 107.826V102.418H621.144L615.625 107.826Z" fill="#4D6AAF"/>
<path d="M666.835 114.007V119.525H661.427L666.835 114.007Z" fill="#D34F50"/>
<path d="M649.728 107.826V102.418H655.247L649.728 107.826Z" fill="#4D6AAF"/>
<path d="M632.732 79.904V85.3118H627.214L632.732 79.904Z" fill="#D34F50"/>
<path d="M615.625 73.7235V68.3157H621.144L615.625 73.7235Z" fill="#4D6AAF"/>
<path d="M666.835 79.904V85.3118H661.427L666.835 79.904Z" fill="#D34F50"/>
<path d="M649.728 73.7235V68.3157H655.247L649.728 73.7235Z" fill="#4D6AAF"/>
<path d="M700.937 114.007V119.525H695.53L700.937 114.007Z" fill="#D34F50"/>
<path d="M683.941 107.826V102.418H689.349L683.941 107.826Z" fill="#4D6AAF"/>
<path d="M700.937 79.904V85.3118H695.53L700.937 79.904Z" fill="#D34F50"/>
<path d="M683.941 73.7235V68.3157H689.349L683.941 73.7235Z" fill="#4D6AAF"/>
<path d="M358.586 45.6909V51.2091H353.068L358.586 45.6909Z" fill="#D34F50"/>
<path d="M341.48 39.6209V34.1027H346.888L341.48 39.6209Z" fill="#4D6AAF"/>
<path d="M392.689 45.6909V51.2091H387.171L392.689 45.6909Z" fill="#D34F50"/>
<path d="M375.583 39.6209V34.1027H381.101L375.583 39.6209Z" fill="#4D6AAF"/>
<path d="M358.586 11.5883V17.1065H353.068L358.586 11.5883Z" fill="#D34F50"/>
<path d="M341.48 5.40787V0H346.888L341.48 5.40787Z" fill="#4D6AAF"/>
<path d="M392.689 11.5883V17.1065H387.171L392.689 11.5883Z" fill="#D34F50"/>
<path d="M375.583 5.40787V0H381.101L375.583 5.40787Z" fill="#4D6AAF"/>
<path d="M426.792 45.6909V51.2091H421.384L426.792 45.6909Z" fill="#D34F50"/>
<path d="M409.795 39.6209V34.1027H415.203L409.795 39.6209Z" fill="#4D6AAF"/>
<path d="M461.005 45.6909V51.2091H455.486L461.005 45.6909Z" fill="#D34F50"/>
<path d="M443.898 39.6209V34.1027H449.306L443.898 39.6209Z" fill="#4D6AAF"/>
<path d="M426.792 11.5883V17.1065H421.384L426.792 11.5883Z" fill="#D34F50"/>
<path d="M409.795 5.40787V0H415.203L409.795 5.40787Z" fill="#4D6AAF"/>
<path d="M461.005 11.5883V17.1065H455.486L461.005 11.5883Z" fill="#D34F50"/>
<path d="M443.898 5.40787V0H449.306L443.898 5.40787Z" fill="#4D6AAF"/>
<path d="M495.107 45.6909V51.2091H489.589L495.107 45.6909Z" fill="#D34F50"/>
<path d="M478.001 39.6209V34.1027H483.519L478.001 39.6209Z" fill="#4D6AAF"/>
<path d="M529.21 45.6909V51.2091H523.802L529.21 45.6909Z" fill="#D34F50"/>
<path d="M512.214 39.6209V34.1027H517.622L512.214 39.6209Z" fill="#4D6AAF"/>
<path d="M495.107 11.5883V17.1065H489.589L495.107 11.5883Z" fill="#D34F50"/>
<path d="M478.001 5.40787V0H483.519L478.001 5.40787Z" fill="#4D6AAF"/>
<path d="M529.21 11.5883V17.1065H523.802L529.21 11.5883Z" fill="#D34F50"/>
<path d="M512.214 5.40787V0H517.622L512.214 5.40787Z" fill="#4D6AAF"/>
<path d="M563.423 45.6909V51.2091H557.905L563.423 45.6909Z" fill="#D34F50"/>
<path d="M546.317 39.6209V34.1027H551.725L546.317 39.6209Z" fill="#4D6AAF"/>
<path d="M597.526 45.6909V51.2091H592.008L597.526 45.6909Z" fill="#D34F50"/>
<path d="M580.419 39.6209V34.1027H585.937L580.419 39.6209Z" fill="#4D6AAF"/>
<path d="M563.423 11.5883V17.1065H557.905L563.423 11.5883Z" fill="#D34F50"/>
<path d="M546.317 5.40787V0H551.725L546.317 5.40787Z" fill="#4D6AAF"/>
<path d="M597.526 11.5883V17.1065H592.008L597.526 11.5883Z" fill="#D34F50"/>
<path d="M580.419 5.40787V0H585.937L580.419 5.40787Z" fill="#4D6AAF"/>
<path d="M631.629 45.6909V51.2091H626.221L631.629 45.6909Z" fill="#D34F50"/>
<path d="M614.632 39.6209V34.1027H620.04L614.632 39.6209Z" fill="#4D6AAF"/>
<path d="M665.841 45.6909V51.2091H660.323L665.841 45.6909Z" fill="#D34F50"/>
<path d="M648.735 39.6209V34.1027H654.143L648.735 39.6209Z" fill="#4D6AAF"/>
<path d="M631.629 11.5883V17.1065H626.221L631.629 11.5883Z" fill="#D34F50"/>
<path d="M614.632 5.40787V0H620.04L614.632 5.40787Z" fill="#4D6AAF"/>
<path d="M665.841 11.5883V17.1065H660.323L665.841 11.5883Z" fill="#D34F50"/>
<path d="M648.735 5.40787V0H654.143L648.735 5.40787Z" fill="#4D6AAF"/>
<path d="M699.944 45.6909V51.2091H694.426L699.944 45.6909Z" fill="#D34F50"/>
<path d="M682.837 39.6209V34.1027H688.356L682.837 39.6209Z" fill="#4D6AAF"/>
<path d="M699.944 11.5883V17.1065H694.426L699.944 11.5883Z" fill="#D34F50"/>
<path d="M682.837 5.40787V0H688.356L682.837 5.40787Z" fill="#4D6AAF"/>
<path d="M21.7536 488.032V493.55H16.3457L21.7536 488.032Z" fill="#D34F50"/>
<path d="M4.75732 481.962V476.444H10.1652L4.75732 481.962Z" fill="#4D6AAF"/>
<path d="M55.9667 488.032V493.55H50.4485L55.9667 488.032Z" fill="#D34F50"/>
<path d="M38.8604 481.962V476.444H44.3786L38.8604 481.962Z" fill="#4D6AAF"/>
<path d="M90.0695 488.032V493.55H84.5513L90.0695 488.032Z" fill="#D34F50"/>
<path d="M72.9629 481.962V476.444H78.4811L72.9629 481.962Z" fill="#4D6AAF"/>
<path d="M124.172 488.032V493.55H118.764L124.172 488.032Z" fill="#D34F50"/>
<path d="M107.176 481.962V476.444H112.584L107.176 481.962Z" fill="#4D6AAF"/>
<path d="M158.385 488.032V493.55H152.867L158.385 488.032Z" fill="#D34F50"/>
<path d="M141.279 481.962V476.444H146.797L141.279 481.962Z" fill="#4D6AAF"/>
<path d="M21.7536 453.93V459.448H16.3457L21.7536 453.93Z" fill="#D34F50"/>
<path d="M4.75732 447.749V442.341H10.1652L4.75732 447.749Z" fill="#4D6AAF"/>
<path d="M21.7536 419.827V425.235H16.3457L21.7536 419.827Z" fill="#D34F50"/>
<path d="M4.75732 413.646V408.239H10.1652L4.75732 413.646Z" fill="#4D6AAF"/>
<path d="M55.9667 453.93V459.448H50.4485L55.9667 453.93Z" fill="#D34F50"/>
<path d="M38.8604 447.749V442.341H44.3786L38.8604 447.749Z" fill="#4D6AAF"/>
<path d="M90.0695 453.93V459.448H84.5513L90.0695 453.93Z" fill="#D34F50"/>
<path d="M72.9629 447.749V442.341H78.4811L72.9629 447.749Z" fill="#4D6AAF"/>
<path d="M55.9667 419.827V425.235H50.4485L55.9667 419.827Z" fill="#D34F50"/>
<path d="M38.8604 413.646V408.239H44.3786L38.8604 413.646Z" fill="#4D6AAF"/>
<path d="M90.0695 419.827V425.235H84.5513L90.0695 419.827Z" fill="#D34F50"/>
<path d="M72.9629 413.646V408.239H78.4811L72.9629 413.646Z" fill="#4D6AAF"/>
<path d="M124.172 453.93V459.448H118.764L124.172 453.93Z" fill="#D34F50"/>
<path d="M107.176 447.749V442.341H112.584L107.176 447.749Z" fill="#4D6AAF"/>
<path d="M158.385 453.93V459.448H152.867L158.385 453.93Z" fill="#D34F50"/>
<path d="M141.279 447.749V442.341H146.797L141.279 447.749Z" fill="#4D6AAF"/>
<path d="M124.172 419.827V425.235H118.764L124.172 419.827Z" fill="#D34F50"/>
<path d="M107.176 413.646V408.239H112.584L107.176 413.646Z" fill="#4D6AAF"/>
<path d="M158.385 419.827V425.235H152.867L158.385 419.827Z" fill="#D34F50"/>
<path d="M141.279 413.646V408.239H146.797L141.279 413.646Z" fill="#4D6AAF"/>
<path d="M192.488 488.032V493.55H187.08L192.488 488.032Z" fill="#D34F50"/>
<path d="M175.381 481.962V476.444H180.899L175.381 481.962Z" fill="#4D6AAF"/>
<path d="M226.59 488.032V493.55H221.183L226.59 488.032Z" fill="#D34F50"/>
<path d="M209.594 481.962V476.444H215.002L209.594 481.962Z" fill="#4D6AAF"/>
<path d="M260.803 488.032V493.55H255.285L260.803 488.032Z" fill="#D34F50"/>
<path d="M243.697 481.962V476.444H249.215L243.697 481.962Z" fill="#4D6AAF"/>
<path d="M294.906 488.032V493.55H289.498L294.906 488.032Z" fill="#D34F50"/>
<path d="M277.8 481.962V476.444H283.318L277.8 481.962Z" fill="#4D6AAF"/>
<path d="M329.009 488.032V493.55H323.601L329.009 488.032Z" fill="#D34F50"/>
<path d="M312.013 481.962V476.444H317.421L312.013 481.962Z" fill="#4D6AAF"/>
<path d="M192.488 453.93V459.448H187.08L192.488 453.93Z" fill="#D34F50"/>
<path d="M175.381 447.749V442.341H180.899L175.381 447.749Z" fill="#4D6AAF"/>
<path d="M226.59 453.93V459.448H221.183L226.59 453.93Z" fill="#D34F50"/>
<path d="M209.594 447.749V442.341H215.002L209.594 447.749Z" fill="#4D6AAF"/>
<path d="M192.488 419.827V425.235H187.08L192.488 419.827Z" fill="#D34F50"/>
<path d="M175.381 413.646V408.239H180.899L175.381 413.646Z" fill="#4D6AAF"/>
<path d="M226.59 419.827V425.235H221.183L226.59 419.827Z" fill="#D34F50"/>
<path d="M209.594 413.646V408.239H215.002L209.594 413.646Z" fill="#4D6AAF"/>
<path d="M260.803 453.93V459.448H255.285L260.803 453.93Z" fill="#D34F50"/>
<path d="M243.697 447.749V442.341H249.215L243.697 447.749Z" fill="#4D6AAF"/>
<path d="M294.906 453.93V459.448H289.498L294.906 453.93Z" fill="#D34F50"/>
<path d="M277.8 447.749V442.341H283.318L277.8 447.749Z" fill="#4D6AAF"/>
<path d="M260.803 419.827V425.235H255.285L260.803 419.827Z" fill="#D34F50"/>
<path d="M243.697 413.646V408.239H249.215L243.697 413.646Z" fill="#4D6AAF"/>
<path d="M294.906 419.827V425.235H289.498L294.906 419.827Z" fill="#D34F50"/>
<path d="M277.8 413.646V408.239H283.318L277.8 413.646Z" fill="#4D6AAF"/>
<path d="M329.009 453.93V459.448H323.601L329.009 453.93Z" fill="#D34F50"/>
<path d="M312.013 447.749V442.341H317.421L312.013 447.749Z" fill="#4D6AAF"/>
<path d="M329.009 419.827V425.235H323.601L329.009 419.827Z" fill="#D34F50"/>
<path d="M312.013 413.646V408.239H317.421L312.013 413.646Z" fill="#4D6AAF"/>
<path d="M20.7602 385.614V391.132H15.2419L20.7602 385.614Z" fill="#D34F50"/>
<path d="M3.65381 379.544V374.026H9.17204L3.65381 379.544Z" fill="#4D6AAF"/>
<path d="M20.7602 351.511V357.029H15.2419L20.7602 351.511Z" fill="#D34F50"/>
<path d="M3.65381 345.331V339.923H9.17204L3.65381 345.331Z" fill="#4D6AAF"/>
<path d="M54.863 385.614V391.132H49.4551L54.863 385.614Z" fill="#D34F50"/>
<path d="M37.8669 379.544V374.026H43.2748L37.8669 379.544Z" fill="#4D6AAF"/>
<path d="M89.0761 385.614V391.132H83.5579L89.0761 385.614Z" fill="#D34F50"/>
<path d="M71.9695 379.544V374.026H77.3773L71.9695 379.544Z" fill="#4D6AAF"/>
<path d="M54.863 351.511V357.029H49.4551L54.863 351.511Z" fill="#D34F50"/>
<path d="M37.8669 345.331V339.923H43.2748L37.8669 345.331Z" fill="#4D6AAF"/>
<path d="M89.0761 351.511V357.029H83.5579L89.0761 351.511Z" fill="#D34F50"/>
<path d="M71.9695 345.331V339.923H77.3773L71.9695 345.331Z" fill="#4D6AAF"/>
<path d="M123.179 385.614V391.132H117.66L123.179 385.614Z" fill="#D34F50"/>
<path d="M106.072 379.544V374.026H111.59L106.072 379.544Z" fill="#4D6AAF"/>
<path d="M157.281 385.614V391.132H151.874L157.281 385.614Z" fill="#D34F50"/>
<path d="M140.285 379.544V374.026H145.693L140.285 379.544Z" fill="#4D6AAF"/>
<path d="M123.179 351.511V357.029H117.66L123.179 351.511Z" fill="#D34F50"/>
<path d="M106.072 345.331V339.923H111.59L106.072 345.331Z" fill="#4D6AAF"/>
<path d="M157.281 351.511V357.029H151.874L157.281 351.511Z" fill="#D34F50"/>
<path d="M140.285 345.331V339.923H145.693L140.285 345.331Z" fill="#4D6AAF"/>
<path d="M191.495 385.614V391.132H185.976L191.495 385.614Z" fill="#D34F50"/>
<path d="M174.388 379.544V374.026H179.796L174.388 379.544Z" fill="#4D6AAF"/>
<path d="M225.597 385.614V391.132H220.079L225.597 385.614Z" fill="#D34F50"/>
<path d="M208.491 379.544V374.026H214.009L208.491 379.544Z" fill="#4D6AAF"/>
<path d="M191.495 351.511V357.029H185.976L191.495 351.511Z" fill="#D34F50"/>
<path d="M174.388 345.331V339.923H179.796L174.388 345.331Z" fill="#4D6AAF"/>
<path d="M225.597 351.511V357.029H220.079L225.597 351.511Z" fill="#D34F50"/>
<path d="M208.491 345.331V339.923H214.009L208.491 345.331Z" fill="#4D6AAF"/>
<path d="M259.7 385.614V391.132H254.292L259.7 385.614Z" fill="#D34F50"/>
<path d="M242.704 379.544V374.026H248.111L242.704 379.544Z" fill="#4D6AAF"/>
<path d="M293.913 385.614V391.132H288.394L293.913 385.614Z" fill="#D34F50"/>
<path d="M276.806 379.544V374.026H282.214L276.806 379.544Z" fill="#4D6AAF"/>
<path d="M259.7 351.511V357.029H254.292L259.7 351.511Z" fill="#D34F50"/>
<path d="M242.704 345.331V339.923H248.111L242.704 345.331Z" fill="#4D6AAF"/>
<path d="M293.913 351.511V357.029H288.394L293.913 351.511Z" fill="#D34F50"/>
<path d="M276.806 345.331V339.923H282.214L276.806 345.331Z" fill="#4D6AAF"/>
<path d="M328.016 385.614V391.132H322.497L328.016 385.614Z" fill="#D34F50"/>
<path d="M310.909 379.544V374.026H316.427L310.909 379.544Z" fill="#4D6AAF"/>
<path d="M328.016 351.511V357.029H322.497L328.016 351.511Z" fill="#D34F50"/>
<path d="M310.909 345.331V339.923H316.427L310.909 345.331Z" fill="#4D6AAF"/>
<path d="M359.58 488.032V493.55H354.061L359.58 488.032Z" fill="#D34F50"/>
<path d="M342.473 481.962V476.444H347.991L342.473 481.962Z" fill="#4D6AAF"/>
<path d="M393.682 488.032V493.55H388.274L393.682 488.032Z" fill="#D34F50"/>
<path d="M376.686 481.962V476.444H382.094L376.686 481.962Z" fill="#4D6AAF"/>
<path d="M427.895 488.032V493.55H422.377L427.895 488.032Z" fill="#D34F50"/>
<path d="M410.789 481.962V476.444H416.307L410.789 481.962Z" fill="#4D6AAF"/>
<path d="M461.998 488.032V493.55H456.48L461.998 488.032Z" fill="#D34F50"/>
<path d="M444.891 481.962V476.444H450.41L444.891 481.962Z" fill="#4D6AAF"/>
<path d="M496.101 488.032V493.55H490.693L496.101 488.032Z" fill="#D34F50"/>
<path d="M479.104 481.962V476.444H484.512L479.104 481.962Z" fill="#4D6AAF"/>
<path d="M530.314 488.032V493.55H524.795L530.314 488.032Z" fill="#D34F50"/>
<path d="M513.207 481.962V476.444H518.726L513.207 481.962Z" fill="#4D6AAF"/>
<path d="M359.58 453.93V459.448H354.061L359.58 453.93Z" fill="#D34F50"/>
<path d="M342.473 447.749V442.341H347.991L342.473 447.749Z" fill="#4D6AAF"/>
<path d="M393.682 453.93V459.448H388.274L393.682 453.93Z" fill="#D34F50"/>
<path d="M376.686 447.749V442.341H382.094L376.686 447.749Z" fill="#4D6AAF"/>
<path d="M359.58 419.827V425.235H354.061L359.58 419.827Z" fill="#D34F50"/>
<path d="M342.473 413.646V408.239H347.991L342.473 413.646Z" fill="#4D6AAF"/>
<path d="M393.682 419.827V425.235H388.274L393.682 419.827Z" fill="#D34F50"/>
<path d="M376.686 413.646V408.239H382.094L376.686 413.646Z" fill="#4D6AAF"/>
<path d="M427.895 453.93V459.448H422.377L427.895 453.93Z" fill="#D34F50"/>
<path d="M410.789 447.749V442.341H416.307L410.789 447.749Z" fill="#4D6AAF"/>
<path d="M461.998 453.93V459.448H456.48L461.998 453.93Z" fill="#D34F50"/>
<path d="M444.891 447.749V442.341H450.41L444.891 447.749Z" fill="#4D6AAF"/>
<path d="M427.895 419.827V425.235H422.377L427.895 419.827Z" fill="#D34F50"/>
<path d="M410.789 413.646V408.239H416.307L410.789 413.646Z" fill="#4D6AAF"/>
<path d="M461.998 419.827V425.235H456.48L461.998 419.827Z" fill="#D34F50"/>
<path d="M444.891 413.646V408.239H450.41L444.891 413.646Z" fill="#4D6AAF"/>
<path d="M496.101 453.93V459.448H490.693L496.101 453.93Z" fill="#D34F50"/>
<path d="M479.104 447.749V442.341H484.512L479.104 447.749Z" fill="#4D6AAF"/>
<path d="M530.314 453.93V459.448H524.795L530.314 453.93Z" fill="#D34F50"/>
<path d="M513.207 447.749V442.341H518.726L513.207 447.749Z" fill="#4D6AAF"/>
<path d="M496.101 419.827V425.235H490.693L496.101 419.827Z" fill="#D34F50"/>
<path d="M479.104 413.646V408.239H484.512L479.104 413.646Z" fill="#4D6AAF"/>
<path d="M530.314 419.827V425.235H524.795L530.314 419.827Z" fill="#D34F50"/>
<path d="M513.207 413.646V408.239H518.726L513.207 413.646Z" fill="#4D6AAF"/>
<path d="M564.417 488.032V493.55H559.009L564.417 488.032Z" fill="#D34F50"/>
<path d="M547.31 481.962V476.444H552.828L547.31 481.962Z" fill="#4D6AAF"/>
<path d="M598.519 488.032V493.55H593.111L598.519 488.032Z" fill="#D34F50"/>
<path d="M581.523 481.962V476.444H586.931L581.523 481.962Z" fill="#4D6AAF"/>
<path d="M632.732 488.032V493.55H627.214L632.732 488.032Z" fill="#D34F50"/>
<path d="M615.625 481.962V476.444H621.144L615.625 481.962Z" fill="#4D6AAF"/>
<path d="M666.835 488.032V493.55H661.427L666.835 488.032Z" fill="#D34F50"/>
<path d="M649.728 481.962V476.444H655.247L649.728 481.962Z" fill="#4D6AAF"/>
<path d="M700.937 488.032V493.55H695.53L700.937 488.032Z" fill="#D34F50"/>
<path d="M683.941 481.962V476.444H689.349L683.941 481.962Z" fill="#4D6AAF"/>
<path d="M564.417 453.93V459.448H559.009L564.417 453.93Z" fill="#D34F50"/>
<path d="M547.31 447.749V442.341H552.828L547.31 447.749Z" fill="#4D6AAF"/>
<path d="M598.519 453.93V459.448H593.111L598.519 453.93Z" fill="#D34F50"/>
<path d="M581.523 447.749V442.341H586.931L581.523 447.749Z" fill="#4D6AAF"/>
<path d="M564.417 419.827V425.235H559.009L564.417 419.827Z" fill="#D34F50"/>
<path d="M547.31 413.646V408.239H552.828L547.31 413.646Z" fill="#4D6AAF"/>
<path d="M598.519 419.827V425.235H593.111L598.519 419.827Z" fill="#D34F50"/>
<path d="M581.523 413.646V408.239H586.931L581.523 413.646Z" fill="#4D6AAF"/>
<path d="M632.732 453.93V459.448H627.214L632.732 453.93Z" fill="#D34F50"/>
<path d="M615.625 447.749V442.341H621.144L615.625 447.749Z" fill="#4D6AAF"/>
<path d="M666.835 453.93V459.448H661.427L666.835 453.93Z" fill="#D34F50"/>
<path d="M649.728 447.749V442.341H655.247L649.728 447.749Z" fill="#4D6AAF"/>
<path d="M632.732 419.827V425.235H627.214L632.732 419.827Z" fill="#D34F50"/>
<path d="M615.625 413.646V408.239H621.144L615.625 413.646Z" fill="#4D6AAF"/>
<path d="M666.835 419.827V425.235H661.427L666.835 419.827Z" fill="#D34F50"/>
<path d="M649.728 413.646V408.239H655.247L649.728 413.646Z" fill="#4D6AAF"/>
<path d="M700.937 453.93V459.448H695.53L700.937 453.93Z" fill="#D34F50"/>
<path d="M683.941 447.749V442.341H689.349L683.941 447.749Z" fill="#4D6AAF"/>
<path d="M700.937 419.827V425.235H695.53L700.937 419.827Z" fill="#D34F50"/>
<path d="M683.941 413.646V408.239H689.349L683.941 413.646Z" fill="#4D6AAF"/>
<path d="M358.586 385.614V391.132H353.068L358.586 385.614Z" fill="#D34F50"/>
<path d="M341.48 379.544V374.026H346.888L341.48 379.544Z" fill="#4D6AAF"/>
<path d="M392.689 385.614V391.132H387.171L392.689 385.614Z" fill="#D34F50"/>
<path d="M375.583 379.544V374.026H381.101L375.583 379.544Z" fill="#4D6AAF"/>
<path d="M358.586 351.511V357.029H353.068L358.586 351.511Z" fill="#D34F50"/>
<path d="M341.48 345.331V339.923H346.888L341.48 345.331Z" fill="#4D6AAF"/>
<path d="M392.689 351.511V357.029H387.171L392.689 351.511Z" fill="#D34F50"/>
<path d="M375.583 345.331V339.923H381.101L375.583 345.331Z" fill="#4D6AAF"/>
<path d="M426.792 385.614V391.132H421.384L426.792 385.614Z" fill="#D34F50"/>
<path d="M409.795 379.544V374.026H415.203L409.795 379.544Z" fill="#4D6AAF"/>
<path d="M461.005 385.614V391.132H455.486L461.005 385.614Z" fill="#D34F50"/>
<path d="M443.898 379.544V374.026H449.306L443.898 379.544Z" fill="#4D6AAF"/>
<path d="M426.792 351.511V357.029H421.384L426.792 351.511Z" fill="#D34F50"/>
<path d="M409.795 345.331V339.923H415.203L409.795 345.331Z" fill="#4D6AAF"/>
<path d="M461.005 351.511V357.029H455.486L461.005 351.511Z" fill="#D34F50"/>
<path d="M443.898 345.331V339.923H449.306L443.898 345.331Z" fill="#4D6AAF"/>
<path d="M495.107 385.614V391.132H489.589L495.107 385.614Z" fill="#D34F50"/>
<path d="M478.001 379.544V374.026H483.519L478.001 379.544Z" fill="#4D6AAF"/>
<path d="M529.21 385.614V391.132H523.802L529.21 385.614Z" fill="#D34F50"/>
<path d="M512.214 379.544V374.026H517.622L512.214 379.544Z" fill="#4D6AAF"/>
<path d="M495.107 351.511V357.029H489.589L495.107 351.511Z" fill="#D34F50"/>
<path d="M478.001 345.331V339.923H483.519L478.001 345.331Z" fill="#4D6AAF"/>
<path d="M529.21 351.511V357.029H523.802L529.21 351.511Z" fill="#D34F50"/>
<path d="M512.214 345.331V339.923H517.622L512.214 345.331Z" fill="#4D6AAF"/>
<path d="M563.423 385.614V391.132H557.905L563.423 385.614Z" fill="#D34F50"/>
<path d="M546.317 379.544V374.026H551.725L546.317 379.544Z" fill="#4D6AAF"/>
<path d="M597.526 385.614V391.132H592.008L597.526 385.614Z" fill="#D34F50"/>
<path d="M580.419 379.544V374.026H585.937L580.419 379.544Z" fill="#4D6AAF"/>
<path d="M563.423 351.511V357.029H557.905L563.423 351.511Z" fill="#D34F50"/>
<path d="M546.317 345.331V339.923H551.725L546.317 345.331Z" fill="#4D6AAF"/>
<path d="M597.526 351.511V357.029H592.008L597.526 351.511Z" fill="#D34F50"/>
<path d="M580.419 345.331V339.923H585.937L580.419 345.331Z" fill="#4D6AAF"/>
<path d="M631.629 385.614V391.132H626.221L631.629 385.614Z" fill="#D34F50"/>
<path d="M614.632 379.544V374.026H620.04L614.632 379.544Z" fill="#4D6AAF"/>
<path d="M665.841 385.614V391.132H660.323L665.841 385.614Z" fill="#D34F50"/>
<path d="M648.735 379.544V374.026H654.143L648.735 379.544Z" fill="#4D6AAF"/>
<path d="M631.629 351.511V357.029H626.221L631.629 351.511Z" fill="#D34F50"/>
<path d="M614.632 345.331V339.923H620.04L614.632 345.331Z" fill="#4D6AAF"/>
<path d="M665.841 351.511V357.029H660.323L665.841 351.511Z" fill="#D34F50"/>
<path d="M648.735 345.331V339.923H654.143L648.735 345.331Z" fill="#4D6AAF"/>
<path d="M699.944 385.614V391.132H694.426L699.944 385.614Z" fill="#D34F50"/>
<path d="M682.837 379.544V374.026H688.356L682.837 379.544Z" fill="#4D6AAF"/>
<path d="M699.944 351.511V357.029H694.426L699.944 351.511Z" fill="#D34F50"/>
<path d="M682.837 345.331V339.923H688.356L682.837 345.331Z" fill="#4D6AAF"/>
<path d="M731.508 318.843V324.362H725.99L731.508 318.843Z" fill="#D34F50"/>
<path d="M714.402 312.663V307.255H719.92L714.402 312.663Z" fill="#4D6AAF"/>
<path d="M765.611 318.843V324.362H760.203L765.611 318.843Z" fill="#D34F50"/>
<path d="M748.615 312.663V307.255H754.023L748.615 312.663Z" fill="#4D6AAF"/>
<path d="M731.508 284.741V290.148H725.99L731.508 284.741Z" fill="#D34F50"/>
<path d="M714.402 278.56V273.152H719.92L714.402 278.56Z" fill="#4D6AAF"/>
<path d="M765.611 284.741V290.148H760.203L765.611 284.741Z" fill="#D34F50"/>
<path d="M748.615 278.56V273.152H754.023L748.615 278.56Z" fill="#4D6AAF"/>
<path d="M799.824 318.843V324.362H794.306L799.824 318.843Z" fill="#D34F50"/>
<path d="M782.718 312.663V307.255H788.236L782.718 312.663Z" fill="#4D6AAF"/>
<path d="M833.927 318.843V324.362H828.409L833.927 318.843Z" fill="#D34F50"/>
<path d="M816.82 312.663V307.255H822.339L816.82 312.663Z" fill="#4D6AAF"/>
<path d="M799.824 284.741V290.148H794.306L799.824 284.741Z" fill="#D34F50"/>
<path d="M782.718 278.56V273.152H788.236L782.718 278.56Z" fill="#4D6AAF"/>
<path d="M833.927 284.741V290.148H828.409L833.927 284.741Z" fill="#D34F50"/>
<path d="M816.82 278.56V273.152H822.339L816.82 278.56Z" fill="#4D6AAF"/>
<path d="M868.029 318.843V324.362H862.622L868.029 318.843Z" fill="#D34F50"/>
<path d="M851.033 312.663V307.255H856.441L851.033 312.663Z" fill="#4D6AAF"/>
<path d="M902.243 318.843V324.362H896.724L902.243 318.843Z" fill="#D34F50"/>
<path d="M885.136 312.663V307.255H890.654L885.136 312.663Z" fill="#4D6AAF"/>
<path d="M868.029 284.741V290.148H862.622L868.029 284.741Z" fill="#D34F50"/>
<path d="M851.033 278.56V273.152H856.441L851.033 278.56Z" fill="#4D6AAF"/>
<path d="M902.243 284.741V290.148H896.724L902.243 284.741Z" fill="#D34F50"/>
<path d="M885.136 278.56V273.152H890.654L885.136 278.56Z" fill="#4D6AAF"/>
<path d="M731.508 250.528V256.046H725.99L731.508 250.528Z" fill="#D34F50"/>
<path d="M714.402 244.458V238.939H719.92L714.402 244.458Z" fill="#4D6AAF"/>
<path d="M765.611 250.528V256.046H760.203L765.611 250.528Z" fill="#D34F50"/>
<path d="M748.615 244.458V238.939H754.023L748.615 244.458Z" fill="#4D6AAF"/>
<path d="M731.508 216.425V221.943H725.99L731.508 216.425Z" fill="#D34F50"/>
<path d="M714.402 210.244V204.837H719.92L714.402 210.244Z" fill="#4D6AAF"/>
<path d="M765.611 216.425V221.943H760.203L765.611 216.425Z" fill="#D34F50"/>
<path d="M748.615 210.244V204.837H754.023L748.615 210.244Z" fill="#4D6AAF"/>
<path d="M799.824 250.528V256.046H794.306L799.824 250.528Z" fill="#D34F50"/>
<path d="M782.718 244.458V238.939H788.236L782.718 244.458Z" fill="#4D6AAF"/>
<path d="M833.927 250.528V256.046H828.409L833.927 250.528Z" fill="#D34F50"/>
<path d="M816.82 244.458V238.939H822.339L816.82 244.458Z" fill="#4D6AAF"/>
<path d="M799.824 216.425V221.943H794.306L799.824 216.425Z" fill="#D34F50"/>
<path d="M782.718 210.244V204.837H788.236L782.718 210.244Z" fill="#4D6AAF"/>
<path d="M833.927 216.425V221.943H828.409L833.927 216.425Z" fill="#D34F50"/>
<path d="M816.82 210.244V204.837H822.339L816.82 210.244Z" fill="#4D6AAF"/>
<path d="M868.029 250.528V256.046H862.622L868.029 250.528Z" fill="#D34F50"/>
<path d="M851.033 244.458V238.939H856.441L851.033 244.458Z" fill="#4D6AAF"/>
<path d="M902.243 250.528V256.046H896.724L902.243 250.528Z" fill="#D34F50"/>
<path d="M885.136 244.458V238.939H890.654L885.136 244.458Z" fill="#4D6AAF"/>
<path d="M868.029 216.425V221.943H862.622L868.029 216.425Z" fill="#D34F50"/>
<path d="M851.033 210.244V204.837H856.441L851.033 210.244Z" fill="#4D6AAF"/>
<path d="M902.243 216.425V221.943H896.724L902.243 216.425Z" fill="#D34F50"/>
<path d="M885.136 210.244V204.837H890.654L885.136 210.244Z" fill="#4D6AAF"/>
<path d="M731.508 182.322V187.73H725.99L731.508 182.322Z" fill="#D34F50"/>
<path d="M714.402 176.142V170.734H719.92L714.402 176.142Z" fill="#4D6AAF"/>
<path d="M765.611 182.322V187.73H760.203L765.611 182.322Z" fill="#D34F50"/>
<path d="M748.615 176.142V170.734H754.023L748.615 176.142Z" fill="#4D6AAF"/>
<path d="M731.508 148.109V153.628H725.99L731.508 148.109Z" fill="#D34F50"/>
<path d="M714.402 142.039V136.521H719.92L714.402 142.039Z" fill="#4D6AAF"/>
<path d="M765.611 148.109V153.628H760.203L765.611 148.109Z" fill="#D34F50"/>
<path d="M748.615 142.039V136.521H754.023L748.615 142.039Z" fill="#4D6AAF"/>
<path d="M799.824 182.322V187.73H794.306L799.824 182.322Z" fill="#D34F50"/>
<path d="M782.718 176.142V170.734H788.236L782.718 176.142Z" fill="#4D6AAF"/>
<path d="M833.927 182.322V187.73H828.409L833.927 182.322Z" fill="#D34F50"/>
<path d="M816.82 176.142V170.734H822.339L816.82 176.142Z" fill="#4D6AAF"/>
<path d="M799.824 148.109V153.628H794.306L799.824 148.109Z" fill="#D34F50"/>
<path d="M782.718 142.039V136.521H788.236L782.718 142.039Z" fill="#4D6AAF"/>
<path d="M833.927 148.109V153.628H828.409L833.927 148.109Z" fill="#D34F50"/>
<path d="M816.82 142.039V136.521H822.339L816.82 142.039Z" fill="#4D6AAF"/>
<path d="M868.029 182.322V187.73H862.622L868.029 182.322Z" fill="#D34F50"/>
<path d="M851.033 176.142V170.734H856.441L851.033 176.142Z" fill="#4D6AAF"/>
<path d="M902.243 182.322V187.73H896.724L902.243 182.322Z" fill="#D34F50"/>
<path d="M885.136 176.142V170.734H890.654L885.136 176.142Z" fill="#4D6AAF"/>
<path d="M868.029 148.109V153.628H862.622L868.029 148.109Z" fill="#D34F50"/>
<path d="M851.033 142.039V136.521H856.441L851.033 142.039Z" fill="#4D6AAF"/>
<path d="M902.243 148.109V153.628H896.724L902.243 148.109Z" fill="#D34F50"/>
<path d="M885.136 142.039V136.521H890.654L885.136 142.039Z" fill="#4D6AAF"/>
<path d="M731.508 114.007V119.525H725.99L731.508 114.007Z" fill="#D34F50"/>
<path d="M714.402 107.826V102.418H719.92L714.402 107.826Z" fill="#4D6AAF"/>
<path d="M765.611 114.007V119.525H760.203L765.611 114.007Z" fill="#D34F50"/>
<path d="M748.615 107.826V102.418H754.023L748.615 107.826Z" fill="#4D6AAF"/>
<path d="M731.508 79.904V85.3118H725.99L731.508 79.904Z" fill="#D34F50"/>
<path d="M714.402 73.7235V68.3157H719.92L714.402 73.7235Z" fill="#4D6AAF"/>
<path d="M765.611 79.904V85.3118H760.203L765.611 79.904Z" fill="#D34F50"/>
<path d="M748.615 73.7235V68.3157H754.023L748.615 73.7235Z" fill="#4D6AAF"/>
<path d="M799.824 114.007V119.525H794.306L799.824 114.007Z" fill="#D34F50"/>
<path d="M782.718 107.826V102.418H788.236L782.718 107.826Z" fill="#4D6AAF"/>
<path d="M833.927 114.007V119.525H828.409L833.927 114.007Z" fill="#D34F50"/>
<path d="M816.82 107.826V102.418H822.339L816.82 107.826Z" fill="#4D6AAF"/>
<path d="M799.824 79.904V85.3118H794.306L799.824 79.904Z" fill="#D34F50"/>
<path d="M782.718 73.7235V68.3157H788.236L782.718 73.7235Z" fill="#4D6AAF"/>
<path d="M833.927 79.904V85.3118H828.409L833.927 79.904Z" fill="#D34F50"/>
<path d="M816.82 73.7235V68.3157H822.339L816.82 73.7235Z" fill="#4D6AAF"/>
<path d="M868.029 114.007V119.525H862.622L868.029 114.007Z" fill="#D34F50"/>
<path d="M851.033 107.826V102.418H856.441L851.033 107.826Z" fill="#4D6AAF"/>
<path d="M902.243 114.007V119.525H896.724L902.243 114.007Z" fill="#D34F50"/>
<path d="M885.136 107.826V102.418H890.654L885.136 107.826Z" fill="#4D6AAF"/>
<path d="M868.029 79.904V85.3118H862.622L868.029 79.904Z" fill="#D34F50"/>
<path d="M851.033 73.7235V68.3157H856.441L851.033 73.7235Z" fill="#4D6AAF"/>
<path d="M902.243 79.904V85.3118H896.724L902.243 79.904Z" fill="#D34F50"/>
<path d="M885.136 73.7235V68.3157H890.654L885.136 73.7235Z" fill="#4D6AAF"/>
<path d="M936.345 318.843V324.362H930.937L936.345 318.843Z" fill="#D34F50"/>
<path d="M919.239 312.663V307.255H924.757L919.239 312.663Z" fill="#4D6AAF"/>
<path d="M970.448 318.843V324.362H965.04L970.448 318.843Z" fill="#D34F50"/>
<path d="M953.451 312.663V307.255H958.859L953.451 312.663Z" fill="#4D6AAF"/>
<path d="M936.345 284.741V290.148H930.937L936.345 284.741Z" fill="#D34F50"/>
<path d="M919.239 278.56V273.152H924.757L919.239 278.56Z" fill="#4D6AAF"/>
<path d="M970.448 284.741V290.148H965.04L970.448 284.741Z" fill="#D34F50"/>
<path d="M953.451 278.56V273.152H958.859L953.451 278.56Z" fill="#4D6AAF"/>
<path d="M1004.66 318.843V324.362H999.143L1004.66 318.843Z" fill="#D34F50"/>
<path d="M987.554 312.663V307.255H993.072L987.554 312.663Z" fill="#4D6AAF"/>
<path d="M1038.76 318.843V324.362H1033.36L1038.76 318.843Z" fill="#D34F50"/>
<path d="M1021.66 312.663V307.255H1027.18L1021.66 312.663Z" fill="#4D6AAF"/>
<path d="M1004.66 284.741V290.148H999.143L1004.66 284.741Z" fill="#D34F50"/>
<path d="M987.554 278.56V273.152H993.072L987.554 278.56Z" fill="#4D6AAF"/>
<path d="M1038.76 284.741V290.148H1033.36L1038.76 284.741Z" fill="#D34F50"/>
<path d="M1021.66 278.56V273.152H1027.18L1021.66 278.56Z" fill="#4D6AAF"/>
<path d="M1072.87 318.843V324.362H1067.46L1072.87 318.843Z" fill="#D34F50"/>
<path d="M1055.87 312.663V307.255H1061.28L1055.87 312.663Z" fill="#4D6AAF"/>
<path d="M1072.87 284.741V290.148H1067.46L1072.87 284.741Z" fill="#D34F50"/>
<path d="M1055.87 278.56V273.152H1061.28L1055.87 278.56Z" fill="#4D6AAF"/>
<path d="M936.345 250.528V256.046H930.937L936.345 250.528Z" fill="#D34F50"/>
<path d="M919.239 244.458V238.939H924.757L919.239 244.458Z" fill="#4D6AAF"/>
<path d="M970.448 250.528V256.046H965.04L970.448 250.528Z" fill="#D34F50"/>
<path d="M953.451 244.458V238.939H958.859L953.451 244.458Z" fill="#4D6AAF"/>
<path d="M936.345 216.425V221.943H930.937L936.345 216.425Z" fill="#D34F50"/>
<path d="M919.239 210.244V204.837H924.757L919.239 210.244Z" fill="#4D6AAF"/>
<path d="M970.448 216.425V221.943H965.04L970.448 216.425Z" fill="#D34F50"/>
<path d="M953.451 210.244V204.837H958.859L953.451 210.244Z" fill="#4D6AAF"/>
<path d="M1004.66 250.528V256.046H999.143L1004.66 250.528Z" fill="#D34F50"/>
<path d="M987.554 244.458V238.939H993.072L987.554 244.458Z" fill="#4D6AAF"/>
<path d="M1038.76 250.528V256.046H1033.36L1038.76 250.528Z" fill="#D34F50"/>
<path d="M1021.66 244.458V238.939H1027.18L1021.66 244.458Z" fill="#4D6AAF"/>
<path d="M1004.66 216.425V221.943H999.143L1004.66 216.425Z" fill="#D34F50"/>
<path d="M987.554 210.244V204.837H993.072L987.554 210.244Z" fill="#4D6AAF"/>
<path d="M1038.76 216.425V221.943H1033.36L1038.76 216.425Z" fill="#D34F50"/>
<path d="M1021.66 210.244V204.837H1027.18L1021.66 210.244Z" fill="#4D6AAF"/>
<path d="M1072.87 250.528V256.046H1067.46L1072.87 250.528Z" fill="#D34F50"/>
<path d="M1055.87 244.458V238.939H1061.28L1055.87 244.458Z" fill="#4D6AAF"/>
<path d="M1072.87 216.425V221.943H1067.46L1072.87 216.425Z" fill="#D34F50"/>
<path d="M1055.87 210.244V204.837H1061.28L1055.87 210.244Z" fill="#4D6AAF"/>
<path d="M936.345 182.322V187.73H930.937L936.345 182.322Z" fill="#D34F50"/>
<path d="M919.239 176.142V170.734H924.757L919.239 176.142Z" fill="#4D6AAF"/>
<path d="M970.448 182.322V187.73H965.04L970.448 182.322Z" fill="#D34F50"/>
<path d="M953.451 176.142V170.734H958.859L953.451 176.142Z" fill="#4D6AAF"/>
<path d="M936.345 148.109V153.628H930.937L936.345 148.109Z" fill="#D34F50"/>
<path d="M919.239 142.039V136.521H924.757L919.239 142.039Z" fill="#4D6AAF"/>
<path d="M970.448 148.109V153.628H965.04L970.448 148.109Z" fill="#D34F50"/>
<path d="M953.451 142.039V136.521H958.859L953.451 142.039Z" fill="#4D6AAF"/>
<path d="M1004.66 182.322V187.73H999.143L1004.66 182.322Z" fill="#D34F50"/>
<path d="M987.554 176.142V170.734H993.072L987.554 176.142Z" fill="#4D6AAF"/>
<path d="M1038.76 182.322V187.73H1033.36L1038.76 182.322Z" fill="#D34F50"/>
<path d="M1021.66 176.142V170.734H1027.18L1021.66 176.142Z" fill="#4D6AAF"/>
<path d="M1004.66 148.109V153.628H999.143L1004.66 148.109Z" fill="#D34F50"/>
<path d="M987.554 142.039V136.521H993.072L987.554 142.039Z" fill="#4D6AAF"/>
<path d="M1038.76 148.109V153.628H1033.36L1038.76 148.109Z" fill="#D34F50"/>
<path d="M1021.66 142.039V136.521H1027.18L1021.66 142.039Z" fill="#4D6AAF"/>
<path d="M1072.87 182.322V187.73H1067.46L1072.87 182.322Z" fill="#D34F50"/>
<path d="M1055.87 176.142V170.734H1061.28L1055.87 176.142Z" fill="#4D6AAF"/>
<path d="M1072.87 148.109V153.628H1067.46L1072.87 148.109Z" fill="#D34F50"/>
<path d="M1055.87 142.039V136.521H1061.28L1055.87 142.039Z" fill="#4D6AAF"/>
<path d="M936.345 114.007V119.525H930.937L936.345 114.007Z" fill="#D34F50"/>
<path d="M919.239 107.826V102.418H924.757L919.239 107.826Z" fill="#4D6AAF"/>
<path d="M970.448 114.007V119.525H965.04L970.448 114.007Z" fill="#D34F50"/>
<path d="M953.451 107.826V102.418H958.859L953.451 107.826Z" fill="#4D6AAF"/>
<path d="M936.345 79.904V85.3118H930.937L936.345 79.904Z" fill="#D34F50"/>
<path d="M919.239 73.7235V68.3157H924.757L919.239 73.7235Z" fill="#4D6AAF"/>
<path d="M970.448 79.904V85.3118H965.04L970.448 79.904Z" fill="#D34F50"/>
<path d="M953.451 73.7235V68.3157H958.859L953.451 73.7235Z" fill="#4D6AAF"/>
<path d="M1004.66 114.007V119.525H999.143L1004.66 114.007Z" fill="#D34F50"/>
<path d="M987.554 107.826V102.418H993.072L987.554 107.826Z" fill="#4D6AAF"/>
<path d="M1038.76 114.007V119.525H1033.36L1038.76 114.007Z" fill="#D34F50"/>
<path d="M1021.66 107.826V102.418H1027.18L1021.66 107.826Z" fill="#4D6AAF"/>
<path d="M1004.66 79.904V85.3118H999.143L1004.66 79.904Z" fill="#D34F50"/>
<path d="M987.554 73.7235V68.3157H993.072L987.554 73.7235Z" fill="#4D6AAF"/>
<path d="M1038.76 79.904V85.3118H1033.36L1038.76 79.904Z" fill="#D34F50"/>
<path d="M1021.66 73.7235V68.3157H1027.18L1021.66 73.7235Z" fill="#4D6AAF"/>
<path d="M1072.87 114.007V119.525H1067.46L1072.87 114.007Z" fill="#D34F50"/>
<path d="M1055.87 107.826V102.418H1061.28L1055.87 107.826Z" fill="#4D6AAF"/>
<path d="M1072.87 79.904V85.3118H1067.46L1072.87 79.904Z" fill="#D34F50"/>
<path d="M1055.87 73.7235V68.3157H1061.28L1055.87 73.7235Z" fill="#4D6AAF"/>
<path d="M730.515 45.6909V51.2091H724.997L730.515 45.6909Z" fill="#D34F50"/>
<path d="M713.409 39.6209V34.1027H718.817L713.409 39.6209Z" fill="#4D6AAF"/>
<path d="M764.618 45.6909V51.2091H759.099L764.618 45.6909Z" fill="#D34F50"/>
<path d="M747.511 39.6209V34.1027H753.029L747.511 39.6209Z" fill="#4D6AAF"/>
<path d="M730.515 11.5883V17.1065H724.997L730.515 11.5883Z" fill="#D34F50"/>
<path d="M713.409 5.40787V0H718.817L713.409 5.40787Z" fill="#4D6AAF"/>
<path d="M764.618 11.5883V17.1065H759.099L764.618 11.5883Z" fill="#D34F50"/>
<path d="M747.511 5.40787V0H753.029L747.511 5.40787Z" fill="#4D6AAF"/>
<path d="M798.72 45.6909V51.2091H793.312L798.72 45.6909Z" fill="#D34F50"/>
<path d="M781.724 39.6209V34.1027H787.132L781.724 39.6209Z" fill="#4D6AAF"/>
<path d="M832.934 45.6909V51.2091H827.415L832.934 45.6909Z" fill="#D34F50"/>
<path d="M815.827 39.6209V34.1027H821.235L815.827 39.6209Z" fill="#4D6AAF"/>
<path d="M798.72 11.5883V17.1065H793.312L798.72 11.5883Z" fill="#D34F50"/>
<path d="M781.724 5.40787V0H787.132L781.724 5.40787Z" fill="#4D6AAF"/>
<path d="M832.934 11.5883V17.1065H827.415L832.934 11.5883Z" fill="#D34F50"/>
<path d="M815.827 5.40787V0H821.235L815.827 5.40787Z" fill="#4D6AAF"/>
<path d="M867.036 45.6909V51.2091H861.518L867.036 45.6909Z" fill="#D34F50"/>
<path d="M849.929 39.6209V34.1027H855.448L849.929 39.6209Z" fill="#4D6AAF"/>
<path d="M901.139 45.6909V51.2091H895.731L901.139 45.6909Z" fill="#D34F50"/>
<path d="M884.143 39.6209V34.1027H889.55L884.143 39.6209Z" fill="#4D6AAF"/>
<path d="M867.036 11.5883V17.1065H861.518L867.036 11.5883Z" fill="#D34F50"/>
<path d="M849.929 5.40787V0H855.448L849.929 5.40787Z" fill="#4D6AAF"/>
<path d="M901.139 11.5883V17.1065H895.731L901.139 11.5883Z" fill="#D34F50"/>
<path d="M884.143 5.40787V0H889.55L884.143 5.40787Z" fill="#4D6AAF"/>
<path d="M935.352 45.6909V51.2091H929.834L935.352 45.6909Z" fill="#D34F50"/>
<path d="M918.245 39.6209V34.1027H923.653L918.245 39.6209Z" fill="#4D6AAF"/>
<path d="M969.454 45.6909V51.2091H963.936L969.454 45.6909Z" fill="#D34F50"/>
<path d="M952.348 39.6209V34.1027H957.866L952.348 39.6209Z" fill="#4D6AAF"/>
<path d="M935.352 11.5883V17.1065H929.834L935.352 11.5883Z" fill="#D34F50"/>
<path d="M918.245 5.40787V0H923.653L918.245 5.40787Z" fill="#4D6AAF"/>
<path d="M969.454 11.5883V17.1065H963.936L969.454 11.5883Z" fill="#D34F50"/>
<path d="M952.348 5.40787V0H957.866L952.348 5.40787Z" fill="#4D6AAF"/>
<path d="M1003.56 45.6909V51.2091H998.149L1003.56 45.6909Z" fill="#D34F50"/>
<path d="M986.561 39.6209V34.1027H991.969L986.561 39.6209Z" fill="#4D6AAF"/>
<path d="M1037.77 45.6909V51.2091H1032.25L1037.77 45.6909Z" fill="#D34F50"/>
<path d="M1020.66 39.6209V34.1027H1026.07L1020.66 39.6209Z" fill="#4D6AAF"/>
<path d="M1003.56 11.5883V17.1065H998.149L1003.56 11.5883Z" fill="#D34F50"/>
<path d="M986.561 5.40787V0H991.969L986.561 5.40787Z" fill="#4D6AAF"/>
<path d="M1037.77 11.5883V17.1065H1032.25L1037.77 11.5883Z" fill="#D34F50"/>
<path d="M1020.66 5.40787V0H1026.07L1020.66 5.40787Z" fill="#4D6AAF"/>
<path d="M1071.87 45.6909V51.2091H1066.35L1071.87 45.6909Z" fill="#D34F50"/>
<path d="M1054.77 39.6209V34.1027H1060.28L1054.77 39.6209Z" fill="#4D6AAF"/>
<path d="M1071.87 11.5883V17.1065H1066.35L1071.87 11.5883Z" fill="#D34F50"/>
<path d="M1054.77 5.40787V0H1060.28L1054.77 5.40787Z" fill="#4D6AAF"/>
<path d="M1103.44 318.843V324.362H1097.92L1103.44 318.843Z" fill="#D34F50"/>
<path d="M1086.33 312.663V307.255H1091.85L1086.33 312.663Z" fill="#4D6AAF"/>
<path d="M1137.54 318.843V324.362H1132.13L1137.54 318.843Z" fill="#D34F50"/>
<path d="M1120.54 312.663V307.255H1125.95L1120.54 312.663Z" fill="#4D6AAF"/>
<path d="M1103.44 284.741V290.148H1097.92L1103.44 284.741Z" fill="#D34F50"/>
<path d="M1086.33 278.56V273.152H1091.85L1086.33 278.56Z" fill="#4D6AAF"/>
<path d="M1137.54 284.741V290.148H1132.13L1137.54 284.741Z" fill="#D34F50"/>
<path d="M1120.54 278.56V273.152H1125.95L1120.54 278.56Z" fill="#4D6AAF"/>
<path d="M1171.75 318.843V324.362H1166.23L1171.75 318.843Z" fill="#D34F50"/>
<path d="M1154.65 312.663V307.255H1160.16L1154.65 312.663Z" fill="#4D6AAF"/>
<path d="M1205.86 318.843V324.362H1200.34L1205.86 318.843Z" fill="#D34F50"/>
<path d="M1188.75 312.663V307.255H1194.27L1188.75 312.663Z" fill="#4D6AAF"/>
<path d="M1171.75 284.741V290.148H1166.23L1171.75 284.741Z" fill="#D34F50"/>
<path d="M1154.65 278.56V273.152H1160.16L1154.65 278.56Z" fill="#4D6AAF"/>
<path d="M1205.86 284.741V290.148H1200.34L1205.86 284.741Z" fill="#D34F50"/>
<path d="M1188.75 278.56V273.152H1194.27L1188.75 278.56Z" fill="#4D6AAF"/>
<path d="M1239.96 318.843V324.362H1234.55L1239.96 318.843Z" fill="#D34F50"/>
<path d="M1222.96 312.663V307.255H1228.37L1222.96 312.663Z" fill="#4D6AAF"/>
<path d="M1274.17 318.843V324.362H1268.65L1274.17 318.843Z" fill="#D34F50"/>
<path d="M1257.06 312.663V307.255H1262.58L1257.06 312.663Z" fill="#4D6AAF"/>
<path d="M1239.96 284.741V290.148H1234.55L1239.96 284.741Z" fill="#D34F50"/>
<path d="M1222.96 278.56V273.152H1228.37L1222.96 278.56Z" fill="#4D6AAF"/>
<path d="M1274.17 284.741V290.148H1268.65L1274.17 284.741Z" fill="#D34F50"/>
<path d="M1257.06 278.56V273.152H1262.58L1257.06 278.56Z" fill="#4D6AAF"/>
<path d="M1103.44 250.528V256.046H1097.92L1103.44 250.528Z" fill="#D34F50"/>
<path d="M1086.33 244.458V238.939H1091.85L1086.33 244.458Z" fill="#4D6AAF"/>
<path d="M1137.54 250.528V256.046H1132.13L1137.54 250.528Z" fill="#D34F50"/>
<path d="M1120.54 244.458V238.939H1125.95L1120.54 244.458Z" fill="#4D6AAF"/>
<path d="M1103.44 216.425V221.943H1097.92L1103.44 216.425Z" fill="#D34F50"/>
<path d="M1086.33 210.244V204.837H1091.85L1086.33 210.244Z" fill="#4D6AAF"/>
<path d="M1137.54 216.425V221.943H1132.13L1137.54 216.425Z" fill="#D34F50"/>
<path d="M1120.54 210.244V204.837H1125.95L1120.54 210.244Z" fill="#4D6AAF"/>
<path d="M1171.75 250.528V256.046H1166.23L1171.75 250.528Z" fill="#D34F50"/>
<path d="M1154.65 244.458V238.939H1160.16L1154.65 244.458Z" fill="#4D6AAF"/>
<path d="M1205.86 250.528V256.046H1200.34L1205.86 250.528Z" fill="#D34F50"/>
<path d="M1188.75 244.458V238.939H1194.27L1188.75 244.458Z" fill="#4D6AAF"/>
<path d="M1171.75 216.425V221.943H1166.23L1171.75 216.425Z" fill="#D34F50"/>
<path d="M1154.65 210.244V204.837H1160.16L1154.65 210.244Z" fill="#4D6AAF"/>
<path d="M1205.86 216.425V221.943H1200.34L1205.86 216.425Z" fill="#D34F50"/>
<path d="M1188.75 210.244V204.837H1194.27L1188.75 210.244Z" fill="#4D6AAF"/>
<path d="M1239.96 250.528V256.046H1234.55L1239.96 250.528Z" fill="#D34F50"/>
<path d="M1222.96 244.458V238.939H1228.37L1222.96 244.458Z" fill="#4D6AAF"/>
<path d="M1274.17 250.528V256.046H1268.65L1274.17 250.528Z" fill="#D34F50"/>
<path d="M1257.06 244.458V238.939H1262.58L1257.06 244.458Z" fill="#4D6AAF"/>
<path d="M1239.96 216.425V221.943H1234.55L1239.96 216.425Z" fill="#D34F50"/>
<path d="M1222.96 210.244V204.837H1228.37L1222.96 210.244Z" fill="#4D6AAF"/>
<path d="M1274.17 216.425V221.943H1268.65L1274.17 216.425Z" fill="#D34F50"/>
<path d="M1257.06 210.244V204.837H1262.58L1257.06 210.244Z" fill="#4D6AAF"/>
<path d="M1103.44 182.322V187.73H1097.92L1103.44 182.322Z" fill="#D34F50"/>
<path d="M1086.33 176.142V170.734H1091.85L1086.33 176.142Z" fill="#4D6AAF"/>
<path d="M1137.54 182.322V187.73H1132.13L1137.54 182.322Z" fill="#D34F50"/>
<path d="M1120.54 176.142V170.734H1125.95L1120.54 176.142Z" fill="#4D6AAF"/>
<path d="M1103.44 148.109V153.628H1097.92L1103.44 148.109Z" fill="#D34F50"/>
<path d="M1086.33 142.039V136.521H1091.85L1086.33 142.039Z" fill="#4D6AAF"/>
<path d="M1137.54 148.109V153.628H1132.13L1137.54 148.109Z" fill="#D34F50"/>
<path d="M1120.54 142.039V136.521H1125.95L1120.54 142.039Z" fill="#4D6AAF"/>
<path d="M1171.75 182.322V187.73H1166.23L1171.75 182.322Z" fill="#D34F50"/>
<path d="M1154.65 176.142V170.734H1160.16L1154.65 176.142Z" fill="#4D6AAF"/>
<path d="M1205.86 182.322V187.73H1200.34L1205.86 182.322Z" fill="#D34F50"/>
<path d="M1188.75 176.142V170.734H1194.27L1188.75 176.142Z" fill="#4D6AAF"/>
<path d="M1171.75 148.109V153.628H1166.23L1171.75 148.109Z" fill="#D34F50"/>
<path d="M1154.65 142.039V136.521H1160.16L1154.65 142.039Z" fill="#4D6AAF"/>
<path d="M1205.86 148.109V153.628H1200.34L1205.86 148.109Z" fill="#D34F50"/>
<path d="M1188.75 142.039V136.521H1194.27L1188.75 142.039Z" fill="#4D6AAF"/>
<path d="M1239.96 182.322V187.73H1234.55L1239.96 182.322Z" fill="#D34F50"/>
<path d="M1222.96 176.142V170.734H1228.37L1222.96 176.142Z" fill="#4D6AAF"/>
<path d="M1274.17 182.322V187.73H1268.65L1274.17 182.322Z" fill="#D34F50"/>
<path d="M1257.06 176.142V170.734H1262.58L1257.06 176.142Z" fill="#4D6AAF"/>
<path d="M1239.96 148.109V153.628H1234.55L1239.96 148.109Z" fill="#D34F50"/>
<path d="M1222.96 142.039V136.521H1228.37L1222.96 142.039Z" fill="#4D6AAF"/>
<path d="M1274.17 148.109V153.628H1268.65L1274.17 148.109Z" fill="#D34F50"/>
<path d="M1257.06 142.039V136.521H1262.58L1257.06 142.039Z" fill="#4D6AAF"/>
<path d="M1103.44 114.007V119.525H1097.92L1103.44 114.007Z" fill="#D34F50"/>
<path d="M1086.33 107.826V102.418H1091.85L1086.33 107.826Z" fill="#4D6AAF"/>
<path d="M1137.54 114.007V119.525H1132.13L1137.54 114.007Z" fill="#D34F50"/>
<path d="M1120.54 107.826V102.418H1125.95L1120.54 107.826Z" fill="#4D6AAF"/>
<path d="M1103.44 79.904V85.3118H1097.92L1103.44 79.904Z" fill="#D34F50"/>
<path d="M1086.33 73.7235V68.3157H1091.85L1086.33 73.7235Z" fill="#4D6AAF"/>
<path d="M1137.54 79.904V85.3118H1132.13L1137.54 79.904Z" fill="#D34F50"/>
<path d="M1120.54 73.7235V68.3157H1125.95L1120.54 73.7235Z" fill="#4D6AAF"/>
<path d="M1171.75 114.007V119.525H1166.23L1171.75 114.007Z" fill="#D34F50"/>
<path d="M1154.65 107.826V102.418H1160.16L1154.65 107.826Z" fill="#4D6AAF"/>
<path d="M1205.86 114.007V119.525H1200.34L1205.86 114.007Z" fill="#D34F50"/>
<path d="M1188.75 107.826V102.418H1194.27L1188.75 107.826Z" fill="#4D6AAF"/>
<path d="M1171.75 79.904V85.3118H1166.23L1171.75 79.904Z" fill="#D34F50"/>
<path d="M1154.65 73.7235V68.3157H1160.16L1154.65 73.7235Z" fill="#4D6AAF"/>
<path d="M1205.86 79.904V85.3118H1200.34L1205.86 79.904Z" fill="#D34F50"/>
<path d="M1188.75 73.7235V68.3157H1194.27L1188.75 73.7235Z" fill="#4D6AAF"/>
<path d="M1239.96 114.007V119.525H1234.55L1239.96 114.007Z" fill="#D34F50"/>
<path d="M1222.96 107.826V102.418H1228.37L1222.96 107.826Z" fill="#4D6AAF"/>
<path d="M1274.17 114.007V119.525H1268.65L1274.17 114.007Z" fill="#D34F50"/>
<path d="M1257.06 107.826V102.418H1262.58L1257.06 107.826Z" fill="#4D6AAF"/>
<path d="M1239.96 79.904V85.3118H1234.55L1239.96 79.904Z" fill="#D34F50"/>
<path d="M1222.96 73.7235V68.3157H1228.37L1222.96 73.7235Z" fill="#4D6AAF"/>
<path d="M1274.17 79.904V85.3118H1268.65L1274.17 79.904Z" fill="#D34F50"/>
<path d="M1257.06 73.7235V68.3157H1262.58L1257.06 73.7235Z" fill="#4D6AAF"/>
<path d="M1308.27 318.843V324.362H1302.87L1308.27 318.843Z" fill="#D34F50"/>
<path d="M1291.17 312.663V307.255H1296.68L1291.17 312.663Z" fill="#4D6AAF"/>
<path d="M1342.38 318.843V324.362H1336.97L1342.38 318.843Z" fill="#D34F50"/>
<path d="M1325.38 312.663V307.255H1330.79L1325.38 312.663Z" fill="#4D6AAF"/>
<path d="M1308.27 284.741V290.148H1302.87L1308.27 284.741Z" fill="#D34F50"/>
<path d="M1291.17 278.56V273.152H1296.68L1291.17 278.56Z" fill="#4D6AAF"/>
<path d="M1342.38 284.741V290.148H1336.97L1342.38 284.741Z" fill="#D34F50"/>
<path d="M1325.38 278.56V273.152H1330.79L1325.38 278.56Z" fill="#4D6AAF"/>
<path d="M1376.59 318.843V324.362H1371.07L1376.59 318.843Z" fill="#D34F50"/>
<path d="M1359.48 312.663V307.255H1365L1359.48 312.663Z" fill="#4D6AAF"/>
<path d="M1410.69 318.843V324.362H1405.28L1410.69 318.843Z" fill="#D34F50"/>
<path d="M1393.59 312.663V307.255H1399.1L1393.59 312.663Z" fill="#4D6AAF"/>
<path d="M1376.59 284.741V290.148H1371.07L1376.59 284.741Z" fill="#D34F50"/>
<path d="M1359.48 278.56V273.152H1365L1359.48 278.56Z" fill="#4D6AAF"/>
<path d="M1410.69 284.741V290.148H1405.28L1410.69 284.741Z" fill="#D34F50"/>
<path d="M1393.59 278.56V273.152H1399.1L1393.59 278.56Z" fill="#4D6AAF"/>
<path d="M1444.79 318.843V324.362H1439.39L1444.79 318.843Z" fill="#D34F50"/>
<path d="M1427.8 312.663V307.255H1433.21L1427.8 312.663Z" fill="#4D6AAF"/>
<path d="M1444.79 284.741V290.148H1439.39L1444.79 284.741Z" fill="#D34F50"/>
<path d="M1427.8 278.56V273.152H1433.21L1427.8 278.56Z" fill="#4D6AAF"/>
<path d="M1308.27 250.528V256.046H1302.87L1308.27 250.528Z" fill="#D34F50"/>
<path d="M1291.17 244.458V238.939H1296.68L1291.17 244.458Z" fill="#4D6AAF"/>
<path d="M1342.38 250.528V256.046H1336.97L1342.38 250.528Z" fill="#D34F50"/>
<path d="M1325.38 244.458V238.939H1330.79L1325.38 244.458Z" fill="#4D6AAF"/>
<path d="M1308.27 216.425V221.943H1302.87L1308.27 216.425Z" fill="#D34F50"/>
<path d="M1291.17 210.244V204.837H1296.68L1291.17 210.244Z" fill="#4D6AAF"/>
<path d="M1342.38 216.425V221.943H1336.97L1342.38 216.425Z" fill="#D34F50"/>
<path d="M1325.38 210.244V204.837H1330.79L1325.38 210.244Z" fill="#4D6AAF"/>
<path d="M1376.59 250.528V256.046H1371.07L1376.59 250.528Z" fill="#D34F50"/>
<path d="M1359.48 244.458V238.939H1365L1359.48 244.458Z" fill="#4D6AAF"/>
<path d="M1410.69 250.528V256.046H1405.28L1410.69 250.528Z" fill="#D34F50"/>
<path d="M1393.59 244.458V238.939H1399.1L1393.59 244.458Z" fill="#4D6AAF"/>
<path d="M1376.59 216.425V221.943H1371.07L1376.59 216.425Z" fill="#D34F50"/>
<path d="M1359.48 210.244V204.837H1365L1359.48 210.244Z" fill="#4D6AAF"/>
<path d="M1410.69 216.425V221.943H1405.28L1410.69 216.425Z" fill="#D34F50"/>
<path d="M1393.59 210.244V204.837H1399.1L1393.59 210.244Z" fill="#4D6AAF"/>
<path d="M1444.79 250.528V256.046H1439.39L1444.79 250.528Z" fill="#D34F50"/>
<path d="M1427.8 244.458V238.939H1433.21L1427.8 244.458Z" fill="#4D6AAF"/>
<path d="M1444.79 216.425V221.943H1439.39L1444.79 216.425Z" fill="#D34F50"/>
<path d="M1427.8 210.244V204.837H1433.21L1427.8 210.244Z" fill="#4D6AAF"/>
<path d="M1308.27 182.322V187.73H1302.87L1308.27 182.322Z" fill="#D34F50"/>
<path d="M1291.17 176.142V170.734H1296.68L1291.17 176.142Z" fill="#4D6AAF"/>
<path d="M1342.38 182.322V187.73H1336.97L1342.38 182.322Z" fill="#D34F50"/>
<path d="M1325.38 176.142V170.734H1330.79L1325.38 176.142Z" fill="#4D6AAF"/>
<path d="M1308.27 148.109V153.628H1302.87L1308.27 148.109Z" fill="#D34F50"/>
<path d="M1291.17 142.039V136.521H1296.68L1291.17 142.039Z" fill="#4D6AAF"/>
<path d="M1342.38 148.109V153.628H1336.97L1342.38 148.109Z" fill="#D34F50"/>
<path d="M1325.38 142.039V136.521H1330.79L1325.38 142.039Z" fill="#4D6AAF"/>
<path d="M1376.59 182.322V187.73H1371.07L1376.59 182.322Z" fill="#D34F50"/>
<path d="M1359.48 176.142V170.734H1365L1359.48 176.142Z" fill="#4D6AAF"/>
<path d="M1410.69 182.322V187.73H1405.28L1410.69 182.322Z" fill="#D34F50"/>
<path d="M1393.59 176.142V170.734H1399.1L1393.59 176.142Z" fill="#4D6AAF"/>
<path d="M1376.59 148.109V153.628H1371.07L1376.59 148.109Z" fill="#D34F50"/>
<path d="M1359.48 142.039V136.521H1365L1359.48 142.039Z" fill="#4D6AAF"/>
<path d="M1410.69 148.109V153.628H1405.28L1410.69 148.109Z" fill="#D34F50"/>
<path d="M1393.59 142.039V136.521H1399.1L1393.59 142.039Z" fill="#4D6AAF"/>
<path d="M1444.79 182.322V187.73H1439.39L1444.79 182.322Z" fill="#D34F50"/>
<path d="M1427.8 176.142V170.734H1433.21L1427.8 176.142Z" fill="#4D6AAF"/>
<path d="M1444.79 148.109V153.628H1439.39L1444.79 148.109Z" fill="#D34F50"/>
<path d="M1427.8 142.039V136.521H1433.21L1427.8 142.039Z" fill="#4D6AAF"/>
<path d="M1308.27 114.007V119.525H1302.87L1308.27 114.007Z" fill="#D34F50"/>
<path d="M1291.17 107.826V102.418H1296.68L1291.17 107.826Z" fill="#4D6AAF"/>
<path d="M1342.38 114.007V119.525H1336.97L1342.38 114.007Z" fill="#D34F50"/>
<path d="M1325.38 107.826V102.418H1330.79L1325.38 107.826Z" fill="#4D6AAF"/>
<path d="M1308.27 79.904V85.3118H1302.87L1308.27 79.904Z" fill="#D34F50"/>
<path d="M1291.17 73.7235V68.3157H1296.68L1291.17 73.7235Z" fill="#4D6AAF"/>
<path d="M1342.38 79.904V85.3118H1336.97L1342.38 79.904Z" fill="#D34F50"/>
<path d="M1325.38 73.7235V68.3157H1330.79L1325.38 73.7235Z" fill="#4D6AAF"/>
<path d="M1376.59 114.007V119.525H1371.07L1376.59 114.007Z" fill="#D34F50"/>
<path d="M1359.48 107.826V102.418H1365L1359.48 107.826Z" fill="#4D6AAF"/>
<path d="M1410.69 114.007V119.525H1405.28L1410.69 114.007Z" fill="#D34F50"/>
<path d="M1393.59 107.826V102.418H1399.1L1393.59 107.826Z" fill="#4D6AAF"/>
<path d="M1376.59 79.904V85.3118H1371.07L1376.59 79.904Z" fill="#D34F50"/>
<path d="M1359.48 73.7235V68.3157H1365L1359.48 73.7235Z" fill="#4D6AAF"/>
<path d="M1410.69 79.904V85.3118H1405.28L1410.69 79.904Z" fill="#D34F50"/>
<path d="M1393.59 73.7235V68.3157H1399.1L1393.59 73.7235Z" fill="#4D6AAF"/>
<path d="M1444.79 114.007V119.525H1439.39L1444.79 114.007Z" fill="#D34F50"/>
<path d="M1427.8 107.826V102.418H1433.21L1427.8 107.826Z" fill="#4D6AAF"/>
<path d="M1444.79 79.904V85.3118H1439.39L1444.79 79.904Z" fill="#D34F50"/>
<path d="M1427.8 73.7235V68.3157H1433.21L1427.8 73.7235Z" fill="#4D6AAF"/>
<path d="M1102.44 45.6909V51.2091H1096.93L1102.44 45.6909Z" fill="#D34F50"/>
<path d="M1085.34 39.6209V34.1027H1090.74L1085.34 39.6209Z" fill="#4D6AAF"/>
<path d="M1136.55 45.6909V51.2091H1131.03L1136.55 45.6909Z" fill="#D34F50"/>
<path d="M1119.44 39.6209V34.1027H1124.96L1119.44 39.6209Z" fill="#4D6AAF"/>
<path d="M1102.44 11.5883V17.1065H1096.93L1102.44 11.5883Z" fill="#D34F50"/>
<path d="M1085.34 5.40787V0H1090.74L1085.34 5.40787Z" fill="#4D6AAF"/>
<path d="M1136.55 11.5883V17.1065H1131.03L1136.55 11.5883Z" fill="#D34F50"/>
<path d="M1119.44 5.40787V0H1124.96L1119.44 5.40787Z" fill="#4D6AAF"/>
<path d="M1170.65 45.6909V51.2091H1165.24L1170.65 45.6909Z" fill="#D34F50"/>
<path d="M1153.65 39.6209V34.1027H1159.06L1153.65 39.6209Z" fill="#4D6AAF"/>
<path d="M1204.86 45.6909V51.2091H1199.34L1204.86 45.6909Z" fill="#D34F50"/>
<path d="M1187.76 39.6209V34.1027H1193.16L1187.76 39.6209Z" fill="#4D6AAF"/>
<path d="M1170.65 11.5883V17.1065H1165.24L1170.65 11.5883Z" fill="#D34F50"/>
<path d="M1153.65 5.40787V0H1159.06L1153.65 5.40787Z" fill="#4D6AAF"/>
<path d="M1204.86 11.5883V17.1065H1199.34L1204.86 11.5883Z" fill="#D34F50"/>
<path d="M1187.76 5.40787V0H1193.16L1187.76 5.40787Z" fill="#4D6AAF"/>
<path d="M1238.96 45.6909V51.2091H1233.45L1238.96 45.6909Z" fill="#D34F50"/>
<path d="M1221.86 39.6209V34.1027H1227.38L1221.86 39.6209Z" fill="#4D6AAF"/>
<path d="M1273.07 45.6909V51.2091H1267.66L1273.07 45.6909Z" fill="#D34F50"/>
<path d="M1256.07 39.6209V34.1027H1261.48L1256.07 39.6209Z" fill="#4D6AAF"/>
<path d="M1238.96 11.5883V17.1065H1233.45L1238.96 11.5883Z" fill="#D34F50"/>
<path d="M1221.86 5.40787V0H1227.38L1221.86 5.40787Z" fill="#4D6AAF"/>
<path d="M1273.07 11.5883V17.1065H1267.66L1273.07 11.5883Z" fill="#D34F50"/>
<path d="M1256.07 5.40787V0H1261.48L1256.07 5.40787Z" fill="#4D6AAF"/>
<path d="M1307.28 45.6909V51.2091H1301.76L1307.28 45.6909Z" fill="#D34F50"/>
<path d="M1290.17 39.6209V34.1027H1295.58L1290.17 39.6209Z" fill="#4D6AAF"/>
<path d="M1341.38 45.6909V51.2091H1335.86L1341.38 45.6909Z" fill="#D34F50"/>
<path d="M1324.28 39.6209V34.1027H1329.79L1324.28 39.6209Z" fill="#4D6AAF"/>
<path d="M1307.28 11.5883V17.1065H1301.76L1307.28 11.5883Z" fill="#D34F50"/>
<path d="M1290.17 5.40787V0H1295.58L1290.17 5.40787Z" fill="#4D6AAF"/>
<path d="M1341.38 11.5883V17.1065H1335.86L1341.38 11.5883Z" fill="#D34F50"/>
<path d="M1324.28 5.40787V0H1329.79L1324.28 5.40787Z" fill="#4D6AAF"/>
<path d="M1375.49 45.6909V51.2091H1370.08L1375.49 45.6909Z" fill="#D34F50"/>
<path d="M1358.49 39.6209V34.1027H1363.9L1358.49 39.6209Z" fill="#4D6AAF"/>
<path d="M1409.7 45.6909V51.2091H1404.18L1409.7 45.6909Z" fill="#D34F50"/>
<path d="M1392.59 39.6209V34.1027H1398L1392.59 39.6209Z" fill="#4D6AAF"/>
<path d="M1375.49 11.5883V17.1065H1370.08L1375.49 11.5883Z" fill="#D34F50"/>
<path d="M1358.49 5.40787V0H1363.9L1358.49 5.40787Z" fill="#4D6AAF"/>
<path d="M1409.7 11.5883V17.1065H1404.18L1409.7 11.5883Z" fill="#D34F50"/>
<path d="M1392.59 5.40787V0H1398L1392.59 5.40787Z" fill="#4D6AAF"/>
<path d="M1443.8 45.6909V51.2091H1438.28L1443.8 45.6909Z" fill="#D34F50"/>
<path d="M1426.69 39.6209V34.1027H1432.21L1426.69 39.6209Z" fill="#4D6AAF"/>
<path d="M1443.8 11.5883V17.1065H1438.28L1443.8 11.5883Z" fill="#D34F50"/>
<path d="M1426.69 5.40787V0H1432.21L1426.69 5.40787Z" fill="#4D6AAF"/>
<path d="M731.508 488.032V493.55H725.99L731.508 488.032Z" fill="#D34F50"/>
<path d="M714.402 481.962V476.444H719.92L714.402 481.962Z" fill="#4D6AAF"/>
<path d="M765.611 488.032V493.55H760.203L765.611 488.032Z" fill="#D34F50"/>
<path d="M748.615 481.962V476.444H754.023L748.615 481.962Z" fill="#4D6AAF"/>
<path d="M799.824 488.032V493.55H794.306L799.824 488.032Z" fill="#D34F50"/>
<path d="M782.718 481.962V476.444H788.236L782.718 481.962Z" fill="#4D6AAF"/>
<path d="M833.927 488.032V493.55H828.409L833.927 488.032Z" fill="#D34F50"/>
<path d="M816.82 481.962V476.444H822.339L816.82 481.962Z" fill="#4D6AAF"/>
<path d="M868.029 488.032V493.55H862.622L868.029 488.032Z" fill="#D34F50"/>
<path d="M851.033 481.962V476.444H856.441L851.033 481.962Z" fill="#4D6AAF"/>
<path d="M902.243 488.032V493.55H896.724L902.243 488.032Z" fill="#D34F50"/>
<path d="M885.136 481.962V476.444H890.654L885.136 481.962Z" fill="#4D6AAF"/>
<path d="M731.508 453.93V459.448H725.99L731.508 453.93Z" fill="#D34F50"/>
<path d="M714.402 447.749V442.341H719.92L714.402 447.749Z" fill="#4D6AAF"/>
<path d="M765.611 453.93V459.448H760.203L765.611 453.93Z" fill="#D34F50"/>
<path d="M748.615 447.749V442.341H754.023L748.615 447.749Z" fill="#4D6AAF"/>
<path d="M731.508 419.827V425.235H725.99L731.508 419.827Z" fill="#D34F50"/>
<path d="M714.402 413.646V408.239H719.92L714.402 413.646Z" fill="#4D6AAF"/>
<path d="M765.611 419.827V425.235H760.203L765.611 419.827Z" fill="#D34F50"/>
<path d="M748.615 413.646V408.239H754.023L748.615 413.646Z" fill="#4D6AAF"/>
<path d="M799.824 453.93V459.448H794.306L799.824 453.93Z" fill="#D34F50"/>
<path d="M782.718 447.749V442.341H788.236L782.718 447.749Z" fill="#4D6AAF"/>
<path d="M833.927 453.93V459.448H828.409L833.927 453.93Z" fill="#D34F50"/>
<path d="M816.82 447.749V442.341H822.339L816.82 447.749Z" fill="#4D6AAF"/>
<path d="M799.824 419.827V425.235H794.306L799.824 419.827Z" fill="#D34F50"/>
<path d="M782.718 413.646V408.239H788.236L782.718 413.646Z" fill="#4D6AAF"/>
<path d="M833.927 419.827V425.235H828.409L833.927 419.827Z" fill="#D34F50"/>
<path d="M816.82 413.646V408.239H822.339L816.82 413.646Z" fill="#4D6AAF"/>
<path d="M868.029 453.93V459.448H862.622L868.029 453.93Z" fill="#D34F50"/>
<path d="M851.033 447.749V442.341H856.441L851.033 447.749Z" fill="#4D6AAF"/>
<path d="M902.243 453.93V459.448H896.724L902.243 453.93Z" fill="#D34F50"/>
<path d="M885.136 447.749V442.341H890.654L885.136 447.749Z" fill="#4D6AAF"/>
<path d="M868.029 419.827V425.235H862.622L868.029 419.827Z" fill="#D34F50"/>
<path d="M851.033 413.646V408.239H856.441L851.033 413.646Z" fill="#4D6AAF"/>
<path d="M902.243 419.827V425.235H896.724L902.243 419.827Z" fill="#D34F50"/>
<path d="M885.136 413.646V408.239H890.654L885.136 413.646Z" fill="#4D6AAF"/>
<path d="M936.345 488.032V493.55H930.937L936.345 488.032Z" fill="#D34F50"/>
<path d="M919.239 481.962V476.444H924.757L919.239 481.962Z" fill="#4D6AAF"/>
<path d="M970.448 488.032V493.55H965.04L970.448 488.032Z" fill="#D34F50"/>
<path d="M953.451 481.962V476.444H958.859L953.451 481.962Z" fill="#4D6AAF"/>
<path d="M1004.66 488.032V493.55H999.143L1004.66 488.032Z" fill="#D34F50"/>
<path d="M987.554 481.962V476.444H993.072L987.554 481.962Z" fill="#4D6AAF"/>
<path d="M1038.76 488.032V493.55H1033.36L1038.76 488.032Z" fill="#D34F50"/>
<path d="M1021.66 481.962V476.444H1027.18L1021.66 481.962Z" fill="#4D6AAF"/>
<path d="M1072.87 488.032V493.55H1067.46L1072.87 488.032Z" fill="#D34F50"/>
<path d="M1055.87 481.962V476.444H1061.28L1055.87 481.962Z" fill="#4D6AAF"/>
<path d="M936.345 453.93V459.448H930.937L936.345 453.93Z" fill="#D34F50"/>
<path d="M919.239 447.749V442.341H924.757L919.239 447.749Z" fill="#4D6AAF"/>
<path d="M970.448 453.93V459.448H965.04L970.448 453.93Z" fill="#D34F50"/>
<path d="M953.451 447.749V442.341H958.859L953.451 447.749Z" fill="#4D6AAF"/>
<path d="M936.345 419.827V425.235H930.937L936.345 419.827Z" fill="#D34F50"/>
<path d="M919.239 413.646V408.239H924.757L919.239 413.646Z" fill="#4D6AAF"/>
<path d="M970.448 419.827V425.235H965.04L970.448 419.827Z" fill="#D34F50"/>
<path d="M953.451 413.646V408.239H958.859L953.451 413.646Z" fill="#4D6AAF"/>
<path d="M1004.66 453.93V459.448H999.143L1004.66 453.93Z" fill="#D34F50"/>
<path d="M987.554 447.749V442.341H993.072L987.554 447.749Z" fill="#4D6AAF"/>
<path d="M1038.76 453.93V459.448H1033.36L1038.76 453.93Z" fill="#D34F50"/>
<path d="M1021.66 447.749V442.341H1027.18L1021.66 447.749Z" fill="#4D6AAF"/>
<path d="M1004.66 419.827V425.235H999.143L1004.66 419.827Z" fill="#D34F50"/>
<path d="M987.554 413.646V408.239H993.072L987.554 413.646Z" fill="#4D6AAF"/>
<path d="M1038.76 419.827V425.235H1033.36L1038.76 419.827Z" fill="#D34F50"/>
<path d="M1021.66 413.646V408.239H1027.18L1021.66 413.646Z" fill="#4D6AAF"/>
<path d="M1072.87 453.93V459.448H1067.46L1072.87 453.93Z" fill="#D34F50"/>
<path d="M1055.87 447.749V442.341H1061.28L1055.87 447.749Z" fill="#4D6AAF"/>
<path d="M1072.87 419.827V425.235H1067.46L1072.87 419.827Z" fill="#D34F50"/>
<path d="M1055.87 413.646V408.239H1061.28L1055.87 413.646Z" fill="#4D6AAF"/>
<path d="M730.515 385.614V391.132H724.997L730.515 385.614Z" fill="#D34F50"/>
<path d="M713.409 379.544V374.026H718.817L713.409 379.544Z" fill="#4D6AAF"/>
<path d="M764.618 385.614V391.132H759.099L764.618 385.614Z" fill="#D34F50"/>
<path d="M747.511 379.544V374.026H753.029L747.511 379.544Z" fill="#4D6AAF"/>
<path d="M730.515 351.511V357.029H724.997L730.515 351.511Z" fill="#D34F50"/>
<path d="M713.409 345.331V339.923H718.817L713.409 345.331Z" fill="#4D6AAF"/>
<path d="M764.618 351.511V357.029H759.099L764.618 351.511Z" fill="#D34F50"/>
<path d="M747.511 345.331V339.923H753.029L747.511 345.331Z" fill="#4D6AAF"/>
<path d="M798.72 385.614V391.132H793.312L798.72 385.614Z" fill="#D34F50"/>
<path d="M781.724 379.544V374.026H787.132L781.724 379.544Z" fill="#4D6AAF"/>
<path d="M832.934 385.614V391.132H827.415L832.934 385.614Z" fill="#D34F50"/>
<path d="M815.827 379.544V374.026H821.235L815.827 379.544Z" fill="#4D6AAF"/>
<path d="M798.72 351.511V357.029H793.312L798.72 351.511Z" fill="#D34F50"/>
<path d="M781.724 345.331V339.923H787.132L781.724 345.331Z" fill="#4D6AAF"/>
<path d="M832.934 351.511V357.029H827.415L832.934 351.511Z" fill="#D34F50"/>
<path d="M815.827 345.331V339.923H821.235L815.827 345.331Z" fill="#4D6AAF"/>
<path d="M867.036 385.614V391.132H861.518L867.036 385.614Z" fill="#D34F50"/>
<path d="M849.929 379.544V374.026H855.448L849.929 379.544Z" fill="#4D6AAF"/>
<path d="M901.139 385.614V391.132H895.731L901.139 385.614Z" fill="#D34F50"/>
<path d="M884.143 379.544V374.026H889.55L884.143 379.544Z" fill="#4D6AAF"/>
<path d="M867.036 351.511V357.029H861.518L867.036 351.511Z" fill="#D34F50"/>
<path d="M849.929 345.331V339.923H855.448L849.929 345.331Z" fill="#4D6AAF"/>
<path d="M901.139 351.511V357.029H895.731L901.139 351.511Z" fill="#D34F50"/>
<path d="M884.143 345.331V339.923H889.55L884.143 345.331Z" fill="#4D6AAF"/>
<path d="M935.352 385.614V391.132H929.834L935.352 385.614Z" fill="#D34F50"/>
<path d="M918.245 379.544V374.026H923.653L918.245 379.544Z" fill="#4D6AAF"/>
<path d="M969.454 385.614V391.132H963.936L969.454 385.614Z" fill="#D34F50"/>
<path d="M952.348 379.544V374.026H957.866L952.348 379.544Z" fill="#4D6AAF"/>
<path d="M935.352 351.511V357.029H929.834L935.352 351.511Z" fill="#D34F50"/>
<path d="M918.245 345.331V339.923H923.653L918.245 345.331Z" fill="#4D6AAF"/>
<path d="M969.454 351.511V357.029H963.936L969.454 351.511Z" fill="#D34F50"/>
<path d="M952.348 345.331V339.923H957.866L952.348 345.331Z" fill="#4D6AAF"/>
<path d="M1003.56 385.614V391.132H998.149L1003.56 385.614Z" fill="#D34F50"/>
<path d="M986.561 379.544V374.026H991.969L986.561 379.544Z" fill="#4D6AAF"/>
<path d="M1037.77 385.614V391.132H1032.25L1037.77 385.614Z" fill="#D34F50"/>
<path d="M1020.66 379.544V374.026H1026.07L1020.66 379.544Z" fill="#4D6AAF"/>
<path d="M1003.56 351.511V357.029H998.149L1003.56 351.511Z" fill="#D34F50"/>
<path d="M986.561 345.331V339.923H991.969L986.561 345.331Z" fill="#4D6AAF"/>
<path d="M1037.77 351.511V357.029H1032.25L1037.77 351.511Z" fill="#D34F50"/>
<path d="M1020.66 345.331V339.923H1026.07L1020.66 345.331Z" fill="#4D6AAF"/>
<path d="M1071.87 385.614V391.132H1066.35L1071.87 385.614Z" fill="#D34F50"/>
<path d="M1054.77 379.544V374.026H1060.28L1054.77 379.544Z" fill="#4D6AAF"/>
<path d="M1071.87 351.511V357.029H1066.35L1071.87 351.511Z" fill="#D34F50"/>
<path d="M1054.77 345.331V339.923H1060.28L1054.77 345.331Z" fill="#4D6AAF"/>
<path d="M1103.44 488.032V493.55H1097.92L1103.44 488.032Z" fill="#D34F50"/>
<path d="M1086.33 481.962V476.444H1091.85L1086.33 481.962Z" fill="#4D6AAF"/>
<path d="M1137.54 488.032V493.55H1132.13L1137.54 488.032Z" fill="#D34F50"/>
<path d="M1120.54 481.962V476.444H1125.95L1120.54 481.962Z" fill="#4D6AAF"/>
<path d="M1171.75 488.032V493.55H1166.23L1171.75 488.032Z" fill="#D34F50"/>
<path d="M1154.65 481.962V476.444H1160.16L1154.65 481.962Z" fill="#4D6AAF"/>
<path d="M1205.86 488.032V493.55H1200.34L1205.86 488.032Z" fill="#D34F50"/>
<path d="M1188.75 481.962V476.444H1194.27L1188.75 481.962Z" fill="#4D6AAF"/>
<path d="M1239.96 488.032V493.55H1234.55L1239.96 488.032Z" fill="#D34F50"/>
<path d="M1222.96 481.962V476.444H1228.37L1222.96 481.962Z" fill="#4D6AAF"/>
<path d="M1274.17 488.032V493.55H1268.65L1274.17 488.032Z" fill="#D34F50"/>
<path d="M1257.06 481.962V476.444H1262.58L1257.06 481.962Z" fill="#4D6AAF"/>
<path d="M1103.44 453.93V459.448H1097.92L1103.44 453.93Z" fill="#D34F50"/>
<path d="M1086.33 447.749V442.341H1091.85L1086.33 447.749Z" fill="#4D6AAF"/>
<path d="M1137.54 453.93V459.448H1132.13L1137.54 453.93Z" fill="#D34F50"/>
<path d="M1120.54 447.749V442.341H1125.95L1120.54 447.749Z" fill="#4D6AAF"/>
<path d="M1103.44 419.827V425.235H1097.92L1103.44 419.827Z" fill="#D34F50"/>
<path d="M1086.33 413.646V408.239H1091.85L1086.33 413.646Z" fill="#4D6AAF"/>
<path d="M1137.54 419.827V425.235H1132.13L1137.54 419.827Z" fill="#D34F50"/>
<path d="M1120.54 413.646V408.239H1125.95L1120.54 413.646Z" fill="#4D6AAF"/>
<path d="M1171.75 453.93V459.448H1166.23L1171.75 453.93Z" fill="#D34F50"/>
<path d="M1154.65 447.749V442.341H1160.16L1154.65 447.749Z" fill="#4D6AAF"/>
<path d="M1205.86 453.93V459.448H1200.34L1205.86 453.93Z" fill="#D34F50"/>
<path d="M1188.75 447.749V442.341H1194.27L1188.75 447.749Z" fill="#4D6AAF"/>
<path d="M1171.75 419.827V425.235H1166.23L1171.75 419.827Z" fill="#D34F50"/>
<path d="M1154.65 413.646V408.239H1160.16L1154.65 413.646Z" fill="#4D6AAF"/>
<path d="M1205.86 419.827V425.235H1200.34L1205.86 419.827Z" fill="#D34F50"/>
<path d="M1188.75 413.646V408.239H1194.27L1188.75 413.646Z" fill="#4D6AAF"/>
<path d="M1239.96 453.93V459.448H1234.55L1239.96 453.93Z" fill="#D34F50"/>
<path d="M1222.96 447.749V442.341H1228.37L1222.96 447.749Z" fill="#4D6AAF"/>
<path d="M1274.17 453.93V459.448H1268.65L1274.17 453.93Z" fill="#D34F50"/>
<path d="M1257.06 447.749V442.341H1262.58L1257.06 447.749Z" fill="#4D6AAF"/>
<path d="M1239.96 419.827V425.235H1234.55L1239.96 419.827Z" fill="#D34F50"/>
<path d="M1222.96 413.646V408.239H1228.37L1222.96 413.646Z" fill="#4D6AAF"/>
<path d="M1274.17 419.827V425.235H1268.65L1274.17 419.827Z" fill="#D34F50"/>
<path d="M1257.06 413.646V408.239H1262.58L1257.06 413.646Z" fill="#4D6AAF"/>
<path d="M1308.27 488.032V493.55H1302.87L1308.27 488.032Z" fill="#D34F50"/>
<path d="M1291.17 481.962V476.444H1296.68L1291.17 481.962Z" fill="#4D6AAF"/>
<path d="M1342.38 488.032V493.55H1336.97L1342.38 488.032Z" fill="#D34F50"/>
<path d="M1325.38 481.962V476.444H1330.79L1325.38 481.962Z" fill="#4D6AAF"/>
<path d="M1376.59 488.032V493.55H1371.07L1376.59 488.032Z" fill="#D34F50"/>
<path d="M1359.48 481.962V476.444H1365L1359.48 481.962Z" fill="#4D6AAF"/>
<path d="M1410.69 488.032V493.55H1405.28L1410.69 488.032Z" fill="#D34F50"/>
<path d="M1393.59 481.962V476.444H1399.1L1393.59 481.962Z" fill="#4D6AAF"/>
<path d="M1444.79 488.032V493.55H1439.39L1444.79 488.032Z" fill="#D34F50"/>
<path d="M1427.8 481.962V476.444H1433.21L1427.8 481.962Z" fill="#4D6AAF"/>
<path d="M1308.27 453.93V459.448H1302.87L1308.27 453.93Z" fill="#D34F50"/>
<path d="M1291.17 447.749V442.341H1296.68L1291.17 447.749Z" fill="#4D6AAF"/>
<path d="M1342.38 453.93V459.448H1336.97L1342.38 453.93Z" fill="#D34F50"/>
<path d="M1325.38 447.749V442.341H1330.79L1325.38 447.749Z" fill="#4D6AAF"/>
<path d="M1308.27 419.827V425.235H1302.87L1308.27 419.827Z" fill="#D34F50"/>
<path d="M1291.17 413.646V408.239H1296.68L1291.17 413.646Z" fill="#4D6AAF"/>
<path d="M1342.38 419.827V425.235H1336.97L1342.38 419.827Z" fill="#D34F50"/>
<path d="M1325.38 413.646V408.239H1330.79L1325.38 413.646Z" fill="#4D6AAF"/>
<path d="M1376.59 453.93V459.448H1371.07L1376.59 453.93Z" fill="#D34F50"/>
<path d="M1359.48 447.749V442.341H1365L1359.48 447.749Z" fill="#4D6AAF"/>
<path d="M1410.69 453.93V459.448H1405.28L1410.69 453.93Z" fill="#D34F50"/>
<path d="M1393.59 447.749V442.341H1399.1L1393.59 447.749Z" fill="#4D6AAF"/>
<path d="M1376.59 419.827V425.235H1371.07L1376.59 419.827Z" fill="#D34F50"/>
<path d="M1359.48 413.646V408.239H1365L1359.48 413.646Z" fill="#4D6AAF"/>
<path d="M1410.69 419.827V425.235H1405.28L1410.69 419.827Z" fill="#D34F50"/>
<path d="M1393.59 413.646V408.239H1399.1L1393.59 413.646Z" fill="#4D6AAF"/>
<path d="M1444.79 453.93V459.448H1439.39L1444.79 453.93Z" fill="#D34F50"/>
<path d="M1427.8 447.749V442.341H1433.21L1427.8 447.749Z" fill="#4D6AAF"/>
<path d="M1444.79 419.827V425.235H1439.39L1444.79 419.827Z" fill="#D34F50"/>
<path d="M1427.8 413.646V408.239H1433.21L1427.8 413.646Z" fill="#4D6AAF"/>
<path d="M1102.44 385.614V391.132H1096.93L1102.44 385.614Z" fill="#D34F50"/>
<path d="M1085.34 379.544V374.026H1090.74L1085.34 379.544Z" fill="#4D6AAF"/>
<path d="M1136.55 385.614V391.132H1131.03L1136.55 385.614Z" fill="#D34F50"/>
<path d="M1119.44 379.544V374.026H1124.96L1119.44 379.544Z" fill="#4D6AAF"/>
<path d="M1102.44 351.511V357.029H1096.93L1102.44 351.511Z" fill="#D34F50"/>
<path d="M1085.34 345.331V339.923H1090.74L1085.34 345.331Z" fill="#4D6AAF"/>
<path d="M1136.55 351.511V357.029H1131.03L1136.55 351.511Z" fill="#D34F50"/>
<path d="M1119.44 345.331V339.923H1124.96L1119.44 345.331Z" fill="#4D6AAF"/>
<path d="M1170.65 385.614V391.132H1165.24L1170.65 385.614Z" fill="#D34F50"/>
<path d="M1153.65 379.544V374.026H1159.06L1153.65 379.544Z" fill="#4D6AAF"/>
<path d="M1204.86 385.614V391.132H1199.34L1204.86 385.614Z" fill="#D34F50"/>
<path d="M1187.76 379.544V374.026H1193.16L1187.76 379.544Z" fill="#4D6AAF"/>
<path d="M1170.65 351.511V357.029H1165.24L1170.65 351.511Z" fill="#D34F50"/>
<path d="M1153.65 345.331V339.923H1159.06L1153.65 345.331Z" fill="#4D6AAF"/>
<path d="M1204.86 351.511V357.029H1199.34L1204.86 351.511Z" fill="#D34F50"/>
<path d="M1187.76 345.331V339.923H1193.16L1187.76 345.331Z" fill="#4D6AAF"/>
<path d="M1238.96 385.614V391.132H1233.45L1238.96 385.614Z" fill="#D34F50"/>
<path d="M1221.86 379.544V374.026H1227.38L1221.86 379.544Z" fill="#4D6AAF"/>
<path d="M1273.07 385.614V391.132H1267.66L1273.07 385.614Z" fill="#D34F50"/>
<path d="M1256.07 379.544V374.026H1261.48L1256.07 379.544Z" fill="#4D6AAF"/>
<path d="M1238.96 351.511V357.029H1233.45L1238.96 351.511Z" fill="#D34F50"/>
<path d="M1221.86 345.331V339.923H1227.38L1221.86 345.331Z" fill="#4D6AAF"/>
<path d="M1273.07 351.511V357.029H1267.66L1273.07 351.511Z" fill="#D34F50"/>
<path d="M1256.07 345.331V339.923H1261.48L1256.07 345.331Z" fill="#4D6AAF"/>
<path d="M1307.28 385.614V391.132H1301.76L1307.28 385.614Z" fill="#D34F50"/>
<path d="M1290.17 379.544V374.026H1295.58L1290.17 379.544Z" fill="#4D6AAF"/>
<path d="M1341.38 385.614V391.132H1335.86L1341.38 385.614Z" fill="#D34F50"/>
<path d="M1324.28 379.544V374.026H1329.79L1324.28 379.544Z" fill="#4D6AAF"/>
<path d="M1307.28 351.511V357.029H1301.76L1307.28 351.511Z" fill="#D34F50"/>
<path d="M1290.17 345.331V339.923H1295.58L1290.17 345.331Z" fill="#4D6AAF"/>
<path d="M1341.38 351.511V357.029H1335.86L1341.38 351.511Z" fill="#D34F50"/>
<path d="M1324.28 345.331V339.923H1329.79L1324.28 345.331Z" fill="#4D6AAF"/>
<path d="M1375.49 385.614V391.132H1370.08L1375.49 385.614Z" fill="#D34F50"/>
<path d="M1358.49 379.544V374.026H1363.9L1358.49 379.544Z" fill="#4D6AAF"/>
<path d="M1409.7 385.614V391.132H1404.18L1409.7 385.614Z" fill="#D34F50"/>
<path d="M1392.59 379.544V374.026H1398L1392.59 379.544Z" fill="#4D6AAF"/>
<path d="M1375.49 351.511V357.029H1370.08L1375.49 351.511Z" fill="#D34F50"/>
<path d="M1358.49 345.331V339.923H1363.9L1358.49 345.331Z" fill="#4D6AAF"/>
<path d="M1409.7 351.511V357.029H1404.18L1409.7 351.511Z" fill="#D34F50"/>
<path d="M1392.59 345.331V339.923H1398L1392.59 345.331Z" fill="#4D6AAF"/>
<path d="M1443.8 385.614V391.132H1438.28L1443.8 385.614Z" fill="#D34F50"/>
<path d="M1426.69 379.544V374.026H1432.21L1426.69 379.544Z" fill="#4D6AAF"/>
<path d="M1443.8 351.511V357.029H1438.28L1443.8 351.511Z" fill="#D34F50"/>
<path d="M1426.69 345.331V339.923H1432.21L1426.69 345.331Z" fill="#4D6AAF"/>
</g>
</svg>
