<svg width="69" height="69" viewBox="0 0 69 69" fill="none" xmlns="http://www.w3.org/2000/svg">
<g clip-path="url(#clip0)">
<path d="M34.5007 68.9994C53.5543 68.9994 69.0004 53.5533 69.0004 34.4997C69.0004 15.446 53.5543 0 34.5007 0C15.447 0 0.000976562 15.446 0.000976562 34.4997C0.000976562 53.5533 15.447 68.9994 34.5007 68.9994Z" fill="#55ACEE"/>
<path d="M55.633 24.7938C54.1545 25.4494 52.5642 25.8928 50.8963 26.0908C52.5992 25.0706 53.9061 23.4562 54.5229 21.5294C52.9295 22.4747 51.1638 23.1604 49.2863 23.53C47.782 21.928 45.6388 20.9268 43.2655 20.9268C38.7121 20.9268 35.0191 24.6198 35.0191 29.1732C35.0191 29.8195 35.0923 30.4486 35.2338 31.0526C28.3803 30.7088 22.3036 27.426 18.2361 22.4353C17.5264 23.653 17.1192 25.0706 17.1192 26.5816C17.1192 29.4419 18.5762 31.9671 20.7877 33.4455C19.4365 33.4031 18.1641 33.0322 17.0528 32.4129C17.0522 32.448 17.0522 32.483 17.0522 32.5175C17.0522 36.5131 19.8959 39.8457 23.6677 40.6027C22.9764 40.7922 22.2464 40.8924 21.4955 40.8924C20.9629 40.8924 20.447 40.8414 19.9439 40.7454C20.9931 44.0208 24.0379 46.4052 27.6473 46.4722C24.8244 48.6843 21.2692 50.0022 17.4046 50.0022C16.7404 50.0022 16.0824 49.9635 15.4385 49.8866C19.086 52.2273 23.4217 53.5919 28.0784 53.5919C43.2465 53.5919 51.5414 41.0265 51.5414 30.1282C51.5414 29.7709 51.5335 29.4148 51.5175 29.0618C53.13 27.8995 54.5278 26.4475 55.633 24.7938Z" fill="#F1F2F2"/>
</g>
<defs>
<clipPath id="clip0">
<rect width="69" height="69" fill="white"/>
</clipPath>
</defs>
</svg>
