<svg width="69" height="69" viewBox="0 0 69 69" fill="none" xmlns="http://www.w3.org/2000/svg">
<path d="M34.5 69C53.5538 69 69 53.5538 69 34.5C69 15.4462 53.5538 0 34.5 0C15.4462 0 0 15.4462 0 34.5C0 53.5538 15.4462 69 34.5 69Z" fill="#4D76A1"/>
<path fill-rule="evenodd" clip-rule="evenodd" d="M33.1973 49.6314H35.9051C35.9051 49.6314 36.7231 49.5416 37.1406 49.0915C37.525 48.6782 37.5127 47.9021 37.5127 47.9021C37.5127 47.9021 37.4598 44.2687 39.1462 43.7336C40.8085 43.2066 42.9431 47.2452 45.2057 48.7981C46.9166 49.9734 48.2167 49.7157 48.2167 49.7157L54.2664 49.6314C54.2664 49.6314 57.4312 49.4365 55.9306 46.9482C55.8076 46.7446 55.0567 45.1075 51.4325 41.7435C47.6392 38.2226 48.1472 38.7921 52.7166 32.7018C55.4995 28.9928 56.612 26.7284 56.2645 25.7585C55.9331 24.8348 53.8864 25.079 53.8864 25.079L47.0747 25.1214C47.0747 25.1214 46.5698 25.0525 46.1952 25.2764C45.8293 25.4959 45.5938 26.0076 45.5938 26.0076C45.5938 26.0076 44.5157 28.8778 43.0778 31.3187C40.0447 36.4693 38.8319 36.7411 38.3362 36.4213C37.1831 35.676 37.4709 33.4269 37.4709 31.8292C37.4709 26.8379 38.228 24.7567 35.9968 24.218C35.2563 24.039 34.7114 23.9209 32.8179 23.9019C30.3874 23.8767 28.3302 23.9092 27.1654 24.48C26.3905 24.8594 25.7928 25.705 26.1568 25.7536C26.607 25.8139 27.6267 26.0285 28.1673 26.7647C28.8653 27.7142 28.8407 29.847 28.8407 29.847C28.8407 29.847 29.2417 35.7227 27.904 36.4527C26.9859 36.9533 25.7263 35.9312 23.0222 31.2584C21.6366 28.8649 20.5905 26.2192 20.5905 26.2192C20.5905 26.2192 20.3888 25.7247 20.029 25.4603C19.5924 25.1399 18.9823 25.0378 18.9823 25.0378L12.5095 25.0802C12.5095 25.0802 11.5378 25.1073 11.1811 25.5298C10.8638 25.9055 11.1559 26.6829 11.1559 26.6829C11.1559 26.6829 16.2234 38.5388 21.9613 44.5134C27.2226 49.9912 33.1973 49.6314 33.1973 49.6314Z" fill="white"/>
</svg>
